<?xml version="1.0" encoding="UTF-8" standalone="no"?>
<!-- Created with Inkscape (http://www.inkscape.org/) -->

<svg
   xmlns:dc="http://purl.org/dc/elements/1.1/"
   xmlns:cc="http://creativecommons.org/ns#"
   xmlns:rdf="http://www.w3.org/1999/02/22-rdf-syntax-ns#"
   xmlns:svg="http://www.w3.org/2000/svg"
   xmlns="http://www.w3.org/2000/svg"
   xmlns:sodipodi="http://sodipodi.sourceforge.net/DTD/sodipodi-0.dtd"
   xmlns:inkscape="http://www.inkscape.org/namespaces/inkscape"
   width="22.650291mm"
   height="21.627592mm"
   viewBox="0 0 80.256939 76.633198"
   id="svg6362"
   version="1.1"
   inkscape:version="0.91 r13725"
   sodipodi:docname="angles2.svg">
  <defs
     id="defs6364" />
  <sodipodi:namedview
     id="base"
     pagecolor="#ffffff"
     bordercolor="#666666"
     borderopacity="1.0"
     inkscape:pageopacity="0.0"
     inkscape:pageshadow="2"
     inkscape:zoom="5.6"
     inkscape:cx="7.4437739"
     inkscape:cy="28.465959"
     inkscape:document-units="px"
     inkscape:current-layer="layer1"
     showgrid="false"
     inkscape:window-width="1600"
     inkscape:window-height="900"
     inkscape:window-x="0"
     inkscape:window-y="0"
     inkscape:window-maximized="0"
     fit-margin-top="0"
     fit-margin-left="0"
     fit-margin-right="0"
     fit-margin-bottom="0" />
  <metadata
     id="metadata6367">
    <rdf:RDF>
      <cc:Work
         rdf:about="">
        <dc:format>image/svg+xml</dc:format>
        <dc:type
           rdf:resource="http://purl.org/dc/dcmitype/StillImage" />
        <dc:title></dc:title>
      </cc:Work>
    </rdf:RDF>
  </metadata>
  <g
     inkscape:label="Calque 1"
     inkscape:groupmode="layer"
     id="layer1"
     transform="translate(-389.03334,-242.82051)">
    <g
       id="g7492"
       transform="translate(59.527396,127.5018)">
      <path
         d="m 408.6995,165.39466 c 0,1.75125 -1.4275,3.17125 -3.1887,3.17125 -1.76,0 -3.1888,-1.42 -3.1888,-3.17125 0,-1.75125 1.4288,-3.17125 3.1888,-3.17125 1.7612,0 3.1887,1.42 3.1887,3.17125"
         style="fill:#000000;fill-opacity:1;fill-rule:nonzero;stroke:none"
         id="path390"
         inkscape:connector-curvature="0" />
      <g
         id="g392"
         transform="matrix(0.1253525,0,0,0.12464737,2.28829,713.68966)">
        <path
           d="m 3242.15,-4398.77 c 0,14.05 -11.4,25.44 -25.44,25.44 -14.05,0 -25.44,-11.39 -25.44,-25.44 0,-14.05 11.39,-25.44 25.44,-25.44 14.04,0 25.44,11.39 25.44,25.44"
           style="fill:none;stroke:#000000;stroke-width:4.23999977;stroke-linecap:butt;stroke-linejoin:miter;stroke-miterlimit:10;stroke-dasharray:none;stroke-opacity:1"
           id="path394"
           inkscape:connector-curvature="0" />
      </g>
      <path
         d="m 336.9483,187.59216 c 0,1.75125 -1.4288,3.17125 -3.1888,3.17125 -1.7612,0 -3.19,-1.42 -3.19,-3.17125 0,-1.75125 1.4288,-3.17125 3.19,-3.17125 1.76,0 3.1888,1.42 3.1888,3.17125"
         style="fill:#000000;fill-opacity:1;fill-rule:nonzero;stroke:none"
         id="path402"
         inkscape:connector-curvature="0" />
      <g
         id="g404"
         transform="matrix(0.1253525,0,0,0.12464737,2.28829,713.68966)">
        <path
           d="m 2669.74,-4220.69 c 0,14.05 -11.39,25.44 -25.44,25.44 -14.04,0 -25.44,-11.39 -25.44,-25.44 0,-14.05 11.4,-25.44 25.44,-25.44 14.05,0 25.44,11.39 25.44,25.44"
           style="fill:none;stroke:#000000;stroke-width:4.23999977;stroke-linecap:butt;stroke-linejoin:miter;stroke-miterlimit:10;stroke-dasharray:none;stroke-opacity:1"
           id="path406"
           inkscape:connector-curvature="0" />
      </g>
      <g
         id="g432"
         transform="matrix(0.1253525,0,0,0.12464737,2.28829,713.68966)">
        <path
           d="m 2640.06,-4780.37 585.13,0"
           style="fill:none;stroke:#000000;stroke-width:4.23999977;stroke-linecap:butt;stroke-linejoin:miter;stroke-miterlimit:10;stroke-dasharray:none;stroke-opacity:1"
           id="path434"
           inkscape:connector-curvature="0" />
      </g>
      <g
         id="g436"
         transform="matrix(0.1253525,0,0,0.12464737,2.28829,713.68966)">
        <path
           d="m 2640.06,-4589.57 585.13,0"
           style="fill:none;stroke:#000000;stroke-width:4.23999977;stroke-linecap:butt;stroke-linejoin:miter;stroke-miterlimit:10;stroke-dasharray:none;stroke-opacity:1"
           id="path438"
           inkscape:connector-curvature="0" />
      </g>
      <g
         id="g440"
         transform="matrix(0.1253525,0,0,0.12464737,2.28829,713.68966)">
        <path
           d="m 2640.06,-4207.97 585.13,0"
           style="fill:none;stroke:#000000;stroke-width:4.23999977;stroke-linecap:butt;stroke-linejoin:miter;stroke-miterlimit:10;stroke-dasharray:none;stroke-opacity:1"
           id="path442"
           inkscape:connector-curvature="0" />
      </g>
      <g
         id="g444"
         transform="matrix(0.1253525,0,0,0.12464737,2.28829,713.68966)">
        <path
           d="m 2640.06,-4398.77 585.13,0"
           style="fill:none;stroke:#000000;stroke-width:4.23999977;stroke-linecap:butt;stroke-linejoin:miter;stroke-miterlimit:10;stroke-dasharray:none;stroke-opacity:1"
           id="path446"
           inkscape:connector-curvature="0" />
      </g>
      <g
         id="g448"
         transform="matrix(0.1253525,0,0,0.12464737,2.28829,713.68966)">
        <path
           d="m 2640.06,-4207.97 0,-571.9509"
           style="fill:none;stroke:#000000;stroke-width:4.23999977;stroke-linecap:butt;stroke-linejoin:miter;stroke-miterlimit:10;stroke-dasharray:none;stroke-opacity:1"
           id="path450"
           inkscape:connector-curvature="0"
           sodipodi:nodetypes="cc" />
      </g>
      <g
         id="g452"
         transform="matrix(0.1253525,0,0,0.12464737,2.28829,713.68966)">
        <path
           d="m 2830.86,-4207.97 0,-571.9509"
           style="fill:none;stroke:#000000;stroke-width:4.23999977;stroke-linecap:butt;stroke-linejoin:miter;stroke-miterlimit:10;stroke-dasharray:none;stroke-opacity:1"
           id="path454"
           inkscape:connector-curvature="0"
           sodipodi:nodetypes="cc" />
      </g>
      <g
         id="g456"
         transform="matrix(0.1253525,0,0,0.12464737,2.28829,713.68966)">
        <path
           d="m 3021.67,-4207.97 0,-571.9509"
           style="fill:none;stroke:#000000;stroke-width:4.23999977;stroke-linecap:butt;stroke-linejoin:miter;stroke-miterlimit:10;stroke-dasharray:none;stroke-opacity:1"
           id="path458"
           inkscape:connector-curvature="0"
           sodipodi:nodetypes="cc" />
      </g>
      <g
         id="g460"
         transform="matrix(0.1253525,0,0,0.12464737,2.28829,713.68966)">
        <path
           d="m 3225.19,-4207.97 0,-571.9509"
           style="fill:none;stroke:#000000;stroke-width:4.23999977;stroke-linecap:butt;stroke-linejoin:miter;stroke-miterlimit:10;stroke-dasharray:none;stroke-opacity:1"
           id="path462"
           inkscape:connector-curvature="0"
           sodipodi:nodetypes="cc" />
      </g>
      <g
         id="g528"
         transform="matrix(0.1253525,0,0,0.12464737,2.28829,713.68966)">
        <path
           d="m 2640.06,-4220.69 572.4,-178.08"
           style="fill:none;stroke:#000000;stroke-width:8.48001003;stroke-linecap:butt;stroke-linejoin:miter;stroke-miterlimit:10;stroke-dasharray:none;stroke-opacity:1"
           id="path530"
           inkscape:connector-curvature="0" />
      </g>
    </g>
  </g>
</svg>
