<?xml version="1.0" encoding="UTF-8" standalone="no"?>
<!-- Created with Inkscape (http://www.inkscape.org/) -->

<svg
   xmlns:dc="http://purl.org/dc/elements/1.1/"
   xmlns:cc="http://creativecommons.org/ns#"
   xmlns:rdf="http://www.w3.org/1999/02/22-rdf-syntax-ns#"
   xmlns:svg="http://www.w3.org/2000/svg"
   xmlns="http://www.w3.org/2000/svg"
   xmlns:sodipodi="http://sodipodi.sourceforge.net/DTD/sodipodi-0.dtd"
   xmlns:inkscape="http://www.inkscape.org/namespaces/inkscape"
   width="22.650291mm"
   height="21.627592mm"
   viewBox="0 0 80.256939 76.633198"
   id="svg6362"
   version="1.1"
   inkscape:version="0.91 r13725"
   sodipodi:docname="angles5.svg">
  <defs
     id="defs6364" />
  <sodipodi:namedview
     id="base"
     pagecolor="#ffffff"
     bordercolor="#666666"
     borderopacity="1.0"
     inkscape:pageopacity="0.0"
     inkscape:pageshadow="2"
     inkscape:zoom="1.979899"
     inkscape:cx="27.410672"
     inkscape:cy="6.4928376"
     inkscape:document-units="px"
     inkscape:current-layer="layer1"
     showgrid="false"
     inkscape:window-width="1600"
     inkscape:window-height="900"
     inkscape:window-x="0"
     inkscape:window-y="0"
     inkscape:window-maximized="0"
     fit-margin-top="0"
     fit-margin-left="0"
     fit-margin-right="0"
     fit-margin-bottom="0" />
  <metadata
     id="metadata6367">
    <rdf:RDF>
      <cc:Work
         rdf:about="">
        <dc:format>image/svg+xml</dc:format>
        <dc:type
           rdf:resource="http://purl.org/dc/dcmitype/StillImage" />
        <dc:title></dc:title>
      </cc:Work>
    </rdf:RDF>
  </metadata>
  <g
     inkscape:label="Calque 1"
     inkscape:groupmode="layer"
     id="layer1"
     transform="translate(-389.03334,-242.82051)">
    <g
       id="g7544">
      <path
         d="m 395.67807,316.01841 c 0,1.75125 -1.4288,3.17125 -3.1888,3.17125 -1.7612,0 -3.1887,-1.42 -3.1887,-3.17125 0,-1.75125 1.4275,-3.17 3.1887,-3.17 1.76,0 3.1888,1.41875 3.1888,3.17"
         style="fill:#000000;fill-opacity:1;fill-rule:nonzero;stroke:none"
         id="path290"
         inkscape:connector-curvature="0" />
      <g
         id="g292"
         transform="matrix(0.1253525,0,0,0.12464737,0.4280589,713.68966)">
        <path
           d="m 3153.1,-3190.37 c 0,14.05 -11.39,25.44 -25.44,25.44 -14.04,0 -25.44,-11.39 -25.44,-25.44 0,-14.05 11.4,-25.44 25.44,-25.44 14.05,0 25.44,11.39 25.44,25.44"
           style="fill:none;stroke:#000000;stroke-width:4.23999977;stroke-linecap:butt;stroke-linejoin:miter;stroke-miterlimit:10;stroke-dasharray:none;stroke-opacity:1"
           id="path294"
           inkscape:connector-curvature="0" />
      </g>
      <path
         d="m 419.06427,293.29341 c 0,1.75125 -1.4287,3.17125 -3.19,3.17125 -1.76,0 -3.1887,-1.42 -3.1887,-3.17125 0,-1.75125 1.4287,-3.17125 3.1887,-3.17125 1.7613,0 3.19,1.42 3.19,3.17125"
         style="fill:#000000;fill-opacity:1;fill-rule:nonzero;stroke:none"
         id="path302"
         inkscape:connector-curvature="0" />
      <g
         id="g304"
         transform="matrix(0.1253525,0,0,0.12464737,0.4280589,713.68966)">
        <path
           d="m 3339.66,-3372.69 c 0,14.05 -11.39,25.44 -25.44,25.44 -14.04,0 -25.44,-11.39 -25.44,-25.44 0,-14.05 11.4,-25.44 25.44,-25.44 14.05,0 25.44,11.39 25.44,25.44"
           style="fill:none;stroke:#000000;stroke-width:4.23999977;stroke-linecap:butt;stroke-linejoin:miter;stroke-miterlimit:10;stroke-dasharray:none;stroke-opacity:1"
           id="path306"
           inkscape:connector-curvature="0" />
      </g>
      <path
         d="m 442.98177,269.51091 c 0,1.75 -1.4287,3.17 -3.19,3.17 -1.76,0 -3.1887,-1.42 -3.1887,-3.17 0,-1.75125 1.4287,-3.17125 3.1887,-3.17125 1.7613,0 3.19,1.42 3.19,3.17125"
         style="fill:#000000;fill-opacity:1;fill-rule:nonzero;stroke:none"
         id="path308"
         inkscape:connector-curvature="0" />
      <g
         id="g310"
         transform="matrix(0.1253525,0,0,0.12464737,0.4280589,713.68966)">
        <path
           d="m 3530.46,-3563.49 c 0,14.05 -11.39,25.44 -25.44,25.44 -14.04,0 -25.44,-11.39 -25.44,-25.44 0,-14.05 11.4,-25.44 25.44,-25.44 14.05,0 25.44,11.39 25.44,25.44"
           style="fill:none;stroke:#000000;stroke-width:4.23999977;stroke-linecap:butt;stroke-linejoin:miter;stroke-miterlimit:10;stroke-dasharray:none;stroke-opacity:1"
           id="path312"
           inkscape:connector-curvature="0" />
      </g>
      <path
         d="m 469.02427,246.25591 c 0,1.75125 -1.4275,3.17125 -3.1887,3.17125 -1.76,0 -3.1888,-1.42 -3.1888,-3.17125 0,-1.75125 1.4288,-3.17125 3.1888,-3.17125 1.7612,0 3.1887,1.42 3.1887,3.17125"
         style="fill:#000000;fill-opacity:1;fill-rule:nonzero;stroke:none"
         id="path314"
         inkscape:connector-curvature="0" />
      <g
         id="g316"
         transform="matrix(0.1253525,0,0,0.12464737,0.4280589,713.68966)">
        <path
           d="m 3738.23,-3750.05 c 0,14.05 -11.4,25.44 -25.44,25.44 -14.05,0 -25.44,-11.39 -25.44,-25.44 0,-14.05 11.39,-25.44 25.44,-25.44 14.04,0 25.44,11.39 25.44,25.44"
           style="fill:none;stroke:#000000;stroke-width:4.23999977;stroke-linecap:butt;stroke-linejoin:miter;stroke-miterlimit:10;stroke-dasharray:none;stroke-opacity:1"
           id="path318"
           inkscape:connector-curvature="0" />
      </g>
      <g
         id="g352"
         transform="matrix(0.1253525,0,0,0.12464737,0.4280589,713.68966)">
        <path
           d="m 3123.43,-3750.05 585.11,0"
           style="fill:none;stroke:#000000;stroke-width:4.23999977;stroke-linecap:butt;stroke-linejoin:miter;stroke-miterlimit:10;stroke-dasharray:none;stroke-opacity:1"
           id="path354"
           inkscape:connector-curvature="0" />
      </g>
      <g
         id="g356"
         transform="matrix(0.1253525,0,0,0.12464737,0.4280589,713.68966)">
        <path
           d="m 3123.43,-3559.25 585.11,0"
           style="fill:none;stroke:#000000;stroke-width:4.23999977;stroke-linecap:butt;stroke-linejoin:miter;stroke-miterlimit:10;stroke-dasharray:none;stroke-opacity:1"
           id="path358"
           inkscape:connector-curvature="0" />
      </g>
      <g
         id="g360"
         transform="matrix(0.1253525,0,0,0.12464737,0.4280589,713.68966)">
        <path
           d="m 3123.43,-3177.65 585.11,0"
           style="fill:none;stroke:#000000;stroke-width:4.23999977;stroke-linecap:butt;stroke-linejoin:miter;stroke-miterlimit:10;stroke-dasharray:none;stroke-opacity:1"
           id="path362"
           inkscape:connector-curvature="0" />
      </g>
      <g
         id="g364"
         transform="matrix(0.1253525,0,0,0.12464737,0.4280589,713.68966)">
        <path
           d="m 3123.43,-3368.45 585.11,0"
           style="fill:none;stroke:#000000;stroke-width:4.23999977;stroke-linecap:butt;stroke-linejoin:miter;stroke-miterlimit:10;stroke-dasharray:none;stroke-opacity:1"
           id="path366"
           inkscape:connector-curvature="0" />
      </g>
      <g
         id="g368"
         transform="matrix(0.1253525,0,0,0.12464737,0.4280589,713.68966)">
        <path
           d="m 3123.43,-3177.65 0,-585.12"
           style="fill:none;stroke:#000000;stroke-width:4.23999977;stroke-linecap:butt;stroke-linejoin:miter;stroke-miterlimit:10;stroke-dasharray:none;stroke-opacity:1"
           id="path370"
           inkscape:connector-curvature="0" />
      </g>
      <g
         id="g372"
         transform="matrix(0.1253525,0,0,0.12464737,0.4280589,713.68966)">
        <path
           d="m 3314.22,-3177.65 0,-585.12"
           style="fill:none;stroke:#000000;stroke-width:4.23999977;stroke-linecap:butt;stroke-linejoin:miter;stroke-miterlimit:10;stroke-dasharray:none;stroke-opacity:1"
           id="path374"
           inkscape:connector-curvature="0" />
      </g>
      <g
         id="g376"
         transform="matrix(0.1253525,0,0,0.12464737,0.4280589,713.68966)">
        <path
           d="m 3505.02,-3177.65 0,-585.12"
           style="fill:none;stroke:#000000;stroke-width:4.23999977;stroke-linecap:butt;stroke-linejoin:miter;stroke-miterlimit:10;stroke-dasharray:none;stroke-opacity:1"
           id="path378"
           inkscape:connector-curvature="0" />
      </g>
      <g
         id="g380"
         transform="matrix(0.1253525,0,0,0.12464737,0.4280589,713.68966)">
        <path
           d="m 3708.54,-3177.65 0,-585.12"
           style="fill:none;stroke:#000000;stroke-width:4.23999977;stroke-linecap:butt;stroke-linejoin:miter;stroke-miterlimit:10;stroke-dasharray:none;stroke-opacity:1"
           id="path382"
           inkscape:connector-curvature="0" />
      </g>
      <g
         id="g540"
         transform="matrix(0.1253525,0,0,0.12464737,0.4280589,713.68966)">
        <path
           d="m 3123.43,-3186.13 585.11,-568.16"
           style="fill:none;stroke:#000000;stroke-width:8.48001003;stroke-linecap:butt;stroke-linejoin:miter;stroke-miterlimit:10;stroke-dasharray:none;stroke-opacity:1"
           id="path542"
           inkscape:connector-curvature="0" />
      </g>
    </g>
  </g>
</svg>
