<?xml version="1.0" encoding="UTF-8" standalone="no"?>
<!-- Created with Inkscape (http://www.inkscape.org/) -->

<svg
   xmlns:dc="http://purl.org/dc/elements/1.1/"
   xmlns:cc="http://creativecommons.org/ns#"
   xmlns:rdf="http://www.w3.org/1999/02/22-rdf-syntax-ns#"
   xmlns:svg="http://www.w3.org/2000/svg"
   xmlns="http://www.w3.org/2000/svg"
   xmlns:sodipodi="http://sodipodi.sourceforge.net/DTD/sodipodi-0.dtd"
   xmlns:inkscape="http://www.inkscape.org/namespaces/inkscape"
   width="22.650291mm"
   height="21.627592mm"
   viewBox="0 0 80.256939 76.633198"
   id="svg6362"
   version="1.1"
   inkscape:version="0.91 r13725"
   sodipodi:docname="angles1.svg">
  <defs
     id="defs6364" />
  <sodipodi:namedview
     id="base"
     pagecolor="#ffffff"
     bordercolor="#666666"
     borderopacity="1.0"
     inkscape:pageopacity="0.0"
     inkscape:pageshadow="2"
     inkscape:zoom="22.4"
     inkscape:cx="62.00743"
     inkscape:cy="73.002252"
     inkscape:document-units="px"
     inkscape:current-layer="layer1"
     showgrid="false"
     inkscape:window-width="1600"
     inkscape:window-height="900"
     inkscape:window-x="0"
     inkscape:window-y="0"
     inkscape:window-maximized="0"
     fit-margin-top="0"
     fit-margin-left="0"
     fit-margin-right="0"
     fit-margin-bottom="0" />
  <metadata
     id="metadata6367">
    <rdf:RDF>
      <cc:Work
         rdf:about="">
        <dc:format>image/svg+xml</dc:format>
        <dc:type
           rdf:resource="http://purl.org/dc/dcmitype/StillImage" />
        <dc:title></dc:title>
      </cc:Work>
    </rdf:RDF>
  </metadata>
  <g
     inkscape:label="Calque 1"
     inkscape:groupmode="layer"
     id="layer1"
     transform="translate(-389.03334,-242.82051)">
    <g
       id="g7460"
       transform="translate(163.16884,127.5018)">
      <path
         d="m 255.62954,187.59216 c 0,1.75125 -1.42875,3.17125 -3.19,3.17125 -1.76,0 -3.18875,-1.42 -3.18875,-3.17125 0,-1.75125 1.42875,-3.17125 3.18875,-3.17125 1.76125,0 3.19,1.42 3.19,3.17125"
         style="fill:#000000;fill-opacity:1;fill-rule:nonzero;stroke:none"
         id="path408"
         inkscape:connector-curvature="0" />
      <g
         id="g410"
         transform="matrix(0.1253525,0,0,0.12464737,2.28829,713.68966)">
        <path
           d="m 2021.02,-4220.69 c 0,14.05 -11.39,25.44 -25.44,25.44 -14.04,0 -25.44,-11.39 -25.44,-25.44 0,-14.05 11.4,-25.44 25.44,-25.44 14.05,0 25.44,11.39 25.44,25.44"
           style="fill:none;stroke:#000000;stroke-width:4.23999977;stroke-linecap:butt;stroke-linejoin:miter;stroke-miterlimit:10;stroke-dasharray:none;stroke-opacity:1"
           id="path412"
           inkscape:connector-curvature="0" />
      </g>
      <path
         d="m 281.14079,187.59216 c 0,1.75125 -1.42875,3.17125 -3.18875,3.17125 -1.76125,0 -3.18875,-1.42 -3.18875,-3.17125 0,-1.75125 1.4275,-3.17125 3.18875,-3.17125 1.76,0 3.18875,1.42 3.18875,3.17125"
         style="fill:#000000;fill-opacity:1;fill-rule:nonzero;stroke:none"
         id="path414"
         inkscape:connector-curvature="0" />
      <g
         id="g416"
         transform="matrix(0.1253525,0,0,0.12464737,2.28829,713.68966)">
        <path
           d="m 2224.54,-4220.69 c 0,14.05 -11.39,25.44 -25.44,25.44 -14.04,0 -25.44,-11.39 -25.44,-25.44 0,-14.05 11.4,-25.44 25.44,-25.44 14.05,0 25.44,11.39 25.44,25.44"
           style="fill:none;stroke:#000000;stroke-width:4.23999977;stroke-linecap:butt;stroke-linejoin:miter;stroke-miterlimit:10;stroke-dasharray:none;stroke-opacity:1"
           id="path418"
           inkscape:connector-curvature="0" />
      </g>
      <path
         d="m 305.05829,187.59216 c 0,1.75125 -1.42875,3.17125 -3.18875,3.17125 -1.76125,0 -3.18875,-1.42 -3.18875,-3.17125 0,-1.75125 1.4275,-3.17125 3.18875,-3.17125 1.76,0 3.18875,1.42 3.18875,3.17125"
         style="fill:#000000;fill-opacity:1;fill-rule:nonzero;stroke:none"
         id="path420"
         inkscape:connector-curvature="0" />
      <g
         id="g422"
         transform="matrix(0.1253525,0,0,0.12464737,2.28829,713.68966)">
        <path
           d="m 2415.35,-4220.69 c 0,14.05 -11.4,25.44 -25.44,25.44 -14.05,0 -25.44,-11.39 -25.44,-25.44 0,-14.05 11.39,-25.44 25.44,-25.44 14.04,0 25.44,11.39 25.44,25.44"
           style="fill:none;stroke:#000000;stroke-width:4.23999977;stroke-linecap:butt;stroke-linejoin:miter;stroke-miterlimit:10;stroke-dasharray:none;stroke-opacity:1"
           id="path424"
           inkscape:connector-curvature="0" />
      </g>
      <path
         d="m 233.30579,187.59216 c 0,1.75125 -1.4275,3.17125 -3.18875,3.17125 -1.76,0 -3.18875,-1.42 -3.18875,-3.17125 0,-1.75125 1.42875,-3.17125 3.18875,-3.17125 1.76125,0 3.18875,1.42 3.18875,3.17125"
         style="fill:#000000;fill-opacity:1;fill-rule:nonzero;stroke:none"
         id="path426"
         inkscape:connector-curvature="0" />
      <g
         id="g428"
         transform="matrix(0.1253525,0,0,0.12464737,2.28829,713.68966)">
        <path
           d="m 1842.94,-4220.69 c 0,14.05 -11.39,25.44 -25.44,25.44 -14.04,0 -25.44,-11.39 -25.44,-25.44 0,-14.05 11.4,-25.44 25.44,-25.44 14.05,0 25.44,11.39 25.44,25.44"
           style="fill:none;stroke:#000000;stroke-width:4.23999977;stroke-linecap:butt;stroke-linejoin:miter;stroke-miterlimit:10;stroke-dasharray:none;stroke-opacity:1"
           id="path430"
           inkscape:connector-curvature="0" />
      </g>
      <g
         id="g496"
         transform="matrix(0.1253525,0,0,0.12464737,2.28829,713.68966)">
        <path
           d="m 1813.26,-4780.37 585.13,0"
           style="fill:none;stroke:#000000;stroke-width:4.23999977;stroke-linecap:butt;stroke-linejoin:miter;stroke-miterlimit:10;stroke-dasharray:none;stroke-opacity:1"
           id="path498"
           inkscape:connector-curvature="0" />
      </g>
      <g
         id="g500"
         transform="matrix(0.1253525,0,0,0.12464737,2.28829,713.68966)">
        <path
           d="m 1813.26,-4589.57 585.13,0"
           style="fill:none;stroke:#000000;stroke-width:4.23999977;stroke-linecap:butt;stroke-linejoin:miter;stroke-miterlimit:10;stroke-dasharray:none;stroke-opacity:1"
           id="path502"
           inkscape:connector-curvature="0" />
      </g>
      <g
         id="g504"
         transform="matrix(0.1253525,0,0,0.12464737,2.28829,713.68966)">
        <path
           d="m 1813.26,-4207.97 585.13,0"
           style="fill:none;stroke:#000000;stroke-width:4.23999977;stroke-linecap:butt;stroke-linejoin:miter;stroke-miterlimit:10;stroke-dasharray:none;stroke-opacity:1"
           id="path506"
           inkscape:connector-curvature="0" />
      </g>
      <g
         id="g508"
         transform="matrix(0.1253525,0,0,0.12464737,2.28829,713.68966)">
        <path
           d="m 1813.26,-4398.77 585.13,0"
           style="fill:none;stroke:#000000;stroke-width:4.23999977;stroke-linecap:butt;stroke-linejoin:miter;stroke-miterlimit:10;stroke-dasharray:none;stroke-opacity:1"
           id="path510"
           inkscape:connector-curvature="0" />
      </g>
      <g
         id="g512"
         transform="matrix(0.1253525,0,0,0.12464737,2.28829,713.68966)">
        <path
           d="m 1813.26,-4207.97 0,-573.9769"
           style="fill:none;stroke:#000000;stroke-width:4.23999977;stroke-linecap:butt;stroke-linejoin:miter;stroke-miterlimit:10;stroke-dasharray:none;stroke-opacity:1"
           id="path514"
           inkscape:connector-curvature="0"
           sodipodi:nodetypes="cc" />
      </g>
      <g
         id="g516"
         transform="matrix(0.1253525,0,0,0.12464737,2.28829,713.68966)">
        <path
           d="m 2004.06,-4207.97 0,-573.9769"
           style="fill:none;stroke:#000000;stroke-width:4.23999977;stroke-linecap:butt;stroke-linejoin:miter;stroke-miterlimit:10;stroke-dasharray:none;stroke-opacity:1"
           id="path518"
           inkscape:connector-curvature="0"
           sodipodi:nodetypes="cc" />
      </g>
      <g
         id="g520"
         transform="matrix(0.1253525,0,0,0.12464737,2.28829,713.68966)">
        <path
           d="m 2194.86,-4207.97 0,-573.9769"
           style="fill:none;stroke:#000000;stroke-width:4.23999977;stroke-linecap:butt;stroke-linejoin:miter;stroke-miterlimit:10;stroke-dasharray:none;stroke-opacity:1"
           id="path522"
           inkscape:connector-curvature="0"
           sodipodi:nodetypes="cc" />
      </g>
      <g
         id="g524"
         transform="matrix(0.1253525,0,0,0.12464737,2.28829,713.68966)">
        <path
           d="m 2398.39,-4207.97 0,-573.9769"
           style="fill:none;stroke:#000000;stroke-width:4.23999977;stroke-linecap:butt;stroke-linejoin:miter;stroke-miterlimit:10;stroke-dasharray:none;stroke-opacity:1"
           id="path526"
           inkscape:connector-curvature="0"
           sodipodi:nodetypes="cc" />
      </g>
      <g
         id="g544"
         transform="matrix(0.1253525,0,0,0.12464737,2.28829,713.68966)">
        <path
           d="m 1813.26,-4212.21 559.69,0"
           style="fill:none;stroke:#000000;stroke-width:8.48001003;stroke-linecap:butt;stroke-linejoin:miter;stroke-miterlimit:10;stroke-dasharray:none;stroke-opacity:1"
           id="path546"
           inkscape:connector-curvature="0" />
      </g>
    </g>
  </g>
</svg>
