<?xml version="1.0" encoding="UTF-8" standalone="no"?>
<!-- Created with Inkscape (http://www.inkscape.org/) -->

<svg
   xmlns:dc="http://purl.org/dc/elements/1.1/"
   xmlns:cc="http://creativecommons.org/ns#"
   xmlns:rdf="http://www.w3.org/1999/02/22-rdf-syntax-ns#"
   xmlns:svg="http://www.w3.org/2000/svg"
   xmlns="http://www.w3.org/2000/svg"
   xmlns:sodipodi="http://sodipodi.sourceforge.net/DTD/sodipodi-0.dtd"
   xmlns:inkscape="http://www.inkscape.org/namespaces/inkscape"
   width="22.650291mm"
   height="21.627592mm"
   viewBox="0 0 80.256939 76.633198"
   id="svg6362"
   version="1.1"
   inkscape:version="0.91 r13725"
   sodipodi:docname="angles3.svg">
  <defs
     id="defs6364" />
  <sodipodi:namedview
     id="base"
     pagecolor="#ffffff"
     bordercolor="#666666"
     borderopacity="1.0"
     inkscape:pageopacity="0.0"
     inkscape:pageshadow="2"
     inkscape:zoom="11.2"
     inkscape:cx="44.570443"
     inkscape:cy="37.279278"
     inkscape:document-units="px"
     inkscape:current-layer="layer1"
     showgrid="false"
     inkscape:window-width="1600"
     inkscape:window-height="900"
     inkscape:window-x="0"
     inkscape:window-y="0"
     inkscape:window-maximized="0"
     fit-margin-top="0"
     fit-margin-left="0"
     fit-margin-right="0"
     fit-margin-bottom="0" />
  <metadata
     id="metadata6367">
    <rdf:RDF>
      <cc:Work
         rdf:about="">
        <dc:format>image/svg+xml</dc:format>
        <dc:type
           rdf:resource="http://purl.org/dc/dcmitype/StillImage" />
        <dc:title></dc:title>
      </cc:Work>
    </rdf:RDF>
  </metadata>
  <g
     inkscape:label="Calque 1"
     inkscape:groupmode="layer"
     id="layer1"
     transform="translate(-389.03334,-242.82051)">
    <g
       id="g7518"
       transform="translate(-43.051062,127.5018)">
      <path
         d="m 440.5895,187.59216 c 0,1.75125 -1.4287,3.17125 -3.1887,3.17125 -1.7613,0 -3.1888,-1.42 -3.1888,-3.17125 0,-1.75125 1.4275,-3.17125 3.1888,-3.17125 1.76,0 3.1887,1.42 3.1887,3.17125"
         style="fill:#000000;fill-opacity:1;fill-rule:nonzero;stroke:none"
         id="path384"
         inkscape:connector-curvature="0" />
      <g
         id="g386"
         transform="matrix(0.1253525,0,0,0.12464737,2.28829,713.68966)">
        <path
           d="m 3496.54,-4220.69 c 0,14.05 -11.39,25.44 -25.44,25.44 -14.04,0 -25.44,-11.39 -25.44,-25.44 0,-14.05 11.4,-25.44 25.44,-25.44 14.05,0 25.44,11.39 25.44,25.44"
           style="fill:none;stroke:#000000;stroke-width:4.23999977;stroke-linecap:butt;stroke-linejoin:miter;stroke-miterlimit:10;stroke-dasharray:none;stroke-opacity:1"
           id="path388"
           inkscape:connector-curvature="0" />
      </g>
      <path
         d="m 488.4245,163.80966 c 0,1.75 -1.4287,3.17 -3.19,3.17 -1.76,0 -3.1887,-1.42 -3.1887,-3.17 0,-1.75125 1.4287,-3.17125 3.1887,-3.17125 1.7613,0 3.19,1.42 3.19,3.17125"
         style="fill:#000000;fill-opacity:1;fill-rule:nonzero;stroke:none"
         id="path396"
         inkscape:connector-curvature="0" />
      <g
         id="g398"
         transform="matrix(0.1253525,0,0,0.12464737,2.28829,713.68966)">
        <path
           d="m 3878.14,-4411.49 c 0,14.05 -11.39,25.44 -25.44,25.44 -14.04,0 -25.44,-11.39 -25.44,-25.44 0,-14.05 11.4,-25.44 25.44,-25.44 14.05,0 25.44,11.39 25.44,25.44"
           style="fill:none;stroke:#000000;stroke-width:4.23999977;stroke-linecap:butt;stroke-linejoin:miter;stroke-miterlimit:10;stroke-dasharray:none;stroke-opacity:1"
           id="path400"
           inkscape:connector-curvature="0" />
      </g>
      <g
         id="g464"
         transform="matrix(0.1253525,0,0,0.12464737,2.28829,713.68966)">
        <path
           d="m 3466.87,-4780.37 585.12,0"
           style="fill:none;stroke:#000000;stroke-width:4.23999977;stroke-linecap:butt;stroke-linejoin:miter;stroke-miterlimit:10;stroke-dasharray:none;stroke-opacity:1"
           id="path466"
           inkscape:connector-curvature="0" />
      </g>
      <g
         id="g468"
         transform="matrix(0.1253525,0,0,0.12464737,2.28829,713.68966)">
        <path
           d="m 3466.87,-4589.57 585.12,0"
           style="fill:none;stroke:#000000;stroke-width:4.23999977;stroke-linecap:butt;stroke-linejoin:miter;stroke-miterlimit:10;stroke-dasharray:none;stroke-opacity:1"
           id="path470"
           inkscape:connector-curvature="0" />
      </g>
      <g
         id="g472"
         transform="matrix(0.1253525,0,0,0.12464737,2.28829,713.68966)">
        <path
           d="m 3466.87,-4207.97 585.12,0"
           style="fill:none;stroke:#000000;stroke-width:4.23999977;stroke-linecap:butt;stroke-linejoin:miter;stroke-miterlimit:10;stroke-dasharray:none;stroke-opacity:1"
           id="path474"
           inkscape:connector-curvature="0" />
      </g>
      <g
         id="g476"
         transform="matrix(0.1253525,0,0,0.12464737,2.28829,713.68966)">
        <path
           d="m 3466.87,-4398.77 585.12,0"
           style="fill:none;stroke:#000000;stroke-width:4.23999977;stroke-linecap:butt;stroke-linejoin:miter;stroke-miterlimit:10;stroke-dasharray:none;stroke-opacity:1"
           id="path478"
           inkscape:connector-curvature="0" />
      </g>
      <g
         id="g480"
         transform="matrix(0.1253525,0,0,0.12464737,2.28829,713.68966)">
        <path
           d="m 3466.87,-4207.97 0,-572.9428"
           style="fill:none;stroke:#000000;stroke-width:4.23999977;stroke-linecap:butt;stroke-linejoin:miter;stroke-miterlimit:10;stroke-dasharray:none;stroke-opacity:1"
           id="path482"
           inkscape:connector-curvature="0"
           sodipodi:nodetypes="cc" />
      </g>
      <g
         id="g484"
         transform="matrix(0.1253525,0,0,0.12464737,2.28829,713.68966)">
        <path
           d="m 3657.66,-4207.97 0,-572.9428"
           style="fill:none;stroke:#000000;stroke-width:4.23999977;stroke-linecap:butt;stroke-linejoin:miter;stroke-miterlimit:10;stroke-dasharray:none;stroke-opacity:1"
           id="path486"
           inkscape:connector-curvature="0"
           sodipodi:nodetypes="cc" />
      </g>
      <g
         id="g488"
         transform="matrix(0.1253525,0,0,0.12464737,2.28829,713.68966)">
        <path
           d="m 3848.47,-4207.97 0,-572.9428"
           style="fill:none;stroke:#000000;stroke-width:4.23999977;stroke-linecap:butt;stroke-linejoin:miter;stroke-miterlimit:10;stroke-dasharray:none;stroke-opacity:1"
           id="path490"
           inkscape:connector-curvature="0"
           sodipodi:nodetypes="cc" />
      </g>
      <g
         id="g492"
         transform="matrix(0.1253525,0,0,0.12464737,2.28829,713.68966)">
        <path
           d="m 4051.99,-4207.97 0,-572.9428"
           style="fill:none;stroke:#000000;stroke-width:4.23999977;stroke-linecap:butt;stroke-linejoin:miter;stroke-miterlimit:10;stroke-dasharray:none;stroke-opacity:1"
           id="path494"
           inkscape:connector-curvature="0"
           sodipodi:nodetypes="cc" />
      </g>
      <g
         id="g532"
         transform="matrix(0.1253525,0,0,0.12464737,2.28829,713.68966)">
        <path
           d="m 3466.87,-4216.45 585.12,-284.08"
           style="fill:none;stroke:#000000;stroke-width:8.48001003;stroke-linecap:butt;stroke-linejoin:miter;stroke-miterlimit:10;stroke-dasharray:none;stroke-opacity:1"
           id="path534"
           inkscape:connector-curvature="0" />
      </g>
    </g>
  </g>
</svg>
