<?xml version="1.0" encoding="UTF-8" standalone="no"?>
<!-- Created with Inkscape (http://www.inkscape.org/) -->

<svg
   xmlns:dc="http://purl.org/dc/elements/1.1/"
   xmlns:cc="http://creativecommons.org/ns#"
   xmlns:rdf="http://www.w3.org/1999/02/22-rdf-syntax-ns#"
   xmlns:svg="http://www.w3.org/2000/svg"
   xmlns="http://www.w3.org/2000/svg"
   xmlns:sodipodi="http://sodipodi.sourceforge.net/DTD/sodipodi-0.dtd"
   xmlns:inkscape="http://www.inkscape.org/namespaces/inkscape"
   width="22.650291mm"
   height="21.627592mm"
   viewBox="0 0 80.256939 76.633198"
   id="svg6362"
   version="1.1"
   inkscape:version="0.91 r13725"
   sodipodi:docname="angles4.svg">
  <defs
     id="defs6364" />
  <sodipodi:namedview
     id="base"
     pagecolor="#ffffff"
     bordercolor="#666666"
     borderopacity="1.0"
     inkscape:pageopacity="0.0"
     inkscape:pageshadow="2"
     inkscape:zoom="22.4"
     inkscape:cx="10.589573"
     inkscape:cy="72.289683"
     inkscape:document-units="px"
     inkscape:current-layer="layer1"
     showgrid="false"
     inkscape:window-width="1600"
     inkscape:window-height="900"
     inkscape:window-x="0"
     inkscape:window-y="0"
     inkscape:window-maximized="0"
     fit-margin-top="0"
     fit-margin-left="0"
     fit-margin-right="0"
     fit-margin-bottom="0" />
  <metadata
     id="metadata6367">
    <rdf:RDF>
      <cc:Work
         rdf:about="">
        <dc:format>image/svg+xml</dc:format>
        <dc:type
           rdf:resource="http://purl.org/dc/dcmitype/StillImage" />
        <dc:title></dc:title>
      </cc:Work>
    </rdf:RDF>
  </metadata>
  <g
     inkscape:label="Calque 1"
     inkscape:groupmode="layer"
     id="layer1"
     transform="translate(-389.03334,-242.82051)">
    <g
       id="g7602"
       transform="translate(121.44714,-0.92488272)">
      <path
         d="m 274.49681,316.01841 c 0,1.75125 -1.42875,3.17125 -3.18875,3.17125 -1.76125,0 -3.18875,-1.42 -3.18875,-3.17125 0,-1.75125 1.4275,-3.17 3.18875,-3.17 1.76,0 3.18875,1.41875 3.18875,3.17"
         style="fill:#000000;fill-opacity:1;fill-rule:nonzero;stroke:none"
         id="path284"
         inkscape:connector-curvature="0" />
      <g
         id="g286"
         transform="matrix(0.1253525,0,0,0.12464737,0.4280589,713.68966)">
        <path
           d="m 2186.38,-3190.37 c 0,14.05 -11.39,25.44 -25.44,25.44 -14.04,0 -25.44,-11.39 -25.44,-25.44 0,-14.05 11.4,-25.44 25.44,-25.44 14.05,0 25.44,11.39 25.44,25.44"
           style="fill:none;stroke:#000000;stroke-width:4.23999977;stroke-linecap:butt;stroke-linejoin:miter;stroke-miterlimit:10;stroke-dasharray:none;stroke-opacity:1"
           id="path288"
           inkscape:connector-curvature="0" />
      </g>
      <path
         d="m 347.31177,270.03841 c 0,1.75125 -1.4287,3.17125 -3.1887,3.17125 -1.7613,0 -3.1888,-1.42 -3.1888,-3.17125 0,-1.75 1.4275,-3.17 3.1888,-3.17 1.76,0 3.1887,1.42 3.1887,3.17"
         style="fill:#000000;fill-opacity:1;fill-rule:nonzero;stroke:none"
         id="path296"
         inkscape:connector-curvature="0" />
      <g
         id="g298"
         transform="matrix(0.1253525,0,0,0.12464737,0.4280589,713.68966)">
        <path
           d="m 2767.26,-3559.25 c 0,14.05 -11.39,25.44 -25.44,25.44 -14.04,0 -25.44,-11.39 -25.44,-25.44 0,-14.05 11.4,-25.44 25.44,-25.44 14.05,0 25.44,11.39 25.44,25.44"
           style="fill:none;stroke:#000000;stroke-width:4.23999977;stroke-linecap:butt;stroke-linejoin:miter;stroke-miterlimit:10;stroke-dasharray:none;stroke-opacity:1"
           id="path300"
           inkscape:connector-curvature="0" />
      </g>
      <g
         id="g320"
         transform="matrix(0.1253525,0,0,0.12464737,0.4280589,713.68966)">
        <path
           d="m 2156.7,-3750.05 585.12,0"
           style="fill:none;stroke:#000000;stroke-width:4.23999977;stroke-linecap:butt;stroke-linejoin:miter;stroke-miterlimit:10;stroke-dasharray:none;stroke-opacity:1"
           id="path322"
           inkscape:connector-curvature="0" />
      </g>
      <g
         id="g324"
         transform="matrix(0.1253525,0,0,0.12464737,0.4280589,713.68966)">
        <path
           d="m 2156.7,-3559.25 585.12,0"
           style="fill:none;stroke:#000000;stroke-width:4.23999977;stroke-linecap:butt;stroke-linejoin:miter;stroke-miterlimit:10;stroke-dasharray:none;stroke-opacity:1"
           id="path326"
           inkscape:connector-curvature="0" />
      </g>
      <g
         id="g328"
         transform="matrix(0.1253525,0,0,0.12464737,0.4280589,713.68966)">
        <path
           d="m 2156.7,-3177.65 585.12,0"
           style="fill:none;stroke:#000000;stroke-width:4.23999977;stroke-linecap:butt;stroke-linejoin:miter;stroke-miterlimit:10;stroke-dasharray:none;stroke-opacity:1"
           id="path330"
           inkscape:connector-curvature="0" />
      </g>
      <g
         id="g332"
         transform="matrix(0.1253525,0,0,0.12464737,0.4280589,713.68966)">
        <path
           d="m 2156.7,-3368.45 585.12,0"
           style="fill:none;stroke:#000000;stroke-width:4.23999977;stroke-linecap:butt;stroke-linejoin:miter;stroke-miterlimit:10;stroke-dasharray:none;stroke-opacity:1"
           id="path334"
           inkscape:connector-curvature="0" />
      </g>
      <g
         id="g336"
         transform="matrix(0.1253525,0,0,0.12464737,0.4280589,713.68966)">
        <path
           d="m 2156.7,-3177.65 0,-573.3009"
           style="fill:none;stroke:#000000;stroke-width:4.23999977;stroke-linecap:butt;stroke-linejoin:miter;stroke-miterlimit:10;stroke-dasharray:none;stroke-opacity:1"
           id="path338"
           inkscape:connector-curvature="0"
           sodipodi:nodetypes="cc" />
      </g>
      <g
         id="g340"
         transform="matrix(0.1253525,0,0,0.12464737,0.4280589,713.68966)">
        <path
           d="m 2347.51,-3177.65 0,-573.3009"
           style="fill:none;stroke:#000000;stroke-width:4.23999977;stroke-linecap:butt;stroke-linejoin:miter;stroke-miterlimit:10;stroke-dasharray:none;stroke-opacity:1"
           id="path342"
           inkscape:connector-curvature="0"
           sodipodi:nodetypes="cc" />
      </g>
      <g
         id="g344"
         transform="matrix(0.1253525,0,0,0.12464737,0.4280589,713.68966)">
        <path
           d="m 2538.3,-3177.65 0,-573.3009"
           style="fill:none;stroke:#000000;stroke-width:4.23999977;stroke-linecap:butt;stroke-linejoin:miter;stroke-miterlimit:10;stroke-dasharray:none;stroke-opacity:1"
           id="path346"
           inkscape:connector-curvature="0"
           sodipodi:nodetypes="cc" />
      </g>
      <g
         id="g348"
         transform="matrix(0.1253525,0,0,0.12464737,0.4280589,713.68966)">
        <path
           d="m 2741.82,-3177.65 0,-573.3009"
           style="fill:none;stroke:#000000;stroke-width:4.23999977;stroke-linecap:butt;stroke-linejoin:miter;stroke-miterlimit:10;stroke-dasharray:none;stroke-opacity:1"
           id="path350"
           inkscape:connector-curvature="0"
           sodipodi:nodetypes="cc" />
      </g>
      <g
         id="g536"
         transform="matrix(0.1253525,0,0,0.12464737,0.4280589,713.68966)">
        <path
           d="m 2156.7,-3190.37 585.12,-373.12"
           style="fill:none;stroke:#000000;stroke-width:8.48001003;stroke-linecap:butt;stroke-linejoin:miter;stroke-miterlimit:10;stroke-dasharray:none;stroke-opacity:1"
           id="path538"
           inkscape:connector-curvature="0" />
      </g>
    </g>
  </g>
</svg>
