<?xml version="1.0" encoding="UTF-8" standalone="no"?>
<!-- Created with Inkscape (http://www.inkscape.org/) -->

<svg
   xmlns:dc="http://purl.org/dc/elements/1.1/"
   xmlns:cc="http://creativecommons.org/ns#"
   xmlns:rdf="http://www.w3.org/1999/02/22-rdf-syntax-ns#"
   xmlns:svg="http://www.w3.org/2000/svg"
   xmlns="http://www.w3.org/2000/svg"
   xmlns:sodipodi="http://sodipodi.sourceforge.net/DTD/sodipodi-0.dtd"
   xmlns:inkscape="http://www.inkscape.org/namespaces/inkscape"
   width="80.100136mm"
   height="57.35041mm"
   viewBox="0 0 283.81938 203.21011"
   id="svg6362"
   version="1.1"
   inkscape:version="0.91 r13725"
   sodipodi:docname="angles.svg">
  <defs
     id="defs6364" />
  <sodipodi:namedview
     id="base"
     pagecolor="#ffffff"
     bordercolor="#666666"
     borderopacity="1.0"
     inkscape:pageopacity="0.0"
     inkscape:pageshadow="2"
     inkscape:zoom="1.979899"
     inkscape:cx="189.78228"
     inkscape:cy="122.28007"
     inkscape:document-units="px"
     inkscape:current-layer="layer1"
     showgrid="false"
     inkscape:window-width="1600"
     inkscape:window-height="900"
     inkscape:window-x="0"
     inkscape:window-y="0"
     inkscape:window-maximized="0"
     fit-margin-top="0"
     fit-margin-left="0"
     fit-margin-right="0"
     fit-margin-bottom="0" />
  <metadata
     id="metadata6367">
    <rdf:RDF>
      <cc:Work
         rdf:about="">
        <dc:format>image/svg+xml</dc:format>
        <dc:type
           rdf:resource="http://purl.org/dc/dcmitype/StillImage" />
        <dc:title></dc:title>
      </cc:Work>
    </rdf:RDF>
  </metadata>
  <g
     inkscape:label="Calque 1"
     inkscape:groupmode="layer"
     id="layer1"
     transform="translate(-226.66174,-116.2436)">
    <g
       id="g7602">
      <path
         d="m 274.49681,316.01841 c 0,1.75125 -1.42875,3.17125 -3.18875,3.17125 -1.76125,0 -3.18875,-1.42 -3.18875,-3.17125 0,-1.75125 1.4275,-3.17 3.18875,-3.17 1.76,0 3.18875,1.41875 3.18875,3.17"
         style="fill:#000000;fill-opacity:1;fill-rule:nonzero;stroke:none"
         id="path284"
         inkscape:connector-curvature="0" />
      <g
         id="g286"
         transform="matrix(0.1253525,0,0,0.12464737,0.4280589,713.68966)">
        <path
           d="m 2186.38,-3190.37 c 0,14.05 -11.39,25.44 -25.44,25.44 -14.04,0 -25.44,-11.39 -25.44,-25.44 0,-14.05 11.4,-25.44 25.44,-25.44 14.05,0 25.44,11.39 25.44,25.44"
           style="fill:none;stroke:#000000;stroke-width:4.23999977;stroke-linecap:butt;stroke-linejoin:miter;stroke-miterlimit:10;stroke-dasharray:none;stroke-opacity:1"
           id="path288"
           inkscape:connector-curvature="0" />
      </g>
      <path
         d="m 347.31177,270.03841 c 0,1.75125 -1.4287,3.17125 -3.1887,3.17125 -1.7613,0 -3.1888,-1.42 -3.1888,-3.17125 0,-1.75 1.4275,-3.17 3.1888,-3.17 1.76,0 3.1887,1.42 3.1887,3.17"
         style="fill:#000000;fill-opacity:1;fill-rule:nonzero;stroke:none"
         id="path296"
         inkscape:connector-curvature="0" />
      <g
         id="g298"
         transform="matrix(0.1253525,0,0,0.12464737,0.4280589,713.68966)">
        <path
           d="m 2767.26,-3559.25 c 0,14.05 -11.39,25.44 -25.44,25.44 -14.04,0 -25.44,-11.39 -25.44,-25.44 0,-14.05 11.4,-25.44 25.44,-25.44 14.05,0 25.44,11.39 25.44,25.44"
           style="fill:none;stroke:#000000;stroke-width:4.23999977;stroke-linecap:butt;stroke-linejoin:miter;stroke-miterlimit:10;stroke-dasharray:none;stroke-opacity:1"
           id="path300"
           inkscape:connector-curvature="0" />
      </g>
      <g
         id="g320"
         transform="matrix(0.1253525,0,0,0.12464737,0.4280589,713.68966)">
        <path
           d="m 2156.7,-3750.05 585.12,0"
           style="fill:none;stroke:#000000;stroke-width:4.23999977;stroke-linecap:butt;stroke-linejoin:miter;stroke-miterlimit:10;stroke-dasharray:none;stroke-opacity:1"
           id="path322"
           inkscape:connector-curvature="0" />
      </g>
      <g
         id="g324"
         transform="matrix(0.1253525,0,0,0.12464737,0.4280589,713.68966)">
        <path
           d="m 2156.7,-3559.25 585.12,0"
           style="fill:none;stroke:#000000;stroke-width:4.23999977;stroke-linecap:butt;stroke-linejoin:miter;stroke-miterlimit:10;stroke-dasharray:none;stroke-opacity:1"
           id="path326"
           inkscape:connector-curvature="0" />
      </g>
      <g
         id="g328"
         transform="matrix(0.1253525,0,0,0.12464737,0.4280589,713.68966)">
        <path
           d="m 2156.7,-3177.65 585.12,0"
           style="fill:none;stroke:#000000;stroke-width:4.23999977;stroke-linecap:butt;stroke-linejoin:miter;stroke-miterlimit:10;stroke-dasharray:none;stroke-opacity:1"
           id="path330"
           inkscape:connector-curvature="0" />
      </g>
      <g
         id="g332"
         transform="matrix(0.1253525,0,0,0.12464737,0.4280589,713.68966)">
        <path
           d="m 2156.7,-3368.45 585.12,0"
           style="fill:none;stroke:#000000;stroke-width:4.23999977;stroke-linecap:butt;stroke-linejoin:miter;stroke-miterlimit:10;stroke-dasharray:none;stroke-opacity:1"
           id="path334"
           inkscape:connector-curvature="0" />
      </g>
      <g
         id="g336"
         transform="matrix(0.1253525,0,0,0.12464737,0.4280589,713.68966)">
        <path
           d="m 2156.7,-3177.65 0,-585.12"
           style="fill:none;stroke:#000000;stroke-width:4.23999977;stroke-linecap:butt;stroke-linejoin:miter;stroke-miterlimit:10;stroke-dasharray:none;stroke-opacity:1"
           id="path338"
           inkscape:connector-curvature="0" />
      </g>
      <g
         id="g340"
         transform="matrix(0.1253525,0,0,0.12464737,0.4280589,713.68966)">
        <path
           d="m 2347.51,-3177.65 0,-585.12"
           style="fill:none;stroke:#000000;stroke-width:4.23999977;stroke-linecap:butt;stroke-linejoin:miter;stroke-miterlimit:10;stroke-dasharray:none;stroke-opacity:1"
           id="path342"
           inkscape:connector-curvature="0" />
      </g>
      <g
         id="g344"
         transform="matrix(0.1253525,0,0,0.12464737,0.4280589,713.68966)">
        <path
           d="m 2538.3,-3177.65 0,-585.12"
           style="fill:none;stroke:#000000;stroke-width:4.23999977;stroke-linecap:butt;stroke-linejoin:miter;stroke-miterlimit:10;stroke-dasharray:none;stroke-opacity:1"
           id="path346"
           inkscape:connector-curvature="0" />
      </g>
      <g
         id="g348"
         transform="matrix(0.1253525,0,0,0.12464737,0.4280589,713.68966)">
        <path
           d="m 2741.82,-3177.65 0,-585.12"
           style="fill:none;stroke:#000000;stroke-width:4.23999977;stroke-linecap:butt;stroke-linejoin:miter;stroke-miterlimit:10;stroke-dasharray:none;stroke-opacity:1"
           id="path350"
           inkscape:connector-curvature="0" />
      </g>
      <g
         id="g536"
         transform="matrix(0.1253525,0,0,0.12464737,0.4280589,713.68966)">
        <path
           d="m 2156.7,-3190.37 585.12,-373.12"
           style="fill:none;stroke:#000000;stroke-width:8.48001003;stroke-linecap:butt;stroke-linejoin:miter;stroke-miterlimit:10;stroke-dasharray:none;stroke-opacity:1"
           id="path538"
           inkscape:connector-curvature="0" />
      </g>
    </g>
    <g
       id="g7544">
      <path
         d="m 395.67807,316.01841 c 0,1.75125 -1.4288,3.17125 -3.1888,3.17125 -1.7612,0 -3.1887,-1.42 -3.1887,-3.17125 0,-1.75125 1.4275,-3.17 3.1887,-3.17 1.76,0 3.1888,1.41875 3.1888,3.17"
         style="fill:#000000;fill-opacity:1;fill-rule:nonzero;stroke:none"
         id="path290"
         inkscape:connector-curvature="0" />
      <g
         id="g292"
         transform="matrix(0.1253525,0,0,0.12464737,0.4280589,713.68966)">
        <path
           d="m 3153.1,-3190.37 c 0,14.05 -11.39,25.44 -25.44,25.44 -14.04,0 -25.44,-11.39 -25.44,-25.44 0,-14.05 11.4,-25.44 25.44,-25.44 14.05,0 25.44,11.39 25.44,25.44"
           style="fill:none;stroke:#000000;stroke-width:4.23999977;stroke-linecap:butt;stroke-linejoin:miter;stroke-miterlimit:10;stroke-dasharray:none;stroke-opacity:1"
           id="path294"
           inkscape:connector-curvature="0" />
      </g>
      <path
         d="m 419.06427,293.29341 c 0,1.75125 -1.4287,3.17125 -3.19,3.17125 -1.76,0 -3.1887,-1.42 -3.1887,-3.17125 0,-1.75125 1.4287,-3.17125 3.1887,-3.17125 1.7613,0 3.19,1.42 3.19,3.17125"
         style="fill:#000000;fill-opacity:1;fill-rule:nonzero;stroke:none"
         id="path302"
         inkscape:connector-curvature="0" />
      <g
         id="g304"
         transform="matrix(0.1253525,0,0,0.12464737,0.4280589,713.68966)">
        <path
           d="m 3339.66,-3372.69 c 0,14.05 -11.39,25.44 -25.44,25.44 -14.04,0 -25.44,-11.39 -25.44,-25.44 0,-14.05 11.4,-25.44 25.44,-25.44 14.05,0 25.44,11.39 25.44,25.44"
           style="fill:none;stroke:#000000;stroke-width:4.23999977;stroke-linecap:butt;stroke-linejoin:miter;stroke-miterlimit:10;stroke-dasharray:none;stroke-opacity:1"
           id="path306"
           inkscape:connector-curvature="0" />
      </g>
      <path
         d="m 442.98177,269.51091 c 0,1.75 -1.4287,3.17 -3.19,3.17 -1.76,0 -3.1887,-1.42 -3.1887,-3.17 0,-1.75125 1.4287,-3.17125 3.1887,-3.17125 1.7613,0 3.19,1.42 3.19,3.17125"
         style="fill:#000000;fill-opacity:1;fill-rule:nonzero;stroke:none"
         id="path308"
         inkscape:connector-curvature="0" />
      <g
         id="g310"
         transform="matrix(0.1253525,0,0,0.12464737,0.4280589,713.68966)">
        <path
           d="m 3530.46,-3563.49 c 0,14.05 -11.39,25.44 -25.44,25.44 -14.04,0 -25.44,-11.39 -25.44,-25.44 0,-14.05 11.4,-25.44 25.44,-25.44 14.05,0 25.44,11.39 25.44,25.44"
           style="fill:none;stroke:#000000;stroke-width:4.23999977;stroke-linecap:butt;stroke-linejoin:miter;stroke-miterlimit:10;stroke-dasharray:none;stroke-opacity:1"
           id="path312"
           inkscape:connector-curvature="0" />
      </g>
      <path
         d="m 469.02427,246.25591 c 0,1.75125 -1.4275,3.17125 -3.1887,3.17125 -1.76,0 -3.1888,-1.42 -3.1888,-3.17125 0,-1.75125 1.4288,-3.17125 3.1888,-3.17125 1.7612,0 3.1887,1.42 3.1887,3.17125"
         style="fill:#000000;fill-opacity:1;fill-rule:nonzero;stroke:none"
         id="path314"
         inkscape:connector-curvature="0" />
      <g
         id="g316"
         transform="matrix(0.1253525,0,0,0.12464737,0.4280589,713.68966)">
        <path
           d="m 3738.23,-3750.05 c 0,14.05 -11.4,25.44 -25.44,25.44 -14.05,0 -25.44,-11.39 -25.44,-25.44 0,-14.05 11.39,-25.44 25.44,-25.44 14.04,0 25.44,11.39 25.44,25.44"
           style="fill:none;stroke:#000000;stroke-width:4.23999977;stroke-linecap:butt;stroke-linejoin:miter;stroke-miterlimit:10;stroke-dasharray:none;stroke-opacity:1"
           id="path318"
           inkscape:connector-curvature="0" />
      </g>
      <g
         id="g352"
         transform="matrix(0.1253525,0,0,0.12464737,0.4280589,713.68966)">
        <path
           d="m 3123.43,-3750.05 585.11,0"
           style="fill:none;stroke:#000000;stroke-width:4.23999977;stroke-linecap:butt;stroke-linejoin:miter;stroke-miterlimit:10;stroke-dasharray:none;stroke-opacity:1"
           id="path354"
           inkscape:connector-curvature="0" />
      </g>
      <g
         id="g356"
         transform="matrix(0.1253525,0,0,0.12464737,0.4280589,713.68966)">
        <path
           d="m 3123.43,-3559.25 585.11,0"
           style="fill:none;stroke:#000000;stroke-width:4.23999977;stroke-linecap:butt;stroke-linejoin:miter;stroke-miterlimit:10;stroke-dasharray:none;stroke-opacity:1"
           id="path358"
           inkscape:connector-curvature="0" />
      </g>
      <g
         id="g360"
         transform="matrix(0.1253525,0,0,0.12464737,0.4280589,713.68966)">
        <path
           d="m 3123.43,-3177.65 585.11,0"
           style="fill:none;stroke:#000000;stroke-width:4.23999977;stroke-linecap:butt;stroke-linejoin:miter;stroke-miterlimit:10;stroke-dasharray:none;stroke-opacity:1"
           id="path362"
           inkscape:connector-curvature="0" />
      </g>
      <g
         id="g364"
         transform="matrix(0.1253525,0,0,0.12464737,0.4280589,713.68966)">
        <path
           d="m 3123.43,-3368.45 585.11,0"
           style="fill:none;stroke:#000000;stroke-width:4.23999977;stroke-linecap:butt;stroke-linejoin:miter;stroke-miterlimit:10;stroke-dasharray:none;stroke-opacity:1"
           id="path366"
           inkscape:connector-curvature="0" />
      </g>
      <g
         id="g368"
         transform="matrix(0.1253525,0,0,0.12464737,0.4280589,713.68966)">
        <path
           d="m 3123.43,-3177.65 0,-585.12"
           style="fill:none;stroke:#000000;stroke-width:4.23999977;stroke-linecap:butt;stroke-linejoin:miter;stroke-miterlimit:10;stroke-dasharray:none;stroke-opacity:1"
           id="path370"
           inkscape:connector-curvature="0" />
      </g>
      <g
         id="g372"
         transform="matrix(0.1253525,0,0,0.12464737,0.4280589,713.68966)">
        <path
           d="m 3314.22,-3177.65 0,-585.12"
           style="fill:none;stroke:#000000;stroke-width:4.23999977;stroke-linecap:butt;stroke-linejoin:miter;stroke-miterlimit:10;stroke-dasharray:none;stroke-opacity:1"
           id="path374"
           inkscape:connector-curvature="0" />
      </g>
      <g
         id="g376"
         transform="matrix(0.1253525,0,0,0.12464737,0.4280589,713.68966)">
        <path
           d="m 3505.02,-3177.65 0,-585.12"
           style="fill:none;stroke:#000000;stroke-width:4.23999977;stroke-linecap:butt;stroke-linejoin:miter;stroke-miterlimit:10;stroke-dasharray:none;stroke-opacity:1"
           id="path378"
           inkscape:connector-curvature="0" />
      </g>
      <g
         id="g380"
         transform="matrix(0.1253525,0,0,0.12464737,0.4280589,713.68966)">
        <path
           d="m 3708.54,-3177.65 0,-585.12"
           style="fill:none;stroke:#000000;stroke-width:4.23999977;stroke-linecap:butt;stroke-linejoin:miter;stroke-miterlimit:10;stroke-dasharray:none;stroke-opacity:1"
           id="path382"
           inkscape:connector-curvature="0" />
      </g>
      <g
         id="g540"
         transform="matrix(0.1253525,0,0,0.12464737,0.4280589,713.68966)">
        <path
           d="m 3123.43,-3186.13 585.11,-568.16"
           style="fill:none;stroke:#000000;stroke-width:8.48001003;stroke-linecap:butt;stroke-linejoin:miter;stroke-miterlimit:10;stroke-dasharray:none;stroke-opacity:1"
           id="path542"
           inkscape:connector-curvature="0" />
      </g>
    </g>
    <g
       id="g7492">
      <path
         d="m 408.6995,165.39466 c 0,1.75125 -1.4275,3.17125 -3.1887,3.17125 -1.76,0 -3.1888,-1.42 -3.1888,-3.17125 0,-1.75125 1.4288,-3.17125 3.1888,-3.17125 1.7612,0 3.1887,1.42 3.1887,3.17125"
         style="fill:#000000;fill-opacity:1;fill-rule:nonzero;stroke:none"
         id="path390"
         inkscape:connector-curvature="0" />
      <g
         id="g392"
         transform="matrix(0.1253525,0,0,0.12464737,2.28829,713.68966)">
        <path
           d="m 3242.15,-4398.77 c 0,14.05 -11.4,25.44 -25.44,25.44 -14.05,0 -25.44,-11.39 -25.44,-25.44 0,-14.05 11.39,-25.44 25.44,-25.44 14.04,0 25.44,11.39 25.44,25.44"
           style="fill:none;stroke:#000000;stroke-width:4.23999977;stroke-linecap:butt;stroke-linejoin:miter;stroke-miterlimit:10;stroke-dasharray:none;stroke-opacity:1"
           id="path394"
           inkscape:connector-curvature="0" />
      </g>
      <path
         d="m 336.9483,187.59216 c 0,1.75125 -1.4288,3.17125 -3.1888,3.17125 -1.7612,0 -3.19,-1.42 -3.19,-3.17125 0,-1.75125 1.4288,-3.17125 3.19,-3.17125 1.76,0 3.1888,1.42 3.1888,3.17125"
         style="fill:#000000;fill-opacity:1;fill-rule:nonzero;stroke:none"
         id="path402"
         inkscape:connector-curvature="0" />
      <g
         id="g404"
         transform="matrix(0.1253525,0,0,0.12464737,2.28829,713.68966)">
        <path
           d="m 2669.74,-4220.69 c 0,14.05 -11.39,25.44 -25.44,25.44 -14.04,0 -25.44,-11.39 -25.44,-25.44 0,-14.05 11.4,-25.44 25.44,-25.44 14.05,0 25.44,11.39 25.44,25.44"
           style="fill:none;stroke:#000000;stroke-width:4.23999977;stroke-linecap:butt;stroke-linejoin:miter;stroke-miterlimit:10;stroke-dasharray:none;stroke-opacity:1"
           id="path406"
           inkscape:connector-curvature="0" />
      </g>
      <g
         id="g432"
         transform="matrix(0.1253525,0,0,0.12464737,2.28829,713.68966)">
        <path
           d="m 2640.06,-4780.37 585.13,0"
           style="fill:none;stroke:#000000;stroke-width:4.23999977;stroke-linecap:butt;stroke-linejoin:miter;stroke-miterlimit:10;stroke-dasharray:none;stroke-opacity:1"
           id="path434"
           inkscape:connector-curvature="0" />
      </g>
      <g
         id="g436"
         transform="matrix(0.1253525,0,0,0.12464737,2.28829,713.68966)">
        <path
           d="m 2640.06,-4589.57 585.13,0"
           style="fill:none;stroke:#000000;stroke-width:4.23999977;stroke-linecap:butt;stroke-linejoin:miter;stroke-miterlimit:10;stroke-dasharray:none;stroke-opacity:1"
           id="path438"
           inkscape:connector-curvature="0" />
      </g>
      <g
         id="g440"
         transform="matrix(0.1253525,0,0,0.12464737,2.28829,713.68966)">
        <path
           d="m 2640.06,-4207.97 585.13,0"
           style="fill:none;stroke:#000000;stroke-width:4.23999977;stroke-linecap:butt;stroke-linejoin:miter;stroke-miterlimit:10;stroke-dasharray:none;stroke-opacity:1"
           id="path442"
           inkscape:connector-curvature="0" />
      </g>
      <g
         id="g444"
         transform="matrix(0.1253525,0,0,0.12464737,2.28829,713.68966)">
        <path
           d="m 2640.06,-4398.77 585.13,0"
           style="fill:none;stroke:#000000;stroke-width:4.23999977;stroke-linecap:butt;stroke-linejoin:miter;stroke-miterlimit:10;stroke-dasharray:none;stroke-opacity:1"
           id="path446"
           inkscape:connector-curvature="0" />
      </g>
      <g
         id="g448"
         transform="matrix(0.1253525,0,0,0.12464737,2.28829,713.68966)">
        <path
           d="m 2640.06,-4207.97 0,-585.12"
           style="fill:none;stroke:#000000;stroke-width:4.23999977;stroke-linecap:butt;stroke-linejoin:miter;stroke-miterlimit:10;stroke-dasharray:none;stroke-opacity:1"
           id="path450"
           inkscape:connector-curvature="0" />
      </g>
      <g
         id="g452"
         transform="matrix(0.1253525,0,0,0.12464737,2.28829,713.68966)">
        <path
           d="m 2830.86,-4207.97 0,-585.12"
           style="fill:none;stroke:#000000;stroke-width:4.23999977;stroke-linecap:butt;stroke-linejoin:miter;stroke-miterlimit:10;stroke-dasharray:none;stroke-opacity:1"
           id="path454"
           inkscape:connector-curvature="0" />
      </g>
      <g
         id="g456"
         transform="matrix(0.1253525,0,0,0.12464737,2.28829,713.68966)">
        <path
           d="m 3021.67,-4207.97 0,-585.12"
           style="fill:none;stroke:#000000;stroke-width:4.23999977;stroke-linecap:butt;stroke-linejoin:miter;stroke-miterlimit:10;stroke-dasharray:none;stroke-opacity:1"
           id="path458"
           inkscape:connector-curvature="0" />
      </g>
      <g
         id="g460"
         transform="matrix(0.1253525,0,0,0.12464737,2.28829,713.68966)">
        <path
           d="m 3225.19,-4207.97 0,-585.12"
           style="fill:none;stroke:#000000;stroke-width:4.23999977;stroke-linecap:butt;stroke-linejoin:miter;stroke-miterlimit:10;stroke-dasharray:none;stroke-opacity:1"
           id="path462"
           inkscape:connector-curvature="0" />
      </g>
      <g
         id="g528"
         transform="matrix(0.1253525,0,0,0.12464737,2.28829,713.68966)">
        <path
           d="m 2640.06,-4220.69 572.4,-178.08"
           style="fill:none;stroke:#000000;stroke-width:8.48001003;stroke-linecap:butt;stroke-linejoin:miter;stroke-miterlimit:10;stroke-dasharray:none;stroke-opacity:1"
           id="path530"
           inkscape:connector-curvature="0" />
      </g>
    </g>
    <g
       id="g7518">
      <path
         d="m 440.5895,187.59216 c 0,1.75125 -1.4287,3.17125 -3.1887,3.17125 -1.7613,0 -3.1888,-1.42 -3.1888,-3.17125 0,-1.75125 1.4275,-3.17125 3.1888,-3.17125 1.76,0 3.1887,1.42 3.1887,3.17125"
         style="fill:#000000;fill-opacity:1;fill-rule:nonzero;stroke:none"
         id="path384"
         inkscape:connector-curvature="0" />
      <g
         id="g386"
         transform="matrix(0.1253525,0,0,0.12464737,2.28829,713.68966)">
        <path
           d="m 3496.54,-4220.69 c 0,14.05 -11.39,25.44 -25.44,25.44 -14.04,0 -25.44,-11.39 -25.44,-25.44 0,-14.05 11.4,-25.44 25.44,-25.44 14.05,0 25.44,11.39 25.44,25.44"
           style="fill:none;stroke:#000000;stroke-width:4.23999977;stroke-linecap:butt;stroke-linejoin:miter;stroke-miterlimit:10;stroke-dasharray:none;stroke-opacity:1"
           id="path388"
           inkscape:connector-curvature="0" />
      </g>
      <path
         d="m 488.4245,163.80966 c 0,1.75 -1.4287,3.17 -3.19,3.17 -1.76,0 -3.1887,-1.42 -3.1887,-3.17 0,-1.75125 1.4287,-3.17125 3.1887,-3.17125 1.7613,0 3.19,1.42 3.19,3.17125"
         style="fill:#000000;fill-opacity:1;fill-rule:nonzero;stroke:none"
         id="path396"
         inkscape:connector-curvature="0" />
      <g
         id="g398"
         transform="matrix(0.1253525,0,0,0.12464737,2.28829,713.68966)">
        <path
           d="m 3878.14,-4411.49 c 0,14.05 -11.39,25.44 -25.44,25.44 -14.04,0 -25.44,-11.39 -25.44,-25.44 0,-14.05 11.4,-25.44 25.44,-25.44 14.05,0 25.44,11.39 25.44,25.44"
           style="fill:none;stroke:#000000;stroke-width:4.23999977;stroke-linecap:butt;stroke-linejoin:miter;stroke-miterlimit:10;stroke-dasharray:none;stroke-opacity:1"
           id="path400"
           inkscape:connector-curvature="0" />
      </g>
      <g
         id="g464"
         transform="matrix(0.1253525,0,0,0.12464737,2.28829,713.68966)">
        <path
           d="m 3466.87,-4780.37 585.12,0"
           style="fill:none;stroke:#000000;stroke-width:4.23999977;stroke-linecap:butt;stroke-linejoin:miter;stroke-miterlimit:10;stroke-dasharray:none;stroke-opacity:1"
           id="path466"
           inkscape:connector-curvature="0" />
      </g>
      <g
         id="g468"
         transform="matrix(0.1253525,0,0,0.12464737,2.28829,713.68966)">
        <path
           d="m 3466.87,-4589.57 585.12,0"
           style="fill:none;stroke:#000000;stroke-width:4.23999977;stroke-linecap:butt;stroke-linejoin:miter;stroke-miterlimit:10;stroke-dasharray:none;stroke-opacity:1"
           id="path470"
           inkscape:connector-curvature="0" />
      </g>
      <g
         id="g472"
         transform="matrix(0.1253525,0,0,0.12464737,2.28829,713.68966)">
        <path
           d="m 3466.87,-4207.97 585.12,0"
           style="fill:none;stroke:#000000;stroke-width:4.23999977;stroke-linecap:butt;stroke-linejoin:miter;stroke-miterlimit:10;stroke-dasharray:none;stroke-opacity:1"
           id="path474"
           inkscape:connector-curvature="0" />
      </g>
      <g
         id="g476"
         transform="matrix(0.1253525,0,0,0.12464737,2.28829,713.68966)">
        <path
           d="m 3466.87,-4398.77 585.12,0"
           style="fill:none;stroke:#000000;stroke-width:4.23999977;stroke-linecap:butt;stroke-linejoin:miter;stroke-miterlimit:10;stroke-dasharray:none;stroke-opacity:1"
           id="path478"
           inkscape:connector-curvature="0" />
      </g>
      <g
         id="g480"
         transform="matrix(0.1253525,0,0,0.12464737,2.28829,713.68966)">
        <path
           d="m 3466.87,-4207.97 0,-585.12"
           style="fill:none;stroke:#000000;stroke-width:4.23999977;stroke-linecap:butt;stroke-linejoin:miter;stroke-miterlimit:10;stroke-dasharray:none;stroke-opacity:1"
           id="path482"
           inkscape:connector-curvature="0" />
      </g>
      <g
         id="g484"
         transform="matrix(0.1253525,0,0,0.12464737,2.28829,713.68966)">
        <path
           d="m 3657.66,-4207.97 0,-585.12"
           style="fill:none;stroke:#000000;stroke-width:4.23999977;stroke-linecap:butt;stroke-linejoin:miter;stroke-miterlimit:10;stroke-dasharray:none;stroke-opacity:1"
           id="path486"
           inkscape:connector-curvature="0" />
      </g>
      <g
         id="g488"
         transform="matrix(0.1253525,0,0,0.12464737,2.28829,713.68966)">
        <path
           d="m 3848.47,-4207.97 0,-585.12"
           style="fill:none;stroke:#000000;stroke-width:4.23999977;stroke-linecap:butt;stroke-linejoin:miter;stroke-miterlimit:10;stroke-dasharray:none;stroke-opacity:1"
           id="path490"
           inkscape:connector-curvature="0" />
      </g>
      <g
         id="g492"
         transform="matrix(0.1253525,0,0,0.12464737,2.28829,713.68966)">
        <path
           d="m 4051.99,-4207.97 0,-585.12"
           style="fill:none;stroke:#000000;stroke-width:4.23999977;stroke-linecap:butt;stroke-linejoin:miter;stroke-miterlimit:10;stroke-dasharray:none;stroke-opacity:1"
           id="path494"
           inkscape:connector-curvature="0" />
      </g>
      <g
         id="g532"
         transform="matrix(0.1253525,0,0,0.12464737,2.28829,713.68966)">
        <path
           d="m 3466.87,-4216.45 585.12,-284.08"
           style="fill:none;stroke:#000000;stroke-width:8.48001003;stroke-linecap:butt;stroke-linejoin:miter;stroke-miterlimit:10;stroke-dasharray:none;stroke-opacity:1"
           id="path534"
           inkscape:connector-curvature="0" />
      </g>
    </g>
    <g
       id="g7460">
      <path
         d="m 255.62954,187.59216 c 0,1.75125 -1.42875,3.17125 -3.19,3.17125 -1.76,0 -3.18875,-1.42 -3.18875,-3.17125 0,-1.75125 1.42875,-3.17125 3.18875,-3.17125 1.76125,0 3.19,1.42 3.19,3.17125"
         style="fill:#000000;fill-opacity:1;fill-rule:nonzero;stroke:none"
         id="path408"
         inkscape:connector-curvature="0" />
      <g
         id="g410"
         transform="matrix(0.1253525,0,0,0.12464737,2.28829,713.68966)">
        <path
           d="m 2021.02,-4220.69 c 0,14.05 -11.39,25.44 -25.44,25.44 -14.04,0 -25.44,-11.39 -25.44,-25.44 0,-14.05 11.4,-25.44 25.44,-25.44 14.05,0 25.44,11.39 25.44,25.44"
           style="fill:none;stroke:#000000;stroke-width:4.23999977;stroke-linecap:butt;stroke-linejoin:miter;stroke-miterlimit:10;stroke-dasharray:none;stroke-opacity:1"
           id="path412"
           inkscape:connector-curvature="0" />
      </g>
      <path
         d="m 281.14079,187.59216 c 0,1.75125 -1.42875,3.17125 -3.18875,3.17125 -1.76125,0 -3.18875,-1.42 -3.18875,-3.17125 0,-1.75125 1.4275,-3.17125 3.18875,-3.17125 1.76,0 3.18875,1.42 3.18875,3.17125"
         style="fill:#000000;fill-opacity:1;fill-rule:nonzero;stroke:none"
         id="path414"
         inkscape:connector-curvature="0" />
      <g
         id="g416"
         transform="matrix(0.1253525,0,0,0.12464737,2.28829,713.68966)">
        <path
           d="m 2224.54,-4220.69 c 0,14.05 -11.39,25.44 -25.44,25.44 -14.04,0 -25.44,-11.39 -25.44,-25.44 0,-14.05 11.4,-25.44 25.44,-25.44 14.05,0 25.44,11.39 25.44,25.44"
           style="fill:none;stroke:#000000;stroke-width:4.23999977;stroke-linecap:butt;stroke-linejoin:miter;stroke-miterlimit:10;stroke-dasharray:none;stroke-opacity:1"
           id="path418"
           inkscape:connector-curvature="0" />
      </g>
      <path
         d="m 305.05829,187.59216 c 0,1.75125 -1.42875,3.17125 -3.18875,3.17125 -1.76125,0 -3.18875,-1.42 -3.18875,-3.17125 0,-1.75125 1.4275,-3.17125 3.18875,-3.17125 1.76,0 3.18875,1.42 3.18875,3.17125"
         style="fill:#000000;fill-opacity:1;fill-rule:nonzero;stroke:none"
         id="path420"
         inkscape:connector-curvature="0" />
      <g
         id="g422"
         transform="matrix(0.1253525,0,0,0.12464737,2.28829,713.68966)">
        <path
           d="m 2415.35,-4220.69 c 0,14.05 -11.4,25.44 -25.44,25.44 -14.05,0 -25.44,-11.39 -25.44,-25.44 0,-14.05 11.39,-25.44 25.44,-25.44 14.04,0 25.44,11.39 25.44,25.44"
           style="fill:none;stroke:#000000;stroke-width:4.23999977;stroke-linecap:butt;stroke-linejoin:miter;stroke-miterlimit:10;stroke-dasharray:none;stroke-opacity:1"
           id="path424"
           inkscape:connector-curvature="0" />
      </g>
      <path
         d="m 233.30579,187.59216 c 0,1.75125 -1.4275,3.17125 -3.18875,3.17125 -1.76,0 -3.18875,-1.42 -3.18875,-3.17125 0,-1.75125 1.42875,-3.17125 3.18875,-3.17125 1.76125,0 3.18875,1.42 3.18875,3.17125"
         style="fill:#000000;fill-opacity:1;fill-rule:nonzero;stroke:none"
         id="path426"
         inkscape:connector-curvature="0" />
      <g
         id="g428"
         transform="matrix(0.1253525,0,0,0.12464737,2.28829,713.68966)">
        <path
           d="m 1842.94,-4220.69 c 0,14.05 -11.39,25.44 -25.44,25.44 -14.04,0 -25.44,-11.39 -25.44,-25.44 0,-14.05 11.4,-25.44 25.44,-25.44 14.05,0 25.44,11.39 25.44,25.44"
           style="fill:none;stroke:#000000;stroke-width:4.23999977;stroke-linecap:butt;stroke-linejoin:miter;stroke-miterlimit:10;stroke-dasharray:none;stroke-opacity:1"
           id="path430"
           inkscape:connector-curvature="0" />
      </g>
      <g
         id="g496"
         transform="matrix(0.1253525,0,0,0.12464737,2.28829,713.68966)">
        <path
           d="m 1813.26,-4780.37 585.13,0"
           style="fill:none;stroke:#000000;stroke-width:4.23999977;stroke-linecap:butt;stroke-linejoin:miter;stroke-miterlimit:10;stroke-dasharray:none;stroke-opacity:1"
           id="path498"
           inkscape:connector-curvature="0" />
      </g>
      <g
         id="g500"
         transform="matrix(0.1253525,0,0,0.12464737,2.28829,713.68966)">
        <path
           d="m 1813.26,-4589.57 585.13,0"
           style="fill:none;stroke:#000000;stroke-width:4.23999977;stroke-linecap:butt;stroke-linejoin:miter;stroke-miterlimit:10;stroke-dasharray:none;stroke-opacity:1"
           id="path502"
           inkscape:connector-curvature="0" />
      </g>
      <g
         id="g504"
         transform="matrix(0.1253525,0,0,0.12464737,2.28829,713.68966)">
        <path
           d="m 1813.26,-4207.97 585.13,0"
           style="fill:none;stroke:#000000;stroke-width:4.23999977;stroke-linecap:butt;stroke-linejoin:miter;stroke-miterlimit:10;stroke-dasharray:none;stroke-opacity:1"
           id="path506"
           inkscape:connector-curvature="0" />
      </g>
      <g
         id="g508"
         transform="matrix(0.1253525,0,0,0.12464737,2.28829,713.68966)">
        <path
           d="m 1813.26,-4398.77 585.13,0"
           style="fill:none;stroke:#000000;stroke-width:4.23999977;stroke-linecap:butt;stroke-linejoin:miter;stroke-miterlimit:10;stroke-dasharray:none;stroke-opacity:1"
           id="path510"
           inkscape:connector-curvature="0" />
      </g>
      <g
         id="g512"
         transform="matrix(0.1253525,0,0,0.12464737,2.28829,713.68966)">
        <path
           d="m 1813.26,-4207.97 0,-585.12"
           style="fill:none;stroke:#000000;stroke-width:4.23999977;stroke-linecap:butt;stroke-linejoin:miter;stroke-miterlimit:10;stroke-dasharray:none;stroke-opacity:1"
           id="path514"
           inkscape:connector-curvature="0" />
      </g>
      <g
         id="g516"
         transform="matrix(0.1253525,0,0,0.12464737,2.28829,713.68966)">
        <path
           d="m 2004.06,-4207.97 0,-585.12"
           style="fill:none;stroke:#000000;stroke-width:4.23999977;stroke-linecap:butt;stroke-linejoin:miter;stroke-miterlimit:10;stroke-dasharray:none;stroke-opacity:1"
           id="path518"
           inkscape:connector-curvature="0" />
      </g>
      <g
         id="g520"
         transform="matrix(0.1253525,0,0,0.12464737,2.28829,713.68966)">
        <path
           d="m 2194.86,-4207.97 0,-585.12"
           style="fill:none;stroke:#000000;stroke-width:4.23999977;stroke-linecap:butt;stroke-linejoin:miter;stroke-miterlimit:10;stroke-dasharray:none;stroke-opacity:1"
           id="path522"
           inkscape:connector-curvature="0" />
      </g>
      <g
         id="g524"
         transform="matrix(0.1253525,0,0,0.12464737,2.28829,713.68966)">
        <path
           d="m 2398.39,-4207.97 0,-585.12"
           style="fill:none;stroke:#000000;stroke-width:4.23999977;stroke-linecap:butt;stroke-linejoin:miter;stroke-miterlimit:10;stroke-dasharray:none;stroke-opacity:1"
           id="path526"
           inkscape:connector-curvature="0" />
      </g>
      <g
         id="g544"
         transform="matrix(0.1253525,0,0,0.12464737,2.28829,713.68966)">
        <path
           d="m 1813.26,-4212.21 559.69,0"
           style="fill:none;stroke:#000000;stroke-width:8.48001003;stroke-linecap:butt;stroke-linejoin:miter;stroke-miterlimit:10;stroke-dasharray:none;stroke-opacity:1"
           id="path546"
           inkscape:connector-curvature="0" />
      </g>
    </g>
  </g>
</svg>
