<?xml version="1.0" encoding="UTF-8" standalone="no"?>
<!-- Created with Inkscape (http://www.inkscape.org/) -->

<svg
   xmlns:dc="http://purl.org/dc/elements/1.1/"
   xmlns:cc="http://creativecommons.org/ns#"
   xmlns:rdf="http://www.w3.org/1999/02/22-rdf-syntax-ns#"
   xmlns:svg="http://www.w3.org/2000/svg"
   xmlns="http://www.w3.org/2000/svg"
   xmlns:sodipodi="http://sodipodi.sourceforge.net/DTD/sodipodi-0.dtd"
   xmlns:inkscape="http://www.inkscape.org/namespaces/inkscape"
   width="104.01865mm"
   height="55.377644mm"
   viewBox="0 0 368.57001 196.22"
   id="svg4574"
   version="1.1"
   inkscape:version="0.91 r13725"
   sodipodi:docname="data_path.svg">
  <defs
     id="defs4576" />
  <sodipodi:namedview
     id="base"
     pagecolor="#ffffff"
     bordercolor="#666666"
     borderopacity="1.0"
     inkscape:pageopacity="0.0"
     inkscape:pageshadow="2"
     inkscape:zoom="3.959798"
     inkscape:cx="123.57278"
     inkscape:cy="132.36422"
     inkscape:document-units="px"
     inkscape:current-layer="layer1"
     showgrid="false"
     fit-margin-top="0"
     fit-margin-left="0"
     fit-margin-right="0"
     fit-margin-bottom="0"
     inkscape:window-width="1600"
     inkscape:window-height="900"
     inkscape:window-x="0"
     inkscape:window-y="0"
     inkscape:window-maximized="0" />
  <metadata
     id="metadata4579">
    <rdf:RDF>
      <cc:Work
         rdf:about="">
        <dc:format>image/svg+xml</dc:format>
        <dc:type
           rdf:resource="http://purl.org/dc/dcmitype/StillImage" />
        <dc:title />
      </cc:Work>
    </rdf:RDF>
  </metadata>
  <g
     inkscape:label="Calque 1"
     inkscape:groupmode="layer"
     id="layer1"
     transform="translate(-172.85786,-122.82363)">
    <path
       d="m 283.16786,217.85238 -109.81,0 0,-81.76875 109.81,0 z"
       style="fill:none;stroke:#231f20;stroke-width:1;stroke-linecap:butt;stroke-linejoin:miter;stroke-miterlimit:4;stroke-dasharray:none;stroke-opacity:1"
       id="path30"
       inkscape:connector-curvature="0"
       sodipodi:nodetypes="ccccc" />
    <path
       d="m 241.63286,212.27488 34.745,0 0,-62.46625 -34.745,0 z"
       style="fill:#d2d3d4;fill-opacity:1;fill-rule:nonzero;stroke:none"
       id="path32"
       inkscape:connector-curvature="0"
       sodipodi:nodetypes="ccccc" />
    <path
       d="m 276.37786,212.27488 -34.745,0 0,-62.46625 34.745,0 z m -34.3525,-14.58375 33.92375,0"
       style="fill:none;stroke:#231f20;stroke-width:1;stroke-linecap:butt;stroke-linejoin:miter;stroke-miterlimit:4;stroke-dasharray:none;stroke-opacity:1"
       id="path34"
       inkscape:connector-curvature="0"
       sodipodi:nodetypes="ccccccc" />
    <path
       d="m 245.92286,169.11238 17.1575,0 0,-6.43375 -17.1575,0 0,6.43375 z"
       style="fill:#a8a9ac;fill-opacity:1;fill-rule:nonzero;stroke:none"
       id="path36"
       inkscape:connector-curvature="0" />
    <path
       d="m 263.08036,169.11238 -17.1575,0 0,-6.43375 17.1575,0 0,6.43375 z m -61.84125,-1.71625 c 0,6.63375 -5.3775,12.01 -12.01,12.01 -6.63375,0 -12.01125,-5.37625 -12.01125,-12.01 0,-6.63375 5.3775,-12.01 12.01125,-12.01 6.6325,0 12.01,5.37625 12.01,12.01 z"
       style="fill:none;stroke:#231f20;stroke-width:1;stroke-linecap:butt;stroke-linejoin:miter;stroke-miterlimit:4;stroke-dasharray:none;stroke-opacity:1"
       id="path38"
       inkscape:connector-curvature="0" />
    <g
       style="font-variant:normal;font-weight:normal;font-size:10px;font-family:Helvetica;-inkscape-font-specification:Helvetica;writing-mode:lr-tb;fill:#221e1f;fill-opacity:1;fill-rule:nonzero;stroke:none"
       id="text40">
      <path
         d="m 184.86411,166.22739 c -0.29,-1.6 -1.21,-2.38 -2.81,-2.38 -0.98,0 -1.77,0.31 -2.31,0.91 -0.66,0.72 -1.02,1.76 -1.02,2.94 0,1.2 0.37,2.23 1.05,2.94 0.57,0.58 1.29,0.85 2.24,0.85 1.78,0 2.78,-0.96 3,-2.89 l -0.96,0 c -0.08,0.5 -0.18,0.84 -0.33,1.13 -0.3,0.6 -0.92,0.94 -1.7,0.94 -1.45,0 -2.37,-1.16 -2.37,-2.98 0,-1.87 0.87,-3.02 2.29,-3.02 0.59,0 1.14,0.17 1.44,0.46 0.27,0.25 0.42,0.55 0.53,1.1 l 0.95,0 z"
         style=""
         id="path5683" />
      <path
         d="m 187.30411,168.16739 2.29,0 c 0.57,0 1.02,-0.17 1.41,-0.52 0.44,-0.4 0.63,-0.87 0.63,-1.54 0,-1.37 -0.81,-2.14 -2.25,-2.14 l -3.01,0 0,7.29 0.93,0 0,-3.09 z m 0,-0.82 0,-2.56 1.94,0 c 0.89,0 1.42,0.48 1.42,1.28 0,0.8 -0.53,1.28 -1.42,1.28 l -1.94,0 z"
         style=""
         id="path5685" />
      <path
         d="m 197.65411,163.96739 0,5.12 c 0,0.98 -0.71,1.58 -1.88,1.58 -0.54,0 -0.98,-0.13 -1.33,-0.38 -0.36,-0.28 -0.53,-0.65 -0.53,-1.2 l 0,-5.12 -0.93,0 0,5.12 c 0,1.48 1.06,2.4 2.79,2.4 1.71,0 2.81,-0.94 2.81,-2.4 l 0,-5.12 -0.93,0 z"
         style=""
         id="path5687" />
    </g>
    <path
       inkscape:connector-curvature="0"
       id="path46"
       style="fill:none;stroke:#221e1f;stroke-width:1;stroke-linecap:butt;stroke-linejoin:miter;stroke-miterlimit:4;stroke-dasharray:none;stroke-opacity:1"
       d="m 283.59661,149.80988 30.455,0 0,25.73625 -30.88375,0" />
    <path
       d="m 288.35161,170.39988 11.1525,0 0,-15.01375 -11.1525,0 0,15.01375 z"
       style="fill:#d2d3d4;fill-opacity:1;fill-rule:nonzero;stroke:none"
       id="path48"
       inkscape:connector-curvature="0" />
    <path
       d="m 299.50411,170.39988 -11.1525,0 0,-15.01375 11.1525,0 0,15.01375 z"
       style="fill:none;stroke:#231f20;stroke-width:1;stroke-linecap:butt;stroke-linejoin:miter;stroke-miterlimit:4;stroke-dasharray:none;stroke-opacity:1"
       id="path50"
       inkscape:connector-curvature="0" />
    <path
       d="m 311.10911,162.67863 c 0,2.60625 -2.1125,4.71875 -4.71875,4.71875 -2.60625,0 -4.71875,-2.1125 -4.71875,-4.71875 0,-2.60625 2.1125,-4.71875 4.71875,-4.71875 2.60625,0 4.71875,2.1125 4.71875,4.71875 z"
       style="fill:none;stroke:#221e1f;stroke-width:0.625;stroke-linecap:butt;stroke-linejoin:miter;stroke-miterlimit:4;stroke-dasharray:1.25, 1.25;stroke-dashoffset:0;stroke-opacity:1"
       id="path52"
       inkscape:connector-curvature="0" />
    <path
       inkscape:connector-curvature="0"
       id="path66"
       style="fill:none;stroke:#231f20;stroke-width:1;stroke-linecap:butt;stroke-linejoin:miter;stroke-miterlimit:4;stroke-dasharray:none;stroke-opacity:1"
       d="m 525.95036,167.39613 c 0,6.63375 -5.37625,12.01 -12.00875,12.01 -6.63375,0 -12.0125,-5.37625 -12.0125,-12.01 0,-6.63375 5.37875,-12.01 12.0125,-12.01 6.6325,0 12.00875,5.37625 12.00875,12.01 z" />
    <g
       style="font-variant:normal;font-weight:normal;font-size:10px;font-family:Helvetica;-inkscape-font-specification:Helvetica;writing-mode:lr-tb;fill:#221e1f;fill-opacity:1;fill-rule:nonzero;stroke:none"
       id="text68">
      <path
         d="m 509.5766,166.22739 c -0.29,-1.6 -1.21,-2.38 -2.81,-2.38 -0.98,0 -1.77,0.31 -2.31,0.91 -0.66,0.72 -1.02,1.76 -1.02,2.94 0,1.2 0.37,2.23 1.05,2.94 0.57,0.58 1.29,0.85 2.24,0.85 1.78,0 2.78,-0.96 3,-2.89 l -0.96,0 c -0.08,0.5 -0.18,0.84 -0.33,1.13 -0.3,0.6 -0.92,0.94 -1.7,0.94 -1.45,0 -2.37,-1.16 -2.37,-2.98 0,-1.87 0.87,-3.02 2.29,-3.02 0.59,0 1.14,0.17 1.44,0.46 0.27,0.25 0.42,0.55 0.53,1.1 l 0.95,0 z"
         style=""
         id="path5697" />
      <path
         d="m 512.01661,168.16739 2.29,0 c 0.57,0 1.02,-0.17 1.41,-0.52 0.44,-0.4 0.63,-0.87 0.63,-1.54 0,-1.37 -0.81,-2.14 -2.25,-2.14 l -3.01,0 0,7.29 0.93,0 0,-3.09 z m 0,-0.82 0,-2.56 1.94,0 c 0.89,0 1.42,0.48 1.42,1.28 0,0.8 -0.53,1.28 -1.42,1.28 l -1.94,0 z"
         style=""
         id="path5699" />
      <path
         d="m 522.36662,163.96739 0,5.12 c 0,0.98 -0.71,1.58 -1.88,1.58 -0.54,0 -0.98,-0.13 -1.33,-0.38 -0.36,-0.28 -0.53,-0.65 -0.53,-1.2 l 0,-5.12 -0.93,0 0,5.12 c 0,1.48 1.06,2.4 2.79,2.4 1.71,0 2.81,-0.94 2.81,-2.4 l 0,-5.12 -0.93,0 z"
         style=""
         id="path5701" />
    </g>
    <path
       inkscape:connector-curvature="0"
       id="path92"
       style="fill:none;stroke:#221e1f;stroke-width:1;stroke-linecap:butt;stroke-linejoin:miter;stroke-miterlimit:4;stroke-dasharray:none;stroke-opacity:1"
       d="m 313.78036,160.24363 29.83125,0 0,33.28125" />
    <path
       d="m 429.86786,217.85238 111.06,0 0,-81.76875 -111.06,0 z"
       style="fill:none;stroke:#231f20;stroke-width:1;stroke-linecap:butt;stroke-linejoin:miter;stroke-miterlimit:4;stroke-dasharray:none;stroke-opacity:1"
       id="path98"
       inkscape:connector-curvature="0"
       sodipodi:nodetypes="ccccc" />
    <path
       d="m 437.90786,192.27488 34.745,0 0,-42.46625 -34.745,0 0,42.46625 z"
       style="fill:#d2d3d4;fill-opacity:1;fill-rule:nonzero;stroke:none"
       id="path100"
       inkscape:connector-curvature="0" />
    <path
       d="m 437.90786,192.27488 34.745,0 0,-42.46625 -34.745,0 0,42.46625 z"
       style="fill:none;stroke:#231f20;stroke-width:1;stroke-linecap:butt;stroke-linejoin:miter;stroke-miterlimit:4;stroke-dasharray:none;stroke-opacity:1"
       id="path102"
       inkscape:connector-curvature="0" />
    <path
       inkscape:connector-curvature="0"
       id="path106"
       style="fill:none;stroke:#221e1f;stroke-width:1;stroke-linecap:butt;stroke-linejoin:miter;stroke-miterlimit:4;stroke-dasharray:none;stroke-opacity:1"
       d="m 429.24661,149.80988 -30.2625,0 0,25.73625 30.88375,0" />
    <path
       d="m 404.13161,170.39988 11.1525,0 0,-15.01375 -11.1525,0 0,15.01375 z"
       style="fill:#d2d3d4;fill-opacity:1;fill-rule:nonzero;stroke:none"
       id="path108"
       inkscape:connector-curvature="0" />
    <path
       d="m 415.28411,170.39988 -11.1525,0 0,-15.01375 11.1525,0 0,15.01375 z"
       style="fill:none;stroke:#231f20;stroke-width:1;stroke-linecap:butt;stroke-linejoin:miter;stroke-miterlimit:4;stroke-dasharray:none;stroke-opacity:1"
       id="path110"
       inkscape:connector-curvature="0" />
    <path
       d="m 427.72286,162.67863 c 0,2.60625 -2.11125,4.71875 -4.7175,4.71875 -2.60625,0 -4.7175,-2.1125 -4.7175,-4.71875 0,-2.60625 2.11125,-4.71875 4.7175,-4.71875 2.60625,0 4.7175,2.1125 4.7175,4.71875 z"
       style="fill:none;stroke:#221e1f;stroke-width:0.625;stroke-linecap:butt;stroke-linejoin:miter;stroke-miterlimit:4;stroke-dasharray:1.25, 1.25;stroke-dashoffset:0;stroke-opacity:1"
       id="path112"
       inkscape:connector-curvature="0" />
    <path
       inkscape:connector-curvature="0"
       id="path132"
       style="fill:none;stroke:#221e1f;stroke-width:1;stroke-linecap:butt;stroke-linejoin:miter;stroke-miterlimit:4;stroke-dasharray:none;stroke-opacity:1"
       d="m 398.59286,160.24363 -35.9925,0 0,33.28125" />
    <path
       inkscape:connector-curvature="0"
       id="path140"
       style="fill:none;stroke:#221e1f;stroke-width:1.25;stroke-linecap:butt;stroke-linejoin:miter;stroke-miterlimit:4;stroke-dasharray:none;stroke-opacity:1"
       d="m 271.01036,206.46613 c 0,0 25.22219,7.77128 24.1675,-29.20375"
       sodipodi:nodetypes="cc" />
    <path
       inkscape:connector-curvature="0"
       id="path144"
       style="fill:#221e1f;fill-opacity:1;fill-rule:nonzero;stroke:none"
       d="m 295.19036,177.96363 -2.45,1.55 -0.0563,-0.0825 1.53,-4.0675 c 0.28375,-1.4125 0.5675,-2.82625 0.85125,-4.23875 0.33625,1.40125 0.67125,2.8025 1.00625,4.205 l 1.6775,4.00875 -0.0412,0.085 -2.5175,-1.46" />
    <path
       inkscape:connector-curvature="0"
       id="path148"
       style="fill:none;stroke:#221e1f;stroke-width:1.25;stroke-linecap:butt;stroke-linejoin:miter;stroke-miterlimit:4;stroke-dasharray:none;stroke-opacity:1"
       d="m 263.08161,165.25113 c 0,0 7.72,-0.55672 7.72,30.295"
       sodipodi:nodetypes="cc" />
    <path
       inkscape:connector-curvature="0"
       id="path152"
       style="fill:#221e1f;fill-opacity:1;fill-rule:nonzero;stroke:none"
       d="m 270.80161,194.84488 2.47625,-1.50625 0.0563,0.085 -1.60375,4.03875 c -0.30875,1.4075 -0.61875,2.815 -0.92875,4.2225 -0.31,-1.4075 -0.61875,-2.815 -0.92875,-4.2225 l -1.60375,-4.03875 0.0412,-0.085 2.49125,1.50625"
       sodipodi:nodetypes="ccccccccc" />
    <path
       inkscape:connector-curvature="0"
       id="path180"
       style="fill:none;stroke:#221e1f;stroke-width:1.25;stroke-linecap:butt;stroke-linejoin:miter;stroke-miterlimit:4;stroke-dasharray:none;stroke-opacity:1"
       d="m 409.81661,170.83613 c 0,0 1.53375,16.72125 32.4175,17.15" />
    <path
       inkscape:connector-curvature="0"
       id="path184"
       style="fill:#221e1f;fill-opacity:1;fill-rule:nonzero;stroke:none"
       d="m 441.53286,187.97613 -1.4725,-2.4975 0.0863,-0.055 4.01625,1.66 c 1.4025,0.32875 2.80625,0.6575 4.20875,0.9875 -1.41125,0.29 -2.82375,0.58 -4.235,0.87 l -4.06125,1.54875 -0.0825,-0.0437 1.54,-2.47" />
    <path
       inkscape:connector-curvature="0"
       id="path188"
       style="fill:none;stroke:#221e1f;stroke-width:1.25;stroke-linecap:butt;stroke-linejoin:miter;stroke-miterlimit:4;stroke-dasharray:none;stroke-opacity:1"
       d="m 456.38911,187.55738 c 0,0 9.00625,-1.71625 9.43625,-14.58375" />
    <path
       inkscape:connector-curvature="0"
       id="path192"
       style="fill:#221e1f;fill-opacity:1;fill-rule:nonzero;stroke:none"
       d="m 465.80161,173.67363 -2.525,1.4225 -0.0537,-0.0862 1.7375,-3.9825 c 0.35625,-1.39625 0.7125,-2.79375 1.07,-4.18875 0.2625,1.41625 0.525,2.83375 0.7875,4.25 l 1.4675,4.09125 -0.045,0.0825 -2.43875,-1.58875" />
    <path
       inkscape:connector-curvature="0"
       id="path196"
       style="fill:#231f20;fill-opacity:1;fill-rule:nonzero;stroke:none"
       d="m 407.52411,162.81738 -1.60625,-2.4125 0.0812,-0.06 4.1025,1.4375 c 1.41875,0.25125 2.8375,0.50375 4.25625,0.755 -1.3925,0.36625 -2.78625,0.73375 -4.18,1.10125 l -3.97,1.7675 -0.0863,-0.0375 1.4025,-2.55125" />
    <path
       d="m 371.49411,217.15363 -37.7475,0 0,-23.5925 37.7475,0 0,23.5925 z"
       style="fill:none;stroke:#231f20;stroke-width:1;stroke-linecap:butt;stroke-linejoin:miter;stroke-miterlimit:4;stroke-dasharray:none;stroke-opacity:1"
       id="path198"
       inkscape:connector-curvature="0" />
    <path
       inkscape:connector-curvature="0"
       id="path5711"
       style="font-variant:normal;font-weight:normal;font-size:medium;font-family:Helvetica;-inkscape-font-specification:Helvetica;writing-mode:lr-tb;fill:#221e1f;fill-opacity:1;fill-rule:nonzero;stroke:none"
       d="m 344.2841,203.85363 c 0,-0.5 -0.03,-0.64 -0.19,-0.98 -0.4,-0.84 -1.25,-1.28 -2.48,-1.28 -1.6,0 -2.59,0.82 -2.59,2.14 0,0.89 0.47,1.45 1.43,1.7 l 1.81,0.48 c 0.93,0.24 1.34,0.61 1.34,1.18 0,0.39 -0.21,0.79 -0.52,1.01 -0.29,0.21 -0.75,0.31 -1.34,0.31 -0.8,0 -1.33,-0.19 -1.68,-0.61 -0.27,-0.32 -0.39,-0.67 -0.38,-1.12 l -0.88,0 c 0.01,0.67 0.14,1.11 0.43,1.51 0.5,0.69 1.34,1.04 2.45,1.04 0.87,0 1.58,-0.2 2.05,-0.56 0.49,-0.39 0.8,-1.04 0.8,-1.67 0,-0.9 -0.56,-1.56 -1.55,-1.83 l -1.83,-0.49 c -0.88,-0.24 -1.2,-0.52 -1.2,-1.08 0,-0.74 0.65,-1.23 1.63,-1.23 1.16,0 1.81,0.52 1.82,1.48 l 0.88,0 z" />
    <path
       inkscape:connector-curvature="0"
       id="path5713"
       style="font-variant:normal;font-weight:normal;font-size:medium;font-family:Helvetica;-inkscape-font-specification:Helvetica;writing-mode:lr-tb;fill:#221e1f;fill-opacity:1;fill-rule:nonzero;stroke:none"
       d="m 350.53411,209.00363 1.54,-5.24 -0.94,0 -1.04,4.08 -1.03,-4.08 -1.02,0 -1,4.08 -1.07,-4.08 -0.92,0 1.52,5.24 0.94,0 1.01,-4.11 1.06,4.11 0.95,0 z" />
    <path
       inkscape:connector-curvature="0"
       id="path5715"
       style="font-variant:normal;font-weight:normal;font-size:medium;font-family:Helvetica;-inkscape-font-specification:Helvetica;writing-mode:lr-tb;fill:#221e1f;fill-opacity:1;fill-rule:nonzero;stroke:none"
       d="m 353.71411,203.76363 -0.83,0 0,5.24 0.83,0 0,-5.24 z m 0,-2.05 -0.84,0 0,1.05 0.84,0 0,-1.05 z" />
    <path
       inkscape:connector-curvature="0"
       id="path5717"
       style="font-variant:normal;font-weight:normal;font-size:medium;font-family:Helvetica;-inkscape-font-specification:Helvetica;writing-mode:lr-tb;fill:#221e1f;fill-opacity:1;fill-rule:nonzero;stroke:none"
       d="m 356.97411,203.76363 -0.86,0 0,-1.44 -0.83,0 0,1.44 -0.71,0 0,0.68 0.71,0 0,3.96 c 0,0.54 0.36,0.83 1.01,0.83 0.22,0 0.4,-0.02 0.68,-0.07 l 0,-0.7 c -0.12,0.03 -0.23,0.04 -0.4,0.04 -0.36,0 -0.46,-0.1 -0.46,-0.47 l 0,-3.59 0.86,0 0,-0.68 z" />
    <path
       inkscape:connector-curvature="0"
       id="path5719"
       style="font-variant:normal;font-weight:normal;font-size:medium;font-family:Helvetica;-inkscape-font-specification:Helvetica;writing-mode:lr-tb;fill:#221e1f;fill-opacity:1;fill-rule:nonzero;stroke:none"
       d="m 361.92411,205.52363 c -0.04,-0.51 -0.15,-0.84 -0.35,-1.13 -0.36,-0.49 -0.99,-0.78 -1.72,-0.78 -1.42,0 -2.33,1.12 -2.33,2.86 0,1.69 0.9,2.76 2.32,2.76 1.25,0 2.04,-0.75 2.14,-2.03 l -0.84,0 c -0.14,0.84 -0.57,1.26 -1.28,1.26 -0.92,0 -1.47,-0.75 -1.47,-1.99 0,-1.31 0.54,-2.09 1.45,-2.09 0.7,0 1.14,0.41 1.24,1.14 l 0.84,0 z" />
    <path
       inkscape:connector-curvature="0"
       id="path5721"
       style="font-variant:normal;font-weight:normal;font-size:medium;font-family:Helvetica;-inkscape-font-specification:Helvetica;writing-mode:lr-tb;fill:#221e1f;fill-opacity:1;fill-rule:nonzero;stroke:none"
       d="m 362.91411,201.71363 0,7.29 0.83,0 0,-2.89 c 0,-1.07 0.56,-1.77 1.42,-1.77 0.28,0 0.54,0.08 0.74,0.23 0.24,0.18 0.34,0.43 0.34,0.8 l 0,3.63 0.83,0 0,-3.96 c 0,-0.88 -0.63,-1.43 -1.65,-1.43 -0.74,0 -1.19,0.23 -1.68,0.87 l 0,-2.77 -0.83,0 z" />
    <path
       inkscape:connector-curvature="0"
       id="path5919"
       style="font-variant:normal;font-weight:normal;font-size:medium;font-family:Helvetica;-inkscape-font-specification:Helvetica;writing-mode:lr-tb;fill:#221e1f;fill-opacity:1;fill-rule:nonzero;stroke:none"
       d="m 332.8581,169.72263 0.11,0 0.37,-0.01 c 0.97,0 1.47,0.44 1.47,1.29 0,0.89 -0.55,1.42 -1.47,1.42 -0.96,0 -1.43,-0.48 -1.49,-1.51 l -0.88,0 c 0.04,0.57 0.14,0.94 0.31,1.26 0.36,0.68 1.06,1.03 2.03,1.03 1.46,0 2.4,-0.87 2.4,-2.21 0,-0.9 -0.35,-1.4 -1.2,-1.69 0.66,-0.27 0.99,-0.76 0.99,-1.47 0,-1.22 -0.81,-1.95 -2.16,-1.95 -1.43,0 -2.19,0.78 -2.22,2.29 l 0.88,0 c 0.01,-0.43 0.05,-0.67 0.16,-0.89 0.2,-0.39 0.64,-0.63 1.19,-0.63 0.78,0 1.25,0.45 1.25,1.21 0,0.5 -0.18,0.8 -0.57,0.96 -0.24,0.1 -0.55,0.14 -1.17,0.15 l 0,0.75 z" />
    <path
       inkscape:connector-curvature="0"
       id="path5921"
       style="font-variant:normal;font-weight:normal;font-size:medium;font-family:Helvetica;-inkscape-font-specification:Helvetica;writing-mode:lr-tb;fill:#221e1f;fill-opacity:1;fill-rule:nonzero;stroke:none"
       d="m 297.4581,213.12162 -3.73,0 c 0.09,-0.58 0.41,-0.95 1.28,-1.46 l 1,-0.54 c 0.99,-0.54 1.5,-1.27 1.5,-2.14 0,-0.59 -0.24,-1.14 -0.66,-1.53 -0.42,-0.37 -0.93,-0.55 -1.61,-0.55 -0.9,0 -1.57,0.31 -1.96,0.92 -0.25,0.38 -0.36,0.82 -0.38,1.54 l 0.88,0 c 0.03,-0.48 0.09,-0.77 0.21,-1 0.23,-0.43 0.69,-0.69 1.22,-0.69 0.8,0 1.4,0.57 1.4,1.33 0,0.56 -0.33,1.04 -0.96,1.4 l -0.92,0.52 c -1.48,0.84 -1.91,1.51 -1.99,3.07 l 4.72,0 z"
       sodipodi:nodetypes="ccccscsccccssccccc" />
    <path
       inkscape:connector-curvature="0"
       id="path5923"
       style="font-variant:normal;font-weight:normal;font-size:medium;font-family:Helvetica;-inkscape-font-specification:Helvetica;writing-mode:lr-tb;fill:#221e1f;fill-opacity:1;fill-rule:nonzero;stroke:none"
       d="m 268.88312,155.96663 0,5.05 0.88,0 0,-7.09 -0.58,0 c -0.31,1.09 -0.51,1.24 -1.87,1.41 l 0,0.63 1.57,0 z" />
    <path
       inkscape:connector-curvature="0"
       id="path5925"
       style="font-variant:normal;font-weight:normal;font-size:medium;font-family:Helvetica;-inkscape-font-specification:Helvetica;writing-mode:lr-tb;fill:#221e1f;fill-opacity:1;fill-rule:nonzero;stroke:none"
       d="m 418.77711,192.72062 0,1.7 0.88,0 0,-1.7 1.05,0 0,-0.79 -1.05,0 0,-4.6 -0.65,0 -3.22,4.46 0,0.93 2.99,0 z m 0,-0.79 -2.22,0 2.22,-3.1 0,3.1 z" />
    <path
       inkscape:connector-curvature="0"
       id="path5927"
       style="font-variant:normal;font-weight:normal;font-size:medium;font-family:Helvetica;-inkscape-font-specification:Helvetica;writing-mode:lr-tb;fill:#221e1f;fill-opacity:1;fill-rule:nonzero;stroke:none"
       d="m 469.4861,183.04164 -3.66,0 -0.53,3.86 0.81,0 c 0.41,-0.49 0.75,-0.66 1.31,-0.66 0.95,0 1.54,0.65 1.54,1.7 0,1.02 -0.59,1.64 -1.55,1.64 -0.77,0 -1.24,-0.39 -1.45,-1.19 l -0.88,0 c 0.12,0.58 0.22,0.86 0.43,1.12 0.4,0.54 1.12,0.85 1.92,0.85 1.43,0 2.43,-1.04 2.43,-2.54 0,-1.4 -0.93,-2.36 -2.29,-2.36 -0.5,0 -0.9,0.13 -1.31,0.43 l 0.28,-1.98 2.95,0 0,-0.87 z" />
    <path
       inkscape:connector-curvature="0"
       id="path5929"
       style="font-variant:normal;font-weight:normal;font-size:medium;font-family:Helvetica;-inkscape-font-specification:Helvetica;writing-mode:lr-tb;fill:#221e1f;fill-opacity:1;fill-rule:nonzero;stroke:none"
       d="m 217.98411,156.75263 0,5.12 c 0,0.98 -0.71,1.58 -1.88,1.58 -0.54,0 -0.98,-0.13 -1.33,-0.38 -0.36,-0.28 -0.53,-0.65 -0.53,-1.2 l 0,-5.12 -0.93,0 0,5.12 c 0,1.48 1.06,2.4 2.79,2.4 1.71,0 2.81,-0.94 2.81,-2.4 l 0,-5.12 -0.93,0 z" />
    <path
       inkscape:connector-curvature="0"
       id="path5931"
       style="font-variant:normal;font-weight:normal;font-size:medium;font-family:Helvetica;-inkscape-font-specification:Helvetica;writing-mode:lr-tb;fill:#221e1f;fill-opacity:1;fill-rule:nonzero;stroke:none"
       d="m 224.06411,160.26263 c -0.01,-1.03 -0.69,-1.61 -1.9,-1.61 -1.22,0 -2.01,0.63 -2.01,1.6 0,0.82 0.42,1.21 1.66,1.51 l 0.78,0.19 c 0.58,0.14 0.81,0.35 0.81,0.72 0,0.5 -0.49,0.83 -1.22,0.83 -0.45,0 -0.83,-0.13 -1.04,-0.35 -0.13,-0.15 -0.19,-0.3 -0.24,-0.67 l -0.88,0 c 0.04,1.21 0.72,1.79 2.09,1.79 1.32,0 2.16,-0.65 2.16,-1.66 0,-0.78 -0.44,-1.21 -1.48,-1.46 l -0.8,-0.19 c -0.68,-0.16 -0.97,-0.38 -0.97,-0.75 0,-0.49 0.43,-0.79 1.11,-0.79 0.67,0 1.03,0.29 1.05,0.84 l 0.88,0 z" />
    <path
       inkscape:connector-curvature="0"
       id="path5933"
       style="font-variant:normal;font-weight:normal;font-size:medium;font-family:Helvetica;-inkscape-font-specification:Helvetica;writing-mode:lr-tb;fill:#221e1f;fill-opacity:1;fill-rule:nonzero;stroke:none"
       d="m 229.81411,161.70263 c 0,-0.8 -0.06,-1.28 -0.21,-1.67 -0.34,-0.86 -1.14,-1.38 -2.12,-1.38 -1.46,0 -2.4,1.11 -2.4,2.84 0,1.73 0.9,2.78 2.38,2.78 1.2,0 2.03,-0.68 2.24,-1.82 l -0.84,0 c -0.23,0.69 -0.7,1.05 -1.37,1.05 -0.53,0 -0.98,-0.24 -1.26,-0.68 -0.2,-0.3 -0.27,-0.6 -0.28,-1.12 l 3.86,0 z m -3.84,-0.68 c 0.07,-0.97 0.66,-1.6 1.5,-1.6 0.85,0 1.44,0.66 1.44,1.6 l -2.94,0 z" />
    <path
       inkscape:connector-curvature="0"
       id="path5935"
       style="font-variant:normal;font-weight:normal;font-size:medium;font-family:Helvetica;-inkscape-font-specification:Helvetica;writing-mode:lr-tb;fill:#221e1f;fill-opacity:1;fill-rule:nonzero;stroke:none"
       d="m 230.93411,158.80263 0,5.24 0.84,0 0,-2.72 c 0.01,-1.26 0.53,-1.82 1.68,-1.79 l 0,-0.85 c -0.14,-0.02 -0.22,-0.03 -0.32,-0.03 -0.54,0 -0.95,0.32 -1.43,1.1 l 0,-0.95 -0.77,0 z" />
    <path
       inkscape:connector-curvature="0"
       id="path5937"
       style="font-variant:normal;font-weight:normal;font-size:medium;font-family:Helvetica;-inkscape-font-specification:Helvetica;writing-mode:lr-tb;fill:#221e1f;fill-opacity:1;fill-rule:nonzero;stroke:none"
       d="m 219.68411,200.05263 c -2.09,0 -3.51,1.54 -3.51,3.82 0,2.29 1.41,3.82 3.52,3.82 0.89,0 1.67,-0.27 2.26,-0.77 0.79,-0.67 1.26,-1.8 1.26,-2.99 0,-2.35 -1.39,-3.88 -3.53,-3.88 z m 0,0.82 c 1.58,0 2.6,1.19 2.6,3.04 0,1.76 -1.05,2.96 -2.59,2.96 -1.56,0 -2.59,-1.2 -2.59,-3 0,-1.8 1.03,-3 2.58,-3 z" />
    <path
       inkscape:connector-curvature="0"
       id="path5939"
       style="font-variant:normal;font-weight:normal;font-size:medium;font-family:Helvetica;-inkscape-font-specification:Helvetica;writing-mode:lr-tb;fill:#221e1f;fill-opacity:1;fill-rule:nonzero;stroke:none"
       d="m 229.53411,202.31263 c 0,-0.5 -0.03,-0.64 -0.19,-0.98 -0.4,-0.84 -1.25,-1.28 -2.48,-1.28 -1.6,0 -2.59,0.82 -2.59,2.14 0,0.89 0.47,1.45 1.43,1.7 l 1.81,0.48 c 0.93,0.24 1.34,0.61 1.34,1.18 0,0.39 -0.21,0.79 -0.52,1.01 -0.29,0.21 -0.75,0.31 -1.34,0.31 -0.8,0 -1.33,-0.19 -1.68,-0.61 -0.27,-0.32 -0.39,-0.67 -0.38,-1.12 l -0.88,0 c 0.01,0.67 0.14,1.11 0.43,1.51 0.5,0.69 1.34,1.04 2.45,1.04 0.87,0 1.58,-0.2 2.05,-0.56 0.49,-0.39 0.8,-1.04 0.8,-1.67 0,-0.9 -0.56,-1.56 -1.55,-1.83 l -1.83,-0.49 c -0.88,-0.24 -1.2,-0.52 -1.2,-1.08 0,-0.74 0.65,-1.23 1.63,-1.23 1.16,0 1.81,0.52 1.82,1.48 l 0.88,0 z" />
    <path
       inkscape:connector-curvature="0"
       id="path252"
       style="fill:none;stroke:#221e1f;stroke-width:0.625;stroke-linecap:butt;stroke-linejoin:miter;stroke-miterlimit:4;stroke-dasharray:none;stroke-opacity:1"
       d="m 239.20911,149.88613 -1.125,0 c -0.8775,0 -1.08,1.0125 -1.08,1.98 l 0,18.695 c 0,2.295 -1.44,2.9475 -1.9575,3.015 l 0,0.0675 c 0.5175,0.135 1.9575,0.9 1.9575,3.015 l 0,17.71125 c 0,0.945 0.2025,1.935 1.08,1.935 l 1.125,0"
       sodipodi:nodetypes="csssccsssc" />
    <path
       d="m 239.20911,198.20613 -1.125,0 c -0.8775,0 -1.08,1.0125 -1.08,1.98 l 0,0.9275 c 0,2.295 -1.44,2.94625 -1.9575,3.01375 l 0,0.0688 c 0.5175,0.13375 1.9575,0.9 1.9575,3.015 l 0,3.0675 c 0,0.94375 0.2025,1.93375 1.08,1.93375 l 1.125,0"
       style="fill:none;stroke:#221e1f;stroke-width:0.625;stroke-linecap:butt;stroke-linejoin:miter;stroke-miterlimit:4;stroke-dasharray:none;stroke-opacity:1"
       id="path256"
       inkscape:connector-curvature="0" />
    <path
       inkscape:connector-curvature="0"
       id="path260"
       style="fill:none;stroke:#221e1f;stroke-width:1;stroke-linecap:butt;stroke-linejoin:miter;stroke-miterlimit:4;stroke-dasharray:none;stroke-opacity:1"
       d="m 408.31161,162.83988 -36.14,0 c -2.07,0 -3.75,1.67875 -3.75,3.75 l 0,27.41625 -0.0875,0.375 c 0,2.07125 -1.67875,3.75 -3.75,3.75 l -22.75375,0 c -2.07125,0 -3.75,-1.67875 -3.75,-3.75 l -0.0875,-0.375 0,-27.41625 c 0,-2.07125 -1.68,-3.75 -3.75,-3.75 l -37.7025,0" />
    <path
       inkscape:connector-curvature="0"
       id="path264"
       style="fill:none;stroke:#231f20;stroke-width:1;stroke-linecap:butt;stroke-linejoin:miter;stroke-miterlimit:4;stroke-dasharray:none;stroke-opacity:1"
       d="m 438.27536,177.69113 33.92375,0" />
    <text
       xml:space="preserve"
       style="font-style:normal;font-variant:normal;font-weight:normal;font-stretch:normal;font-size:10px;line-height:125%;font-family:Arial;-inkscape-font-specification:Arial;text-align:center;letter-spacing:0px;word-spacing:0px;writing-mode:lr-tb;text-anchor:middle;fill:#000000;fill-opacity:1;stroke:none;stroke-width:1px;stroke-linecap:butt;stroke-linejoin:miter;stroke-opacity:1"
       x="484.77087"
       y="130.15785"
       id="text4436"
       sodipodi:linespacing="125%"><tspan
         sodipodi:role="line"
         id="tspan4438"
         x="484.77087"
         y="130.15785">Nœud 2</tspan></text>
    <text
       sodipodi:linespacing="125%"
       id="text4454"
       y="130.15785"
       x="227.86354"
       style="font-style:normal;font-variant:normal;font-weight:normal;font-stretch:normal;font-size:10px;line-height:125%;font-family:Arial;-inkscape-font-specification:Arial;text-align:center;letter-spacing:0px;word-spacing:0px;writing-mode:lr-tb;text-anchor:middle;fill:#000000;fill-opacity:1;stroke:none;stroke-width:1px;stroke-linecap:butt;stroke-linejoin:miter;stroke-opacity:1"
       xml:space="preserve"><tspan
         y="130.15785"
         x="227.86354"
         id="tspan4456"
         sodipodi:role="line">Nœud 1</tspan></text>
    <text
       xml:space="preserve"
       style="font-style:normal;font-variant:normal;font-weight:normal;font-stretch:normal;font-size:10px;line-height:125%;font-family:Arial;-inkscape-font-specification:Arial;text-align:center;letter-spacing:0px;word-spacing:0px;writing-mode:lr-tb;text-anchor:middle;fill:#000000;fill-opacity:1;stroke:none;stroke-width:1px;stroke-linecap:butt;stroke-linejoin:miter;stroke-opacity:1"
       x="455.84799"
       y="147.17958"
       id="text4458"
       sodipodi:linespacing="125%"><tspan
         sodipodi:role="line"
         id="tspan4460"
         x="455.84799"
         y="147.17958">RAM</tspan></text>
    <text
       sodipodi:linespacing="125%"
       id="text4480"
       y="146.32257"
       x="258.013"
       style="font-style:normal;font-variant:normal;font-weight:normal;font-stretch:normal;font-size:10px;line-height:125%;font-family:Arial;-inkscape-font-specification:Arial;text-align:center;letter-spacing:0px;word-spacing:0px;writing-mode:lr-tb;text-anchor:middle;fill:#000000;fill-opacity:1;stroke:none;stroke-width:1px;stroke-linecap:butt;stroke-linejoin:miter;stroke-opacity:1"
       xml:space="preserve"><tspan
         y="146.32257"
         x="258.013"
         id="tspan4482"
         sodipodi:role="line">RAM</tspan></text>
    <text
       xml:space="preserve"
       style="font-style:normal;font-variant:normal;font-weight:normal;font-stretch:normal;font-size:10px;line-height:125%;font-family:Arial;-inkscape-font-specification:Arial;text-align:center;letter-spacing:0px;word-spacing:0px;writing-mode:lr-tb;text-anchor:middle;fill:#000000;fill-opacity:1;stroke:none;stroke-width:1px;stroke-linecap:butt;stroke-linejoin:miter;stroke-opacity:1"
       x="298.64246"
       y="146.32257"
       id="text4484"
       sodipodi:linespacing="125%"><tspan
         sodipodi:role="line"
         id="tspan4486"
         x="298.64246"
         y="146.32257">NIC</tspan></text>
    <text
       sodipodi:linespacing="125%"
       id="text4488"
       y="146.32257"
       x="413.95871"
       style="font-style:normal;font-variant:normal;font-weight:normal;font-stretch:normal;font-size:10px;line-height:125%;font-family:Arial;-inkscape-font-specification:Arial;text-align:center;letter-spacing:0px;word-spacing:0px;writing-mode:lr-tb;text-anchor:middle;fill:#000000;fill-opacity:1;stroke:none;stroke-width:1px;stroke-linecap:butt;stroke-linejoin:miter;stroke-opacity:1"
       xml:space="preserve"><tspan
         y="146.32257"
         x="413.95871"
         id="tspan4490"
         sodipodi:role="line">NIC</tspan></text>
    <text
       xml:space="preserve"
       style="font-style:normal;font-variant:normal;font-weight:normal;font-stretch:normal;font-size:10px;line-height:125%;font-family:Arial;-inkscape-font-specification:Arial;text-align:center;letter-spacing:0px;word-spacing:0px;writing-mode:lr-tb;text-anchor:middle;fill:#000000;fill-opacity:1;stroke:none;stroke-width:1px;stroke-linecap:butt;stroke-linejoin:miter;stroke-opacity:1"
       x="227.86354"
       y="110.15785"
       id="text4492"
       sodipodi:linespacing="125%"><tspan
         sodipodi:role="line"
         id="tspan4494"
         x="227.86354"
         y="110.15785">CPU</tspan></text>
  </g>
</svg>
