<?xml version="1.0" encoding="UTF-8" standalone="no"?>
<!-- Created with Inkscape (http://www.inkscape.org/) -->

<svg
   xmlns:dc="http://purl.org/dc/elements/1.1/"
   xmlns:cc="http://creativecommons.org/ns#"
   xmlns:rdf="http://www.w3.org/1999/02/22-rdf-syntax-ns#"
   xmlns:svg="http://www.w3.org/2000/svg"
   xmlns="http://www.w3.org/2000/svg"
   xmlns:sodipodi="http://sodipodi.sourceforge.net/DTD/sodipodi-0.dtd"
   xmlns:inkscape="http://www.inkscape.org/namespaces/inkscape"
   width="104.01865mm"
   height="55.377644mm"
   viewBox="0 0 368.57001 196.22"
   id="svg4574"
   version="1.1"
   inkscape:version="0.91 r13725"
   sodipodi:docname="data_path.svg">
  <defs
     id="defs4576" />
  <sodipodi:namedview
     id="base"
     pagecolor="#ffffff"
     bordercolor="#666666"
     borderopacity="1.0"
     inkscape:pageopacity="0.0"
     inkscape:pageshadow="2"
     inkscape:zoom="1.4"
     inkscape:cx="215.6064"
     inkscape:cy="58.427832"
     inkscape:document-units="px"
     inkscape:current-layer="layer1"
     showgrid="false"
     fit-margin-top="0"
     fit-margin-left="0"
     fit-margin-right="0"
     fit-margin-bottom="0"
     inkscape:window-width="1600"
     inkscape:window-height="900"
     inkscape:window-x="0"
     inkscape:window-y="0"
     inkscape:window-maximized="0" />
  <metadata
     id="metadata4579">
    <rdf:RDF>
      <cc:Work
         rdf:about="">
        <dc:format>image/svg+xml</dc:format>
        <dc:type
           rdf:resource="http://purl.org/dc/dcmitype/StillImage" />
        <dc:title></dc:title>
      </cc:Work>
    </rdf:RDF>
  </metadata>
  <g
     inkscape:label="Calque 1"
     inkscape:groupmode="layer"
     id="layer1"
     transform="translate(-172.85786,-122.82363)">
    <path
       d="m 283.16786,197.85238 -109.81,0 0,-61.76875 109.81,0 0,61.76875 z"
       style="fill:none;stroke:#231f20;stroke-width:1;stroke-linecap:butt;stroke-linejoin:miter;stroke-miterlimit:4;stroke-dasharray:none;stroke-opacity:1"
       id="path30"
       inkscape:connector-curvature="0" />
    <path
       d="m 241.63286,192.27488 34.745,0 0,-42.46625 -34.745,0 0,42.46625 z"
       style="fill:#d2d3d4;fill-opacity:1;fill-rule:nonzero;stroke:none"
       id="path32"
       inkscape:connector-curvature="0" />
    <path
       d="m 276.37786,192.27488 -34.745,0 0,-42.46625 34.745,0 0,42.46625 z m -34.3525,-14.58375 33.92375,0"
       style="fill:none;stroke:#231f20;stroke-width:1;stroke-linecap:butt;stroke-linejoin:miter;stroke-miterlimit:4;stroke-dasharray:none;stroke-opacity:1"
       id="path34"
       inkscape:connector-curvature="0" />
    <path
       d="m 245.92286,169.11238 17.1575,0 0,-6.43375 -17.1575,0 0,6.43375 z"
       style="fill:#a8a9ac;fill-opacity:1;fill-rule:nonzero;stroke:none"
       id="path36"
       inkscape:connector-curvature="0" />
    <path
       d="m 263.08036,169.11238 -17.1575,0 0,-6.43375 17.1575,0 0,6.43375 z m -61.84125,-1.71625 c 0,6.63375 -5.3775,12.01 -12.01,12.01 -6.63375,0 -12.01125,-5.37625 -12.01125,-12.01 0,-6.63375 5.3775,-12.01 12.01125,-12.01 6.6325,0 12.01,5.37625 12.01,12.01 z"
       style="fill:none;stroke:#231f20;stroke-width:1;stroke-linecap:butt;stroke-linejoin:miter;stroke-miterlimit:4;stroke-dasharray:none;stroke-opacity:1"
       id="path38"
       inkscape:connector-curvature="0" />
    <g
       style="font-variant:normal;font-weight:normal;font-size:10px;font-family:Helvetica;-inkscape-font-specification:Helvetica;writing-mode:lr-tb;fill:#221e1f;fill-opacity:1;fill-rule:nonzero;stroke:none"
       id="text40">
      <path
         d="m 184.86411,166.22739 c -0.29,-1.6 -1.21,-2.38 -2.81,-2.38 -0.98,0 -1.77,0.31 -2.31,0.91 -0.66,0.72 -1.02,1.76 -1.02,2.94 0,1.2 0.37,2.23 1.05,2.94 0.57,0.58 1.29,0.85 2.24,0.85 1.78,0 2.78,-0.96 3,-2.89 l -0.96,0 c -0.08,0.5 -0.18,0.84 -0.33,1.13 -0.3,0.6 -0.92,0.94 -1.7,0.94 -1.45,0 -2.37,-1.16 -2.37,-2.98 0,-1.87 0.87,-3.02 2.29,-3.02 0.59,0 1.14,0.17 1.44,0.46 0.27,0.25 0.42,0.55 0.53,1.1 l 0.95,0 z"
         style=""
         id="path5683" />
      <path
         d="m 187.30411,168.16739 2.29,0 c 0.57,0 1.02,-0.17 1.41,-0.52 0.44,-0.4 0.63,-0.87 0.63,-1.54 0,-1.37 -0.81,-2.14 -2.25,-2.14 l -3.01,0 0,7.29 0.93,0 0,-3.09 z m 0,-0.82 0,-2.56 1.94,0 c 0.89,0 1.42,0.48 1.42,1.28 0,0.8 -0.53,1.28 -1.42,1.28 l -1.94,0 z"
         style=""
         id="path5685" />
      <path
         d="m 197.65411,163.96739 0,5.12 c 0,0.98 -0.71,1.58 -1.88,1.58 -0.54,0 -0.98,-0.13 -1.33,-0.38 -0.36,-0.28 -0.53,-0.65 -0.53,-1.2 l 0,-5.12 -0.93,0 0,5.12 c 0,1.48 1.06,2.4 2.79,2.4 1.71,0 2.81,-0.94 2.81,-2.4 l 0,-5.12 -0.93,0 z"
         style=""
         id="path5687" />
    </g>
    <path
       inkscape:connector-curvature="0"
       id="path46"
       style="fill:none;stroke:#221e1f;stroke-width:1;stroke-linecap:butt;stroke-linejoin:miter;stroke-miterlimit:4;stroke-dasharray:none;stroke-opacity:1"
       d="m 283.59661,149.80988 30.455,0 0,25.73625 -30.88375,0" />
    <path
       d="m 288.35161,170.39988 11.1525,0 0,-15.01375 -11.1525,0 0,15.01375 z"
       style="fill:#d2d3d4;fill-opacity:1;fill-rule:nonzero;stroke:none"
       id="path48"
       inkscape:connector-curvature="0" />
    <path
       d="m 299.50411,170.39988 -11.1525,0 0,-15.01375 11.1525,0 0,15.01375 z"
       style="fill:none;stroke:#231f20;stroke-width:1;stroke-linecap:butt;stroke-linejoin:miter;stroke-miterlimit:4;stroke-dasharray:none;stroke-opacity:1"
       id="path50"
       inkscape:connector-curvature="0" />
    <path
       d="m 311.10911,162.67863 c 0,2.60625 -2.1125,4.71875 -4.71875,4.71875 -2.60625,0 -4.71875,-2.1125 -4.71875,-4.71875 0,-2.60625 2.1125,-4.71875 4.71875,-4.71875 2.60625,0 4.71875,2.1125 4.71875,4.71875 z"
       style="fill:none;stroke:#221e1f;stroke-width:0.625;stroke-linecap:butt;stroke-linejoin:miter;stroke-miterlimit:4;stroke-dasharray:1.25, 1.25;stroke-dashoffset:0;stroke-opacity:1"
       id="path52"
       inkscape:connector-curvature="0" />
    <path
       d="m 283.16786,278.92238 -109.81,0 0,-61.76875 109.81,0 0,61.76875 z"
       style="fill:none;stroke:#231f20;stroke-width:1;stroke-linecap:butt;stroke-linejoin:miter;stroke-miterlimit:4;stroke-dasharray:none;stroke-opacity:1"
       id="path54"
       inkscape:connector-curvature="0" />
    <path
       d="m 241.63286,273.34613 34.745,0 0,-42.46625 -34.745,0 0,42.46625 z"
       style="fill:#d2d3d4;fill-opacity:1;fill-rule:nonzero;stroke:none"
       id="path56"
       inkscape:connector-curvature="0" />
    <path
       d="m 276.37786,273.34613 -34.745,0 0,-42.46625 34.745,0 0,42.46625 z m -34.3525,-14.585 33.92375,0 m -74.71,-10.29375 c 0,6.63375 -5.3775,12.01 -12.01,12.01 -6.63375,0 -12.01125,-5.37625 -12.01125,-12.01 0,-6.63375 5.3775,-12.01 12.01125,-12.01 6.6325,0 12.01,5.37625 12.01,12.01 z"
       style="fill:none;stroke:#231f20;stroke-width:1;stroke-linecap:butt;stroke-linejoin:miter;stroke-miterlimit:4;stroke-dasharray:none;stroke-opacity:1"
       id="path58"
       inkscape:connector-curvature="0" />
    <g
       style="font-variant:normal;font-weight:normal;font-size:10px;font-family:Helvetica;-inkscape-font-specification:Helvetica;writing-mode:lr-tb;fill:#221e1f;fill-opacity:1;fill-rule:nonzero;stroke:none"
       id="text60">
      <path
         d="m 184.86411,247.29863 c -0.29,-1.6 -1.21,-2.38 -2.81,-2.38 -0.98,0 -1.77,0.31 -2.31,0.91 -0.66,0.72 -1.02,1.76 -1.02,2.94 0,1.2 0.37,2.23 1.05,2.94 0.57,0.58 1.29,0.85 2.24,0.85 1.78,0 2.78,-0.96 3,-2.89 l -0.96,0 c -0.08,0.5 -0.18,0.84 -0.33,1.13 -0.3,0.6 -0.92,0.94 -1.7,0.94 -1.45,0 -2.37,-1.16 -2.37,-2.98 0,-1.87 0.87,-3.02 2.29,-3.02 0.59,0 1.14,0.17 1.44,0.46 0.27,0.25 0.42,0.55 0.53,1.1 l 0.95,0 z"
         style=""
         id="path5690" />
      <path
         d="m 187.30411,249.23863 2.29,0 c 0.57,0 1.02,-0.17 1.41,-0.52 0.44,-0.4 0.63,-0.87 0.63,-1.54 0,-1.37 -0.81,-2.14 -2.25,-2.14 l -3.01,0 0,7.29 0.93,0 0,-3.09 z m 0,-0.82 0,-2.56 1.94,0 c 0.89,0 1.42,0.48 1.42,1.28 0,0.8 -0.53,1.28 -1.42,1.28 l -1.94,0 z"
         style=""
         id="path5692" />
      <path
         d="m 197.65411,245.03863 0,5.12 c 0,0.98 -0.71,1.58 -1.88,1.58 -0.54,0 -0.98,-0.13 -1.33,-0.38 -0.36,-0.28 -0.53,-0.65 -0.53,-1.2 l 0,-5.12 -0.93,0 0,5.12 c 0,1.48 1.06,2.4 2.79,2.4 1.71,0 2.81,-0.94 2.81,-2.4 l 0,-5.12 -0.93,0 z"
         style=""
         id="path5694" />
    </g>
    <path
       inkscape:connector-curvature="0"
       id="path66"
       style="fill:none;stroke:#231f20;stroke-width:1;stroke-linecap:butt;stroke-linejoin:miter;stroke-miterlimit:4;stroke-dasharray:none;stroke-opacity:1"
       d="m 525.95036,167.39613 c 0,6.63375 -5.37625,12.01 -12.00875,12.01 -6.63375,0 -12.0125,-5.37625 -12.0125,-12.01 0,-6.63375 5.37875,-12.01 12.0125,-12.01 6.6325,0 12.00875,5.37625 12.00875,12.01 z" />
    <g
       style="font-variant:normal;font-weight:normal;font-size:10px;font-family:Helvetica;-inkscape-font-specification:Helvetica;writing-mode:lr-tb;fill:#221e1f;fill-opacity:1;fill-rule:nonzero;stroke:none"
       id="text68">
      <path
         d="m 509.5766,166.22739 c -0.29,-1.6 -1.21,-2.38 -2.81,-2.38 -0.98,0 -1.77,0.31 -2.31,0.91 -0.66,0.72 -1.02,1.76 -1.02,2.94 0,1.2 0.37,2.23 1.05,2.94 0.57,0.58 1.29,0.85 2.24,0.85 1.78,0 2.78,-0.96 3,-2.89 l -0.96,0 c -0.08,0.5 -0.18,0.84 -0.33,1.13 -0.3,0.6 -0.92,0.94 -1.7,0.94 -1.45,0 -2.37,-1.16 -2.37,-2.98 0,-1.87 0.87,-3.02 2.29,-3.02 0.59,0 1.14,0.17 1.44,0.46 0.27,0.25 0.42,0.55 0.53,1.1 l 0.95,0 z"
         style=""
         id="path5697" />
      <path
         d="m 512.01661,168.16739 2.29,0 c 0.57,0 1.02,-0.17 1.41,-0.52 0.44,-0.4 0.63,-0.87 0.63,-1.54 0,-1.37 -0.81,-2.14 -2.25,-2.14 l -3.01,0 0,7.29 0.93,0 0,-3.09 z m 0,-0.82 0,-2.56 1.94,0 c 0.89,0 1.42,0.48 1.42,1.28 0,0.8 -0.53,1.28 -1.42,1.28 l -1.94,0 z"
         style=""
         id="path5699" />
      <path
         d="m 522.36662,163.96739 0,5.12 c 0,0.98 -0.71,1.58 -1.88,1.58 -0.54,0 -0.98,-0.13 -1.33,-0.38 -0.36,-0.28 -0.53,-0.65 -0.53,-1.2 l 0,-5.12 -0.93,0 0,5.12 c 0,1.48 1.06,2.4 2.79,2.4 1.71,0 2.81,-0.94 2.81,-2.4 l 0,-5.12 -0.93,0 z"
         style=""
         id="path5701" />
    </g>
    <path
       inkscape:connector-curvature="0"
       id="path74"
       style="fill:none;stroke:#231f20;stroke-width:1;stroke-linecap:butt;stroke-linejoin:miter;stroke-miterlimit:4;stroke-dasharray:none;stroke-opacity:1"
       d="m 525.95036,248.46738 c 0,6.63375 -5.37625,12.01 -12.00875,12.01 -6.63375,0 -12.0125,-5.37625 -12.0125,-12.01 0,-6.63375 5.37875,-12.01 12.0125,-12.01 6.6325,0 12.00875,5.37625 12.00875,12.01 z" />
    <g
       style="font-variant:normal;font-weight:normal;font-size:10px;font-family:Helvetica;-inkscape-font-specification:Helvetica;writing-mode:lr-tb;fill:#221e1f;fill-opacity:1;fill-rule:nonzero;stroke:none"
       id="text76">
      <path
         d="m 509.5766,247.29863 c -0.29,-1.6 -1.21,-2.38 -2.81,-2.38 -0.98,0 -1.77,0.31 -2.31,0.91 -0.66,0.72 -1.02,1.76 -1.02,2.94 0,1.2 0.37,2.23 1.05,2.94 0.57,0.58 1.29,0.85 2.24,0.85 1.78,0 2.78,-0.96 3,-2.89 l -0.96,0 c -0.08,0.5 -0.18,0.84 -0.33,1.13 -0.3,0.6 -0.92,0.94 -1.7,0.94 -1.45,0 -2.37,-1.16 -2.37,-2.98 0,-1.87 0.87,-3.02 2.29,-3.02 0.59,0 1.14,0.17 1.44,0.46 0.27,0.25 0.42,0.55 0.53,1.1 l 0.95,0 z"
         style=""
         id="path5704" />
      <path
         d="m 512.01661,249.23863 2.29,0 c 0.57,0 1.02,-0.17 1.41,-0.52 0.44,-0.4 0.63,-0.87 0.63,-1.54 0,-1.37 -0.81,-2.14 -2.25,-2.14 l -3.01,0 0,7.29 0.93,0 0,-3.09 z m 0,-0.82 0,-2.56 1.94,0 c 0.89,0 1.42,0.48 1.42,1.28 0,0.8 -0.53,1.28 -1.42,1.28 l -1.94,0 z"
         style=""
         id="path5706" />
      <path
         d="m 522.36662,245.03863 0,5.12 c 0,0.98 -0.71,1.58 -1.88,1.58 -0.54,0 -0.98,-0.13 -1.33,-0.38 -0.36,-0.28 -0.53,-0.65 -0.53,-1.2 l 0,-5.12 -0.93,0 0,5.12 c 0,1.48 1.06,2.4 2.79,2.4 1.71,0 2.81,-0.94 2.81,-2.4 l 0,-5.12 -0.93,0 z"
         style=""
         id="path5708" />
    </g>
    <path
       inkscape:connector-curvature="0"
       id="path82"
       style="fill:none;stroke:#221e1f;stroke-width:1;stroke-linecap:butt;stroke-linejoin:miter;stroke-miterlimit:4;stroke-dasharray:none;stroke-opacity:1"
       d="m 283.59661,230.88113 30.455,0 0,25.7375 -30.88375,0" />
    <path
       d="m 288.35161,251.47113 11.1525,0 0,-15.01375 -11.1525,0 0,15.01375 z"
       style="fill:#d2d3d4;fill-opacity:1;fill-rule:nonzero;stroke:none"
       id="path84"
       inkscape:connector-curvature="0" />
    <path
       d="m 299.50411,251.47113 -11.1525,0 0,-15.01375 11.1525,0 0,15.01375 z"
       style="fill:none;stroke:#231f20;stroke-width:1;stroke-linecap:butt;stroke-linejoin:miter;stroke-miterlimit:4;stroke-dasharray:none;stroke-opacity:1"
       id="path86"
       inkscape:connector-curvature="0" />
    <path
       d="m 311.10911,243.74988 c 0,2.60625 -2.1125,4.71875 -4.71875,4.71875 -2.60625,0 -4.71875,-2.1125 -4.71875,-4.71875 0,-2.60625 2.1125,-4.72 4.71875,-4.72 2.60625,0 4.71875,2.11375 4.71875,4.72 z"
       style="fill:none;stroke:#221e1f;stroke-width:0.625;stroke-linecap:butt;stroke-linejoin:miter;stroke-miterlimit:4;stroke-dasharray:1.25, 1.25;stroke-dashoffset:0;stroke-opacity:1"
       id="path88"
       inkscape:connector-curvature="0" />
    <path
       inkscape:connector-curvature="0"
       id="path92"
       style="fill:none;stroke:#221e1f;stroke-width:1;stroke-linecap:butt;stroke-linejoin:miter;stroke-miterlimit:4;stroke-dasharray:none;stroke-opacity:1"
       d="m 313.78036,160.24363 29.83125,0 0,33.28125" />
    <path
       d="m 313.19411,243.74863 31.27625,0 0,-26.595"
       style="fill:none;stroke:#221e1f;stroke-width:1;stroke-linecap:butt;stroke-linejoin:miter;stroke-miterlimit:4;stroke-dasharray:none;stroke-opacity:1"
       id="path96"
       inkscape:connector-curvature="0" />
    <path
       d="m 429.86786,197.85238 111.06,0 0,-61.76875 -111.06,0 0,61.76875 z"
       style="fill:none;stroke:#231f20;stroke-width:1;stroke-linecap:butt;stroke-linejoin:miter;stroke-miterlimit:4;stroke-dasharray:none;stroke-opacity:1"
       id="path98"
       inkscape:connector-curvature="0" />
    <path
       d="m 437.90786,192.27488 34.745,0 0,-42.46625 -34.745,0 0,42.46625 z"
       style="fill:#d2d3d4;fill-opacity:1;fill-rule:nonzero;stroke:none"
       id="path100"
       inkscape:connector-curvature="0" />
    <path
       d="m 437.90786,192.27488 34.745,0 0,-42.46625 -34.745,0 0,42.46625 z"
       style="fill:none;stroke:#231f20;stroke-width:1;stroke-linecap:butt;stroke-linejoin:miter;stroke-miterlimit:4;stroke-dasharray:none;stroke-opacity:1"
       id="path102"
       inkscape:connector-curvature="0" />
    <path
       inkscape:connector-curvature="0"
       id="path106"
       style="fill:none;stroke:#221e1f;stroke-width:1;stroke-linecap:butt;stroke-linejoin:miter;stroke-miterlimit:4;stroke-dasharray:none;stroke-opacity:1"
       d="m 429.24661,149.80988 -30.2625,0 0,25.73625 30.88375,0" />
    <path
       d="m 404.13161,170.39988 11.1525,0 0,-15.01375 -11.1525,0 0,15.01375 z"
       style="fill:#d2d3d4;fill-opacity:1;fill-rule:nonzero;stroke:none"
       id="path108"
       inkscape:connector-curvature="0" />
    <path
       d="m 415.28411,170.39988 -11.1525,0 0,-15.01375 11.1525,0 0,15.01375 z"
       style="fill:none;stroke:#231f20;stroke-width:1;stroke-linecap:butt;stroke-linejoin:miter;stroke-miterlimit:4;stroke-dasharray:none;stroke-opacity:1"
       id="path110"
       inkscape:connector-curvature="0" />
    <path
       d="m 427.72286,162.67863 c 0,2.60625 -2.11125,4.71875 -4.7175,4.71875 -2.60625,0 -4.7175,-2.1125 -4.7175,-4.71875 0,-2.60625 2.11125,-4.71875 4.7175,-4.71875 2.60625,0 4.7175,2.1125 4.7175,4.71875 z"
       style="fill:none;stroke:#221e1f;stroke-width:0.625;stroke-linecap:butt;stroke-linejoin:miter;stroke-miterlimit:4;stroke-dasharray:1.25, 1.25;stroke-dashoffset:0;stroke-opacity:1"
       id="path112"
       inkscape:connector-curvature="0" />
    <path
       d="m 429.86786,278.92238 111.06,0 0,-61.76875 -111.06,0 0,61.76875 z"
       style="fill:none;stroke:#231f20;stroke-width:1;stroke-linecap:butt;stroke-linejoin:miter;stroke-miterlimit:4;stroke-dasharray:none;stroke-opacity:1"
       id="path114"
       inkscape:connector-curvature="0" />
    <path
       d="m 437.90786,273.34613 34.745,0 0,-42.46625 -34.745,0 0,42.46625 z"
       style="fill:#d2d3d4;fill-opacity:1;fill-rule:nonzero;stroke:none"
       id="path116"
       inkscape:connector-curvature="0" />
    <path
       d="m 437.90786,273.34613 34.745,0 0,-42.46625 -34.745,0 0,42.46625 z m 34.35125,-14.585 -33.92375,0"
       style="fill:none;stroke:#231f20;stroke-width:1;stroke-linecap:butt;stroke-linejoin:miter;stroke-miterlimit:4;stroke-dasharray:none;stroke-opacity:1"
       id="path118"
       inkscape:connector-curvature="0" />
    <path
       inkscape:connector-curvature="0"
       id="path122"
       style="fill:none;stroke:#221e1f;stroke-width:1;stroke-linecap:butt;stroke-linejoin:miter;stroke-miterlimit:4;stroke-dasharray:none;stroke-opacity:1"
       d="m 429.43911,230.88113 -30.455,0 0,25.7375 30.88375,0" />
    <path
       d="m 404.13161,251.47113 11.1525,0 0,-15.01375 -11.1525,0 0,15.01375 z"
       style="fill:#d2d3d4;fill-opacity:1;fill-rule:nonzero;stroke:none"
       id="path124"
       inkscape:connector-curvature="0" />
    <path
       d="m 415.28411,251.47113 -11.1525,0 0,-15.01375 11.1525,0 0,15.01375 z"
       style="fill:none;stroke:#231f20;stroke-width:1;stroke-linecap:butt;stroke-linejoin:miter;stroke-miterlimit:4;stroke-dasharray:none;stroke-opacity:1"
       id="path126"
       inkscape:connector-curvature="0" />
    <path
       d="m 427.72286,243.74988 c 0,2.60625 -2.11125,4.71875 -4.7175,4.71875 -2.60625,0 -4.7175,-2.1125 -4.7175,-4.71875 0,-2.60625 2.11125,-4.72 4.7175,-4.72 2.60625,0 4.7175,2.11375 4.7175,4.72 z"
       style="fill:none;stroke:#221e1f;stroke-width:0.625;stroke-linecap:butt;stroke-linejoin:miter;stroke-miterlimit:4;stroke-dasharray:1.25, 1.25;stroke-dashoffset:0;stroke-opacity:1"
       id="path128"
       inkscape:connector-curvature="0" />
    <path
       inkscape:connector-curvature="0"
       id="path132"
       style="fill:none;stroke:#221e1f;stroke-width:1;stroke-linecap:butt;stroke-linejoin:miter;stroke-miterlimit:4;stroke-dasharray:none;stroke-opacity:1"
       d="m 398.59286,160.24363 -35.9925,0 0,33.28125" />
    <path
       d="m 398.59286,243.74863 -34.81875,0 0,-26.595"
       style="fill:none;stroke:#221e1f;stroke-width:1;stroke-linecap:butt;stroke-linejoin:miter;stroke-miterlimit:4;stroke-dasharray:none;stroke-opacity:1"
       id="path136"
       inkscape:connector-curvature="0" />
    <path
       inkscape:connector-curvature="0"
       id="path140"
       style="fill:none;stroke:#221e1f;stroke-width:1.25;stroke-linecap:butt;stroke-linejoin:miter;stroke-miterlimit:4;stroke-dasharray:none;stroke-opacity:1"
       d="m 271.01036,186.46613 c 0,0 21.3075,12.1125 24.1675,-9.20375" />
    <path
       inkscape:connector-curvature="0"
       id="path144"
       style="fill:#221e1f;fill-opacity:1;fill-rule:nonzero;stroke:none"
       d="m 295.19036,177.96363 -2.45,1.55 -0.0563,-0.0825 1.53,-4.0675 c 0.28375,-1.4125 0.5675,-2.82625 0.85125,-4.23875 0.33625,1.40125 0.67125,2.8025 1.00625,4.205 l 1.6775,4.00875 -0.0412,0.085 -2.5175,-1.46" />
    <path
       inkscape:connector-curvature="0"
       id="path148"
       style="fill:none;stroke:#221e1f;stroke-width:1.25;stroke-linecap:butt;stroke-linejoin:miter;stroke-miterlimit:4;stroke-dasharray:none;stroke-opacity:1"
       d="m 263.08161,165.25113 c 0,0 7.72,-0.85875 7.72,10.295" />
    <path
       inkscape:connector-curvature="0"
       id="path152"
       style="fill:#221e1f;fill-opacity:1;fill-rule:nonzero;stroke:none"
       d="m 270.80161,174.84488 2.47625,-1.50625 0.0563,0.085 -1.60375,4.03875 c -0.30875,1.4075 -0.61875,2.815 -0.92875,4.2225 -0.31,-1.4075 -0.61875,-2.815 -0.92875,-4.2225 l -1.60375,-4.03875 0.0412,-0.085 2.49125,1.50625" />
    <path
       inkscape:connector-curvature="0"
       id="path156"
       style="fill:none;stroke:#221e1f;stroke-width:1.25;stroke-linecap:butt;stroke-linejoin:miter;stroke-miterlimit:4;stroke-dasharray:none;stroke-opacity:1"
       d="m 294.74911,289.18113 0,-30.41875" />
    <path
       inkscape:connector-curvature="0"
       id="path160"
       style="fill:#221e1f;fill-opacity:1;fill-rule:nonzero;stroke:none"
       d="m 294.74911,259.46238 -2.47625,1.50625 -0.0562,-0.0838 1.60375,-4.04 c 0.30875,-1.40625 0.61875,-2.815 0.92875,-4.22125 0.31,1.40625 0.61875,2.815 0.92875,4.22125 l 1.60375,4.04 -0.0412,0.0838 -2.49125,-1.50625" />
    <path
       inkscape:connector-curvature="0"
       id="path164"
       style="fill:none;stroke:#221e1f;stroke-width:1.25;stroke-linecap:butt;stroke-linejoin:miter;stroke-miterlimit:4;stroke-dasharray:none;stroke-opacity:1"
       d="m 325.54536,258.77113 -10.89625,-8.24625" />
    <path
       inkscape:connector-curvature="0"
       id="path168"
       style="fill:#221e1f;fill-opacity:1;fill-rule:nonzero;stroke:none"
       d="m 315.21911,250.93238 -0.21375,2.89 -0.1025,-0.002 -2.35375,-3.6525 c -0.965,-1.07125 -1.93,-2.14 -2.895,-3.21125 1.325,0.56625 2.65,1.13375 3.975,1.69875 l 4.21875,1.0425 0.045,0.0837 -2.67375,1.15125" />
    <path
       inkscape:connector-curvature="0"
       id="path172"
       style="fill:none;stroke:#221e1f;stroke-width:1.25;stroke-linecap:butt;stroke-linejoin:miter;stroke-miterlimit:4;stroke-dasharray:none;stroke-opacity:1"
       d="m 398.98286,278.06488 4.29,-14.155" />
    <path
       inkscape:connector-curvature="0"
       id="path176"
       style="fill:#221e1f;fill-opacity:1;fill-rule:nonzero;stroke:none"
       d="m 403.06911,264.58113 -2.80625,0.7225 -0.03,-0.0962 2.70625,-3.40125 c 0.705,-1.2575 1.40875,-2.515 2.11375,-3.77 -0.11125,1.43625 -0.22375,2.8725 -0.33625,4.30875 l 0.365,4.33125 -0.065,0.0675 -1.9475,-2.1625" />
    <path
       inkscape:connector-curvature="0"
       id="path180"
       style="fill:none;stroke:#221e1f;stroke-width:1.25;stroke-linecap:butt;stroke-linejoin:miter;stroke-miterlimit:4;stroke-dasharray:none;stroke-opacity:1"
       d="m 409.81661,170.83613 c 0,0 1.53375,16.72125 32.4175,17.15" />
    <path
       inkscape:connector-curvature="0"
       id="path184"
       style="fill:#221e1f;fill-opacity:1;fill-rule:nonzero;stroke:none"
       d="m 441.53286,187.97613 -1.4725,-2.4975 0.0863,-0.055 4.01625,1.66 c 1.4025,0.32875 2.80625,0.6575 4.20875,0.9875 -1.41125,0.29 -2.82375,0.58 -4.235,0.87 l -4.06125,1.54875 -0.0825,-0.0437 1.54,-2.47" />
    <path
       inkscape:connector-curvature="0"
       id="path188"
       style="fill:none;stroke:#221e1f;stroke-width:1.25;stroke-linecap:butt;stroke-linejoin:miter;stroke-miterlimit:4;stroke-dasharray:none;stroke-opacity:1"
       d="m 456.38911,187.55738 c 0,0 9.00625,-1.71625 9.43625,-14.58375" />
    <path
       inkscape:connector-curvature="0"
       id="path192"
       style="fill:#221e1f;fill-opacity:1;fill-rule:nonzero;stroke:none"
       d="m 465.80161,173.67363 -2.525,1.4225 -0.0537,-0.0862 1.7375,-3.9825 c 0.35625,-1.39625 0.7125,-2.79375 1.07,-4.18875 0.2625,1.41625 0.525,2.83375 0.7875,4.25 l 1.4675,4.09125 -0.045,0.0825 -2.43875,-1.58875" />
    <path
       inkscape:connector-curvature="0"
       id="path196"
       style="fill:#231f20;fill-opacity:1;fill-rule:nonzero;stroke:none"
       d="m 407.52411,162.81738 -1.60625,-2.4125 0.0812,-0.06 4.1025,1.4375 c 1.41875,0.25125 2.8375,0.50375 4.25625,0.755 -1.3925,0.36625 -2.78625,0.73375 -4.18,1.10125 l -3.97,1.7675 -0.0863,-0.0375 1.4025,-2.55125" />
    <path
       d="m 371.49411,217.15363 -37.7475,0 0,-23.5925 37.7475,0 0,23.5925 z"
       style="fill:none;stroke:#231f20;stroke-width:1;stroke-linecap:butt;stroke-linejoin:miter;stroke-miterlimit:4;stroke-dasharray:none;stroke-opacity:1"
       id="path198"
       inkscape:connector-curvature="0" />
    <g
       style="font-variant:normal;font-weight:normal;font-size:10px;font-family:Helvetica;-inkscape-font-specification:Helvetica;writing-mode:lr-tb;fill:#221e1f;fill-opacity:1;fill-rule:nonzero;stroke:none"
       id="text200">
      <path
         d="m 344.2841,203.85363 c 0,-0.5 -0.03,-0.64 -0.19,-0.98 -0.4,-0.84 -1.25,-1.28 -2.48,-1.28 -1.6,0 -2.59,0.82 -2.59,2.14 0,0.89 0.47,1.45 1.43,1.7 l 1.81,0.48 c 0.93,0.24 1.34,0.61 1.34,1.18 0,0.39 -0.21,0.79 -0.52,1.01 -0.29,0.21 -0.75,0.31 -1.34,0.31 -0.8,0 -1.33,-0.19 -1.68,-0.61 -0.27,-0.32 -0.39,-0.67 -0.38,-1.12 l -0.88,0 c 0.01,0.67 0.14,1.11 0.43,1.51 0.5,0.69 1.34,1.04 2.45,1.04 0.87,0 1.58,-0.2 2.05,-0.56 0.49,-0.39 0.8,-1.04 0.8,-1.67 0,-0.9 -0.56,-1.56 -1.55,-1.83 l -1.83,-0.49 c -0.88,-0.24 -1.2,-0.52 -1.2,-1.08 0,-0.74 0.65,-1.23 1.63,-1.23 1.16,0 1.81,0.52 1.82,1.48 l 0.88,0 z"
         style=""
         id="path5711" />
      <path
         d="m 350.53411,209.00363 1.54,-5.24 -0.94,0 -1.04,4.08 -1.03,-4.08 -1.02,0 -1,4.08 -1.07,-4.08 -0.92,0 1.52,5.24 0.94,0 1.01,-4.11 1.06,4.11 0.95,0 z"
         style=""
         id="path5713" />
      <path
         d="m 353.71411,203.76363 -0.83,0 0,5.24 0.83,0 0,-5.24 z m 0,-2.05 -0.84,0 0,1.05 0.84,0 0,-1.05 z"
         style=""
         id="path5715" />
      <path
         d="m 356.97411,203.76363 -0.86,0 0,-1.44 -0.83,0 0,1.44 -0.71,0 0,0.68 0.71,0 0,3.96 c 0,0.54 0.36,0.83 1.01,0.83 0.22,0 0.4,-0.02 0.68,-0.07 l 0,-0.7 c -0.12,0.03 -0.23,0.04 -0.4,0.04 -0.36,0 -0.46,-0.1 -0.46,-0.47 l 0,-3.59 0.86,0 0,-0.68 z"
         style=""
         id="path5717" />
      <path
         d="m 361.92411,205.52363 c -0.04,-0.51 -0.15,-0.84 -0.35,-1.13 -0.36,-0.49 -0.99,-0.78 -1.72,-0.78 -1.42,0 -2.33,1.12 -2.33,2.86 0,1.69 0.9,2.76 2.32,2.76 1.25,0 2.04,-0.75 2.14,-2.03 l -0.84,0 c -0.14,0.84 -0.57,1.26 -1.28,1.26 -0.92,0 -1.47,-0.75 -1.47,-1.99 0,-1.31 0.54,-2.09 1.45,-2.09 0.7,0 1.14,0.41 1.24,1.14 l 0.84,0 z"
         style=""
         id="path5719" />
      <path
         d="m 362.91411,201.71363 0,7.29 0.83,0 0,-2.89 c 0,-1.07 0.56,-1.77 1.42,-1.77 0.28,0 0.54,0.08 0.74,0.23 0.24,0.18 0.34,0.43 0.34,0.8 l 0,3.63 0.83,0 0,-3.96 c 0,-0.88 -0.63,-1.43 -1.65,-1.43 -0.74,0 -1.19,0.23 -1.68,0.87 l 0,-2.77 -0.83,0 z"
         style=""
         id="path5721" />
      <path
         d="m 475.1121,122.82363 -0.88,0 0,5.96 -3.81,-5.96 -1.01,0 0,7.29 0.88,0 0,-5.91 3.77,5.91 1.05,0 0,-7.29 z"
         style=""
         id="path5723" />
      <path
         d="m 478.5921,124.72363 c -1.48,0 -2.36,1.05 -2.36,2.81 0,1.77 0.88,2.81 2.37,2.81 1.48,0 2.37,-1.05 2.37,-2.77 0,-1.82 -0.86,-2.85 -2.38,-2.85 z m 0.01,0.77 c 0.94,0 1.5,0.77 1.5,2.07 0,1.24 -0.58,2.01 -1.5,2.01 -0.93,0 -1.5,-0.77 -1.5,-2.04 0,-1.27 0.57,-2.04 1.5,-2.04 z"
         style=""
         id="path5725" />
      <path
         d="m 486.3821,122.82363 -0.83,0 0,2.71 c -0.35,-0.53 -0.91,-0.81 -1.61,-0.81 -1.36,0 -2.25,1.09 -2.25,2.76 0,1.77 0.86,2.86 2.28,2.86 0.72,0 1.22,-0.27 1.67,-0.92 l 0,0.69 0.74,0 0,-7.29 z m -2.3,2.68 c 0.9,0 1.47,0.79 1.47,2.05 0,1.21 -0.58,2.01 -1.46,2.01 -0.92,0 -1.53,-0.81 -1.53,-2.03 0,-1.22 0.61,-2.03 1.52,-2.03 z"
         style=""
         id="path5727" />
      <path
         d="m 492.12213,127.77363 c 0,-0.8 -0.06,-1.28 -0.21,-1.67 -0.34,-0.86 -1.14,-1.38 -2.12,-1.38 -1.46,0 -2.4,1.11 -2.4,2.84 0,1.73 0.9,2.78 2.38,2.78 1.2,0 2.03,-0.68 2.24,-1.82 l -0.84,0 c -0.23,0.69 -0.7,1.05 -1.37,1.05 -0.53,0 -0.98,-0.24 -1.26,-0.68 -0.2,-0.3 -0.27,-0.6 -0.28,-1.12 l 3.86,0 z m -3.84,-0.68 c 0.07,-0.97 0.66,-1.6 1.5,-1.6 0.85,0 1.44,0.66 1.44,1.6 l -2.94,0 z"
         style=""
         id="path5729" />
      <path
         d="m 500.39212,129.24363 -3.73,0 c 0.09,-0.58 0.41,-0.95 1.28,-1.46 l 1,-0.54 c 0.99,-0.54 1.5,-1.27 1.5,-2.14 0,-0.59 -0.24,-1.14 -0.66,-1.53 -0.42,-0.37 -0.93,-0.55 -1.61,-0.55 -0.9,0 -1.57,0.31 -1.96,0.92 -0.25,0.38 -0.36,0.82 -0.38,1.54 l 0.88,0 c 0.03,-0.48 0.09,-0.77 0.21,-1 0.23,-0.43 0.69,-0.69 1.22,-0.69 0.8,0 1.4,0.57 1.4,1.33 0,0.56 -0.33,1.04 -0.96,1.4 l -0.92,0.52 c -1.48,0.84 -1.91,1.51 -1.99,3.07 l 4.72,0 0,-0.87 z"
         style=""
         id="path5731" />
      <path
         d="m 437.1731,147.26964 2.05,-6.11 0,6.11 0.88,0 0,-7.29 -1.29,0 -2.12,6.35 -2.16,-6.35 -1.29,0 0,7.29 0.88,0 0,-6.11 2.07,6.11 0.98,0 z"
         style=""
         id="path5733" />
      <path
         d="m 446.17312,146.77964 c -0.09,0.02 -0.13,0.02 -0.18,0.02 -0.29,0 -0.45,-0.15 -0.45,-0.41 l 0,-3.08 c 0,-0.93 -0.68,-1.43 -1.97,-1.43 -0.77,0 -1.38,0.22 -1.74,0.61 -0.24,0.27 -0.34,0.57 -0.36,1.09 l 0.84,0 c 0.07,-0.64 0.45,-0.93 1.23,-0.93 0.76,0 1.17,0.28 1.17,0.78 l 0,0.22 c -0.01,0.36 -0.19,0.49 -0.87,0.58 -1.18,0.15 -1.36,0.19 -1.68,0.32 -0.61,0.26 -0.92,0.72 -0.92,1.4 0,0.95 0.66,1.55 1.72,1.55 0.66,0 1.19,-0.23 1.78,-0.77 0.06,0.54 0.32,0.77 0.86,0.77 0.18,0 0.29,-0.02 0.57,-0.09 l 0,-0.63 z m -1.46,-1.16 c 0,0.28 -0.08,0.45 -0.33,0.68 -0.34,0.31 -0.75,0.47 -1.24,0.47 -0.65,0 -1.03,-0.31 -1.03,-0.84 0,-0.55 0.36,-0.83 1.26,-0.96 0.89,-0.12 1.06,-0.16 1.34,-0.29 l 0,0.94 z"
         style=""
         id="path5735" />
      <path
         d="m 447.88312,142.02964 -0.83,0 0,5.24 0.83,0 0,-5.24 z m 0,-2.05 -0.84,0 0,1.05 0.84,0 0,-1.05 z"
         style=""
         id="path5737" />
      <path
         d="m 449.30312,142.02964 0,5.24 0.84,0 0,-2.89 c 0,-1.07 0.56,-1.77 1.42,-1.77 0.66,0 1.08,0.4 1.08,1.03 l 0,3.63 0.83,0 0,-3.96 c 0,-0.87 -0.65,-1.43 -1.66,-1.43 -0.78,0 -1.28,0.3 -1.74,1.03 l 0,-0.88 -0.77,0 z"
         style=""
         id="path5739" />
      <path
         d="m 458.80312,144.12964 2.4,0 c 0.83,0 1.2,0.4 1.2,1.3 l -0.01,0.65 c 0,0.45 0.08,0.89 0.21,1.19 l 1.13,0 0,-0.23 c -0.35,-0.24 -0.42,-0.5 -0.44,-1.47 -0.01,-1.2 -0.2,-1.56 -0.99,-1.9 0.82,-0.41 1.15,-0.9 1.15,-1.74 0,-1.26 -0.78,-1.95 -2.22,-1.95 l -3.36,0 0,7.29 0.93,0 0,-3.14 z m 0,-0.82 0,-2.51 2.25,0 c 0.52,0 0.82,0.08 1.05,0.28 0.25,0.21 0.38,0.54 0.38,0.97 0,0.87 -0.44,1.26 -1.43,1.26 l -2.25,0 z"
         style=""
         id="path5741" />
      <path
         d="m 468.90312,145.07964 0.75,2.19 1.04,0 -2.56,-7.29 -1.2,0 -2.6,7.29 0.99,0 0.77,-2.19 2.81,0 z m -0.26,-0.78 -2.32,0 1.2,-3.32 1.12,3.32 z"
         style=""
         id="path5743" />
      <path
         d="m 475.5131,147.26964 2.05,-6.11 0,6.11 0.88,0 0,-7.29 -1.29,0 -2.12,6.35 -2.16,-6.35 -1.29,0 0,7.29 0.88,0 0,-6.11 2.07,6.11 0.98,0 z"
         style=""
         id="path5745" />
      <path
         d="m 437.1731,227.48363 2.05,-6.11 0,6.11 0.88,0 0,-7.29 -1.29,0 -2.12,6.35 -2.16,-6.35 -1.29,0 0,7.29 0.88,0 0,-6.11 2.07,6.11 0.98,0 z"
         style=""
         id="path5747" />
      <path
         d="m 446.17312,226.99363 c -0.09,0.02 -0.13,0.02 -0.18,0.02 -0.29,0 -0.45,-0.15 -0.45,-0.41 l 0,-3.08 c 0,-0.93 -0.68,-1.43 -1.97,-1.43 -0.77,0 -1.38,0.22 -1.74,0.61 -0.24,0.27 -0.34,0.57 -0.36,1.09 l 0.84,0 c 0.07,-0.64 0.45,-0.93 1.23,-0.93 0.76,0 1.17,0.28 1.17,0.78 l 0,0.22 c -0.01,0.36 -0.19,0.49 -0.87,0.58 -1.18,0.15 -1.36,0.19 -1.68,0.32 -0.61,0.26 -0.92,0.72 -0.92,1.4 0,0.95 0.66,1.55 1.72,1.55 0.66,0 1.19,-0.23 1.78,-0.77 0.06,0.54 0.32,0.77 0.86,0.77 0.18,0 0.29,-0.02 0.57,-0.09 l 0,-0.63 z m -1.46,-1.16 c 0,0.28 -0.08,0.45 -0.33,0.68 -0.34,0.31 -0.75,0.47 -1.24,0.47 -0.65,0 -1.03,-0.31 -1.03,-0.84 0,-0.55 0.36,-0.83 1.26,-0.96 0.89,-0.12 1.06,-0.16 1.34,-0.29 l 0,0.94 z"
         style=""
         id="path5749" />
      <path
         d="m 447.88312,222.24363 -0.83,0 0,5.24 0.83,0 0,-5.24 z m 0,-2.05 -0.84,0 0,1.05 0.84,0 0,-1.05 z"
         style=""
         id="path5751" />
      <path
         d="m 449.30312,222.24363 0,5.24 0.84,0 0,-2.89 c 0,-1.07 0.56,-1.77 1.42,-1.77 0.66,0 1.08,0.4 1.08,1.03 l 0,3.63 0.83,0 0,-3.96 c 0,-0.87 -0.65,-1.43 -1.66,-1.43 -0.78,0 -1.28,0.3 -1.74,1.03 l 0,-0.88 -0.77,0 z"
         style=""
         id="path5753" />
      <path
         d="m 458.80312,224.34363 2.4,0 c 0.83,0 1.2,0.4 1.2,1.3 l -0.01,0.65 c 0,0.45 0.08,0.89 0.21,1.19 l 1.13,0 0,-0.23 c -0.35,-0.24 -0.42,-0.5 -0.44,-1.47 -0.01,-1.2 -0.2,-1.56 -0.99,-1.9 0.82,-0.41 1.15,-0.9 1.15,-1.74 0,-1.26 -0.78,-1.95 -2.22,-1.95 l -3.36,0 0,7.29 0.93,0 0,-3.14 z m 0,-0.82 0,-2.51 2.25,0 c 0.52,0 0.82,0.08 1.05,0.28 0.25,0.21 0.38,0.54 0.38,0.97 0,0.87 -0.44,1.26 -1.43,1.26 l -2.25,0 z"
         style=""
         id="path5755" />
      <path
         d="m 468.90312,225.29363 0.75,2.19 1.04,0 -2.56,-7.29 -1.2,0 -2.6,7.29 0.99,0 0.77,-2.19 2.81,0 z m -0.26,-0.78 -2.32,0 1.2,-3.32 1.12,3.32 z"
         style=""
         id="path5757" />
      <path
         d="m 475.5131,227.48363 2.05,-6.11 0,6.11 0.88,0 0,-7.29 -1.29,0 -2.12,6.35 -2.16,-6.35 -1.29,0 0,7.29 0.88,0 0,-6.11 2.07,6.11 0.98,0 z"
         style=""
         id="path5759" />
      <path
         d="m 471.68211,287.50364 -0.88,0 0,5.96 -3.81,-5.96 -1.01,0 0,7.29 0.88,0 0,-5.91 3.77,5.91 1.05,0 0,-7.29 z"
         style=""
         id="path5761" />
      <path
         d="m 475.16211,289.40364 c -1.48,0 -2.36,1.05 -2.36,2.81 0,1.77 0.88,2.81 2.37,2.81 1.48,0 2.37,-1.05 2.37,-2.77 0,-1.82 -0.86,-2.85 -2.38,-2.85 z m 0.01,0.77 c 0.94,0 1.5,0.77 1.5,2.07 0,1.24 -0.58,2.01 -1.5,2.01 -0.93,0 -1.5,-0.77 -1.5,-2.04 0,-1.27 0.57,-2.04 1.5,-2.04 z"
         style=""
         id="path5763" />
      <path
         d="m 482.95211,287.50364 -0.83,0 0,2.71 c -0.35,-0.53 -0.91,-0.81 -1.61,-0.81 -1.36,0 -2.25,1.09 -2.25,2.76 0,1.77 0.86,2.86 2.28,2.86 0.72,0 1.22,-0.27 1.67,-0.92 l 0,0.69 0.74,0 0,-7.29 z m -2.3,2.68 c 0.9,0 1.47,0.79 1.47,2.05 0,1.21 -0.58,2.01 -1.46,2.01 -0.92,0 -1.53,-0.81 -1.53,-2.03 0,-1.22 0.61,-2.03 1.52,-2.03 z"
         style=""
         id="path5765" />
      <path
         d="m 488.6921,292.45364 c 0,-0.8 -0.06,-1.28 -0.21,-1.67 -0.34,-0.86 -1.14,-1.38 -2.12,-1.38 -1.46,0 -2.4,1.11 -2.4,2.84 0,1.73 0.9,2.78 2.38,2.78 1.2,0 2.03,-0.68 2.24,-1.82 l -0.84,0 c -0.23,0.69 -0.7,1.05 -1.37,1.05 -0.53,0 -0.98,-0.24 -1.26,-0.68 -0.2,-0.3 -0.27,-0.6 -0.28,-1.12 l 3.86,0 z m -3.84,-0.68 c 0.07,-0.97 0.66,-1.6 1.5,-1.6 0.85,0 1.44,0.66 1.44,1.6 l -2.94,0 z"
         style=""
         id="path5767" />
      <path
         d="m 495.1721,293.09364 0,1.7 0.88,0 0,-1.7 1.05,0 0,-0.79 -1.05,0 0,-4.6 -0.65,0 -3.22,4.46 0,0.93 2.99,0 z m 0,-0.79 -2.22,0 2.22,-3.1 0,3.1 z"
         style=""
         id="path5769" />
      <path
         d="m 381.18811,280.63963 -0.94,0 0,7.29 0.94,0 0,-7.29 z"
         style=""
         id="path5771" />
      <path
         d="m 382.72811,282.68963 0,5.24 0.84,0 0,-2.89 c 0,-1.07 0.56,-1.77 1.42,-1.77 0.66,0 1.08,0.4 1.08,1.03 l 0,3.63 0.83,0 0,-3.96 c 0,-0.87 -0.65,-1.43 -1.66,-1.43 -0.78,0 -1.28,0.3 -1.74,1.03 l 0,-0.88 -0.77,0 z"
         style=""
         id="path5773" />
      <path
         d="m 390.1281,282.68963 -0.86,0 0,-1.44 -0.83,0 0,1.44 -0.71,0 0,0.68 0.71,0 0,3.96 c 0,0.54 0.36,0.83 1.01,0.83 0.22,0 0.4,-0.02 0.68,-0.07 l 0,-0.7 c -0.12,0.03 -0.23,0.04 -0.4,0.04 -0.36,0 -0.46,-0.1 -0.46,-0.47 l 0,-3.59 0.86,0 0,-0.68 z"
         style=""
         id="path5775" />
      <path
         d="m 395.4981,285.58963 c 0,-0.8 -0.06,-1.28 -0.21,-1.67 -0.34,-0.86 -1.14,-1.38 -2.12,-1.38 -1.46,0 -2.4,1.11 -2.4,2.84 0,1.73 0.9,2.78 2.38,2.78 1.2,0 2.03,-0.68 2.24,-1.82 l -0.84,0 c -0.23,0.69 -0.7,1.05 -1.37,1.05 -0.53,0 -0.98,-0.24 -1.26,-0.68 -0.2,-0.3 -0.27,-0.6 -0.28,-1.12 l 3.86,0 z m -3.84,-0.68 c 0.07,-0.97 0.66,-1.6 1.5,-1.6 0.85,0 1.44,0.66 1.44,1.6 l -2.94,0 z"
         style=""
         id="path5777" />
      <path
         d="m 396.6181,282.68963 0,5.24 0.84,0 0,-2.72 c 0.01,-1.26 0.53,-1.82 1.68,-1.79 l 0,-0.85 c -0.14,-0.02 -0.22,-0.03 -0.32,-0.03 -0.54,0 -0.95,0.32 -1.43,1.1 l 0,-0.95 -0.77,0 z"
         style=""
         id="path5779" />
      <path
         d="m 401.83812,282.68963 -0.87,0 0,-0.82 c 0,-0.35 0.19,-0.53 0.58,-0.53 0.07,0 0.1,0 0.29,0.01 l 0,-0.69 c -0.19,-0.04 -0.3,-0.05 -0.47,-0.05 -0.77,0 -1.23,0.44 -1.23,1.19 l 0,0.89 -0.7,0 0,0.68 0.7,0 0,4.56 0.83,0 0,-4.56 0.87,0 0,-0.68 z"
         style=""
         id="path5781" />
      <path
         d="m 407.0881,287.43963 c -0.09,0.02 -0.13,0.02 -0.18,0.02 -0.29,0 -0.45,-0.15 -0.45,-0.41 l 0,-3.08 c 0,-0.93 -0.68,-1.43 -1.97,-1.43 -0.77,0 -1.38,0.22 -1.74,0.61 -0.24,0.27 -0.34,0.57 -0.36,1.09 l 0.84,0 c 0.07,-0.64 0.45,-0.93 1.23,-0.93 0.76,0 1.17,0.28 1.17,0.78 l 0,0.22 c -0.01,0.36 -0.19,0.49 -0.87,0.58 -1.18,0.15 -1.36,0.19 -1.68,0.32 -0.61,0.26 -0.92,0.72 -0.92,1.4 0,0.95 0.66,1.55 1.72,1.55 0.66,0 1.19,-0.23 1.78,-0.77 0.06,0.54 0.32,0.77 0.86,0.77 0.18,0 0.29,-0.02 0.57,-0.09 l 0,-0.63 z m -1.46,-1.16 c 0,0.28 -0.08,0.45 -0.33,0.68 -0.34,0.31 -0.75,0.47 -1.24,0.47 -0.65,0 -1.03,-0.31 -1.03,-0.84 0,-0.55 0.36,-0.83 1.26,-0.96 0.89,-0.12 1.06,-0.16 1.34,-0.29 l 0,0.94 z"
         style=""
         id="path5783" />
      <path
         d="m 412.0081,284.44963 c -0.04,-0.51 -0.15,-0.84 -0.35,-1.13 -0.36,-0.49 -0.99,-0.78 -1.72,-0.78 -1.42,0 -2.33,1.12 -2.33,2.86 0,1.69 0.9,2.76 2.32,2.76 1.25,0 2.04,-0.75 2.14,-2.03 l -0.84,0 c -0.14,0.84 -0.57,1.26 -1.28,1.26 -0.92,0 -1.47,-0.75 -1.47,-1.99 0,-1.31 0.54,-2.09 1.45,-2.09 0.7,0 1.14,0.41 1.24,1.14 l 0.84,0 z"
         style=""
         id="path5785" />
      <path
         d="m 417.4281,285.58963 c 0,-0.8 -0.06,-1.28 -0.21,-1.67 -0.34,-0.86 -1.14,-1.38 -2.12,-1.38 -1.46,0 -2.4,1.11 -2.4,2.84 0,1.73 0.9,2.78 2.38,2.78 1.2,0 2.03,-0.68 2.24,-1.82 l -0.84,0 c -0.23,0.69 -0.7,1.05 -1.37,1.05 -0.53,0 -0.98,-0.24 -1.26,-0.68 -0.2,-0.3 -0.27,-0.6 -0.28,-1.12 l 3.86,0 z m -3.84,-0.68 c 0.07,-0.97 0.66,-1.6 1.5,-1.6 0.85,0 1.44,0.66 1.44,1.6 l -2.94,0 z"
         style=""
         id="path5787" />
      <path
         d="m 386.3091,290.63963 0,7.29 0.75,0 0,-0.67 c 0.4,0.61 0.93,0.9 1.66,0.9 1.38,0 2.28,-1.13 2.28,-2.87 0,-1.7 -0.85,-2.75 -2.24,-2.75 -0.72,0 -1.23,0.27 -1.62,0.86 l 0,-2.76 -0.83,0 z m 2.29,2.68 c 0.93,0 1.53,0.81 1.53,2.06 0,1.19 -0.62,2 -1.53,2 -0.89,0 -1.46,-0.8 -1.46,-2.03 0,-1.23 0.57,-2.03 1.46,-2.03 z"
         style=""
         id="path5789" />
      <path
         d="m 394.0491,292.53963 c -1.48,0 -2.36,1.05 -2.36,2.81 0,1.77 0.88,2.81 2.37,2.81 1.48,0 2.37,-1.05 2.37,-2.77 0,-1.82 -0.86,-2.85 -2.38,-2.85 z m 0.01,0.77 c 0.94,0 1.5,0.77 1.5,2.07 0,1.24 -0.58,2.01 -1.5,2.01 -0.93,0 -1.5,-0.77 -1.5,-2.04 0,-1.27 0.57,-2.04 1.5,-2.04 z"
         style=""
         id="path5791" />
      <path
         d="m 402.2391,297.43963 c -0.09,0.02 -0.13,0.02 -0.18,0.02 -0.29,0 -0.45,-0.15 -0.45,-0.41 l 0,-3.08 c 0,-0.93 -0.68,-1.43 -1.97,-1.43 -0.77,0 -1.38,0.22 -1.74,0.61 -0.24,0.27 -0.34,0.57 -0.36,1.09 l 0.84,0 c 0.07,-0.64 0.45,-0.93 1.23,-0.93 0.76,0 1.17,0.28 1.17,0.78 l 0,0.22 c -0.01,0.36 -0.19,0.49 -0.87,0.58 -1.18,0.15 -1.36,0.19 -1.68,0.32 -0.61,0.26 -0.92,0.72 -0.92,1.4 0,0.95 0.66,1.55 1.72,1.55 0.66,0 1.19,-0.23 1.78,-0.77 0.06,0.54 0.32,0.77 0.86,0.77 0.18,0 0.29,-0.02 0.57,-0.09 l 0,-0.63 z m -1.46,-1.16 c 0,0.28 -0.08,0.45 -0.33,0.68 -0.34,0.31 -0.75,0.47 -1.24,0.47 -0.65,0 -1.03,-0.31 -1.03,-0.84 0,-0.55 0.36,-0.83 1.26,-0.96 0.89,-0.12 1.06,-0.16 1.34,-0.29 l 0,0.94 z"
         style=""
         id="path5793" />
      <path
         d="m 403.1391,292.68963 0,5.24 0.84,0 0,-2.72 c 0.01,-1.26 0.53,-1.82 1.68,-1.79 l 0,-0.85 c -0.14,-0.02 -0.22,-0.03 -0.32,-0.03 -0.54,0 -0.95,0.32 -1.43,1.1 l 0,-0.95 -0.77,0 z"
         style=""
         id="path5795" />
      <path
         d="m 410.72911,290.63963 -0.83,0 0,2.71 c -0.35,-0.53 -0.91,-0.81 -1.61,-0.81 -1.36,0 -2.25,1.09 -2.25,2.76 0,1.77 0.86,2.86 2.28,2.86 0.72,0 1.22,-0.27 1.67,-0.92 l 0,0.69 0.74,0 0,-7.29 z m -2.3,2.68 c 0.9,0 1.47,0.79 1.47,2.05 0,1.21 -0.58,2.01 -1.46,2.01 -0.92,0 -1.53,-0.81 -1.53,-2.03 0,-1.22 0.61,-2.03 1.52,-2.03 z"
         style=""
         id="path5797" />
      <path
         d="m 331.9221,259.07264 c -2.09,0 -3.51,1.54 -3.51,3.82 0,2.29 1.41,3.82 3.52,3.82 0.89,0 1.67,-0.27 2.26,-0.77 0.79,-0.67 1.26,-1.8 1.26,-2.99 0,-2.35 -1.39,-3.88 -3.53,-3.88 z m 0,0.82 c 1.58,0 2.6,1.19 2.6,3.04 0,1.76 -1.05,2.96 -2.59,2.96 -1.56,0 -2.59,-1.2 -2.59,-3 0,-1.8 1.03,-3 2.58,-3 z"
         style=""
         id="path5799" />
      <path
         d="m 336.3521,268.66264 0.84,0 0,-2.73 c 0.44,0.54 0.93,0.78 1.61,0.78 1.36,0 2.24,-1.09 2.24,-2.76 0,-1.76 -0.86,-2.86 -2.25,-2.86 -0.71,0 -1.28,0.32 -1.67,0.94 l 0,-0.79 -0.77,0 0,7.42 z m 2.3,-6.79 c 0.92,0 1.52,0.81 1.52,2.06 0,1.19 -0.61,2 -1.52,2 -0.89,0 -1.46,-0.8 -1.46,-2.03 0,-1.23 0.57,-2.03 1.46,-2.03 z"
         style=""
         id="path5801" />
      <path
         d="m 343.9121,261.24264 -0.86,0 0,-1.44 -0.83,0 0,1.44 -0.71,0 0,0.68 0.71,0 0,3.96 c 0,0.54 0.36,0.83 1.01,0.83 0.22,0 0.4,-0.02 0.68,-0.07 l 0,-0.7 c -0.12,0.03 -0.23,0.04 -0.4,0.04 -0.36,0 -0.46,-0.1 -0.46,-0.47 l 0,-3.59 0.86,0 0,-0.68 z"
         style=""
         id="path5803" />
      <path
         d="m 345.6521,261.24264 -0.83,0 0,5.24 0.83,0 0,-5.24 z m 0,-2.05 -0.84,0 0,1.05 0.84,0 0,-1.05 z"
         style=""
         id="path5805" />
      <path
         d="m 349.0921,261.09264 c -1.48,0 -2.36,1.05 -2.36,2.81 0,1.77 0.88,2.81 2.37,2.81 1.48,0 2.37,-1.05 2.37,-2.77 0,-1.82 -0.86,-2.85 -2.38,-2.85 z m 0.01,0.77 c 0.94,0 1.5,0.77 1.5,2.07 0,1.24 -0.58,2.01 -1.5,2.01 -0.93,0 -1.5,-0.77 -1.5,-2.04 0,-1.27 0.57,-2.04 1.5,-2.04 z"
         style=""
         id="path5807" />
      <path
         d="m 352.6321,261.24264 0,5.24 0.84,0 0,-2.89 c 0,-1.07 0.56,-1.77 1.42,-1.77 0.66,0 1.08,0.4 1.08,1.03 l 0,3.63 0.83,0 0,-3.96 c 0,-0.87 -0.65,-1.43 -1.66,-1.43 -0.78,0 -1.28,0.3 -1.74,1.03 l 0,-0.88 -0.77,0 z"
         style=""
         id="path5809" />
      <path
         d="m 362.8421,265.99264 c -0.09,0.02 -0.13,0.02 -0.18,0.02 -0.29,0 -0.45,-0.15 -0.45,-0.41 l 0,-3.08 c 0,-0.93 -0.68,-1.43 -1.97,-1.43 -0.77,0 -1.38,0.22 -1.74,0.61 -0.24,0.27 -0.34,0.57 -0.36,1.09 l 0.84,0 c 0.07,-0.64 0.45,-0.93 1.23,-0.93 0.76,0 1.17,0.28 1.17,0.78 l 0,0.22 c -0.01,0.36 -0.19,0.49 -0.87,0.58 -1.18,0.15 -1.36,0.19 -1.68,0.32 -0.61,0.26 -0.92,0.72 -0.92,1.4 0,0.95 0.66,1.55 1.72,1.55 0.66,0 1.19,-0.23 1.78,-0.77 0.06,0.54 0.32,0.77 0.86,0.77 0.18,0 0.29,-0.02 0.57,-0.09 l 0,-0.63 z m -1.46,-1.16 c 0,0.28 -0.08,0.45 -0.33,0.68 -0.34,0.31 -0.75,0.47 -1.24,0.47 -0.65,0 -1.03,-0.31 -1.03,-0.84 0,-0.55 0.36,-0.83 1.26,-0.96 0.89,-0.12 1.06,-0.16 1.34,-0.29 l 0,0.94 z"
         style=""
         id="path5811" />
      <path
         d="m 364.57212,259.19264 -0.84,0 0,7.29 0.84,0 0,-7.29 z"
         style=""
         id="path5813" />
      <path
         d="m 327.97211,271.09264 c -1.48,0 -2.36,1.05 -2.36,2.81 0,1.77 0.88,2.81 2.37,2.81 1.48,0 2.37,-1.05 2.37,-2.77 0,-1.82 -0.86,-2.85 -2.38,-2.85 z m 0.01,0.77 c 0.94,0 1.5,0.77 1.5,2.07 0,1.24 -0.58,2.01 -1.5,2.01 -0.93,0 -1.5,-0.77 -1.5,-2.04 0,-1.27 0.57,-2.04 1.5,-2.04 z"
         style=""
         id="path5815" />
      <path
         d="m 331.5121,271.24264 0,5.24 0.84,0 0,-2.89 c 0,-1.07 0.56,-1.77 1.42,-1.77 0.66,0 1.08,0.4 1.08,1.03 l 0,3.63 0.83,0 0,-3.96 c 0,-0.87 -0.65,-1.43 -1.66,-1.43 -0.78,0 -1.28,0.3 -1.74,1.03 l 0,-0.88 -0.77,0 z"
         style=""
         id="path5817" />
      <path
         d="m 339.2121,273.36264 -2.38,0 0,0.72 2.38,0 0,-0.72 z"
         style=""
         id="path5819" />
      <path
         d="m 343.02212,269.19264 0,7.29 0.75,0 0,-0.67 c 0.4,0.61 0.93,0.9 1.66,0.9 1.38,0 2.28,-1.13 2.28,-2.87 0,-1.7 -0.85,-2.75 -2.24,-2.75 -0.72,0 -1.23,0.27 -1.62,0.86 l 0,-2.76 -0.83,0 z m 2.29,2.68 c 0.93,0 1.53,0.81 1.53,2.06 0,1.19 -0.62,2 -1.53,2 -0.89,0 -1.46,-0.8 -1.46,-2.03 0,-1.23 0.57,-2.03 1.46,-2.03 z"
         style=""
         id="path5821" />
      <path
         d="m 350.76211,271.09264 c -1.48,0 -2.36,1.05 -2.36,2.81 0,1.77 0.88,2.81 2.37,2.81 1.48,0 2.37,-1.05 2.37,-2.77 0,-1.82 -0.86,-2.85 -2.38,-2.85 z m 0.01,0.77 c 0.94,0 1.5,0.77 1.5,2.07 0,1.24 -0.58,2.01 -1.5,2.01 -0.93,0 -1.5,-0.77 -1.5,-2.04 0,-1.27 0.57,-2.04 1.5,-2.04 z"
         style=""
         id="path5823" />
      <path
         d="m 358.95211,275.99264 c -0.09,0.02 -0.13,0.02 -0.18,0.02 -0.29,0 -0.45,-0.15 -0.45,-0.41 l 0,-3.08 c 0,-0.93 -0.68,-1.43 -1.97,-1.43 -0.77,0 -1.38,0.22 -1.74,0.61 -0.24,0.27 -0.34,0.57 -0.36,1.09 l 0.84,0 c 0.07,-0.64 0.45,-0.93 1.23,-0.93 0.76,0 1.17,0.28 1.17,0.78 l 0,0.22 c -0.01,0.36 -0.19,0.49 -0.87,0.58 -1.18,0.15 -1.36,0.19 -1.68,0.32 -0.61,0.26 -0.92,0.72 -0.92,1.4 0,0.95 0.66,1.55 1.72,1.55 0.66,0 1.19,-0.23 1.78,-0.77 0.06,0.54 0.32,0.77 0.86,0.77 0.18,0 0.29,-0.02 0.57,-0.09 l 0,-0.63 z m -1.46,-1.16 c 0,0.28 -0.08,0.45 -0.33,0.68 -0.34,0.31 -0.75,0.47 -1.24,0.47 -0.65,0 -1.03,-0.31 -1.03,-0.84 0,-0.55 0.36,-0.83 1.26,-0.96 0.89,-0.12 1.06,-0.16 1.34,-0.29 l 0,0.94 z"
         style=""
         id="path5825" />
      <path
         d="m 359.85211,271.24264 0,5.24 0.84,0 0,-2.72 c 0.01,-1.26 0.53,-1.82 1.68,-1.79 l 0,-0.85 c -0.14,-0.02 -0.22,-0.03 -0.32,-0.03 -0.54,0 -0.95,0.32 -1.43,1.1 l 0,-0.95 -0.77,0 z"
         style=""
         id="path5827" />
      <path
         d="m 367.4421,269.19264 -0.83,0 0,2.71 c -0.35,-0.53 -0.91,-0.81 -1.61,-0.81 -1.36,0 -2.25,1.09 -2.25,2.76 0,1.77 0.86,2.86 2.28,2.86 0.72,0 1.22,-0.27 1.67,-0.92 l 0,0.69 0.74,0 0,-7.29 z m -2.3,2.68 c 0.9,0 1.47,0.79 1.47,2.05 0,1.21 -0.58,2.01 -1.46,2.01 -0.92,0 -1.53,-0.81 -1.53,-2.03 0,-1.22 0.61,-2.03 1.52,-2.03 z"
         style=""
         id="path5829" />
      <path
         d="m 342.71711,281.45264 c -0.29,-1.6 -1.21,-2.38 -2.81,-2.38 -0.98,0 -1.77,0.31 -2.31,0.91 -0.66,0.72 -1.02,1.76 -1.02,2.94 0,1.2 0.37,2.23 1.05,2.94 0.57,0.58 1.29,0.85 2.24,0.85 1.78,0 2.78,-0.96 3,-2.89 l -0.96,0 c -0.08,0.5 -0.18,0.84 -0.33,1.13 -0.3,0.6 -0.92,0.94 -1.7,0.94 -1.45,0 -2.37,-1.16 -2.37,-2.98 0,-1.87 0.87,-3.02 2.29,-3.02 0.59,0 1.14,0.17 1.44,0.46 0.27,0.25 0.42,0.55 0.53,1.1 l 0.95,0 z"
         style=""
         id="path5831" />
      <path
         d="m 345.15711,283.39264 2.29,0 c 0.57,0 1.02,-0.17 1.41,-0.52 0.44,-0.4 0.63,-0.87 0.63,-1.54 0,-1.37 -0.81,-2.14 -2.25,-2.14 l -3.01,0 0,7.29 0.93,0 0,-3.09 z m 0,-0.82 0,-2.56 1.94,0 c 0.89,0 1.42,0.48 1.42,1.28 0,0.8 -0.53,1.28 -1.42,1.28 l -1.94,0 z"
         style=""
         id="path5833" />
      <path
         d="m 355.50712,279.19264 0,5.12 c 0,0.98 -0.71,1.58 -1.88,1.58 -0.54,0 -0.98,-0.13 -1.33,-0.38 -0.36,-0.28 -0.53,-0.65 -0.53,-1.2 l 0,-5.12 -0.93,0 0,5.12 c 0,1.48 1.06,2.4 2.79,2.4 1.71,0 2.81,-0.94 2.81,-2.4 l 0,-5.12 -0.93,0 z"
         style=""
         id="path5835" />
      <path
         d="m 277.38312,291.75364 -0.94,0 0,7.29 0.94,0 0,-7.29 z"
         style=""
         id="path5837" />
      <path
         d="m 278.92311,293.80364 0,5.24 0.84,0 0,-2.89 c 0,-1.07 0.56,-1.77 1.42,-1.77 0.66,0 1.08,0.4 1.08,1.03 l 0,3.63 0.83,0 0,-3.96 c 0,-0.87 -0.65,-1.43 -1.66,-1.43 -0.78,0 -1.28,0.3 -1.74,1.03 l 0,-0.88 -0.77,0 z"
         style=""
         id="path5839" />
      <path
         d="m 286.32311,293.80364 -0.86,0 0,-1.44 -0.83,0 0,1.44 -0.71,0 0,0.68 0.71,0 0,3.96 c 0,0.54 0.36,0.83 1.01,0.83 0.22,0 0.4,-0.02 0.68,-0.07 l 0,-0.7 c -0.12,0.03 -0.23,0.04 -0.4,0.04 -0.36,0 -0.46,-0.1 -0.46,-0.47 l 0,-3.59 0.86,0 0,-0.68 z"
         style=""
         id="path5841" />
      <path
         d="m 291.69311,296.70364 c 0,-0.8 -0.06,-1.28 -0.21,-1.67 -0.34,-0.86 -1.14,-1.38 -2.12,-1.38 -1.46,0 -2.4,1.11 -2.4,2.84 0,1.73 0.9,2.78 2.38,2.78 1.2,0 2.03,-0.68 2.24,-1.82 l -0.84,0 c -0.23,0.69 -0.7,1.05 -1.37,1.05 -0.53,0 -0.98,-0.24 -1.26,-0.68 -0.2,-0.3 -0.27,-0.6 -0.28,-1.12 l 3.86,0 z m -3.84,-0.68 c 0.07,-0.97 0.66,-1.6 1.5,-1.6 0.85,0 1.44,0.66 1.44,1.6 l -2.94,0 z"
         style=""
         id="path5843" />
      <path
         d="m 292.81311,293.80364 0,5.24 0.84,0 0,-2.72 c 0.01,-1.26 0.53,-1.82 1.68,-1.79 l 0,-0.85 c -0.14,-0.02 -0.22,-0.03 -0.32,-0.03 -0.54,0 -0.95,0.32 -1.43,1.1 l 0,-0.95 -0.77,0 z"
         style=""
         id="path5845" />
      <path
         d="m 298.03312,293.80364 -0.87,0 0,-0.82 c 0,-0.35 0.19,-0.53 0.58001,-0.53 0.07,0 0.1,0 0.28999,0.01 l 0,-0.69 c -0.19,-0.04 -0.3,-0.05 -0.46999,-0.05 -0.77001,0 -1.23001,0.44 -1.23001,1.19 l 0,0.89 -0.7,0 0,0.68 0.7,0 0,4.56 0.83,0 0,-4.56 0.87,0 0,-0.68 z"
         style=""
         id="path5847" />
      <path
         d="m 303.28311,298.55364 c -0.09,0.02 -0.13,0.02 -0.18,0.02 -0.29,0 -0.45,-0.15 -0.45,-0.41 l 0,-3.08 c 0,-0.93 -0.68,-1.43 -1.97,-1.43 -0.77,0 -1.38,0.22 -1.74,0.61 -0.24,0.27 -0.34,0.57 -0.36,1.09 l 0.84,0 c 0.07,-0.64 0.45,-0.93 1.23,-0.93 0.76,0 1.17,0.28 1.17,0.78 l 0,0.22 c -0.01,0.36 -0.19,0.49 -0.87,0.58 -1.18,0.15 -1.36,0.19 -1.68,0.32 -0.61,0.26 -0.92,0.72 -0.92,1.4 0,0.95 0.66,1.55 1.72,1.55 0.66,0 1.19,-0.23 1.78,-0.77 0.06,0.54 0.32,0.77 0.86,0.77 0.18,0 0.29,-0.02 0.57,-0.09 l 0,-0.63 z m -1.46,-1.16 c 0,0.28 -0.08,0.45 -0.33,0.68 -0.34,0.31 -0.75,0.47 -1.24,0.47 -0.65,0 -1.03,-0.31 -1.03,-0.84 0,-0.55 0.36,-0.83 1.26,-0.96 0.89,-0.12 1.06,-0.16 1.34,-0.29 l 0,0.94 z"
         style=""
         id="path5849" />
      <path
         d="m 308.2031,295.56364 c -0.04,-0.51 -0.15,-0.84 -0.35,-1.13 -0.36,-0.49 -0.99,-0.78 -1.72,-0.78 -1.42,0 -2.33,1.12 -2.33,2.86 0,1.69 0.9,2.76 2.32,2.76 1.25,0 2.04,-0.75 2.14,-2.03 l -0.84,0 c -0.14,0.84 -0.57,1.26 -1.28,1.26 -0.92,0 -1.47,-0.75 -1.47,-1.99 0,-1.31 0.54,-2.09 1.45,-2.09 0.7,0 1.14,0.41 1.24,1.14 l 0.84,0 z"
         style=""
         id="path5851" />
      <path
         d="m 313.6231,296.70364 c 0,-0.8 -0.06,-1.28 -0.21,-1.67 -0.34,-0.86 -1.14,-1.38 -2.12,-1.38 -1.46,0 -2.4,1.11 -2.4,2.84 0,1.73 0.9,2.78 2.38,2.78 1.2,0 2.03,-0.68 2.24,-1.82 l -0.84,0 c -0.23,0.69 -0.7,1.05 -1.37,1.05 -0.53,0 -0.98,-0.24 -1.26,-0.68 -0.2,-0.3 -0.27,-0.6 -0.28,-1.12 l 3.86,0 z m -3.84,-0.68 c 0.07,-0.97 0.66,-1.6 1.5,-1.6 0.85,0 1.44,0.66 1.44,1.6 l -2.94,0 z"
         style=""
         id="path5853" />
      <path
         d="m 282.50411,301.75364 0,7.29 0.75,0 0,-0.67 c 0.4,0.61 0.93,0.9 1.66,0.9 1.38,0 2.28,-1.13 2.28,-2.87 0,-1.7 -0.85,-2.75 -2.24,-2.75 -0.72,0 -1.23,0.27 -1.62,0.86 l 0,-2.76 -0.83,0 z m 2.29,2.68 c 0.93,0 1.53,0.81 1.53,2.06 0,1.19 -0.62,2 -1.53,2 -0.89,0 -1.46,-0.8 -1.46,-2.03 0,-1.23 0.57,-2.03 1.46,-2.03 z"
         style=""
         id="path5855" />
      <path
         d="m 290.24411,303.65364 c -1.48,0 -2.36,1.05 -2.36,2.81 0,1.77 0.88,2.81 2.37,2.81 1.48,0 2.37,-1.05 2.37,-2.77 0,-1.82 -0.86,-2.85 -2.38,-2.85 z m 0.01,0.77 c 0.94,0 1.5,0.77 1.5,2.07 0,1.24 -0.58,2.01 -1.5,2.01 -0.93,0 -1.5,-0.77 -1.5,-2.04 0,-1.27 0.57,-2.04 1.5,-2.04 z"
         style=""
         id="path5857" />
      <path
         d="m 298.43411,308.55364 c -0.09,0.02 -0.13,0.02 -0.18,0.02 -0.29,0 -0.45,-0.15 -0.45,-0.41 l 0,-3.08 c 0,-0.93 -0.68,-1.43 -1.97,-1.43 -0.77,0 -1.38,0.22 -1.74,0.61 -0.24,0.27 -0.34,0.57 -0.36,1.09 l 0.84,0 c 0.07,-0.64 0.45,-0.93 1.23,-0.93 0.76,0 1.17,0.28 1.17,0.78 l 0,0.22 c -0.01,0.36 -0.19,0.49 -0.87,0.58 -1.18,0.15 -1.36,0.19 -1.68,0.32 -0.61,0.26 -0.92,0.72 -0.92,1.4 0,0.95 0.66,1.55 1.72,1.55 0.66,0 1.19,-0.23 1.78,-0.77 0.06,0.54 0.32,0.77 0.86,0.77 0.18,0 0.29,-0.02 0.57,-0.09 l 0,-0.63 z m -1.46,-1.16 c 0,0.28 -0.08,0.45 -0.33,0.68 -0.34,0.31 -0.75,0.47 -1.24,0.47 -0.65,0 -1.03,-0.31 -1.03,-0.84 0,-0.55 0.36,-0.83 1.26,-0.96 0.89,-0.12 1.06,-0.16 1.34,-0.29 l 0,0.94 z"
         style=""
         id="path5859" />
      <path
         d="m 299.3341,303.80364 0,5.24 0.84,0 0,-2.72 c 0.01,-1.26 0.53,-1.82 1.68,-1.79 l 0,-0.85 c -0.14,-0.02 -0.22,-0.03 -0.32,-0.03 -0.54,0 -0.95,0.32 -1.43,1.1 l 0,-0.95 -0.77,0 z"
         style=""
         id="path5861" />
      <path
         d="m 306.92412,301.75364 -0.83,0 0,2.71 c -0.35,-0.53 -0.91,-0.81 -1.61,-0.81 -1.36,0 -2.25,1.09 -2.25,2.76 0,1.77 0.86,2.86 2.28,2.86 0.72,0 1.22,-0.27 1.67,-0.92 l 0,0.69 0.74,0 0,-7.29 z m -2.3,2.68 c 0.9,0 1.47,0.79 1.47,2.05 0,1.21 -0.58,2.01 -1.46,2.01 -0.92,0 -1.53,-0.81 -1.53,-2.03 0,-1.22 0.61,-2.03 1.52,-2.03 z"
         style=""
         id="path5863" />
      <path
         d="m 286.05412,315.90364 2.4,0 c 0.83,0 1.2,0.4 1.2,1.3 l -0.01,0.65 c 0,0.45 0.08,0.89 0.21,1.19 l 1.13,0 0,-0.23 c -0.35,-0.24 -0.42,-0.5 -0.44,-1.47 -0.01,-1.2 -0.2,-1.56 -0.99,-1.9 0.82,-0.41 1.15,-0.9 1.15,-1.74 0,-1.26 -0.78,-1.95 -2.22,-1.95 l -3.36,0 0,7.29 0.93,0 0,-3.14 z m 0,-0.82 0,-2.51 2.25,0 c 0.52,0 0.82,0.08 1.05,0.28 0.25,0.21 0.38,0.54 0.38,0.97 0,0.87 -0.44,1.26 -1.43,1.26 l -2.25,0 z"
         style=""
         id="path5865" />
      <path
         d="m 296.15412,316.85364 0.75,2.19 1.04,0 -2.56,-7.29 -1.2,0 -2.6,7.29 0.99,0 0.77,-2.19 2.81,0 z m -0.26,-0.78 -2.32,0 1.2,-3.32 1.12,3.32 z"
         style=""
         id="path5867" />
      <path
         d="m 302.76411,319.04364 2.05,-6.11 0,6.11 0.88,0 0,-7.29 -1.29,0 -2.12,6.35 -2.16,-6.35 -1.29,0 0,7.29 0.88,0 0,-6.11 2.07,6.11 0.98,0 z"
         style=""
         id="path5869" />
      <path
         d="m 216.88711,286.21662 -0.88,0 0,5.96 -3.81,-5.96 -1.01,0 0,7.29 0.88,0 0,-5.91 3.77,5.91 1.05,0 0,-7.29 z"
         style=""
         id="path5871" />
      <path
         d="m 220.36711,288.11662 c -1.48,0 -2.36,1.05 -2.36,2.81 0,1.77 0.88,2.81 2.37,2.81 1.48,0 2.37,-1.05 2.37,-2.77 0,-1.82 -0.86,-2.85 -2.38,-2.85 z m 0.01,0.77 c 0.94,0 1.5,0.77 1.5,2.07 0,1.24 -0.58,2.01 -1.5,2.01 -0.93,0 -1.5,-0.77 -1.5,-2.04 0,-1.27 0.57,-2.04 1.5,-2.04 z"
         style=""
         id="path5873" />
      <path
         d="m 228.15711,286.21662 -0.83,0 0,2.71 c -0.35,-0.53 -0.91,-0.81 -1.61,-0.81 -1.36,0 -2.25,1.09 -2.25,2.76 0,1.77 0.86,2.86 2.28,2.86 0.72,0 1.22,-0.27 1.67,-0.92 l 0,0.69 0.74,0 0,-7.29 z m -2.3,2.68 c 0.9,0 1.47,0.79 1.47,2.05 0,1.21 -0.58,2.01 -1.46,2.01 -0.92,0 -1.53,-0.81 -1.53,-2.03 0,-1.22 0.61,-2.03 1.52,-2.03 z"
         style=""
         id="path5875" />
      <path
         d="m 233.89711,291.16662 c 0,-0.8 -0.06,-1.28 -0.21,-1.67 -0.34,-0.86 -1.14,-1.38 -2.12,-1.38 -1.46,0 -2.4,1.11 -2.4,2.84 0,1.73 0.9,2.78 2.38,2.78 1.2,0 2.03,-0.68 2.24,-1.82 l -0.84,0 c -0.23,0.69 -0.7,1.05 -1.37,1.05 -0.53,0 -0.98,-0.24 -1.26,-0.68 -0.2,-0.3 -0.27,-0.6 -0.28,-1.12 l 3.86,0 z m -3.84,-0.68 c 0.07,-0.97 0.66,-1.6 1.5,-1.6 0.85,0 1.44,0.66 1.44,1.6 l -2.94,0 z"
         style=""
         id="path5877" />
      <path
         d="m 239.3171,290.25662 0.11,0 0.37,-0.01 c 0.97,0 1.47,0.44 1.47,1.29 0,0.89 -0.55,1.42 -1.47,1.42 -0.96,0 -1.43,-0.48 -1.49,-1.51 l -0.88,0 c 0.04,0.57 0.14,0.94 0.31,1.26 0.36,0.68 1.06,1.03 2.03,1.03 1.46,0 2.4,-0.87 2.4,-2.21 0,-0.9 -0.35,-1.4 -1.2,-1.69 0.66,-0.27 0.99,-0.76 0.99,-1.47 0,-1.22 -0.81,-1.95 -2.16,-1.95 -1.43,0 -2.19,0.78 -2.22,2.29 l 0.88,0 c 0.01,-0.43 0.05,-0.67 0.16,-0.89 0.2,-0.39 0.64,-0.63 1.19,-0.63 0.78,0 1.25,0.45 1.25,1.21 0,0.5 -0.18,0.8 -0.57,0.96 -0.24,0.1 -0.55,0.14 -1.17,0.15 l 0,0.75 z"
         style=""
         id="path5879" />
      <path
         d="m 240.1731,227.06763 2.05,-6.11 0,6.11 0.88,0 0,-7.29 -1.29,0 -2.12,6.35 -2.16,-6.35 -1.29,0 0,7.29 0.88,0 0,-6.11 2.07,6.11 0.98,0 z"
         style=""
         id="path5881" />
      <path
         d="m 249.1731,226.57763 c -0.09,0.02 -0.13,0.02 -0.18,0.02 -0.29,0 -0.45,-0.15 -0.45,-0.41 l 0,-3.08 c 0,-0.93 -0.68,-1.43 -1.97,-1.43 -0.77,0 -1.38,0.22 -1.74,0.61 -0.24,0.27 -0.34,0.57 -0.36,1.09 l 0.84,0 c 0.07,-0.64 0.45,-0.93 1.23,-0.93 0.76,0 1.17,0.28 1.17,0.78 l 0,0.22 c -0.01,0.36 -0.19,0.49 -0.87,0.58 -1.18,0.15 -1.36,0.19 -1.68,0.32 -0.61,0.26 -0.92,0.72 -0.92,1.4 0,0.95 0.66,1.55 1.72,1.55 0.66,0 1.19,-0.23 1.78,-0.77 0.06,0.54 0.32,0.77 0.86,0.77 0.18,0 0.29,-0.02 0.57,-0.09 l 0,-0.63 z m -1.46,-1.16 c 0,0.28 -0.08,0.45 -0.33,0.68 -0.34,0.31 -0.75,0.47 -1.24,0.47 -0.65,0 -1.03,-0.31 -1.03,-0.84 0,-0.55 0.36,-0.83 1.26,-0.96 0.89,-0.12 1.06,-0.16 1.34,-0.29 l 0,0.94 z"
         style=""
         id="path5883" />
      <path
         d="m 250.8831,221.82763 -0.83,0 0,5.24 0.83,0 0,-5.24 z m 0,-2.05 -0.84,0 0,1.05 0.84,0 0,-1.05 z"
         style=""
         id="path5885" />
      <path
         d="m 252.3031,221.82763 0,5.24 0.84,0 0,-2.89 c 0,-1.07 0.56,-1.77 1.42,-1.77 0.66,0 1.08,0.4 1.08,1.03 l 0,3.63 0.83,0 0,-3.96 c 0,-0.87 -0.65,-1.43 -1.66,-1.43 -0.78,0 -1.28,0.3 -1.74,1.03 l 0,-0.88 -0.77,0 z"
         style=""
         id="path5887" />
      <path
         d="m 261.80312,223.92763 2.4,0 c 0.83,0 1.2,0.4 1.2,1.3 l -0.01,0.65 c 0,0.45 0.08,0.89 0.21,1.19 l 1.13,0 0,-0.23 c -0.35,-0.24 -0.42,-0.5 -0.44,-1.47 -0.01,-1.2 -0.2,-1.56 -0.99,-1.9 0.82,-0.41 1.15,-0.9 1.15,-1.74 0,-1.26 -0.78,-1.95 -2.22,-1.95 l -3.36,0 0,7.29 0.93,0 0,-3.14 z m 0,-0.82 0,-2.51 2.25,0 c 0.52,0 0.82,0.08 1.05,0.28 0.25,0.21 0.38,0.54 0.38,0.97 0,0.87 -0.44,1.26 -1.43,1.26 l -2.25,0 z"
         style=""
         id="path5889" />
      <path
         d="m 271.90312,224.87763 0.75,2.19 1.04,0 -2.56,-7.29 -1.2,0 -2.6,7.29 0.99,0 0.77,-2.19 2.81,0 z m -0.26,-0.78 -2.32,0 1.2,-3.32 1.12,3.32 z"
         style=""
         id="path5891" />
      <path
         d="m 278.5131,227.06763 2.05,-6.11 0,6.11 0.88,0 0,-7.29 -1.29,0 -2.12,6.35 -2.16,-6.35 -1.29,0 0,7.29 0.88,0 0,-6.11 2.07,6.11 0.98,0 z"
         style=""
         id="path5893" />
      <path
         d="m 239.33811,146.41263 2.05,-6.11 0,6.11 0.88,0 0,-7.29 -1.29,0 -2.12,6.35 -2.16,-6.35 -1.29,0 0,7.29 0.88,0 0,-6.11 2.07,6.11 0.98,0 z"
         style=""
         id="path5895" />
      <path
         d="m 248.33811,145.92263 c -0.09,0.02 -0.13,0.02 -0.18,0.02 -0.29,0 -0.45,-0.15 -0.45,-0.41 l 0,-3.08 c 0,-0.93 -0.68,-1.43 -1.97,-1.43 -0.77,0 -1.38,0.22 -1.74,0.61 -0.24,0.27 -0.34,0.57 -0.36,1.09 l 0.84,0 c 0.07,-0.64 0.45,-0.93 1.23,-0.93 0.76,0 1.17,0.28 1.17,0.78 l 0,0.22 c -0.01,0.36 -0.19,0.49 -0.87,0.58 -1.18,0.15 -1.36,0.19 -1.68,0.32 -0.61,0.26 -0.92,0.72 -0.92,1.4 0,0.95 0.66,1.55 1.72,1.55 0.66,0 1.19,-0.23 1.78,-0.77 0.06,0.54 0.32,0.77 0.86,0.77 0.18,0 0.29,-0.02 0.57,-0.09 l 0,-0.63 z m -1.46,-1.16 c 0,0.28 -0.08,0.45 -0.33,0.68 -0.34,0.31 -0.75,0.47 -1.24,0.47 -0.65,0 -1.03,-0.31 -1.03,-0.84 0,-0.55 0.36,-0.83 1.26,-0.96 0.89,-0.12 1.06,-0.16 1.34,-0.29 l 0,0.94 z"
         style=""
         id="path5897" />
      <path
         d="m 250.04811,141.17263 -0.83,0 0,5.24 0.83,0 0,-5.24 z m 0,-2.05 -0.84,0 0,1.05 0.84,0 0,-1.05 z"
         style=""
         id="path5899" />
      <path
         d="m 251.46811,141.17263 0,5.24 0.84,0 0,-2.89 c 0,-1.07 0.56,-1.77 1.42,-1.77 0.66,0 1.08,0.4 1.08,1.03 l 0,3.63 0.83,0 0,-3.96 c 0,-0.87 -0.65,-1.43 -1.66,-1.43 -0.78,0 -1.28,0.3 -1.74,1.03 l 0,-0.88 -0.77,0 z"
         style=""
         id="path5901" />
      <path
         d="m 260.96812,143.27263 2.4,0 c 0.83,0 1.2,0.4 1.2,1.3 l -0.01,0.65 c 0,0.45 0.08,0.89 0.21,1.19 l 1.13,0 0,-0.23 c -0.35,-0.24 -0.42,-0.5 -0.44,-1.47 -0.01,-1.2 -0.2,-1.56 -0.99,-1.9 0.82,-0.41 1.15,-0.9 1.15,-1.74 0,-1.26 -0.78,-1.95 -2.22,-1.95 l -3.36,0 0,7.29 0.93,0 0,-3.14 z m 0,-0.82 0,-2.51 2.25,0 c 0.52,0 0.82,0.08 1.05,0.28 0.25,0.21 0.38,0.54 0.38,0.97 0,0.87 -0.44,1.26 -1.43,1.26 l -2.25,0 z"
         style=""
         id="path5903" />
      <path
         d="m 271.06809,144.22263 0.75,2.19 1.04,0 -2.56,-7.29 -1.2,0 -2.6,7.29 0.99,0 0.77,-2.19 2.81,0 z m -0.26,-0.78 -2.32,0 1.2,-3.32 1.12,3.32 z"
         style=""
         id="path5905" />
      <path
         d="m 277.67811,146.41263 2.05,-6.11 0,6.11 0.88,0 0,-7.29 -1.29,0 -2.12,6.35 -2.16,-6.35 -1.29,0 0,7.29 0.88,0 0,-6.11 2.07,6.11 0.98,0 z"
         style=""
         id="path5907" />
      <path
         d="m 219.03211,122.82363 -0.88,0 0,5.96 -3.81,-5.96 -1.01,0 0,7.29 0.88,0 0,-5.91 3.77,5.91 1.05,0 0,-7.29 z"
         style=""
         id="path5909" />
      <path
         d="m 222.51211,124.72363 c -1.48,0 -2.36,1.05 -2.36,2.81 0,1.77 0.88,2.81 2.37,2.81 1.48,0 2.37,-1.05 2.37,-2.77 0,-1.82 -0.86,-2.85 -2.38,-2.85 z m 0.01,0.77 c 0.94,0 1.5,0.77 1.5,2.07 0,1.24 -0.58,2.01 -1.5,2.01 -0.93,0 -1.5,-0.77 -1.5,-2.04 0,-1.27 0.57,-2.04 1.5,-2.04 z"
         style=""
         id="path5911" />
      <path
         d="m 230.30211,122.82363 -0.83,0 0,2.71 c -0.35,-0.53 -0.91,-0.81 -1.61,-0.81 -1.36,0 -2.25,1.09 -2.25,2.76 0,1.77 0.86,2.86 2.28,2.86 0.72,0 1.22,-0.27 1.67,-0.92 l 0,0.69 0.74,0 0,-7.29 z m -2.3,2.68 c 0.9,0 1.47,0.79 1.47,2.05 0,1.21 -0.58,2.01 -1.46,2.01 -0.92,0 -1.53,-0.81 -1.53,-2.03 0,-1.22 0.61,-2.03 1.52,-2.03 z"
         style=""
         id="path5913" />
      <path
         d="m 236.04211,127.77363 c 0,-0.8 -0.06,-1.28 -0.21,-1.67 -0.34,-0.86 -1.14,-1.38 -2.12,-1.38 -1.46,0 -2.4,1.11 -2.4,2.84 0,1.73 0.9,2.78 2.38,2.78 1.2,0 2.03,-0.68 2.24,-1.82 l -0.84,0 c -0.23,0.69 -0.7,1.05 -1.37,1.05 -0.53,0 -0.98,-0.24 -1.26,-0.68 -0.2,-0.3 -0.27,-0.6 -0.28,-1.12 l 3.86,0 z m -3.84,-0.68 c 0.07,-0.97 0.66,-1.6 1.5,-1.6 0.85,0 1.44,0.66 1.44,1.6 l -2.94,0 z"
         style=""
         id="path5915" />
      <path
         d="m 241.84211,125.06363 0,5.05 0.88,0 0,-7.09 -0.58,0 c -0.31,1.09 -0.51,1.24 -1.87,1.41 l 0,0.63 1.57,0 z"
         style=""
         id="path5917" />
      <path
         d="m 332.8581,169.72263 0.11,0 0.37,-0.01 c 0.97,0 1.47,0.44 1.47,1.29 0,0.89 -0.55,1.42 -1.47,1.42 -0.96,0 -1.43,-0.48 -1.49,-1.51 l -0.88,0 c 0.04,0.57 0.14,0.94 0.31,1.26 0.36,0.68 1.06,1.03 2.03,1.03 1.46,0 2.4,-0.87 2.4,-2.21 0,-0.9 -0.35,-1.4 -1.2,-1.69 0.66,-0.27 0.99,-0.76 0.99,-1.47 0,-1.22 -0.81,-1.95 -2.16,-1.95 -1.43,0 -2.19,0.78 -2.22,2.29 l 0.88,0 c 0.01,-0.43 0.05,-0.67 0.16,-0.89 0.2,-0.39 0.64,-0.63 1.19,-0.63 0.78,0 1.25,0.45 1.25,1.21 0,0.5 -0.18,0.8 -0.57,0.96 -0.24,0.1 -0.55,0.14 -1.17,0.15 l 0,0.75 z"
         style=""
         id="path5919" />
      <path
         d="m 297.4581,193.12162 -3.73,0 c 0.09,-0.58 0.41,-0.95 1.28,-1.46 l 1,-0.54 c 0.99,-0.54 1.5,-1.27 1.5,-2.14 0,-0.59 -0.24,-1.14 -0.66,-1.53 -0.42,-0.37 -0.93,-0.55 -1.61,-0.55 -0.9,0 -1.57,0.31 -1.96,0.92 -0.25,0.38 -0.36,0.82 -0.38,1.54 l 0.88,0 c 0.03,-0.48 0.09,-0.77 0.21,-1 0.23,-0.43 0.69,-0.69 1.22,-0.69 0.8,0 1.4,0.57 1.4,1.33 0,0.56 -0.33,1.04 -0.96,1.4 l -0.92,0.52 c -1.48,0.84 -1.91,1.51 -1.99,3.07 l 4.72,0 0,-0.87 z"
         style=""
         id="path5921" />
      <path
         d="m 268.88312,155.96663 0,5.05 0.88,0 0,-7.09 -0.58,0 c -0.31,1.09 -0.51,1.24 -1.87,1.41 l 0,0.63 1.57,0 z"
         style=""
         id="path5923" />
      <path
         d="m 418.77711,192.72062 0,1.7 0.88,0 0,-1.7 1.05,0 0,-0.79 -1.05,0 0,-4.6 -0.65,0 -3.22,4.46 0,0.93 2.99,0 z m 0,-0.79 -2.22,0 2.22,-3.1 0,3.1 z"
         style=""
         id="path5925" />
      <path
         d="m 469.4861,183.04164 -3.66,0 -0.53,3.86 0.81,0 c 0.41,-0.49 0.75,-0.66 1.31,-0.66 0.95,0 1.54,0.65 1.54,1.7 0,1.02 -0.59,1.64 -1.55,1.64 -0.77,0 -1.24,-0.39 -1.45,-1.19 l -0.88,0 c 0.12,0.58 0.22,0.86 0.43,1.12 0.4,0.54 1.12,0.85 1.92,0.85 1.43,0 2.43,-1.04 2.43,-2.54 0,-1.4 -0.93,-2.36 -2.29,-2.36 -0.5,0 -0.9,0.13 -1.31,0.43 l 0.28,-1.98 2.95,0 0,-0.87 z"
         style=""
         id="path5927" />
      <path
         d="m 217.98411,156.75263 0,5.12 c 0,0.98 -0.71,1.58 -1.88,1.58 -0.54,0 -0.98,-0.13 -1.33,-0.38 -0.36,-0.28 -0.53,-0.65 -0.53,-1.2 l 0,-5.12 -0.93,0 0,5.12 c 0,1.48 1.06,2.4 2.79,2.4 1.71,0 2.81,-0.94 2.81,-2.4 l 0,-5.12 -0.93,0 z"
         style=""
         id="path5929" />
      <path
         d="m 224.06411,160.26263 c -0.01,-1.03 -0.69,-1.61 -1.9,-1.61 -1.22,0 -2.01,0.63 -2.01,1.6 0,0.82 0.42,1.21 1.66,1.51 l 0.78,0.19 c 0.58,0.14 0.81,0.35 0.81,0.72 0,0.5 -0.49,0.83 -1.22,0.83 -0.45,0 -0.83,-0.13 -1.04,-0.35 -0.13,-0.15 -0.19,-0.3 -0.24,-0.67 l -0.88,0 c 0.04,1.21 0.72,1.79 2.09,1.79 1.32,0 2.16,-0.65 2.16,-1.66 0,-0.78 -0.44,-1.21 -1.48,-1.46 l -0.8,-0.19 c -0.68,-0.16 -0.97,-0.38 -0.97,-0.75 0,-0.49 0.43,-0.79 1.11,-0.79 0.67,0 1.03,0.29 1.05,0.84 l 0.88,0 z"
         style=""
         id="path5931" />
      <path
         d="m 229.81411,161.70263 c 0,-0.8 -0.06,-1.28 -0.21,-1.67 -0.34,-0.86 -1.14,-1.38 -2.12,-1.38 -1.46,0 -2.4,1.11 -2.4,2.84 0,1.73 0.9,2.78 2.38,2.78 1.2,0 2.03,-0.68 2.24,-1.82 l -0.84,0 c -0.23,0.69 -0.7,1.05 -1.37,1.05 -0.53,0 -0.98,-0.24 -1.26,-0.68 -0.2,-0.3 -0.27,-0.6 -0.28,-1.12 l 3.86,0 z m -3.84,-0.68 c 0.07,-0.97 0.66,-1.6 1.5,-1.6 0.85,0 1.44,0.66 1.44,1.6 l -2.94,0 z"
         style=""
         id="path5933" />
      <path
         d="m 230.93411,158.80263 0,5.24 0.84,0 0,-2.72 c 0.01,-1.26 0.53,-1.82 1.68,-1.79 l 0,-0.85 c -0.14,-0.02 -0.22,-0.03 -0.32,-0.03 -0.54,0 -0.95,0.32 -1.43,1.1 l 0,-0.95 -0.77,0 z"
         style=""
         id="path5935" />
      <path
         d="m 219.68411,180.05263 c -2.09,0 -3.51,1.54 -3.51,3.82 0,2.29 1.41,3.82 3.52,3.82 0.89,0 1.67,-0.27 2.26,-0.77 0.79,-0.67 1.26,-1.8 1.26,-2.99 0,-2.35 -1.39,-3.88 -3.53,-3.88 z m 0,0.82 c 1.58,0 2.6,1.19 2.6,3.04 0,1.76 -1.05,2.96 -2.59,2.96 -1.56,0 -2.59,-1.2 -2.59,-3 0,-1.8 1.03,-3 2.58,-3 z"
         style=""
         id="path5937" />
      <path
         d="m 229.53411,182.31263 c 0,-0.5 -0.03,-0.64 -0.19,-0.98 -0.4,-0.84 -1.25,-1.28 -2.48,-1.28 -1.6,0 -2.59,0.82 -2.59,2.14 0,0.89 0.47,1.45 1.43,1.7 l 1.81,0.48 c 0.93,0.24 1.34,0.61 1.34,1.18 0,0.39 -0.21,0.79 -0.52,1.01 -0.29,0.21 -0.75,0.31 -1.34,0.31 -0.8,0 -1.33,-0.19 -1.68,-0.61 -0.27,-0.32 -0.39,-0.67 -0.38,-1.12 l -0.88,0 c 0.01,0.67 0.14,1.11 0.43,1.51 0.5,0.69 1.34,1.04 2.45,1.04 0.87,0 1.58,-0.2 2.05,-0.56 0.49,-0.39 0.8,-1.04 0.8,-1.67 0,-0.9 -0.56,-1.56 -1.55,-1.83 l -1.83,-0.49 c -0.88,-0.24 -1.2,-0.52 -1.2,-1.08 0,-0.74 0.65,-1.23 1.63,-1.23 1.16,0 1.81,0.52 1.82,1.48 l 0.88,0 z"
         style=""
         id="path5939" />
    </g>
    <path
       inkscape:connector-curvature="0"
       id="path252"
       style="fill:none;stroke:#221e1f;stroke-width:0.625;stroke-linecap:butt;stroke-linejoin:miter;stroke-miterlimit:4;stroke-dasharray:none;stroke-opacity:1"
       d="m 239.20911,149.88613 -1.125,0 c -0.8775,0 -1.08,1.0125 -1.08,1.98 l 0,6.695 c 0,2.295 -1.44,2.9475 -1.9575,3.015 l 0,0.0675 c 0.5175,0.135 1.9575,0.9 1.9575,3.015 l 0,9.71125 c 0,0.945 0.2025,1.935 1.08,1.935 l 1.125,0" />
    <path
       d="m 239.20911,178.20613 -1.125,0 c -0.8775,0 -1.08,1.0125 -1.08,1.98 l 0,0.9275 c 0,2.295 -1.44,2.94625 -1.9575,3.01375 l 0,0.0688 c 0.5175,0.13375 1.9575,0.9 1.9575,3.015 l 0,3.0675 c 0,0.94375 0.2025,1.93375 1.08,1.93375 l 1.125,0"
       style="fill:none;stroke:#221e1f;stroke-width:0.625;stroke-linecap:butt;stroke-linejoin:miter;stroke-miterlimit:4;stroke-dasharray:none;stroke-opacity:1"
       id="path256"
       inkscape:connector-curvature="0" />
    <path
       inkscape:connector-curvature="0"
       id="path260"
       style="fill:none;stroke:#221e1f;stroke-width:1;stroke-linecap:butt;stroke-linejoin:miter;stroke-miterlimit:4;stroke-dasharray:none;stroke-opacity:1"
       d="m 408.31161,162.83988 -36.14,0 c -2.07,0 -3.75,1.67875 -3.75,3.75 l 0,27.41625 -0.0875,0.375 c 0,2.07125 -1.67875,3.75 -3.75,3.75 l -22.75375,0 c -2.07125,0 -3.75,-1.67875 -3.75,-3.75 l -0.0875,-0.375 0,-27.41625 c 0,-2.07125 -1.68,-3.75 -3.75,-3.75 l -37.7025,0" />
    <path
       inkscape:connector-curvature="0"
       id="path264"
       style="fill:none;stroke:#231f20;stroke-width:1;stroke-linecap:butt;stroke-linejoin:miter;stroke-miterlimit:4;stroke-dasharray:none;stroke-opacity:1"
       d="m 438.27536,177.69113 33.92375,0" />
  </g>
</svg>
