<?xml version="1.0" encoding="UTF-8" standalone="no"?>
<!-- Created with Inkscape (http://www.inkscape.org/) -->

<svg
   xmlns:dc="http://purl.org/dc/elements/1.1/"
   xmlns:cc="http://creativecommons.org/ns#"
   xmlns:rdf="http://www.w3.org/1999/02/22-rdf-syntax-ns#"
   xmlns:svg="http://www.w3.org/2000/svg"
   xmlns="http://www.w3.org/2000/svg"
   xmlns:sodipodi="http://sodipodi.sourceforge.net/DTD/sodipodi-0.dtd"
   xmlns:inkscape="http://www.inkscape.org/namespaces/inkscape"
   width="319.56439"
   height="121.89512"
   id="svg11770"
   version="1.1"
   inkscape:version="0.91 r13725"
   sodipodi:docname="evenodd.svg">
  <sodipodi:namedview
     id="base"
     pagecolor="#ffffff"
     bordercolor="#666666"
     borderopacity="1.0"
     inkscape:pageopacity="0.0"
     inkscape:pageshadow="2"
     inkscape:zoom="2"
     inkscape:cx="297.9592"
     inkscape:cy="43.042704"
     inkscape:document-units="px"
     inkscape:current-layer="layer1"
     showgrid="false"
     fit-margin-top="2"
     fit-margin-left="2"
     fit-margin-right="2"
     fit-margin-bottom="2"
     inkscape:window-width="531"
     inkscape:window-height="882"
     inkscape:window-x="1067"
     inkscape:window-y="18"
     inkscape:window-maximized="0" />
  <defs
     id="defs11772">
    <marker
       inkscape:stockid="Arrow2Mend"
       orient="auto"
       refY="0"
       refX="0"
       id="Arrow2Mend"
       style="overflow:visible">
      <path
         id="path13956"
         style="fill-rule:evenodd;stroke-width:0.625;stroke-linejoin:round"
         d="M 8.7185878,4.0337352 -2.2072895,0.01601326 8.7185884,-4.0017078 c -1.7454984,2.3720609 -1.7354408,5.6174519 -6e-7,8.035443 z"
         transform="scale(-0.6,-0.6)"
         inkscape:connector-curvature="0" />
    </marker>
  </defs>
  <metadata
     id="metadata11775">
    <rdf:RDF>
      <cc:Work
         rdf:about="">
        <dc:format>image/svg+xml</dc:format>
        <dc:type
           rdf:resource="http://purl.org/dc/dcmitype/StillImage" />
        <dc:title></dc:title>
      </cc:Work>
    </rdf:RDF>
  </metadata>
  <g
     transform="translate(-346.08786,-91.064484)"
     id="layer1"
     inkscape:groupmode="layer"
     inkscape:label="Calque 1">
    <g
       id="g5008"
       transform="translate(-60,0)">
      <path
         inkscape:connector-curvature="0"
         id="path5004"
         style="fill:#999999;fill-opacity:1;fill-rule:evenodd;stroke:none"
         d="m 712.04724,117.8171 c -6.3325,0 -11.605,1.09625 -11.605,2.41125 l 0,88.31 c 0,1.31625 5.2725,2.42125 11.605,2.42125 6.325,0 11.605,-1.105 11.605,-2.42125 l 0,-88.31 c 0,-1.315 -5.28,-2.41125 -11.605,-2.41125" />
      <path
         inkscape:connector-curvature="0"
         id="path5006"
         style="fill:#b3b3b3;fill-opacity:1;fill-rule:evenodd;stroke:none"
         d="m 712.04724,117.8171 c -6.3325,0 -11.605,1.09625 -11.605,2.41125 0,1.315 5.2725,2.42 11.605,2.42 6.325,0 11.605,-1.105 11.605,-2.42 0,-1.315 -5.28,-2.41125 -11.605,-2.41125" />
    </g>
    <g
       id="g5320"
       transform="translate(-40,0)">
      <path
         d="m 692.04724,163.0976 -8.965,0 0,-11.51375 17.93,0 0,11.51375 -8.965,0"
         style="fill:#666666;fill-opacity:1;fill-rule:evenodd;stroke:#000000;stroke-opacity:1"
         id="path5304"
         inkscape:connector-curvature="0" />
      <path
         inkscape:connector-curvature="0"
         id="path5306"
         style="fill:#999999;fill-opacity:1;fill-rule:evenodd;stroke:#000000;stroke-opacity:1"
         d="m 692.04724,146.79217 -8.965,0 0,-11.51375 17.93,0 0,11.51375 -8.965,0" />
      <path
         d="m 692.04724,195.70837 -8.965,0 0,-11.51375 17.93,0 0,11.51375 -8.965,0"
         style="fill:#000000;fill-opacity:1;fill-rule:evenodd;stroke:#000000;stroke-opacity:1"
         id="path5308"
         inkscape:connector-curvature="0" />
      <path
         inkscape:connector-curvature="0"
         id="path5310"
         style="fill:#333333;fill-opacity:1;fill-rule:evenodd;stroke:#000000;stroke-opacity:1"
         d="m 692.04724,179.40295 -8.965,0 0,-11.51375 17.93,0 0,11.51375 -8.965,0" />
    </g>
    <path
       style="fill:none;stroke:#000000;stroke-width:0.64999998;stroke-linecap:butt;stroke-linejoin:miter;stroke-miterlimit:4;stroke-dasharray:none;stroke-opacity:1;marker-end:url(#Arrow2Mend)"
       d="M 403.81297,195.17229 562.96281,127.06006"
       id="path13817"
       inkscape:connector-curvature="0"
       sodipodi:nodetypes="cc" />
    <g
       style="opacity:0.4"
       id="g12636">
      <path
         inkscape:connector-curvature="0"
         id="path12442"
         style="fill:#999999;fill-opacity:1;fill-rule:evenodd;stroke:none"
         d="m 612.04724,117.8171 c -6.3325,0 -11.605,1.09625 -11.605,2.41125 l 0,88.31 c 0,1.31625 5.2725,2.42125 11.605,2.42125 6.325,0 11.605,-1.105 11.605,-2.42125 l 0,-88.31 c 0,-1.315 -5.28,-2.41125 -11.605,-2.41125" />
      <path
         inkscape:connector-curvature="0"
         id="path12444"
         style="fill:#b3b3b3;fill-opacity:1;fill-rule:evenodd;stroke:none"
         d="m 612.04724,117.8171 c -6.3325,0 -11.605,1.09625 -11.605,2.41125 0,1.315 5.2725,2.42 11.605,2.42 6.325,0 11.605,-1.105 11.605,-2.42 0,-1.315 -5.28,-2.41125 -11.605,-2.41125" />
      <text
         sodipodi:linespacing="125%"
         id="text12446"
         y="105.06448"
         x="608.08649"
         style="font-style:normal;font-variant:normal;font-weight:normal;font-stretch:normal;font-size:36px;line-height:125%;font-family:Arial;-inkscape-font-specification:Arial;letter-spacing:0px;word-spacing:0px;writing-mode:lr-tb;fill:#000000;fill-opacity:1;stroke:none"
         xml:space="preserve"><tspan
           style="font-style:normal;font-variant:normal;font-weight:500;font-stretch:normal;font-size:16px;font-family:'CMU Serif';-inkscape-font-specification:'CMU Serif Medium';text-align:center;text-anchor:middle"
           y="105.06448"
           x="608.08649"
           id="tspan12448"
           sodipodi:role="line">$P$</tspan></text>
      <g
         id="g5461">
        <text
           xml:space="preserve"
           style="font-style:normal;font-variant:normal;font-weight:normal;font-stretch:normal;font-size:36px;line-height:125%;font-family:Arial;-inkscape-font-specification:Arial;letter-spacing:0px;word-spacing:0px;writing-mode:lr-tb;fill:#000000;fill-opacity:1;stroke:none"
           x="646.073"
           y="128.85445"
           id="text5312"
           sodipodi:linespacing="125%"><tspan
             sodipodi:role="line"
             id="tspan5314"
             x="646.073"
             y="128.85445"
             style="font-style:normal;font-variant:normal;font-weight:500;font-stretch:normal;font-size:12px;font-family:'CMU Serif';-inkscape-font-specification:'CMU Serif Medium';text-align:center;text-anchor:middle">...</tspan></text>
        <text
           sodipodi:linespacing="125%"
           id="text5316"
           y="204.85445"
           x="646.073"
           style="font-style:normal;font-variant:normal;font-weight:normal;font-stretch:normal;font-size:36px;line-height:125%;font-family:Arial;-inkscape-font-specification:Arial;letter-spacing:0px;word-spacing:0px;writing-mode:lr-tb;fill:#000000;fill-opacity:1;stroke:none"
           xml:space="preserve"><tspan
             style="font-style:normal;font-variant:normal;font-weight:500;font-stretch:normal;font-size:12px;font-family:'CMU Serif';-inkscape-font-specification:'CMU Serif Medium';text-align:center;text-anchor:middle"
             y="204.85445"
             x="646.073"
             id="tspan5318"
             sodipodi:role="line">...</tspan></text>
        <text
           xml:space="preserve"
           style="font-style:normal;font-variant:normal;font-weight:normal;font-stretch:normal;font-size:36px;line-height:125%;font-family:Arial;-inkscape-font-specification:Arial;letter-spacing:0px;word-spacing:0px;writing-mode:lr-tb;fill:#000000;fill-opacity:1;stroke:none"
           x="606.0816"
           y="205.06445"
           id="text12474"
           sodipodi:linespacing="125%"><tspan
             sodipodi:role="line"
             id="tspan12476"
             x="606.0816"
             y="205.06445"
             style="font-style:normal;font-variant:normal;font-weight:500;font-stretch:normal;font-size:16px;font-family:'CMU Serif';-inkscape-font-specification:'CMU Serif Medium';text-align:center;text-anchor:middle">...</tspan></text>
        <text
           sodipodi:linespacing="125%"
           id="text12498"
           y="129.06445"
           x="606.0816"
           style="font-style:normal;font-variant:normal;font-weight:normal;font-stretch:normal;font-size:36px;line-height:125%;font-family:Arial;-inkscape-font-specification:Arial;letter-spacing:0px;word-spacing:0px;writing-mode:lr-tb;fill:#000000;fill-opacity:1;stroke:none"
           xml:space="preserve"><tspan
             style="font-style:normal;font-variant:normal;font-weight:500;font-stretch:normal;font-size:16px;font-family:'CMU Serif';-inkscape-font-specification:'CMU Serif Medium';text-align:center;text-anchor:middle"
             y="129.06445"
             x="606.0816"
             id="tspan12500"
             sodipodi:role="line">...</tspan></text>
      </g>
      <path
         d="m 612.04724,163.0976 -8.965,0 0,-11.51375 17.93,0 0,11.51375 -8.965,0"
         style="fill:#ffffff;fill-opacity:1;fill-rule:evenodd;stroke:none"
         id="path12538"
         inkscape:connector-curvature="0" />
      <path
         inkscape:connector-curvature="0"
         id="path12540"
         style="fill:#ffffff;fill-opacity:1;fill-rule:evenodd;stroke:none"
         d="m 612.04724,146.79217 -8.965,0 0,-11.51375 17.93,0 0,11.51375 -8.965,0" />
      <path
         d="m 612.04724,195.70837 -8.965,0 0,-11.51375 17.93,0 0,11.51375 -8.965,0"
         style="fill:#ffffff;fill-opacity:1;fill-rule:evenodd;stroke:none"
         id="path12542"
         inkscape:connector-curvature="0" />
      <path
         inkscape:connector-curvature="0"
         id="path12544"
         style="fill:#ffffff;fill-opacity:1;fill-rule:evenodd;stroke:none"
         d="m 612.04724,179.40295 -8.965,0 0,-11.51375 17.93,0 0,11.51375 -8.965,0" />
    </g>
    <g
       transform="matrix(1.25,0,0,-1.25,296.07974,812.6157)"
       id="g12554">
      <path
         inkscape:connector-curvature="0"
         id="path12556"
         style="fill:#000000;fill-opacity:1;fill-rule:evenodd;stroke:none"
         d="m 227.802,504.576 -4.786,-1.508 0.056,3.171 4.73,-1.663" />
      <path
         inkscape:connector-curvature="0"
         id="path12558"
         style="fill:#000000;fill-opacity:1;fill-rule:evenodd;stroke:none"
         d="m 213.76,505.166 10.245,-0.169 -0.014,-0.715 -10.245,0.168 0.014,0.716" />
    </g>
    <g
       id="g12560"
       transform="matrix(1.25,0,0,-1.25,296.07974,780.0049)">
      <path
         d="m 227.802,504.576 -4.786,-1.508 0.056,3.171 4.73,-1.663"
         style="fill:#000000;fill-opacity:1;fill-rule:evenodd;stroke:none"
         id="path12562"
         inkscape:connector-curvature="0" />
      <path
         d="m 213.76,505.166 10.245,-0.169 -0.014,-0.715 -10.245,0.168 0.014,0.716"
         style="fill:#000000;fill-opacity:1;fill-rule:evenodd;stroke:none"
         id="path12564"
         inkscape:connector-curvature="0" />
    </g>
    <path
       inkscape:connector-curvature="0"
       id="path12396"
       style="fill:#cccccc;fill-opacity:1;fill-rule:evenodd;stroke:none"
       d="m 372.04724,116.97304 c -6.3325,0 -11.605,1.09625 -11.605,2.41125 l 0,88.31 c 0,1.31625 5.2725,2.42125 11.605,2.42125 6.325,0 11.605,-1.105 11.605,-2.42125 l 0,-88.31 c 0,-1.315 -5.28,-2.41125 -11.605,-2.41125" />
    <path
       d="m 412.04724,117.8171 c -6.3325,0 -11.605,1.09625 -11.605,2.41125 l 0,88.31 c 0,1.31625 5.2725,2.42125 11.605,2.42125 6.325,0 11.605,-1.105 11.605,-2.42125 l 0,-88.31 c 0,-1.315 -5.28,-2.41125 -11.605,-2.41125"
       style="fill:#cccccc;fill-opacity:1;fill-rule:evenodd;stroke:none"
       id="path12404"
       inkscape:connector-curvature="0" />
    <path
       d="m 532.04724,117.8171 c -6.3325,0 -11.605,1.09625 -11.605,2.41125 l 0,88.31 c 0,1.31625 5.2725,2.42125 11.605,2.42125 6.325,0 11.605,-1.105 11.605,-2.42125 l 0,-88.31 c 0,-1.315 -5.28,-2.41125 -11.605,-2.41125"
       style="fill:#cccccc;fill-opacity:1;fill-rule:evenodd;stroke:none"
       id="path12416"
       inkscape:connector-curvature="0" />
    <path
       inkscape:connector-curvature="0"
       id="path12424"
       style="fill:#cccccc;fill-opacity:1;fill-rule:evenodd;stroke:none"
       d="m 452.04724,117.8171 c -6.3325,0 -11.605,1.09625 -11.605,2.41125 l 0,88.31 c 0,1.31625 5.2725,2.42125 11.605,2.42125 6.325,0 11.605,-1.105 11.605,-2.42125 l 0,-88.31 c 0,-1.315 -5.28,-2.41125 -11.605,-2.41125" />
    <path
       inkscape:connector-curvature="0"
       id="path12428"
       style="fill:#e6e6e6;fill-opacity:1;fill-rule:evenodd;stroke:none"
       d="m 372.04724,117.8171 c -6.3325,0 -11.605,1.09625 -11.605,2.41125 0,1.315 5.2725,2.42 11.605,2.42 6.325,0 11.605,-1.105 11.605,-2.42 0,-1.315 -5.28,-2.41125 -11.605,-2.41125" />
    <path
       d="m 412.04724,117.8171 c -6.3325,0 -11.605,1.09625 -11.605,2.41125 0,1.315 5.2725,2.42 11.605,2.42 6.325,0 11.605,-1.105 11.605,-2.42 0,-1.315 -5.28,-2.41125 -11.605,-2.41125"
       style="fill:#e6e6e6;fill-opacity:1;fill-rule:evenodd;stroke:none"
       id="path12430"
       inkscape:connector-curvature="0" />
    <path
       d="m 532.04724,117.8171 c -6.3325,0 -11.605,1.09625 -11.605,2.41125 0,1.315 5.2725,2.42 11.605,2.42 6.325,0 11.605,-1.105 11.605,-2.42 0,-1.315 -5.28,-2.41125 -11.605,-2.41125"
       style="fill:#e6e6e6;fill-opacity:1;fill-rule:evenodd;stroke:none"
       id="path12432"
       inkscape:connector-curvature="0" />
    <path
       inkscape:connector-curvature="0"
       id="path12434"
       style="fill:#e6e6e6;fill-opacity:1;fill-rule:evenodd;stroke:none"
       d="m 452.04724,117.8171 c -6.3325,0 -11.605,1.09625 -11.605,2.41125 0,1.315 5.2725,2.42 11.605,2.42 6.325,0 11.605,-1.105 11.605,-2.42 0,-1.315 -5.28,-2.41125 -11.605,-2.41125" />
    <path
       inkscape:connector-curvature="0"
       id="path12506"
       style="fill:#666666;fill-opacity:1;fill-rule:evenodd;stroke:none"
       d="m 372.04724,163.0976 -8.965,0 0,-11.51375 17.93,0 0,11.51375 -8.965,0" />
    <path
       d="m 372.04724,146.79217 -8.965,0 0,-11.51375 17.93,0 0,11.51375 -8.965,0"
       style="fill:#999999;fill-opacity:1;fill-rule:evenodd;stroke:none"
       id="path12508"
       inkscape:connector-curvature="0" />
    <path
       inkscape:connector-curvature="0"
       id="path12510"
       style="fill:#000000;fill-opacity:1;fill-rule:evenodd;stroke:none"
       d="m 372.04724,195.70837 -8.965,0 0,-11.51375 17.93,0 0,11.51375 -8.965,0" />
    <path
       d="m 372.04724,179.40295 -8.965,0 0,-11.51375 17.93,0 0,11.51375 -8.965,0"
       style="fill:#333333;fill-opacity:1;fill-rule:evenodd;stroke:none"
       id="path12512"
       inkscape:connector-curvature="0" />
    <path
       d="m 412.04724,163.0976 -8.965,0 0,-11.51375 17.93,0 0,11.51375 -8.965,0"
       style="fill:#333333;fill-opacity:1;fill-rule:evenodd;stroke:none"
       id="path12514"
       inkscape:connector-curvature="0" />
    <path
       inkscape:connector-curvature="0"
       id="path12516"
       style="fill:#666666;fill-opacity:1;fill-rule:evenodd;stroke:none"
       d="m 412.04724,146.79217 -8.965,0 0,-11.51375 17.93,0 0,11.51375 -8.965,0" />
    <path
       inkscape:connector-curvature="0"
       id="path12606"
       style="fill:#cccccc;fill-opacity:1;fill-rule:evenodd;stroke:none"
       d="m 492.04724,117.8171 c -6.3325,0 -11.605,1.09625 -11.605,2.41125 l 0,88.31 c 0,1.31625 5.2725,2.42125 11.605,2.42125 6.325,0 11.605,-1.105 11.605,-2.42125 l 0,-88.31 c 0,-1.315 -5.28,-2.41125 -11.605,-2.41125" />
    <path
       d="m 412.04724,195.70837 -8.965,0 0,-11.51375 17.93,0 0,11.51375 -8.965,0"
       style="fill:#ffffff;fill-opacity:1;fill-rule:evenodd;stroke:none"
       id="path12518"
       inkscape:connector-curvature="0" />
    <path
       inkscape:connector-curvature="0"
       id="path12520"
       style="fill:#000000;fill-opacity:1;fill-rule:evenodd;stroke:none"
       d="m 412.04724,179.40295 -8.965,0 0,-11.51375 17.93,0 0,11.51375 -8.965,0" />
    <path
       inkscape:connector-curvature="0"
       id="path12522"
       style="fill:#000000;fill-opacity:1;fill-rule:evenodd;stroke:none"
       d="m 452.04724,163.0976 -8.965,0 0,-11.51375 17.93,0 0,11.51375 -8.965,0" />
    <path
       d="m 452.04724,146.79217 -8.965,0 0,-11.51375 17.93,0 0,11.51375 -8.965,0"
       style="fill:#333333;fill-opacity:1;fill-rule:evenodd;stroke:none"
       id="path12524"
       inkscape:connector-curvature="0" />
    <path
       inkscape:connector-curvature="0"
       id="path12526"
       style="fill:#999999;fill-opacity:1;fill-rule:evenodd;stroke:none"
       d="m 452.04724,195.70837 -8.965,0 0,-11.51375 17.93,0 0,11.51375 -8.965,0" />
    <path
       d="m 452.04724,179.40295 -8.965,0 0,-11.51375 17.93,0 0,11.51375 -8.965,0"
       style="fill:#ffffff;fill-opacity:1;fill-rule:evenodd;stroke:none"
       id="path12528"
       inkscape:connector-curvature="0" />
    <path
       d="m 532.04724,163.0976 -8.965,0 0,-11.51375 17.93,0 0,11.51375 -8.965,0"
       style="fill:#999999;fill-opacity:1;fill-rule:evenodd;stroke:none"
       id="path12530"
       inkscape:connector-curvature="0" />
    <path
       inkscape:connector-curvature="0"
       id="path12532"
       style="fill:#ffffff;fill-opacity:1;fill-rule:evenodd;stroke:none"
       d="m 532.04724,146.79217 -8.965,0 0,-11.51375 17.93,0 0,11.51375 -8.965,0" />
    <path
       d="m 532.04724,195.70837 -8.965,0 0,-11.51375 17.93,0 0,11.51375 -8.965,0"
       style="fill:#333333;fill-opacity:1;fill-rule:evenodd;stroke:none"
       id="path12534"
       inkscape:connector-curvature="0" />
    <path
       inkscape:connector-curvature="0"
       id="path12536"
       style="fill:#666666;fill-opacity:1;fill-rule:evenodd;stroke:none"
       d="m 532.04724,179.40295 -8.965,0 0,-11.51375 17.93,0 0,11.51375 -8.965,0" />
    <path
       inkscape:connector-curvature="0"
       id="path12614"
       style="fill:#e6e6e6;fill-opacity:1;fill-rule:evenodd;stroke:none"
       d="m 492.04724,117.8171 c -6.3325,0 -11.605,1.09625 -11.605,2.41125 0,1.315 5.2725,2.42 11.605,2.42 6.325,0 11.605,-1.105 11.605,-2.42 0,-1.315 -5.28,-2.41125 -11.605,-2.41125" />
    <path
       inkscape:connector-curvature="0"
       id="path12624"
       style="fill:#ffffff;fill-opacity:1;fill-rule:evenodd;stroke:none"
       d="m 492.04724,163.0976 -8.965,0 0,-11.51375 17.93,0 0,11.51375 -8.965,0" />
    <path
       d="m 492.04724,146.79217 -8.965,0 0,-11.51375 17.93,0 0,11.51375 -8.965,0"
       style="fill:#000000;fill-opacity:1;fill-rule:evenodd;stroke:none"
       id="path12626"
       inkscape:connector-curvature="0" />
    <path
       inkscape:connector-curvature="0"
       id="path12628"
       style="fill:#666666;fill-opacity:1;fill-rule:evenodd;stroke:none"
       d="m 492.04724,195.70837 -8.965,0 0,-11.51375 17.93,0 0,11.51375 -8.965,0" />
    <path
       d="m 492.04724,179.40295 -8.965,0 0,-11.51375 17.93,0 0,11.51375 -8.965,0"
       style="fill:#999999;fill-opacity:1;fill-rule:evenodd;stroke:none"
       id="path12630"
       inkscape:connector-curvature="0" />
    <path
       d="m 572.04724,130.79217 -8.965,0 0,-11.51375 17.93,0 0,11.51375 -8.965,0"
       style="fill:#ffffff;fill-opacity:1;fill-rule:evenodd;stroke:#000000;stroke-opacity:1"
       id="path12650"
       inkscape:connector-curvature="0" />
    <path
       sodipodi:nodetypes="cc"
       inkscape:connector-curvature="0"
       id="path12652"
       d="m 581.07715,130.76587 c 0,0 17.57812,10.38676 62.10938,10.58207"
       style="fill:none;stroke:#000000;stroke-width:0.60000002;stroke-linecap:butt;stroke-linejoin:miter;stroke-miterlimit:4;stroke-dasharray:none;stroke-opacity:1;marker-end:url(#Arrow2Mend)" />
    <path
       sodipodi:nodetypes="cc"
       inkscape:connector-curvature="0"
       id="path12656"
       d="m 581.04466,130.74386 c 0,0 -5.52698,59.4322 61.66052,59.82283"
       style="fill:none;stroke:#000000;stroke-width:0.60000002;stroke-linecap:butt;stroke-linejoin:miter;stroke-miterlimit:4;stroke-dasharray:none;stroke-opacity:1;marker-end:url(#Arrow2Mend)" />
    <path
       style="fill:none;stroke:#000000;stroke-width:0.60000002;stroke-linecap:butt;stroke-linejoin:miter;stroke-miterlimit:4;stroke-dasharray:none;stroke-opacity:1;marker-end:url(#Arrow2Mend)"
       d="m 580.97624,130.7403 c 0,0 14.83798,25.7652 61.50703,25.94197"
       id="path14369"
       inkscape:connector-curvature="0"
       sodipodi:nodetypes="cc" />
    <path
       style="fill:none;stroke:#000000;stroke-width:0.60000002;stroke-linecap:butt;stroke-linejoin:miter;stroke-miterlimit:4;stroke-dasharray:none;stroke-opacity:1;marker-end:url(#Arrow2Mend)"
       d="m 580.97624,130.7403 c 0,0 12.19759,43.31029 61.69506,43.31029"
       id="path14553"
       inkscape:connector-curvature="0" />
    <text
       sodipodi:linespacing="125%"
       id="text12454"
       y="105.06448"
       x="648.08649"
       style="font-style:normal;font-variant:normal;font-weight:normal;font-stretch:normal;font-size:36px;line-height:125%;font-family:Arial;-inkscape-font-specification:Arial;letter-spacing:0px;word-spacing:0px;writing-mode:lr-tb;fill:#000000;fill-opacity:1;stroke:none"
       xml:space="preserve"><tspan
         style="font-style:normal;font-variant:normal;font-weight:500;font-stretch:normal;font-size:16px;font-family:'CMU Serif';-inkscape-font-specification:'CMU Serif Medium';text-align:center;text-anchor:middle"
         y="105.06448"
         x="648.08649"
         id="tspan12456"
         sodipodi:role="line">$Q$</tspan></text>
    <text
       xml:space="preserve"
       style="font-style:normal;font-variant:normal;font-weight:normal;font-stretch:normal;font-size:36px;line-height:125%;font-family:Arial;-inkscape-font-specification:Arial;letter-spacing:0px;word-spacing:0px;writing-mode:lr-tb;fill:#000000;fill-opacity:1;stroke:none"
       x="366.07303"
       y="128.85445"
       id="text14995"
       sodipodi:linespacing="125%"><tspan
         sodipodi:role="line"
         id="tspan14997"
         x="366.07303"
         y="128.85445"
         style="font-style:normal;font-variant:normal;font-weight:500;font-stretch:normal;font-size:12px;font-family:'CMU Serif';-inkscape-font-specification:'CMU Serif Medium';text-align:center;text-anchor:middle">...</tspan></text>
    <text
       sodipodi:linespacing="125%"
       id="text15003"
       y="128.85445"
       x="406.07303"
       style="font-style:normal;font-variant:normal;font-weight:normal;font-stretch:normal;font-size:36px;line-height:125%;font-family:Arial;-inkscape-font-specification:Arial;letter-spacing:0px;word-spacing:0px;writing-mode:lr-tb;fill:#000000;fill-opacity:1;stroke:none"
       xml:space="preserve"><tspan
         style="font-style:normal;font-variant:normal;font-weight:500;font-stretch:normal;font-size:12px;font-family:'CMU Serif';-inkscape-font-specification:'CMU Serif Medium';text-align:center;text-anchor:middle"
         y="128.85445"
         x="406.07303"
         id="tspan15005"
         sodipodi:role="line">...</tspan></text>
    <text
       xml:space="preserve"
       style="font-style:normal;font-variant:normal;font-weight:normal;font-stretch:normal;font-size:36px;line-height:125%;font-family:Arial;-inkscape-font-specification:Arial;letter-spacing:0px;word-spacing:0px;writing-mode:lr-tb;fill:#000000;fill-opacity:1;stroke:none"
       x="446.07303"
       y="128.85445"
       id="text15007"
       sodipodi:linespacing="125%"><tspan
         sodipodi:role="line"
         id="tspan15009"
         x="446.07303"
         y="128.85445"
         style="font-style:normal;font-variant:normal;font-weight:500;font-stretch:normal;font-size:12px;font-family:'CMU Serif';-inkscape-font-specification:'CMU Serif Medium';text-align:center;text-anchor:middle">...</tspan></text>
    <text
       sodipodi:linespacing="125%"
       id="text15011"
       y="128.85445"
       x="486.07303"
       style="font-style:normal;font-variant:normal;font-weight:normal;font-stretch:normal;font-size:36px;line-height:125%;font-family:Arial;-inkscape-font-specification:Arial;letter-spacing:0px;word-spacing:0px;writing-mode:lr-tb;fill:#000000;fill-opacity:1;stroke:none"
       xml:space="preserve"><tspan
         style="font-style:normal;font-variant:normal;font-weight:500;font-stretch:normal;font-size:12px;font-family:'CMU Serif';-inkscape-font-specification:'CMU Serif Medium';text-align:center;text-anchor:middle"
         y="128.85445"
         x="486.07303"
         id="tspan15013"
         sodipodi:role="line">...</tspan></text>
    <text
       xml:space="preserve"
       style="font-style:normal;font-variant:normal;font-weight:normal;font-stretch:normal;font-size:36px;line-height:125%;font-family:Arial;-inkscape-font-specification:Arial;letter-spacing:0px;word-spacing:0px;writing-mode:lr-tb;fill:#000000;fill-opacity:1;stroke:none"
       x="526.073"
       y="128.85445"
       id="text15015"
       sodipodi:linespacing="125%"><tspan
         sodipodi:role="line"
         id="tspan15017"
         x="526.073"
         y="128.85445"
         style="font-style:normal;font-variant:normal;font-weight:500;font-stretch:normal;font-size:12px;font-family:'CMU Serif';-inkscape-font-specification:'CMU Serif Medium';text-align:center;text-anchor:middle">...</tspan></text>
    <text
       sodipodi:linespacing="125%"
       id="text15027"
       y="204.85445"
       x="526.073"
       style="font-style:normal;font-variant:normal;font-weight:normal;font-stretch:normal;font-size:36px;line-height:125%;font-family:Arial;-inkscape-font-specification:Arial;letter-spacing:0px;word-spacing:0px;writing-mode:lr-tb;fill:#000000;fill-opacity:1;stroke:none"
       xml:space="preserve"><tspan
         style="font-style:normal;font-variant:normal;font-weight:500;font-stretch:normal;font-size:12px;font-family:'CMU Serif';-inkscape-font-specification:'CMU Serif Medium';text-align:center;text-anchor:middle"
         y="204.85445"
         x="526.073"
         id="tspan15029"
         sodipodi:role="line">...</tspan></text>
    <text
       xml:space="preserve"
       style="font-style:normal;font-variant:normal;font-weight:normal;font-stretch:normal;font-size:36px;line-height:125%;font-family:Arial;-inkscape-font-specification:Arial;letter-spacing:0px;word-spacing:0px;writing-mode:lr-tb;fill:#000000;fill-opacity:1;stroke:none"
       x="486.07303"
       y="204.85445"
       id="text15031"
       sodipodi:linespacing="125%"><tspan
         sodipodi:role="line"
         id="tspan15033"
         x="486.07303"
         y="204.85445"
         style="font-style:normal;font-variant:normal;font-weight:500;font-stretch:normal;font-size:12px;font-family:'CMU Serif';-inkscape-font-specification:'CMU Serif Medium';text-align:center;text-anchor:middle">...</tspan></text>
    <text
       sodipodi:linespacing="125%"
       id="text15035"
       y="204.85445"
       x="446.07303"
       style="font-style:normal;font-variant:normal;font-weight:normal;font-stretch:normal;font-size:36px;line-height:125%;font-family:Arial;-inkscape-font-specification:Arial;letter-spacing:0px;word-spacing:0px;writing-mode:lr-tb;fill:#000000;fill-opacity:1;stroke:none"
       xml:space="preserve"><tspan
         style="font-style:normal;font-variant:normal;font-weight:500;font-stretch:normal;font-size:12px;font-family:'CMU Serif';-inkscape-font-specification:'CMU Serif Medium';text-align:center;text-anchor:middle"
         y="204.85445"
         x="446.07303"
         id="tspan15037"
         sodipodi:role="line">...</tspan></text>
    <text
       xml:space="preserve"
       style="font-style:normal;font-variant:normal;font-weight:normal;font-stretch:normal;font-size:36px;line-height:125%;font-family:Arial;-inkscape-font-specification:Arial;letter-spacing:0px;word-spacing:0px;writing-mode:lr-tb;fill:#000000;fill-opacity:1;stroke:none"
       x="406.07303"
       y="204.85445"
       id="text15039"
       sodipodi:linespacing="125%"><tspan
         sodipodi:role="line"
         id="tspan15041"
         x="406.07303"
         y="204.85445"
         style="font-style:normal;font-variant:normal;font-weight:500;font-stretch:normal;font-size:12px;font-family:'CMU Serif';-inkscape-font-specification:'CMU Serif Medium';text-align:center;text-anchor:middle">...</tspan></text>
    <text
       sodipodi:linespacing="125%"
       id="text15043"
       y="204.85445"
       x="366.07303"
       style="font-style:normal;font-variant:normal;font-weight:normal;font-stretch:normal;font-size:36px;line-height:125%;font-family:Arial;-inkscape-font-specification:Arial;letter-spacing:0px;word-spacing:0px;writing-mode:lr-tb;fill:#000000;fill-opacity:1;stroke:none"
       xml:space="preserve"><tspan
         style="font-style:normal;font-variant:normal;font-weight:500;font-stretch:normal;font-size:12px;font-family:'CMU Serif';-inkscape-font-specification:'CMU Serif Medium';text-align:center;text-anchor:middle"
         y="204.85445"
         x="366.07303"
         id="tspan15045"
         sodipodi:role="line">...</tspan></text>
    <text
       sodipodi:linespacing="125%"
       id="text3910"
       y="130.59529"
       x="568.08649"
       style="font-style:normal;font-variant:normal;font-weight:normal;font-stretch:normal;font-size:36px;line-height:125%;font-family:Arial;-inkscape-font-specification:Arial;letter-spacing:0px;word-spacing:0px;writing-mode:lr-tb;fill:#000000;fill-opacity:1;stroke:none"
       xml:space="preserve"><tspan
         style="font-style:normal;font-variant:normal;font-weight:500;font-stretch:normal;font-size:16px;font-family:'CMU Serif';-inkscape-font-specification:'CMU Serif Medium';text-align:center;text-anchor:middle"
         y="130.59529"
         x="568.08649"
         id="tspan3912"
         sodipodi:role="line">$S$</tspan></text>
    <text
       sodipodi:linespacing="125%"
       id="text12398-0"
       y="105.45088"
       x="371.59848"
       style="font-style:normal;font-variant:normal;font-weight:normal;font-stretch:normal;font-size:36px;line-height:125%;font-family:Arial;-inkscape-font-specification:Arial;text-align:center;letter-spacing:0px;word-spacing:0px;writing-mode:lr-tb;text-anchor:middle;fill:#000000;fill-opacity:1;stroke:none"
       xml:space="preserve"><tspan
         style="font-style:normal;font-variant:normal;font-weight:500;font-stretch:normal;font-size:16px;font-family:'CMU Serif';-inkscape-font-specification:'CMU Serif Medium';text-align:center;text-anchor:middle"
         y="105.45088"
         x="371.59848"
         id="tspan12400-6"
         sodipodi:role="line">$D_0$</tspan></text>
    <text
       xml:space="preserve"
       style="font-style:normal;font-variant:normal;font-weight:normal;font-stretch:normal;font-size:36px;line-height:125%;font-family:Arial;-inkscape-font-specification:Arial;text-align:center;letter-spacing:0px;word-spacing:0px;writing-mode:lr-tb;text-anchor:middle;fill:#000000;fill-opacity:1;stroke:none"
       x="412.08649"
       y="105.33649"
       id="text3916"
       sodipodi:linespacing="125%"><tspan
         sodipodi:role="line"
         id="tspan3918"
         x="412.08649"
         y="105.33649"
         style="font-style:normal;font-variant:normal;font-weight:500;font-stretch:normal;font-size:16px;font-family:'CMU Serif';-inkscape-font-specification:'CMU Serif Medium';text-align:center;text-anchor:middle">$D_1$</tspan></text>
    <text
       sodipodi:linespacing="125%"
       id="text3920"
       y="105.45088"
       x="452.08649"
       style="font-style:normal;font-variant:normal;font-weight:normal;font-stretch:normal;font-size:36px;line-height:125%;font-family:Arial;-inkscape-font-specification:Arial;text-align:center;letter-spacing:0px;word-spacing:0px;writing-mode:lr-tb;text-anchor:middle;fill:#000000;fill-opacity:1;stroke:none"
       xml:space="preserve"><tspan
         style="font-style:normal;font-variant:normal;font-weight:500;font-stretch:normal;font-size:16px;font-family:'CMU Serif';-inkscape-font-specification:'CMU Serif Medium';text-align:center;text-anchor:middle"
         y="105.45088"
         x="452.08649"
         id="tspan3922"
         sodipodi:role="line">$D_2$</tspan></text>
    <text
       xml:space="preserve"
       style="font-style:normal;font-variant:normal;font-weight:normal;font-stretch:normal;font-size:36px;line-height:125%;font-family:Arial;-inkscape-font-specification:Arial;text-align:center;letter-spacing:0px;word-spacing:0px;writing-mode:lr-tb;text-anchor:middle;fill:#000000;fill-opacity:1;stroke:none"
       x="492.08649"
       y="105.45088"
       id="text3924"
       sodipodi:linespacing="125%"><tspan
         sodipodi:role="line"
         id="tspan3926"
         x="492.08649"
         y="105.45088"
         style="font-style:normal;font-variant:normal;font-weight:500;font-stretch:normal;font-size:16px;font-family:'CMU Serif';-inkscape-font-specification:'CMU Serif Medium';text-align:center;text-anchor:middle">$D_3$</tspan></text>
    <text
       sodipodi:linespacing="125%"
       id="text3928"
       y="105.33649"
       x="532.08649"
       style="font-style:normal;font-variant:normal;font-weight:normal;font-stretch:normal;font-size:36px;line-height:125%;font-family:Arial;-inkscape-font-specification:Arial;text-align:center;letter-spacing:0px;word-spacing:0px;writing-mode:lr-tb;text-anchor:middle;fill:#000000;fill-opacity:1;stroke:none"
       xml:space="preserve"><tspan
         style="font-style:normal;font-variant:normal;font-weight:500;font-stretch:normal;font-size:16px;font-family:'CMU Serif';-inkscape-font-specification:'CMU Serif Medium';text-align:center;text-anchor:middle"
         y="105.33649"
         x="532.08649"
         id="tspan3930"
         sodipodi:role="line">$D_4$</tspan></text>
  </g>
</svg>
