<?xml version="1.0" encoding="UTF-8" standalone="no"?>
<!-- Created with Inkscape (http://www.inkscape.org/) -->

<svg
   xmlns:dc="http://purl.org/dc/elements/1.1/"
   xmlns:cc="http://creativecommons.org/ns#"
   xmlns:rdf="http://www.w3.org/1999/02/22-rdf-syntax-ns#"
   xmlns:svg="http://www.w3.org/2000/svg"
   xmlns="http://www.w3.org/2000/svg"
   xmlns:sodipodi="http://sodipodi.sourceforge.net/DTD/sodipodi-0.dtd"
   xmlns:inkscape="http://www.inkscape.org/namespaces/inkscape"
   inkscape:export-ydpi="90"
   inkscape:export-xdpi="90"
   inkscape:export-filename="/home/dim/svn/ivc_frt/ri2014/figures/mojette.pdf.png"
   sodipodi:docname="mojette_forward4.svg"
   inkscape:version="0.91 r13725"
   version="1.1"
   id="svg14268"
   height="411.5"
   width="479.57657">
  <defs
     id="defs14270">
    <marker
       inkscape:stockid="Arrow1Mend"
       orient="auto"
       refY="0"
       refX="0"
       id="Arrow1Mend"
       style="overflow:visible">
      <path
         id="path4022"
         d="M 0,0 5,-5 -12.5,0 5,5 0,0 z"
         style="fill-rule:evenodd;stroke:#000000;stroke-width:1pt"
         transform="matrix(-0.4,0,0,-0.4,-4,0)"
         inkscape:connector-curvature="0" />
    </marker>
    <marker
       inkscape:stockid="Arrow1Mstart"
       orient="auto"
       refY="0"
       refX="0"
       id="Arrow1Mstart"
       style="overflow:visible">
      <path
         id="path4019"
         d="M 0,0 5,-5 -12.5,0 5,5 0,0 z"
         style="fill-rule:evenodd;stroke:#000000;stroke-width:1pt"
         transform="matrix(0.4,0,0,0.4,4,0)"
         inkscape:connector-curvature="0" />
    </marker>
  </defs>
  <sodipodi:namedview
     inkscape:window-maximized="1"
     inkscape:window-y="24"
     inkscape:window-x="1600"
     inkscape:window-height="1176"
     inkscape:window-width="1920"
     fit-margin-bottom="5"
     fit-margin-right="5"
     fit-margin-left="5"
     fit-margin-top="5"
     showgrid="false"
     inkscape:current-layer="svg14268"
     inkscape:document-units="px"
     inkscape:cy="34.975418"
     inkscape:cx="197.0437"
     inkscape:zoom="0.96324285"
     inkscape:pageshadow="2"
     inkscape:pageopacity="0.0"
     borderopacity="1.0"
     bordercolor="#666666"
     pagecolor="#ffffff"
     id="base" />
  <metadata
     id="metadata14273">
    <rdf:RDF>
      <cc:Work
         rdf:about="">
        <dc:format>image/svg+xml</dc:format>
        <dc:type
           rdf:resource="http://purl.org/dc/dcmitype/StillImage" />
        <dc:title></dc:title>
      </cc:Work>
    </rdf:RDF>
  </metadata>
  <g
     inkscape:label="Calque 1"
     inkscape:groupmode="layer"
     id="layer1"
     transform="translate(-1085.2326,-1338.665)">
    <path
       style="font-size:12px;text-anchor:middle;fill:none;stroke:#000000;stroke-width:0.1;stroke-miterlimit:4;stroke-opacity:1;stroke-dasharray:none;font-family:jsMath-cmbx10"
       d="m 1458.6323,1597.5587 -78.7506,0"
       id="line33276-4"
       inkscape:connector-curvature="0"
       sodipodi:nodetypes="cc" />
    <path
       style="font-size:12px;text-anchor:middle;fill:none;stroke:#000000;stroke-width:0.1;stroke-miterlimit:4;stroke-opacity:1;stroke-dasharray:none;font-family:jsMath-cmbx10"
       d="m 1458.6323,1545.6483 -78.7506,0"
       id="line33278-5"
       inkscape:connector-curvature="0"
       sodipodi:nodetypes="cc" />
    <path
       style="font-size:12px;text-anchor:middle;fill:none;stroke:#000000;stroke-width:0.1;stroke-miterlimit:4;stroke-opacity:1;stroke-dasharray:none;font-family:jsMath-cmbx10"
       d="m 1458.6323,1493.7381 -78.9712,0"
       id="line33280-3"
       inkscape:connector-curvature="0"
       sodipodi:nodetypes="cc" />
    <text
       x="2209.8999"
       y="1086.7778"
       style="font-size:20.76000023px;font-style:normal;font-variant:normal;font-weight:500;font-stretch:normal;text-anchor:middle;fill:#808080;fill-opacity:1;stroke:none;font-family:CMU Serif;-inkscape-font-specification:CMU Serif Medium"
       id="text3927" />
    <text
       x="2313.7207"
       y="1086.7778"
       style="font-size:20.76000023px;font-style:normal;font-variant:normal;font-weight:500;font-stretch:normal;text-anchor:middle;fill:#808080;fill-opacity:1;stroke:none;font-family:CMU Serif;-inkscape-font-specification:CMU Serif Medium"
       id="text3931" />
    <rect
       style="font-size:12px;text-anchor:middle;fill:#ffffff;stroke:#000000;stroke-width:1.18103659;font-family:jsMath-cmbx10"
       id="rect3262"
       class="imageSupport"
       height="155.45743"
       width="155.76767"
       y="1469.0417"
       x="1223.5703" />
    <text
       id="text33294-0"
       class="binValue"
       y="1598.5874"
       x="1479.1571"
       style="font-size:20.76411247px;font-style:normal;font-variant:normal;font-weight:500;font-stretch:normal;text-anchor:middle;baseline-shift:-50%;fill:#000100;fill-opacity:1;stroke:none;font-family:CMU Serif;-inkscape-font-specification:CMU Serif Medium">10</text>
    <text
       id="text33296-6"
       class="binValue"
       y="1546.3345"
       x="1479.1571"
       style="font-size:20.76411247px;font-style:normal;font-variant:normal;font-weight:500;font-stretch:normal;text-anchor:middle;baseline-shift:-50%;fill:#000100;fill-opacity:1;stroke:none;font-family:CMU Serif;-inkscape-font-specification:CMU Serif Medium">3</text>
    <text
       id="text33298-9"
       class="binValue"
       y="1494.4242"
       x="1479.1571"
       style="font-size:20.76411247px;font-style:normal;font-variant:normal;font-weight:500;font-stretch:normal;text-anchor:middle;baseline-shift:-50%;fill:#000100;fill-opacity:1;stroke:none;font-family:CMU Serif;-inkscape-font-specification:CMU Serif Medium">9</text>
    <g
       id="g3047"
       transform="matrix(0,1,-1,0,3144.7951,250.50165)">
      <path
         style="font-size:12px;font-style:normal;font-variant:normal;font-weight:normal;font-stretch:normal;text-indent:0;text-align:start;text-decoration:none;line-height:normal;letter-spacing:normal;word-spacing:normal;text-transform:none;direction:ltr;block-progression:tb;writing-mode:lr-tb;text-anchor:middle;baseline-shift:baseline;color:#000000;fill:#000000;fill-opacity:1;fill-rule:nonzero;stroke:#000000;stroke-width:0.99999994;stroke-miterlimit:4;stroke-opacity:1;stroke-dasharray:none;marker:none;visibility:visible;display:inline;overflow:visible;enable-background:accumulate;font-family:jsMath-cmbx10;-inkscape-font-specification:Sans"
         d="m 1219.9277,1685.0162 0,1.2643 158.2865,0 1.1951,0 0,-1.2643 z"
         id="line33274-0"
         inkscape:connector-curvature="0"
         sodipodi:nodetypes="cccccc" />
      <path
         id="path217918"
         d="m 1231.5828,1685.6485 3.5332,7.0662 -24.7318,-7.0662 24.7318,-7.0664 z"
         inkscape:connector-curvature="0"
         style="font-size:12px;text-anchor:middle;fill:#000100;fill-opacity:1;stroke:none;font-family:jsMath-cmbx10" />
    </g>
    <text
       x="1249.9"
       y="1606.7778"
       style="font-size:20.76000023px;font-style:normal;font-variant:normal;font-weight:500;font-stretch:normal;text-anchor:middle;fill:#000100;fill-opacity:1;stroke:none;font-family:CMU Serif;-inkscape-font-specification:CMU Serif Medium"
       id="text3140">4</text>
    <text
       x="1301.8104"
       y="1606.7778"
       style="font-size:20.76000023px;font-style:normal;font-variant:normal;font-weight:500;font-stretch:normal;text-anchor:middle;fill:#000100;fill-opacity:1;stroke:none;font-family:CMU Serif;-inkscape-font-specification:CMU Serif Medium"
       id="text3142">5</text>
    <text
       x="1353.7206"
       y="1606.7778"
       style="font-size:20.76000023px;font-style:normal;font-variant:normal;font-weight:500;font-stretch:normal;text-anchor:middle;fill:#000100;fill-opacity:1;stroke:none;font-family:CMU Serif;-inkscape-font-specification:CMU Serif Medium"
       id="text3144">1</text>
    <text
       x="1249.9"
       y="1554.8674"
       style="font-size:20.76000023px;font-style:normal;font-variant:normal;font-weight:500;font-stretch:normal;text-anchor:middle;fill:#000100;fill-opacity:1;stroke:none;font-family:CMU Serif;-inkscape-font-specification:CMU Serif Medium"
       id="text3152">1</text>
    <text
       x="1301.8104"
       y="1554.8674"
       style="font-size:20.76000023px;font-style:normal;font-variant:normal;font-weight:500;font-stretch:normal;text-anchor:middle;fill:#000100;fill-opacity:1;stroke:none;font-family:CMU Serif;-inkscape-font-specification:CMU Serif Medium"
       id="text3154">0</text>
    <text
       x="1353.7206"
       y="1554.8674"
       style="font-size:20.76000023px;font-style:normal;font-variant:normal;font-weight:500;font-stretch:normal;text-anchor:middle;fill:#000100;fill-opacity:1;stroke:none;font-family:CMU Serif;-inkscape-font-specification:CMU Serif Medium"
       id="text3156">2</text>
    <text
       x="1249.9"
       y="1502.957"
       style="font-size:20.76000023px;font-style:normal;font-variant:normal;font-weight:500;font-stretch:normal;text-anchor:middle;fill:#000100;fill-opacity:1;stroke:none;font-family:CMU Serif;-inkscape-font-specification:CMU Serif Medium"
       id="text3164">3</text>
    <text
       x="1301.8104"
       y="1502.957"
       style="font-size:20.76000023px;font-style:normal;font-variant:normal;font-weight:500;font-stretch:normal;text-anchor:middle;fill:#000100;fill-opacity:1;stroke:none;font-family:CMU Serif;-inkscape-font-specification:CMU Serif Medium"
       id="text3166">2</text>
    <text
       x="1353.7206"
       y="1502.957"
       style="font-size:20.76000023px;font-style:normal;font-variant:normal;font-weight:500;font-stretch:normal;text-anchor:middle;fill:#000100;fill-opacity:1;stroke:none;font-family:CMU Serif;-inkscape-font-specification:CMU Serif Medium"
       id="text3168">4</text>
    <path
       style="font-size:12px;text-anchor:middle;fill:#ffffff;stroke:#000000;stroke-width:0.96504587;font-family:jsMath-cmbx10"
       d="m 1223.9449,1573.237 155.4443,0"
       id="line3254"
       inkscape:connector-curvature="0"
       sodipodi:nodetypes="cc" />
    <path
       style="font-size:12px;text-anchor:middle;fill:#ffffff;stroke:#000000;stroke-width:0.96504587;font-family:jsMath-cmbx10"
       d="m 1223.9449,1521.3268 155.3302,0"
       id="line3256"
       inkscape:connector-curvature="0"
       sodipodi:nodetypes="cc" />
    <path
       style="font-size:12px;text-anchor:middle;fill:#ffffff;stroke:#000000;stroke-width:0.96504587;font-family:jsMath-cmbx10"
       d="m 1275.8551,1624.5006 0,-155.0843"
       id="line3258"
       inkscape:connector-curvature="0"
       sodipodi:nodetypes="cc" />
    <path
       style="font-size:12px;text-anchor:middle;fill:#ffffff;stroke:#000000;stroke-width:0.96504587;font-family:jsMath-cmbx10"
       d="m 1327.7656,1624.6147 0,-155.1984"
       id="line3260"
       inkscape:connector-curvature="0"
       sodipodi:nodetypes="cc" />
    <text
       style="font-size:20.76411247px;font-style:normal;font-variant:normal;font-weight:500;font-stretch:normal;text-anchor:middle;baseline-shift:-50%;fill:#000000;fill-opacity:1;stroke:none;font-family:CMU Serif;-inkscape-font-specification:CMU Serif Medium"
       x="1223.8966"
       y="1730.8333"
       class="binValue"
       id="text3179">1</text>
    <text
       style="font-size:20.76411247px;font-style:normal;font-variant:normal;font-weight:500;font-stretch:normal;text-anchor:middle;baseline-shift:-50%;fill:#000000;fill-opacity:1;stroke:none;font-family:CMU Serif;-inkscape-font-specification:CMU Serif Medium"
       x="1195.6436"
       y="1706.8333"
       class="binValue"
       id="text3181">7</text>
    <text
       style="font-size:20.76411247px;font-style:normal;font-variant:normal;font-weight:500;font-stretch:normal;text-anchor:middle;baseline-shift:-50%;fill:#000000;fill-opacity:1;stroke:none;font-family:CMU Serif;-inkscape-font-specification:CMU Serif Medium"
       x="1168.1693"
       y="1680.8333"
       class="binValue"
       id="text3183">8</text>
    <text
       style="font-size:20.76411247px;font-style:normal;font-variant:normal;font-weight:500;font-stretch:normal;text-anchor:middle;baseline-shift:-50%;fill:#000000;fill-opacity:1;stroke:none;font-family:CMU Serif;-inkscape-font-specification:CMU Serif Medium"
       x="1144.2589"
       y="1656.8333"
       class="binValue"
       id="text3185">3</text>
    <text
       style="font-size:20.76411247px;font-style:normal;font-variant:normal;font-weight:500;font-stretch:normal;text-anchor:middle;baseline-shift:-50%;fill:#000000;fill-opacity:1;stroke:none;font-family:CMU Serif;-inkscape-font-specification:CMU Serif Medium"
       x="1118.3485"
       y="1630.8333"
       class="binValue"
       id="text3187">3</text>
    <text
       id="text3872"
       style="font-size:27.06080246px;font-style:normal;font-variant:normal;font-weight:500;font-stretch:normal;text-anchor:middle;fill:#000000;fill-opacity:1;stroke:none;font-family:CMU Serif;-inkscape-font-specification:CMU Serif Medium"
       y="1549.9298"
       x="1170.0923">w</text>
    <g
       id="g3097"
       transform="translate(-385.03219,149.52804)">
      <text
         xml:space="preserve"
         style="font-size:36px;font-style:normal;font-variant:normal;font-weight:500;font-stretch:normal;line-height:125%;letter-spacing:0px;word-spacing:0px;writing-mode:lr-tb;fill:#000000;fill-opacity:1;stroke:none;font-family:CMU Serif;-inkscape-font-specification:CMU Serif Medium"
         x="1472.8888"
         y="1589.637"
         id="text6514"
         sodipodi:linespacing="125%"><tspan
           sodipodi:role="line"
           id="tspan6516"
           x="1472.8888"
           y="1589.637"
           style="font-size:24px;font-style:normal;font-variant:normal;font-weight:500;font-stretch:normal;font-family:CMU Serif;-inkscape-font-specification:CMU Serif Medium">(1,1)</tspan></text>
      <text
         id="text3090"
         style="font-size:26.25727272px;font-style:normal;font-variant:normal;font-weight:500;font-stretch:normal;text-anchor:middle;fill:#000000;fill-opacity:1;stroke:none;font-family:CMU Serif;-inkscape-font-specification:CMU Serif Medium"
         y="1550.3457"
         x="1497.4628">Q</text>
    </g>
    <g
       id="g3091"
       transform="translate(368.78687,-123.19346)">
      <g
         transform="translate(0,19.901281)"
         id="g3085">
        <text
           sodipodi:linespacing="125%"
           id="text6506"
           y="1691.6484"
           x="1144.1019"
           style="font-size:36px;font-style:normal;font-variant:normal;font-weight:500;font-stretch:normal;line-height:125%;letter-spacing:0px;word-spacing:0px;writing-mode:lr-tb;fill:#000000;fill-opacity:1;stroke:none;font-family:CMU Serif;-inkscape-font-specification:CMU Serif Medium"
           xml:space="preserve"><tspan
             style="font-size:24px;font-style:normal;font-variant:normal;font-weight:500;font-stretch:normal;font-family:CMU Serif;-inkscape-font-specification:CMU Serif Medium"
             y="1691.6484"
             x="1144.1019"
             id="tspan6508"
             sodipodi:role="line">(0,1)</tspan></text>
      </g>
      <text
         id="text3092"
         style="font-size:27.06080246px;font-style:normal;font-variant:normal;font-weight:500;font-stretch:normal;text-anchor:middle;fill:#000000;fill-opacity:1;stroke:none;font-family:CMU Serif;-inkscape-font-specification:CMU Serif Medium"
         y="1674.791"
         x="1169.03">P</text>
    </g>
    <g
       id="g4008"
       style="opacity:0.4">
      <path
         sodipodi:nodetypes="cc"
         inkscape:connector-curvature="0"
         id="line3147"
         d="m 1223.9,1573.1025 -95.4392,-95.4391"
         style="font-size:12px;text-anchor:middle;fill:none;stroke:#000000;stroke-width:0.1;stroke-miterlimit:4;stroke-opacity:1;stroke-dasharray:none;font-family:jsMath-cmbx10" />
      <path
         sodipodi:nodetypes="cc"
         inkscape:connector-curvature="0"
         id="line3149"
         d="m 1223.9,1521.1923 -69.0161,-69.0161"
         style="font-size:12px;text-anchor:middle;fill:none;stroke:#000000;stroke-width:0.1;stroke-miterlimit:4;stroke-opacity:1;stroke-dasharray:none;font-family:jsMath-cmbx10" />
      <path
         sodipodi:nodetypes="cc"
         inkscape:connector-curvature="0"
         id="line3151"
         d="m 1223.9,1469.2818 -42.749,-42.7489"
         style="font-size:12px;text-anchor:middle;fill:none;stroke:#000000;stroke-width:0.1;stroke-miterlimit:4;stroke-opacity:1;stroke-dasharray:none;font-family:jsMath-cmbx10" />
      <path
         sodipodi:nodetypes="cc"
         inkscape:connector-curvature="0"
         id="line3153"
         d="m 1275.9,1469.3715 -69.0278,-69.0277"
         style="font-size:12px;text-anchor:middle;fill:none;stroke:#000000;stroke-width:0.1;stroke-miterlimit:4;stroke-opacity:1;stroke-dasharray:none;font-family:jsMath-cmbx10" />
      <path
         sodipodi:nodetypes="cc"
         inkscape:connector-curvature="0"
         id="line3155"
         d="m 1327.8104,1469.3715 -94.4371,-94.437"
         style="font-size:12px;text-anchor:middle;fill:none;stroke:#000000;stroke-width:0.1;stroke-miterlimit:4;stroke-opacity:1;stroke-dasharray:none;font-family:jsMath-cmbx10" />
      <text
         id="text3157"
         class="binValue"
         y="1362.8333"
         x="1223.99"
         style="font-size:20.76411247px;font-style:normal;font-variant:normal;font-weight:500;font-stretch:normal;text-anchor:middle;baseline-shift:-50%;fill:#000100;fill-opacity:1;stroke:none;font-family:CMU Serif;-inkscape-font-specification:CMU Serif Medium">4</text>
      <text
         id="text3159"
         class="binValue"
         y="1388.8435"
         x="1196.0796"
         style="font-size:20.76411247px;font-style:normal;font-variant:normal;font-weight:500;font-stretch:normal;text-anchor:middle;baseline-shift:-50%;fill:#000100;fill-opacity:1;stroke:none;font-family:CMU Serif;-inkscape-font-specification:CMU Serif Medium">4</text>
      <text
         id="text3161"
         class="binValue"
         y="1414.9702"
         x="1168.1693"
         style="font-size:20.76411247px;font-style:normal;font-variant:normal;font-weight:500;font-stretch:normal;text-anchor:middle;baseline-shift:-50%;fill:#000100;fill-opacity:1;stroke:none;font-family:CMU Serif;-inkscape-font-specification:CMU Serif Medium">4</text>
      <text
         id="text3163"
         class="binValue"
         y="1438.9702"
         x="1144.2589"
         style="font-size:20.76411247px;font-style:normal;font-variant:normal;font-weight:500;font-stretch:normal;text-anchor:middle;baseline-shift:-50%;fill:#000100;fill-opacity:1;stroke:none;font-family:CMU Serif;-inkscape-font-specification:CMU Serif Medium">6</text>
      <text
         id="text3165"
         class="binValue"
         y="1464.9803"
         x="1118.3485"
         style="font-size:20.76411247px;font-style:normal;font-variant:normal;font-weight:500;font-stretch:normal;text-anchor:middle;baseline-shift:-50%;fill:#000100;fill-opacity:1;stroke:none;font-family:CMU Serif;-inkscape-font-specification:CMU Serif Medium">4</text>
      <g
         id="g4151"
         transform="matrix(-1,0,0,-1,2349.2595,2864.4865)">
        <path
           style="font-size:12px;font-style:normal;font-variant:normal;font-weight:normal;font-stretch:normal;text-indent:0;text-align:start;text-decoration:none;line-height:normal;letter-spacing:normal;word-spacing:normal;text-transform:none;direction:ltr;block-progression:tb;writing-mode:lr-tb;text-anchor:middle;baseline-shift:baseline;color:#000000;fill:#000000;fill-opacity:1;fill-rule:nonzero;stroke:#000000;stroke-width:0.99999994;stroke-miterlimit:4;stroke-opacity:1;stroke-dasharray:none;marker:none;visibility:visible;display:inline;overflow:visible;enable-background:accumulate;font-family:jsMath-cmbx10;-inkscape-font-specification:Sans"
           d="m 1099.9276,1505.0161 0,1.2643 157.4042,-154.8376 0.5885,-0.6341 0.6066,-0.6302 z"
           id="path3195"
           inkscape:connector-curvature="0"
           sodipodi:nodetypes="cccccc" />
        <path
           id="path3197"
           d="m 1105.3907,1499.9886 7.4662,2.5827 -22.6243,12.2367 12.7445,-22.3421 z"
           inkscape:connector-curvature="0"
           style="font-size:12px;text-anchor:middle;fill:#000100;fill-opacity:1;stroke:none;font-family:jsMath-cmbx10" />
      </g>
    </g>
    <g
       id="g4028"
       style="opacity:0.4"
       transform="translate(-4.5226724,6.0134959)">
      <text
         sodipodi:linespacing="125%"
         id="text6510"
         y="1399.637"
         x="1092.3793"
         style="font-size:36px;font-style:normal;font-variant:normal;font-weight:500;font-stretch:normal;line-height:125%;letter-spacing:0px;word-spacing:0px;writing-mode:lr-tb;fill:#000000;fill-opacity:1;stroke:none;font-family:CMU Serif;-inkscape-font-specification:CMU Serif Medium"
         xml:space="preserve"><tspan
           style="font-size:24px;font-style:normal;font-variant:normal;font-weight:500;font-stretch:normal;font-family:CMU Serif;-inkscape-font-specification:CMU Serif Medium"
           y="1399.637"
           x="1092.3793"
           id="tspan6512"
           sodipodi:role="line">(-1,1)</tspan></text>
      <text
         x="1121.8247"
         y="1362.8782"
         style="font-size:27.06080246px;font-style:normal;font-variant:normal;font-weight:500;font-stretch:normal;text-anchor:middle;fill:#000000;fill-opacity:1;stroke:none;font-family:CMU Serif;-inkscape-font-specification:CMU Serif Medium"
         id="text3094">P'</text>
    </g>
    <text
       id="text3059"
       style="font-size:27.06080246px;font-style:normal;font-variant:normal;font-weight:500;font-stretch:normal;text-anchor:middle;fill:#000000;fill-opacity:1;stroke:none;font-family:CMU Serif;-inkscape-font-specification:CMU Serif Medium"
       y="1426.6643"
       x="1301.9932">k</text>
    <path
       sodipodi:nodetypes="cc"
       inkscape:connector-curvature="0"
       id="path4035"
       d="m 1223.9,1521.741 -95.4392,95.4391"
       style="font-size:12px;text-anchor:middle;fill:none;stroke:#000000;stroke-width:0.1;stroke-miterlimit:4;stroke-opacity:1;stroke-dasharray:none;font-family:jsMath-cmbx10" />
    <path
       sodipodi:nodetypes="cc"
       inkscape:connector-curvature="0"
       id="path4037"
       d="m 1223.9,1573.6512 -69.0161,69.0161"
       style="font-size:12px;text-anchor:middle;fill:none;stroke:#000000;stroke-width:0.1;stroke-miterlimit:4;stroke-opacity:1;stroke-dasharray:none;font-family:jsMath-cmbx10" />
    <path
       sodipodi:nodetypes="cc"
       inkscape:connector-curvature="0"
       id="path4039"
       d="m 1223.9,1625.5617 -42.749,42.7489"
       style="font-size:12px;text-anchor:middle;fill:none;stroke:#000000;stroke-width:0.1;stroke-miterlimit:4;stroke-opacity:1;stroke-dasharray:none;font-family:jsMath-cmbx10" />
    <path
       sodipodi:nodetypes="cc"
       inkscape:connector-curvature="0"
       id="path4041"
       d="m 1275.9,1625.472 -69.0278,69.0277"
       style="font-size:12px;text-anchor:middle;fill:none;stroke:#000000;stroke-width:0.1;stroke-miterlimit:4;stroke-opacity:1;stroke-dasharray:none;font-family:jsMath-cmbx10" />
    <path
       sodipodi:nodetypes="cc"
       inkscape:connector-curvature="0"
       id="path4043"
       d="m 1327.8104,1625.472 -94.4371,94.437"
       style="font-size:12px;text-anchor:middle;fill:none;stroke:#000000;stroke-width:0.1;stroke-miterlimit:4;stroke-opacity:1;stroke-dasharray:none;font-family:jsMath-cmbx10" />
    <g
       id="g4071">
      <path
         style="font-size:12px;font-style:normal;font-variant:normal;font-weight:normal;font-stretch:normal;text-indent:0;text-align:start;text-decoration:none;line-height:normal;letter-spacing:normal;word-spacing:normal;text-transform:none;direction:ltr;block-progression:tb;writing-mode:lr-tb;text-anchor:middle;baseline-shift:baseline;color:#000000;fill:#000000;fill-opacity:1;fill-rule:nonzero;stroke:#000000;stroke-width:0.99999994;stroke-miterlimit:4;stroke-opacity:1;stroke-dasharray:none;marker:none;visibility:visible;display:inline;overflow:visible;enable-background:accumulate;font-family:jsMath-cmbx10;-inkscape-font-specification:Sans"
         d="m 1099.9276,1589.8274 0,-1.2643 157.4042,154.8376 0.5885,0.6341 0.6066,0.6302 z"
         id="path4055"
         inkscape:connector-curvature="0"
         sodipodi:nodetypes="cccccc" />
      <path
         id="path4057"
         d="m 1105.3907,1594.8549 7.4662,-2.5827 -22.6243,-12.2367 12.7445,22.3421 z"
         inkscape:connector-curvature="0"
         style="font-size:12px;text-anchor:middle;fill:#000100;fill-opacity:1;stroke:none;font-family:jsMath-cmbx10" />
    </g>
    <g
       id="g4390"
       transform="matrix(1,0,0,0.67754263,53.991934,645.11023)">
      <path
         sodipodi:nodetypes="cccccc"
         inkscape:connector-curvature="0"
         id="path4384"
         d="m 1499.7789,1570.4293 -1.2643,0 0,40.2127 0,1.1951 1.2643,0 z"
         style="color:#000000;font-style:normal;font-variant:normal;font-weight:normal;font-stretch:normal;font-size:12px;line-height:normal;font-family:jsMath-cmbx10;-inkscape-font-specification:Sans;text-indent:0;text-align:start;text-decoration:none;text-decoration-line:none;letter-spacing:normal;word-spacing:normal;text-transform:none;direction:ltr;block-progression:tb;writing-mode:lr-tb;baseline-shift:baseline;text-anchor:middle;display:inline;overflow:visible;visibility:visible;fill:#000000;fill-opacity:1;fill-rule:nonzero;stroke:#000000;stroke-width:0.5;stroke-miterlimit:4;stroke-dasharray:none;stroke-opacity:1;marker:none;enable-background:accumulate" />
      <path
         style="font-size:12px;font-family:jsMath-cmbx10;text-anchor:middle;fill:#000100;fill-opacity:1;stroke:none"
         inkscape:connector-curvature="0"
         d="m 1499.1466,1581.0009 -3.9517,3.5333 3.9517,-18.6029 4.2114,18.2198 z"
         id="path4386"
         sodipodi:nodetypes="ccccc" />
      <path
         sodipodi:nodetypes="ccccc"
         id="path4430"
         d="m 1478.6489,1610.9504 2.394,5.8324 -12.6043,-5.8324 12.3447,-6.2157 z"
         inkscape:connector-curvature="0"
         style="font-size:12px;font-family:jsMath-cmbx10;text-anchor:middle;fill:#000100;fill-opacity:1;stroke:none" />
    </g>
    <g
       transform="matrix(0,-1,1,0,-96.576126,3235.7064)"
       id="g4399">
      <g
         id="g4401"
         transform="matrix(1,0,0,0.67754263,0,557.82252)">
        <path
           sodipodi:nodetypes="cccccc"
           inkscape:connector-curvature="0"
           id="path4403"
           d="m 1499.7789,1570.4293 -1.2643,0 0,40.2127 0,1.1951 1.2643,0 z"
           style="color:#000000;font-style:normal;font-variant:normal;font-weight:normal;font-stretch:normal;font-size:12px;line-height:normal;font-family:jsMath-cmbx10;-inkscape-font-specification:Sans;text-indent:0;text-align:start;text-decoration:none;text-decoration-line:none;letter-spacing:normal;word-spacing:normal;text-transform:none;direction:ltr;block-progression:tb;writing-mode:lr-tb;baseline-shift:baseline;text-anchor:middle;display:inline;overflow:visible;visibility:visible;fill:#000000;fill-opacity:1;fill-rule:nonzero;stroke:#000000;stroke-width:0.5;stroke-miterlimit:4;stroke-dasharray:none;stroke-opacity:1;marker:none;enable-background:accumulate" />
      </g>
    </g>
  </g>
  <g
     id="g4344"
     transform="translate(244.19669,287.29612)">
    <g
       id="content"
       transform="matrix(0.58785714,0,0,-0.58785714,-102.875,359.68243)"
       xml:space="preserve"
       stroke-miterlimit="10.433"
       font-style="normal"
       font-variant="normal"
       font-weight="normal"
       font-stretch="normal"
       font-size-adjust="none"
       letter-spacing="normal"
       word-spacing="normal"
       style="font-style:normal;font-variant:normal;font-weight:normal;font-stretch:normal;letter-spacing:normal;word-spacing:normal;text-anchor:start;fill:none;fill-opacity:1;fill-rule:evenodd;stroke:#000000;stroke-linecap:butt;stroke-linejoin:miter;stroke-miterlimit:10.43299961;stroke-dasharray:none;stroke-dashoffset:0;stroke-opacity:1"><path
         d="m 481.67,435.84 -0.07,-0.06 -0.07,-0.07 -0.07,-0.07 -0.09,-0.07 -0.08,-0.08 -0.09,-0.08 -0.09,-0.09 -0.09,-0.08 -0.1,-0.09 -0.1,-0.1 -0.19,-0.19 -0.2,-0.19 -0.19,-0.21 -0.09,-0.1 -0.09,-0.1 -0.09,-0.1 -0.08,-0.11 -0.08,-0.1 -0.08,-0.1 -0.07,-0.1 -0.06,-0.1 -0.06,-0.1 -0.05,-0.1 -0.05,-0.1 -0.04,-0.09 -0.03,-0.09 -0.02,-0.1 -0.02,-0.08 0,-0.09 c 0,-0.5 0.5,-1 1,-1 0.45,0 0.7,0.36 0.95,0.66 0.6,0.75 1.74,2.14 3.94,3.23 0.34,0.21 0.84,0.46 0.84,1.05 0,0.5 -0.34,0.75 -0.7,1 -1.09,0.75 -1.64,1.64 -2.05,2.83 -0.09,0.45 -0.29,1.11 -0.98,1.11 -0.71,0 -1,-0.66 -1,-1.05 0,-0.25 0.39,-1.84 1.19,-2.89 l -16.79,0 c -0.84,0 -1.75,0 -1.75,-1 0,-1 0.91,-1 1.75,-1 z"
         id="path4347"
         inkscape:connector-curvature="0"
         style="fill:#000000;stroke-width:0" /><path
         d="m 472.95,409 0.06,-0.19 0.06,-0.19 0.07,-0.18 0.07,-0.18 0.08,-0.17 0.09,-0.16 0.1,-0.16 0.1,-0.16 0.1,-0.15 0.11,-0.15 0.12,-0.14 0.12,-0.13 0.13,-0.13 0.13,-0.12 0.14,-0.12 0.14,-0.11 0.15,-0.11 0.15,-0.1 0.16,-0.09 0.16,-0.09 0.16,-0.08 0.17,-0.07 0.18,-0.07 0.17,-0.06 0.18,-0.06 0.18,-0.04 0.19,-0.05 0.19,-0.03 0.19,-0.02 0.19,-0.02 0.2,-0.01 0.2,-0.01 c 1.73,0 2.89,1.14 3.69,2.74 0.84,1.79 1.48,4.84 1.48,4.93 0,0.5 -0.44,0.5 -0.59,0.5 -0.5,0 -0.55,-0.2 -0.7,-0.9 -0.69,-2.78 -1.65,-6.17 -3.74,-6.17 -1.05,0 -1.53,0.65 -1.53,2.29 0,1.1 0.59,3.44 0.98,5.17 l 1.41,5.4 c 0.14,0.75 0.64,2.64 0.84,3.39 0.25,1.14 0.75,3.03 0.75,3.32 0,0.91 -0.7,1.35 -1.45,1.35 -0.25,0 -1.55,-0.05 -1.94,-1.74 -0.95,-3.64 -3.14,-12.36 -3.73,-15 -0.06,-0.2 -2.05,-4.18 -5.69,-4.18 -2.59,0 -3.09,2.25 -3.09,4.09 0,2.78 1.4,6.72 2.7,10.16 0.6,1.5 0.84,2.18 0.84,3.14 0,2.23 -1.59,4.07 -4.09,4.07 -4.73,0 -6.58,-7.21 -6.58,-7.67 0,-0.5 0.5,-0.5 0.61,-0.5 0.5,0 0.55,0.11 0.8,0.91 1.23,4.33 3.14,6.17 5.03,6.17 0.44,0 1.25,-0.05 1.25,-1.64 0,-1.2 -0.56,-2.64 -0.86,-3.39 -1.84,-4.94 -2.89,-8.02 -2.89,-10.45 0,-4.74 3.44,-5.99 6.14,-5.99 3.28,0 5.08,2.24 5.92,3.35 z"
         id="path4349"
         inkscape:connector-curvature="0"
         style="fill:#000000;stroke-width:0" /></g>  </g>
  <g
     id="g4543"
     transform="translate(293.99149,234.26619)">
    <g
       word-spacing="normal"
       letter-spacing="normal"
       font-size-adjust="none"
       font-stretch="normal"
       font-weight="normal"
       font-variant="normal"
       font-style="normal"
       stroke-miterlimit="10.433"
       xml:space="preserve"
       transform="matrix(0.58785714,0,0,-0.58785714,-102.875,359.68243)"
       id="g4545"
       style="font-style:normal;font-variant:normal;font-weight:normal;font-stretch:normal;letter-spacing:normal;word-spacing:normal;text-anchor:start;fill:none;fill-opacity:1;fill-rule:evenodd;stroke:#000000;stroke-linecap:butt;stroke-linejoin:miter;stroke-miterlimit:10.43299961;stroke-dasharray:none;stroke-dashoffset:0;stroke-opacity:1"><path
         id="path4547"
         d="m 480.35,435.84 -0.07,-0.06 -0.07,-0.07 -0.07,-0.07 -0.09,-0.07 -0.08,-0.08 -0.09,-0.08 -0.09,-0.09 -0.09,-0.08 -0.1,-0.09 -0.1,-0.1 -0.19,-0.19 -0.2,-0.19 -0.19,-0.21 -0.09,-0.1 -0.09,-0.1 -0.09,-0.1 -0.08,-0.11 -0.08,-0.1 -0.08,-0.1 -0.07,-0.1 -0.06,-0.1 -0.06,-0.1 -0.05,-0.1 -0.05,-0.1 -0.04,-0.09 -0.03,-0.09 -0.02,-0.1 -0.02,-0.08 0,-0.09 c 0,-0.5 0.5,-1 1,-1 0.45,0 0.7,0.36 0.95,0.66 0.59,0.75 1.74,2.14 3.94,3.23 0.34,0.21 0.84,0.46 0.84,1.05 0,0.5 -0.34,0.75 -0.7,1 -1.09,0.75 -1.64,1.64 -2.05,2.83 -0.09,0.45 -0.29,1.11 -0.98,1.11 -0.71,0 -1,-0.66 -1,-1.05 0,-0.25 0.39,-1.84 1.19,-2.89 l -16.79,0 c -0.84,0 -1.75,0 -1.75,-1 0,-1 0.91,-1 1.75,-1 z"
         inkscape:connector-curvature="0"
         style="fill:#000000;stroke-width:0" /><path
         id="path4549"
         d="m 478.83,424.73 0,0.12 -0.01,0.13 0,0.12 -0.01,0.11 0,0.12 -0.01,0.11 -0.02,0.11 -0.01,0.1 -0.03,0.21 -0.04,0.19 -0.04,0.18 -0.05,0.18 -0.05,0.16 -0.06,0.16 -0.06,0.15 -0.07,0.13 -0.07,0.13 -0.07,0.12 -0.08,0.12 -0.08,0.1 -0.08,0.1 -0.09,0.09 -0.09,0.08 -0.09,0.07 -0.09,0.07 -0.09,0.06 -0.09,0.05 -0.09,0.05 -0.09,0.04 -0.1,0.03 -0.09,0.03 -0.09,0.03 -0.09,0.01 -0.09,0.02 -0.08,0 -0.09,0 c -1.25,0 -2.44,-1.29 -2.44,-2.39 0,-0.64 0.25,-0.93 0.8,-1.48 1.05,-1 1.69,-2.3 1.69,-4.09 0,-2.1 -3.03,-13.5 -8.86,-13.5 -2.55,0 -3.69,1.75 -3.69,4.32 0,2.8 1.34,6.44 2.89,10.57 0.35,0.86 0.59,1.54 0.59,2.5 0,2.23 -1.59,4.07 -4.09,4.07 -4.67,0 -6.58,-7.21 -6.58,-7.67 0,-0.5 0.5,-0.5 0.61,-0.5 0.5,0 0.55,0.11 0.8,0.91 1.44,5.03 3.58,6.17 5.03,6.17 0.39,0 1.25,0 1.25,-1.59 0,-1.25 -0.5,-2.6 -0.86,-3.49 -2.19,-5.78 -2.83,-8.08 -2.83,-10.22 0,-5.37 4.38,-6.17 6.67,-6.17 8.38,0 11.21,16.49 11.21,19.08 z"
         inkscape:connector-curvature="0"
         style="fill:#000000;stroke-width:0" /></g>  </g>
</svg>
