<?xml version="1.0" encoding="UTF-8" standalone="no"?>
<!-- Created with Inkscape (http://www.inkscape.org/) -->

<svg
   xmlns:dc="http://purl.org/dc/elements/1.1/"
   xmlns:cc="http://creativecommons.org/ns#"
   xmlns:rdf="http://www.w3.org/1999/02/22-rdf-syntax-ns#"
   xmlns:svg="http://www.w3.org/2000/svg"
   xmlns="http://www.w3.org/2000/svg"
   xmlns:sodipodi="http://sodipodi.sourceforge.net/DTD/sodipodi-0.dtd"
   xmlns:inkscape="http://www.inkscape.org/namespaces/inkscape"
   width="695.84546"
   height="428.77371"
   id="svg14268"
   version="1.1"
   inkscape:version="0.91 r13725"
   sodipodi:docname="moj_dxxx90001.svg">
  <defs
     id="defs14270">
    <marker
       inkscape:stockid="Arrow1Lend"
       orient="auto"
       refY="0"
       refX="0"
       id="Arrow1Lend"
       style="overflow:visible"
       inkscape:isstock="true">
      <path
         inkscape:connector-curvature="0"
         id="path4741"
         d="M 0,0 5,-5 -12.5,0 5,5 0,0 Z"
         style="fill:#000000;fill-opacity:1;fill-rule:evenodd;stroke:#000000;stroke-width:1pt;stroke-opacity:1"
         transform="matrix(-0.8,0,0,-0.8,-10,0)" />
    </marker>
  </defs>
  <sodipodi:namedview
     id="base"
     pagecolor="#ffffff"
     bordercolor="#666666"
     borderopacity="1.0"
     inkscape:pageopacity="0.0"
     inkscape:pageshadow="2"
     inkscape:zoom="0.69826795"
     inkscape:cx="336.57366"
     inkscape:cy="239.21084"
     inkscape:document-units="px"
     inkscape:current-layer="layer1"
     showgrid="false"
     fit-margin-top="5"
     fit-margin-left="5"
     fit-margin-right="5"
     fit-margin-bottom="5"
     inkscape:window-width="1600"
     inkscape:window-height="900"
     inkscape:window-x="0"
     inkscape:window-y="0"
     inkscape:window-maximized="0" />
  <metadata
     id="metadata14273">
    <rdf:RDF>
      <cc:Work
         rdf:about="">
        <dc:format>image/svg+xml</dc:format>
        <dc:type
           rdf:resource="http://purl.org/dc/dcmitype/StillImage" />
        <dc:title></dc:title>
      </cc:Work>
    </rdf:RDF>
  </metadata>
  <g
     inkscape:label="Calque 1"
     inkscape:groupmode="layer"
     id="layer1"
     transform="translate(-989.86141,-782.2061)">
    <path
       sodipodi:nodetypes="cc"
       style="fill:none;fill-rule:evenodd;stroke:#000000;stroke-width:0.1;stroke-linecap:butt;stroke-linejoin:miter;stroke-miterlimit:4;stroke-dasharray:none;stroke-opacity:1"
       d="M 1234.0147,1087.6996 1628.3494,950.5733"
       id="path3882"
       inkscape:connector-curvature="0" />
    <path
       sodipodi:nodetypes="cc"
       inkscape:connector-curvature="0"
       id="path3886"
       d="M 1234.0147,1071.6996 1623.1932,936.36632"
       style="fill:none;fill-rule:evenodd;stroke:#000000;stroke-width:0.1;stroke-linecap:butt;stroke-linejoin:miter;stroke-miterlimit:4;stroke-dasharray:none;stroke-opacity:1" />
    <path
       sodipodi:nodetypes="cc"
       style="fill:none;fill-rule:evenodd;stroke:#000000;stroke-width:0.1;stroke-linecap:butt;stroke-linejoin:miter;stroke-miterlimit:4;stroke-dasharray:none;stroke-opacity:1"
       d="M 1234.0147,1103.6996 1633.2749,964.86051"
       id="path3888"
       inkscape:connector-curvature="0" />
    <path
       sodipodi:nodetypes="cc"
       inkscape:connector-curvature="0"
       id="path3890"
       d="M 1276.0147,1105.6996 1638.436,979.06579"
       style="fill:none;fill-rule:evenodd;stroke:#000000;stroke-width:0.1;stroke-linecap:butt;stroke-linejoin:miter;stroke-miterlimit:4;stroke-dasharray:none;stroke-opacity:1" />
    <path
       sodipodi:nodetypes="cc"
       style="fill:none;fill-rule:evenodd;stroke:#000000;stroke-width:0.1;stroke-linecap:butt;stroke-linejoin:miter;stroke-miterlimit:4;stroke-dasharray:none;stroke-opacity:1"
       d="M 1234.0147,1051.6996 1617.2181,918.44412"
       id="path3892"
       inkscape:connector-curvature="0" />
    <path
       sodipodi:nodetypes="cc"
       inkscape:connector-curvature="0"
       id="path3894"
       d="M 1234.0147,1033.6996 1611.5739,902.40684"
       style="fill:none;fill-rule:evenodd;stroke:#000000;stroke-width:0.1;stroke-linecap:butt;stroke-linejoin:miter;stroke-miterlimit:4;stroke-dasharray:none;stroke-opacity:1" />
    <path
       sodipodi:nodetypes="cc"
       style="fill:none;fill-rule:evenodd;stroke:#000000;stroke-width:0.1;stroke-linecap:butt;stroke-linejoin:miter;stroke-miterlimit:4;stroke-dasharray:none;stroke-opacity:1"
       d="M 1234.0147,1017.6996 1606.5699,888.14694"
       id="path3896"
       inkscape:connector-curvature="0" />
    <path
       sodipodi:nodetypes="cc"
       inkscape:connector-curvature="0"
       id="path3898"
       d="M 1234.0147,1001.6996 1601.6395,873.86142"
       style="fill:none;fill-rule:evenodd;stroke:#000000;stroke-width:0.1;stroke-linecap:butt;stroke-linejoin:miter;stroke-miterlimit:4;stroke-dasharray:none;stroke-opacity:1" />
    <path
       sodipodi:nodetypes="cc"
       style="fill:none;fill-rule:evenodd;stroke:#000000;stroke-width:0.1;stroke-linecap:butt;stroke-linejoin:miter;stroke-miterlimit:4;stroke-dasharray:none;stroke-opacity:1"
       d="m 1234.0147,981.69956 361.4238,-125.6818"
       id="path3900"
       inkscape:connector-curvature="0" />
    <g
       id="g3449">
      <text
         y="849.66785"
         x="1512.3535"
         style="font-variant:normal;font-weight:normal;font-size:20.76411247px;font-family:'CMU Serif';-inkscape-font-specification:CMUSerif-Roman;writing-mode:lr-tb;fill:#000000;fill-opacity:1;fill-rule:nonzero;stroke:none"
         id="text3533">3</text>
      <text
         y="890.53857"
         x="1532.7889"
         style="font-variant:normal;font-weight:normal;font-size:20.76411247px;font-family:'CMU Serif';-inkscape-font-specification:CMUSerif-Roman;writing-mode:lr-tb;fill:#000100;fill-opacity:1;fill-rule:nonzero;stroke:none"
         id="text3539">
        <tspan
           x="1532.7889"
           y="890.53857"
           id="tspan3541">6</tspan>
      </text>
      <text
         id="text15255"
         style="font-variant:normal;font-weight:normal;font-size:20.76411247px;font-family:'CMU Serif';-inkscape-font-specification:CMUSerif-Roman;writing-mode:lr-tb;fill:#000100;fill-opacity:1;fill-rule:nonzero;stroke:none"
         x="1532.7889"
         y="890.53857">
        <tspan
           id="tspan15257"
           y="890.53857"
           x="1532.7889">6</tspan>
      </text>
    </g>
    <text
       id="text3543"
       style="font-variant:normal;font-weight:normal;font-size:20.76411247px;font-family:'CMU Serif';-inkscape-font-specification:CMUSerif-Roman;writing-mode:lr-tb;fill:#000000;fill-opacity:1;fill-rule:nonzero;stroke:none"
       x="1543.2028"
       y="911.10413">
      <tspan
         id="tspan3545"
         y="911.10413"
         x="1543.2028">0</tspan>
    </text>
    <g
       id="g3442">
      <text
         y="931.53943"
         x="1553.4205"
         style="font-variant:normal;font-weight:normal;font-size:20.76411247px;font-family:'CMU Serif';-inkscape-font-specification:CMUSerif-Roman;writing-mode:lr-tb;fill:#000100;fill-opacity:1;fill-rule:nonzero;stroke:none"
         id="text3547">9</text>
      <text
         y="972.76312"
         x="1573.8124"
         style="font-variant:normal;font-weight:normal;font-size:20.76411247px;font-family:'CMU Serif';-inkscape-font-specification:CMUSerif-Roman;writing-mode:lr-tb;fill:#000000;fill-opacity:1;fill-rule:nonzero;stroke:none"
         id="text3553">
        <tspan
           x="1573.8124"
           y="972.76312"
           id="tspan3555">1</tspan>
      </text>
      <text
         id="text15273"
         style="font-variant:normal;font-weight:normal;font-size:20.76411247px;font-family:'CMU Serif';-inkscape-font-specification:CMUSerif-Roman;writing-mode:lr-tb;fill:#000000;fill-opacity:1;fill-rule:nonzero;stroke:none"
         x="1651.9595"
         y="980.54883">
        <tspan
           id="tspan15275"
           y="980.54883"
           x="1651.9595">1</tspan>
      </text>
    </g>
    <path
       d="M 1268.6594,1094.0686 1550.6319,953.07734"
       style="fill:none;stroke:#000000;stroke-width:0.09999999;stroke-linecap:butt;stroke-linejoin:miter;stroke-miterlimit:4;stroke-dasharray:none;stroke-opacity:1"
       id="path3369-7"
       inkscape:connector-curvature="0" />
    <path
       d="M 1319.7481,1094.0686 1560.8519,973.51109"
       style="fill:none;stroke:#000000;stroke-width:0.09999999;stroke-linecap:butt;stroke-linejoin:miter;stroke-miterlimit:4;stroke-dasharray:none;stroke-opacity:1"
       id="path3373"
       inkscape:connector-curvature="0" />
    <path
       d="M 1319.7481,1042.9786 1540.4169,932.64234"
       style="fill:none;stroke:#000000;stroke-width:0.09999999;stroke-linecap:butt;stroke-linejoin:miter;stroke-miterlimit:4;stroke-dasharray:none;stroke-opacity:1"
       id="path3377"
       inkscape:connector-curvature="0" />
    <path
       d="M 1217.5706,991.88984 1499.5481,850.89859"
       style="fill:none;stroke:#000000;stroke-width:0.1;stroke-linecap:butt;stroke-linejoin:miter;stroke-miterlimit:4;stroke-dasharray:none;stroke-opacity:1"
       id="path3381"
       inkscape:connector-curvature="0" />
    <path
       d="M 1268.6594,991.88984 1509.7631,871.33359"
       style="fill:none;stroke:#000000;stroke-width:0.09999999;stroke-linecap:butt;stroke-linejoin:miter;stroke-miterlimit:4;stroke-dasharray:none;stroke-opacity:1"
       id="path3385"
       inkscape:connector-curvature="0" />
    <path
       d="m 1319.7481,991.88984 200.235,-100.11625"
       style="fill:none;stroke:#000000;stroke-width:0.09999999;stroke-linecap:butt;stroke-linejoin:miter;stroke-miterlimit:4;stroke-dasharray:none;stroke-opacity:1"
       id="path3389"
       inkscape:connector-curvature="0" />
    <path
       d="m 1370.8369,991.88984 159.3612,-79.6825"
       style="fill:none;stroke:#000000;stroke-width:0.09999999;stroke-linecap:butt;stroke-linejoin:miter;stroke-miterlimit:4;stroke-dasharray:none;stroke-opacity:1"
       id="path3393"
       inkscape:connector-curvature="0" />
    <path
       d="m 1472.1143,793.45165 107.5388,215.07745"
       style="fill:none;stroke:#000000;stroke-width:1.7029537;stroke-linecap:butt;stroke-linejoin:miter;stroke-miterlimit:4;stroke-dasharray:none;stroke-opacity:1"
       id="path3449"
       inkscape:connector-curvature="0" />
    <path
       inkscape:connector-curvature="0"
       id="path3451"
       style="fill:#000000;fill-opacity:1;fill-rule:nonzero;stroke:none"
       d="m 1477.8368,805.4824 -4.57,6.0937 -4.57,-24.37 16.7525,18.2763 -7.6125,0 z" />
    <text
       id="text3557"
       style="font-variant:normal;font-weight:normal;font-size:24px;font-family:'CMU Serif';-inkscape-font-specification:CMUSerif-Roman;writing-mode:lr-tb;fill:#000000;fill-opacity:1;fill-rule:nonzero;stroke:none"
       x="1559.9271"
       y="1060.2209">
      <tspan
         id="tspan3559"
         sodipodi:role="line"
         y="1060.2209"
         x="1559.9271 1569.2391 1581.2391 1587.8871 1599.8871">(2,1)</tspan>
    </text>
    <text
       y="951.92285"
       x="1563.2219"
       style="font-variant:normal;font-weight:normal;font-size:20.76411247px;font-family:'CMU Serif';-inkscape-font-specification:CMUSerif-Roman;writing-mode:lr-tb;fill:#000100;fill-opacity:1;fill-rule:nonzero;stroke:none"
       id="text3440">2</text>
    <text
       y="870.10321"
       x="1522.5713"
       style="font-variant:normal;font-weight:normal;font-size:20.76411247px;font-family:'CMU Serif';-inkscape-font-specification:CMUSerif-Roman;writing-mode:lr-tb;fill:#000000;fill-opacity:1;fill-rule:nonzero;stroke:none"
       id="text3447">1</text>
    <g
       id="g3687"
       transform="matrix(-1.25,0,0,1.25,1534.0682,804.82484)">
      <path
         d="M 160.285,231.395 385.863,118.602"
         style="fill:none;stroke:#000000;stroke-width:0.08;stroke-linecap:butt;stroke-linejoin:miter;stroke-miterlimit:4;stroke-dasharray:none;stroke-opacity:1"
         id="path3689"
         inkscape:connector-curvature="0" />
    </g>
    <g
       id="g3691"
       transform="matrix(-1.25,0,0,1.25,1534.0682,804.82484)">
      <path
         d="M 201.156,231.395 394.039,134.949"
         style="fill:none;stroke:#000000;stroke-width:0.08;stroke-linecap:butt;stroke-linejoin:miter;stroke-miterlimit:4;stroke-dasharray:none;stroke-opacity:1"
         id="path3693"
         inkscape:connector-curvature="0" />
    </g>
    <g
       id="g3695"
       transform="matrix(-1.25,0,0,1.25,1534.0682,804.82484)">
      <path
         d="M 201.156,190.523 377.691,102.254"
         style="fill:none;stroke:#000000;stroke-width:0.08;stroke-linecap:butt;stroke-linejoin:miter;stroke-miterlimit:4;stroke-dasharray:none;stroke-opacity:1"
         id="path3697"
         inkscape:connector-curvature="0" />
    </g>
    <g
       id="g3699"
       transform="matrix(-1.25,0,0,1.25,1534.0682,804.82484)">
      <path
         d="M 119.414,149.652 344.996,36.859"
         style="fill:none;stroke:#000000;stroke-width:0.08;stroke-linecap:butt;stroke-linejoin:miter;stroke-miterlimit:4;stroke-dasharray:none;stroke-opacity:1"
         id="path3701"
         inkscape:connector-curvature="0" />
    </g>
    <g
       id="g3703"
       transform="matrix(-1.25,0,0,1.25,1534.0682,804.82484)">
      <path
         d="M 160.285,149.652 353.168,53.207"
         style="fill:none;stroke:#000000;stroke-width:0.08;stroke-linecap:butt;stroke-linejoin:miter;stroke-miterlimit:4;stroke-dasharray:none;stroke-opacity:1"
         id="path3705"
         inkscape:connector-curvature="0" />
    </g>
    <g
       id="g3707"
       transform="matrix(-1.25,0,0,1.25,1534.0682,804.82484)">
      <path
         d="M 201.156,149.652 361.344,69.559"
         style="fill:none;stroke:#000000;stroke-width:0.08;stroke-linecap:butt;stroke-linejoin:miter;stroke-miterlimit:4;stroke-dasharray:none;stroke-opacity:1"
         id="path3709"
         inkscape:connector-curvature="0" />
    </g>
    <g
       id="g3711"
       transform="matrix(-1.25,0,0,1.25,1534.0682,804.82484)">
      <path
         d="M 242.027,149.652 369.516,85.906"
         style="fill:none;stroke:#000000;stroke-width:0.08;stroke-linecap:butt;stroke-linejoin:miter;stroke-miterlimit:4;stroke-dasharray:none;stroke-opacity:1"
         id="path3713"
         inkscape:connector-curvature="0" />
    </g>
    <g
       transform="matrix(-1,0,0,1,2600.3714,2.00003)"
       id="g3715">
      <g
         transform="matrix(1.25,0,0,1.25,1068.3031,804.82484)"
         id="g3717">
        <path
           inkscape:connector-curvature="0"
           id="path3719"
           style="fill:none;stroke:#000000;stroke-width:1.36236298;stroke-linecap:butt;stroke-linejoin:miter;stroke-miterlimit:4;stroke-dasharray:none;stroke-opacity:1"
           d="M 412.746,172.367 326.715,0.305" />
      </g>
      <path
         inkscape:connector-curvature="0"
         id="path3721"
         style="fill:#000000;fill-opacity:1;fill-rule:nonzero;stroke:none"
         d="m 1578.5131,1008.2528 4.57,-6.0937 4.57,24.37 -16.7525,-18.2763 7.6125,0 z" />
    </g>
    <rect
       style="font-size:12px;font-family:jsMath-cmbx10;text-anchor:middle;fill:#ffffff;stroke:#000000;stroke-width:1.18103659"
       id="rect3262"
       class="imageSupport"
       height="155.45743"
       width="155.76767"
       y="949.04175"
       x="1223.5703" />
    <text
       id="text33294-0"
       class="binValue"
       y="1199.6858"
       x="1353.7206"
       style="font-size:20.76411247px;font-family:jsMath-cmbx10;baseline-shift:-50%;text-anchor:middle;fill:#000100;fill-opacity:1;stroke:none">10</text>
    <text
       id="text33296-6"
       class="binValue"
       y="1199.6858"
       x="1301.8104"
       style="font-size:20.76411247px;font-family:jsMath-cmbx10;baseline-shift:-50%;text-anchor:middle;fill:#000100;fill-opacity:1;stroke:none">3</text>
    <text
       id="text33298-9"
       class="binValue"
       y="1199.6858"
       x="1249.9"
       style="font-size:20.76411247px;font-family:jsMath-cmbx10;baseline-shift:-50%;text-anchor:middle;fill:#000100;fill-opacity:1;stroke:none">9</text>
    <g
       style="font-size:12px;font-family:jsMath-cmbx10;text-anchor:middle;fill:#000000;stroke:none"
       id="g281755"
       transform="matrix(0.89650803,0,0,0.89650803,-988.7199,143.76294)">
      <path
         style="color:#000000;font-style:normal;font-variant:normal;font-weight:normal;font-stretch:normal;font-size:12px;line-height:normal;font-family:jsMath-cmbx10;-inkscape-font-specification:Sans;text-indent:0;text-align:start;text-decoration:none;text-decoration-line:none;letter-spacing:normal;word-spacing:normal;text-transform:none;direction:ltr;block-progression:tb;writing-mode:lr-tb;baseline-shift:baseline;text-anchor:middle;display:inline;overflow:visible;visibility:visible;fill:#b3b3ff;fill-opacity:1;fill-rule:nonzero;stroke:#b3b3ff;stroke-width:3.34631681;stroke-miterlimit:4;stroke-dasharray:none;stroke-opacity:1;marker:none;enable-background:accumulate"
         d="m 2463.6116,1139.1457 0,1.4102 176.5589,0 1.3331,0 0,-1.4102 z"
         id="line33274-0"
         inkscape:connector-curvature="0"
         sodipodi:nodetypes="cccccc" />
      <path
         id="path217918"
         d="m 2476.6122,1139.851 3.941,7.8819 -27.5868,-7.8819 27.5868,-7.8821 z"
         inkscape:connector-curvature="0"
         style="fill:#000100;fill-opacity:1;stroke:none" />
    </g>
    <text
       x="1249.9"
       y="1086.7778"
       style="font-size:20.76000023px;font-family:jsMath-cmbx10;text-anchor:middle;fill:#808080;fill-opacity:1;stroke:none"
       id="text3140">4</text>
    <text
       x="1301.8104"
       y="1086.7778"
       style="font-size:20.76000023px;font-family:jsMath-cmbx10;text-anchor:middle;fill:#808080;fill-opacity:1;stroke:none"
       id="text3142">2</text>
    <text
       x="1353.7206"
       y="1086.7778"
       style="font-size:20.76000023px;font-family:jsMath-cmbx10;text-anchor:middle;fill:#808080;fill-opacity:1;stroke:none"
       id="text3144">1</text>
    <text
       x="1249.9"
       y="1034.8674"
       style="font-size:20.76000023px;font-family:jsMath-cmbx10;text-anchor:middle;fill:#808080;fill-opacity:1;stroke:none"
       id="text3152">2</text>
    <text
       x="1301.8104"
       y="1034.8674"
       style="font-size:20.76000023px;font-family:jsMath-cmbx10;text-anchor:middle;fill:#808080;fill-opacity:1;stroke:none"
       id="text3154">0</text>
    <text
       x="1353.7206"
       y="1034.8674"
       style="font-size:20.76000023px;font-family:jsMath-cmbx10;text-anchor:middle;fill:#808080;fill-opacity:1;stroke:none"
       id="text3156">5</text>
    <text
       x="1249.9"
       y="982.95709"
       style="font-size:20.76000023px;font-family:jsMath-cmbx10;text-anchor:middle;fill:#808080;fill-opacity:1;stroke:none"
       id="text3164">3</text>
    <text
       x="1301.8104"
       y="982.95709"
       style="font-size:20.76000023px;font-family:jsMath-cmbx10;text-anchor:middle;fill:#808080;fill-opacity:1;stroke:none"
       id="text3166">1</text>
    <text
       x="1353.7206"
       y="982.95709"
       style="font-size:20.76000023px;font-family:jsMath-cmbx10;text-anchor:middle;fill:#808080;fill-opacity:1;stroke:none"
       id="text3168">4</text>
    <path
       style="font-size:12px;font-family:jsMath-cmbx10;text-anchor:middle;fill:#ffffff;stroke:#000000;stroke-width:0.96504587"
       d="m 1223.9449,1053.237 155.4443,0"
       id="line3254"
       inkscape:connector-curvature="0"
       sodipodi:nodetypes="cc" />
    <path
       style="font-size:12px;font-family:jsMath-cmbx10;text-anchor:middle;fill:#ffffff;stroke:#000000;stroke-width:0.96504587"
       d="m 1223.9449,1001.3268 155.3302,0"
       id="line3256"
       inkscape:connector-curvature="0"
       sodipodi:nodetypes="cc" />
    <path
       style="font-size:12px;font-family:jsMath-cmbx10;text-anchor:middle;fill:#ffffff;stroke:#000000;stroke-width:0.96504587"
       d="m 1275.8551,1104.5006 0,-155.08428"
       id="line3258"
       inkscape:connector-curvature="0"
       sodipodi:nodetypes="cc" />
    <path
       style="font-size:12px;font-family:jsMath-cmbx10;text-anchor:middle;fill:#ffffff;stroke:#000000;stroke-width:0.96504587"
       d="m 1327.7656,1104.6147 0,-155.19838"
       id="line3260"
       inkscape:connector-curvature="0"
       sodipodi:nodetypes="cc" />
    <path
       style="font-size:12px;font-family:jsMath-cmbx10;text-anchor:middle;fill:#ffffff;stroke:#000000;stroke-width:0.19300917"
       d="m 1249.9,1163.3716 0,-58.7506"
       id="line33276-4"
       inkscape:connector-curvature="0"
       sodipodi:nodetypes="cc" />
    <path
       style="font-size:12px;font-family:jsMath-cmbx10;text-anchor:middle;fill:#ffffff;stroke:#000000;stroke-width:0.19300917"
       d="m 1301.8104,1163.3716 0,-58.7506"
       id="line33278-5"
       inkscape:connector-curvature="0"
       sodipodi:nodetypes="cc" />
    <path
       style="font-size:12px;font-family:jsMath-cmbx10;text-anchor:middle;fill:#ffffff;stroke:#000000;stroke-width:0.19300917"
       d="m 1353.7206,1163.3716 0,-58.9712"
       id="line33280-3"
       inkscape:connector-curvature="0"
       sodipodi:nodetypes="cc" />
    <path
       style="font-size:12px;font-family:jsMath-cmbx10;text-anchor:middle;fill:#ffffff;stroke:#000000;stroke-width:0.19300917"
       d="m 1223.9,1053.1025 -95.4392,-95.4391"
       id="line3147"
       inkscape:connector-curvature="0"
       sodipodi:nodetypes="cc" />
    <path
       style="font-size:12px;font-family:jsMath-cmbx10;text-anchor:middle;fill:#ffffff;stroke:#000000;stroke-width:0.19300917"
       d="m 1223.9,1001.1923 -69.0161,-69.01613"
       id="line3149"
       inkscape:connector-curvature="0"
       sodipodi:nodetypes="cc" />
    <path
       style="font-size:12px;font-family:jsMath-cmbx10;text-anchor:middle;fill:#ffffff;stroke:#000000;stroke-width:0.19300917"
       d="m 1223.9,949.2818 -42.749,-42.74895"
       id="line3151"
       inkscape:connector-curvature="0"
       sodipodi:nodetypes="cc" />
    <path
       style="font-size:12px;font-family:jsMath-cmbx10;text-anchor:middle;fill:#ffffff;stroke:#000000;stroke-width:0.19300917"
       d="m 1275.9,949.37152 -69.0278,-69.02774"
       id="line3153"
       inkscape:connector-curvature="0"
       sodipodi:nodetypes="cc" />
    <path
       style="font-size:12px;font-family:jsMath-cmbx10;text-anchor:middle;fill:#ffffff;stroke:#000000;stroke-width:0.19300917"
       d="m 1327.8104,949.37152 -94.4371,-94.43705"
       id="line3155"
       inkscape:connector-curvature="0"
       sodipodi:nodetypes="cc" />
    <text
       style="font-size:20.76411247px;font-family:jsMath-cmbx10;baseline-shift:-50%;text-anchor:middle;fill:#000100;fill-opacity:1;stroke:none"
       x="1223.99"
       y="842.83331"
       class="binValue"
       id="text3157">4</text>
    <text
       style="font-size:20.76411247px;font-family:jsMath-cmbx10;baseline-shift:-50%;text-anchor:middle;fill:#000100;fill-opacity:1;stroke:none"
       x="1196.0796"
       y="868.84344"
       class="binValue"
       id="text3159">6</text>
    <text
       style="font-size:20.76411247px;font-family:jsMath-cmbx10;baseline-shift:-50%;text-anchor:middle;fill:#000100;fill-opacity:1;stroke:none"
       x="1168.1693"
       y="894.97021"
       class="binValue"
       id="text3161">4</text>
    <text
       style="font-size:20.76411247px;font-family:jsMath-cmbx10;baseline-shift:-50%;text-anchor:middle;fill:#000100;fill-opacity:1;stroke:none"
       x="1144.2589"
       y="918.97021"
       class="binValue"
       id="text3163">4</text>
    <text
       style="font-size:20.76411247px;font-family:jsMath-cmbx10;baseline-shift:-50%;text-anchor:middle;fill:#000100;fill-opacity:1;stroke:none"
       x="1118.3485"
       y="944.98035"
       class="binValue"
       id="text3165">4</text>
    <path
       style="font-size:12px;font-family:jsMath-cmbx10;text-anchor:middle;fill:#ffffff;stroke:#000000;stroke-width:0.19300917"
       d="m 1368.4457,856.46689 -92.3217,92.32144"
       id="line3169"
       inkscape:connector-curvature="0"
       sodipodi:nodetypes="cc" />
    <path
       style="font-size:12px;font-family:jsMath-cmbx10;text-anchor:middle;fill:#ffffff;stroke:#000000;stroke-width:0.19300917"
       d="m 1394.167,882.65609 -66.1322,66.13224"
       id="line3171"
       inkscape:connector-curvature="0"
       sodipodi:nodetypes="cc" />
    <path
       style="font-size:12px;font-family:jsMath-cmbx10;text-anchor:middle;fill:#ffffff;stroke:#000000;stroke-width:0.19300917"
       d="m 1419.7321,909.001 -39.7873,39.78733"
       id="line3173"
       inkscape:connector-curvature="0"
       sodipodi:nodetypes="cc" />
    <path
       style="font-size:12px;font-family:jsMath-cmbx10;text-anchor:middle;fill:#ffffff;stroke:#000000;stroke-width:0.19300917"
       d="m 1445.6873,934.95616 -65.8322,65.83214"
       id="line3175"
       inkscape:connector-curvature="0"
       sodipodi:nodetypes="cc" />
    <path
       style="font-size:12px;font-family:jsMath-cmbx10;text-anchor:middle;fill:#ffffff;stroke:#000000;stroke-width:0.19300917"
       d="m 1471.3306,961.22332 -93.565,93.56498"
       id="line3177"
       inkscape:connector-curvature="0"
       sodipodi:nodetypes="cc" />
    <text
       style="font-size:20.76411247px;font-family:jsMath-cmbx10;baseline-shift:-50%;text-anchor:middle;fill:#000000;fill-opacity:1;stroke:none"
       x="1483.7656"
       y="948.83331"
       class="binValue"
       id="text3179">1</text>
    <text
       style="font-size:20.76411247px;font-family:jsMath-cmbx10;baseline-shift:-50%;text-anchor:middle;fill:#000000;fill-opacity:1;stroke:none"
       x="1459.8551"
       y="922.83331"
       class="binValue"
       id="text3181">7</text>
    <text
       style="font-size:20.76411247px;font-family:jsMath-cmbx10;baseline-shift:-50%;text-anchor:middle;fill:#000000;fill-opacity:1;stroke:none"
       x="1431.9448"
       y="894.83331"
       class="binValue"
       id="text3183">8</text>
    <text
       style="font-size:20.76411247px;font-family:jsMath-cmbx10;baseline-shift:-50%;text-anchor:middle;fill:#000000;fill-opacity:1;stroke:none"
       x="1408.0348"
       y="868.83331"
       class="binValue"
       id="text3185">3</text>
    <text
       style="font-size:20.76411247px;font-family:jsMath-cmbx10;baseline-shift:-50%;text-anchor:middle;fill:#000000;fill-opacity:1;stroke:none"
       x="1382.124"
       y="842.83331"
       class="binValue"
       id="text3187">3</text>
    <g
       transform="matrix(0.89650803,0,0,0.89650803,-988.7199,83.76294)"
       id="g3193"
       style="font-size:12px;font-family:jsMath-cmbx10;text-anchor:middle;fill:#000000;stroke:none">
      <path
         sodipodi:nodetypes="cccccc"
         inkscape:connector-curvature="0"
         id="path3195"
         d="m 2329.7588,1005.2929 0,1.4102 175.5748,-172.71187 0.6565,-0.70733 0.6766,-0.70287 z"
         style="color:#000000;font-style:normal;font-variant:normal;font-weight:normal;font-stretch:normal;font-size:12px;line-height:normal;font-family:jsMath-cmbx10;-inkscape-font-specification:Sans;text-indent:0;text-align:start;text-decoration:none;text-decoration-line:none;letter-spacing:normal;word-spacing:normal;text-transform:none;direction:ltr;block-progression:tb;writing-mode:lr-tb;baseline-shift:baseline;text-anchor:middle;display:inline;overflow:visible;visibility:visible;fill:#b3b3ff;fill-opacity:1;fill-rule:nonzero;stroke:#b3b3ff;stroke-width:3.34631681;stroke-miterlimit:4;stroke-dasharray:none;stroke-opacity:1;marker:none;enable-background:accumulate" />
      <path
         style="fill:#000100;fill-opacity:1;stroke:none"
         inkscape:connector-curvature="0"
         d="m 2335.8526,999.68502 8.3281,2.88088 -25.2361,13.6493 14.2158,-24.92128 z"
         id="path3197" />
      <path
         style="color:#000000;font-style:normal;font-variant:normal;font-weight:normal;font-stretch:normal;font-size:12px;line-height:normal;font-family:jsMath-cmbx10;-inkscape-font-specification:Sans;text-indent:0;text-align:start;text-decoration:none;text-decoration-line:none;letter-spacing:normal;word-spacing:normal;text-transform:none;direction:ltr;block-progression:tb;writing-mode:lr-tb;baseline-shift:baseline;text-anchor:middle;display:inline;overflow:visible;visibility:visible;fill:#b3b3ff;fill-opacity:1;fill-rule:nonzero;stroke:#b3b3ff;stroke-width:3.34631681;stroke-miterlimit:4;stroke-dasharray:none;stroke-opacity:1;marker:none;enable-background:accumulate"
         d="m 2600.2675,831.18811 -1.4102,0 172.7119,175.57479 0.6151,0.595 0.7951,0.7381 z"
         id="path3199"
         inkscape:connector-curvature="0"
         sodipodi:nodetypes="cccccc" />
      <path
         id="path3201"
         d="m 2607.7996,840.72866 -2.8809,8.3281 -13.6493,-25.2361 24.9213,14.2158 z"
         inkscape:connector-curvature="0"
         style="fill:#000100;fill-opacity:1;stroke:none" />
    </g>
    <g
       transform="translate(1132.8427,819.36639)"
       id="g3366">
      <g
         style="font-style:normal;font-variant:normal;font-weight:normal;font-stretch:normal;letter-spacing:normal;word-spacing:normal;text-anchor:start;fill:none;fill-opacity:1;fill-rule:evenodd;stroke:#000000;stroke-linecap:butt;stroke-linejoin:miter;stroke-miterlimit:10.43299961;stroke-dasharray:none;stroke-dashoffset:0;stroke-opacity:1"
         id="content"
         transform="matrix(0.56236433,0,0,-0.56236433,-98.413758,313.90938)"
         xml:space="preserve"
         stroke-miterlimit="10.433"
         font-style="normal"
         font-variant="normal"
         font-weight="normal"
         font-stretch="normal"
         font-size-adjust="none"
         letter-spacing="normal"
         word-spacing="normal"><path
           style="fill:#000000;stroke-width:0"
           inkscape:connector-curvature="0"
           d="m 471.09,421.74 0.2,1.3 3.39,13.55 c 0.45,1.74 0.55,1.89 2.69,1.89 l 4.78,0 c 4.14,0 6.78,-1.35 6.78,-4.78 0,-1.95 -1,-6.23 -2.94,-8.02 -2.49,-2.25 -5.48,-2.64 -7.67,-2.64 l -7.03,0 -0.2,-1.3 8.47,0 c 7.08,0 14,5.18 14,10.76 0,3.84 -3.29,7.52 -9.81,7.52 l -16.14,0 c -0.95,0 -1.5,0 -1.5,-0.95 0,-0.59 0.45,-0.59 1.45,-0.59 0.64,0 1.54,-0.05 2.14,-0.1 0.8,-0.1 1.09,-0.25 1.09,-0.8 0,-0.2 -0.04,-0.35 -0.2,-0.94 l -6.67,-26.75 c -0.5,-1.95 -0.6,-2.35 -4.53,-2.35 -0.85,0 -1.4,0 -1.4,-0.94 0,-0.6 0.6,-0.6 0.75,-0.6 l 12.75,0 c 0.35,0 1,0 1,1 0,0.54 -0.45,0.54 -1.4,0.54 -1.84,0 -3.23,0 -3.23,0.9 0,0.3 0.1,0.55 0.14,0.85 z"
           id="path3369" /></g>    </g>
    <path
       id="path3417"
       d="m 1170.8371,1034.1538 0.4049,-0.1631 0.4049,-0.1856 0.3993,-0.2025 0.3993,-0.2193 0.3936,-0.2362 0.3881,-0.253 0.3824,-0.2756 0.3824,-0.2812 0.3655,-0.3037 0.3656,-0.3149 0.3543,-0.3318 0.343,-0.343 0.3374,-0.3599 0.3206,-0.3712 0.3149,-0.3824 0.3037,-0.3936 0.2868,-0.405 0.2755,-0.4105 0.2587,-0.4274 0.2475,-0.433 0.2305,-0.4443 0.2137,-0.4499 0.1968,-0.4611 0.18,-0.4668 0.1575,-0.4723 0.1462,-0.478 0.1181,-0.4893 0.1012,-0.4893 0.084,-0.4948 0.056,-0.5005 0.034,-0.5006 0.011,-0.5061 c 0,-4.5101 -2.9693,-7.5357 -7.142,-7.5357 l -0.1688,0.703 c 2.8006,0 4.8476,2.182 4.8476,5.9386 0,2.8005 -1.4284,9.3521 -6.1354,11.9896 -0.1406,-0.9785 -0.4217,-3.0256 -2.4687,-3.0256 l 0,0.613 c 1.1809,0 1.7095,0.6749 1.7095,2.3844 0,0.4162 -0.022,0.4443 -0.3036,0.5568 -0.7311,0.3093 -1.569,0.5061 -2.3563,0.5061 l 0,0 c -0.3937,0 -1.2879,0 -1.2879,-1.2034 0,-1.1248 1.0629,-2.2439 2.2383,-2.2439 l 0,-0.613 c -1.4791,0 -2.8512,1.4003 -2.8512,2.8569 0,0.5567 0.1631,0.866 0.1631,0.8941 l 0,0 c -2.182,-0.866 -3.138,-3.0536 -3.138,-5.573 0,-1.9345 0.731,-5.9105 2.8624,-8.936 2.0414,-2.8568 4.6732,-4.1446 6.7202,-4.1446 l 0.1688,-0.703 c -6.0511,0 -12.2146,6.3604 -12.2146,12.8894 0,4.6508 3.138,7.4795 7.1701,7.4795 0.703,0 1.6534,-0.1125 2.7444,-0.4218 -0.1069,1.7377 -0.1069,1.7939 -0.1069,2.1539 0,0.8997 0,3.0817 2.3226,3.0817 3.3348,0 4.6789,-5.1231 4.6789,-5.4324 0,-0.1969 -0.1969,-0.2812 -0.3093,-0.2812 -0.225,0 -0.2812,0.1406 -0.3374,0.3093 -0.6693,1.9908 -2.2945,2.6881 -3.273,2.6881 -1.2934,0 -1.7096,-0.7536 -1.9908,-2.8849 z"
       inkscape:connector-curvature="0"
       style="font-style:normal;font-variant:normal;font-weight:normal;font-stretch:normal;letter-spacing:normal;word-spacing:normal;text-anchor:start;fill:#000000;fill-opacity:1;fill-rule:evenodd;stroke:#000000;stroke-width:0;stroke-linecap:butt;stroke-linejoin:miter;stroke-miterlimit:10.43299961;stroke-dasharray:none;stroke-dashoffset:0;stroke-opacity:1" />
    <text
       id="text3527"
       style="font-variant:normal;font-weight:normal;font-size:24px;font-family:'CMU Serif';-inkscape-font-specification:CMUSerif-Roman;writing-mode:lr-tb;fill:#000000;fill-opacity:1;fill-rule:nonzero;stroke:none"
       x="1137.1403"
       y="1170.6323">
      <tspan
         id="tspan3529"
         sodipodi:role="line"
         y="1170.6323"
         x="1137.1403 1146.4523 1158.4523 1165.1003 1177.1003">(0,1)</tspan>
      <tspan
         id="tspan3531"
         sodipodi:role="line"
         y="1034.9382"
         x="1065.9271 1075.2391 1083.2312 1095.2312 1101.8792 1113.8792 1465.9271 1475.2391 1487.2391 1493.8871 1505.8872">(-1,1)(1,1)</tspan>
    </text>
    <g
       id="g15507"
       transform="translate(73.481474,0.84551409)">
      <g
         id="g3561"
         transform="matrix(-1.25,0,0,1.25,1068.3031,804.82484)">
        <path
           d="m -372.277,271.367 0,40.988"
           style="fill:none;stroke:#000000;stroke-width:1.36000001;stroke-linecap:butt;stroke-linejoin:miter;stroke-miterlimit:4;stroke-dasharray:none;stroke-opacity:1"
           id="path3563"
           inkscape:connector-curvature="0" />
      </g>
      <g
         id="g3565"
         transform="matrix(0,1.25,1.25,0,1068.3031,804.82484)">
        <path
           d="m 276.809,372.277 2.718,-2.722 -9.519,2.722 9.519,2.719 -2.718,-2.719 z"
           style="fill:#000000;fill-opacity:1;fill-rule:evenodd;stroke:#000000;stroke-width:0.68000001;stroke-linecap:butt;stroke-linejoin:miter;stroke-miterlimit:4;stroke-dasharray:none;stroke-opacity:1"
           id="path3567"
           inkscape:connector-curvature="0" />
      </g>
      <g
         id="g3569"
         transform="matrix(-1.25,0,0,1.25,1068.3031,804.82484)">
        <path
           d="m -372.277,311.879 -41.274,0"
           style="fill:none;stroke:#000000;stroke-width:1.36000001;stroke-linecap:butt;stroke-linejoin:miter;stroke-miterlimit:4;stroke-dasharray:none;stroke-opacity:1"
           id="path3571"
           inkscape:connector-curvature="0" />
      </g>
      <g
         id="g3573"
         transform="matrix(-1.25,0,0,1.25,1068.3031,804.82484)">
        <path
           d="m -408.109,311.879 2.718,-2.719 -9.519,2.719 9.519,2.723 -2.718,-2.723 z"
           style="fill:#000000;fill-opacity:1;fill-rule:evenodd;stroke:#000000;stroke-width:0.68000001;stroke-linecap:butt;stroke-linejoin:miter;stroke-miterlimit:4;stroke-dasharray:none;stroke-opacity:1"
           id="path3575"
           inkscape:connector-curvature="0" />
      </g>
      <path
         d="m 1604.6894,1187.6616 -0.039,0.034 -0.044,0.04 -0.039,0.044 -0.054,0.039 -0.044,0.044 -0.054,0.049 -0.049,0.049 -0.054,0.049 -0.1175,0.1075 -0.1075,0.1125 -0.1175,0.1075 -0.1075,0.1225 -0.1075,0.1175 -0.049,0.058 -0.049,0.064 -0.044,0.059 -0.049,0.059 -0.039,0.054 -0.069,0.1175 -0.059,0.1162 -0.024,0.054 -0.02,0.05 -0.01,0.057 -0.01,0.045 0,0.054 c 0,0.2875 0.2887,0.58 0.5762,0.58 0.2638,0 0.405,-0.21 0.5525,-0.385 0.3463,-0.43 1.005,-1.2362 2.28,-1.865 0.195,-0.1225 0.4838,-0.2687 0.4838,-0.6112 0,-0.2875 -0.1963,-0.4338 -0.4063,-0.5763 -0.63,-0.4337 -0.9462,-0.9462 -1.1862,-1.635 -0.049,-0.2637 -0.1663,-0.645 -0.5663,-0.645 -0.41,0 -0.5762,0.3813 -0.5762,0.6063 0,0.1462 0.225,1.0637 0.6887,1.6737 l -9.7175,0 c -0.4825,0 -1.01,0 -1.01,0.5763 0,0.5812 0.5275,0.5812 1.01,0.5812 l 9.2238,0 z"
         style="fill:#000000;fill-opacity:1;fill-rule:evenodd;stroke:none"
         id="path3577"
         inkscape:connector-curvature="0" />
      <path
         d="m 1599.6456,1203.1891 0.035,0.1075 0.034,0.1125 0.039,0.1025 0.044,0.1075 0.044,0.098 0.054,0.092 0.059,0.092 0.054,0.094 0.059,0.082 0.064,0.088 0.074,0.084 0.067,0.072 0.074,0.079 0.1563,0.1362 0.082,0.064 0.089,0.064 0.082,0.059 0.092,0.054 0.1862,0.097 0.098,0.039 0.1075,0.039 0.098,0.035 0.1025,0.034 0.1025,0.024 0.1125,0.03 0.1075,0.019 0.1113,0.01 0.1075,0.01 0.1175,0.01 0.1175,0.01 c 1.0012,0 1.67,-0.66 2.1337,-1.5875 0.4888,-1.035 0.855,-2.7975 0.855,-2.8512 0,-0.2875 -0.255,-0.2875 -0.3425,-0.2875 -0.2875,0 -0.3175,0.1112 -0.4,0.5175 -0.4012,1.6112 -0.9575,3.5687 -2.1687,3.5687 -0.605,0 -0.8838,-0.3762 -0.8838,-1.3237 0,-0.6338 0.3425,-1.9863 0.5675,-2.9875 l 0.815,-3.125 c 0.082,-0.435 0.3713,-1.5288 0.4875,-1.9625 0.1425,-0.66 0.435,-1.7538 0.435,-1.92 0,-0.5263 -0.405,-0.7813 -0.84,-0.7813 -0.1462,0 -0.8975,0.03 -1.1225,1.0063 -0.5475,2.105 -1.8162,7.1487 -2.1587,8.6762 -0.034,0.1175 -1.1863,2.4175 -3.2913,2.4175 -1.4987,0 -1.7862,-1.2987 -1.7862,-2.3637 0,-1.6113 0.81,-3.8863 1.5625,-5.8788 0.3462,-0.8687 0.4825,-1.2587 0.4825,-1.8162 0,-1.2888 -0.9175,-2.3538 -2.3625,-2.3538 -2.74,0 -3.8088,4.17 -3.8088,4.4388 0,0.2887 0.2875,0.2887 0.3513,0.2887 0.2937,0 0.3225,-0.064 0.4637,-0.5275 0.7138,-2.505 1.8163,-3.57 2.91,-3.57 0.255,0 0.7238,0.03 0.7238,0.9475 0,0.6938 -0.3225,1.5288 -0.4988,1.9625 -1.0637,2.8575 -1.67,4.6388 -1.67,6.045 0,2.745 1.9875,3.4675 3.55,3.4675 1.9,0 2.94,-1.2987 3.4275,-1.9387 z"
         style="fill:#000000;fill-opacity:1;fill-rule:evenodd;stroke:none"
         id="path3579"
         inkscape:connector-curvature="0" />
      <path
         d="m 1539.1481,1121.0166 -0.039,0.034 -0.045,0.039 -0.039,0.04 -0.054,0.044 -0.044,0.044 -0.054,0.044 -0.049,0.054 -0.054,0.049 -0.059,0.049 -0.059,0.059 -0.1075,0.1125 -0.1162,0.1075 -0.1125,0.1212 -0.049,0.059 -0.1075,0.1175 -0.044,0.064 -0.045,0.054 -0.049,0.059 -0.039,0.059 -0.069,0.1163 -0.082,0.1662 -0.02,0.054 -0.01,0.059 -0.01,0.044 0,0.054 c 0,0.2888 0.2875,0.5763 0.5762,0.5763 0.2588,0 0.405,-0.205 0.5513,-0.3813 0.3425,-0.4337 1.0062,-1.235 2.28,-1.87 0.1962,-0.1162 0.4837,-0.2637 0.4837,-0.605 0,-0.2887 -0.195,-0.435 -0.405,-0.5762 -0.63,-0.435 -0.9475,-0.9525 -1.1862,-1.6413 -0.049,-0.2587 -0.1663,-0.6387 -0.5675,-0.6387 -0.41,0 -0.575,0.38 -0.575,0.605 0,0.1462 0.2237,1.065 0.6875,1.675 l -9.7163,0 c -0.4837,0 -1.0112,0 -1.0112,0.5762 0,0.5813 0.5275,0.5813 1.0112,0.5813 l 9.2238,0 z"
         style="fill:#000000;fill-opacity:1;fill-rule:evenodd;stroke:none"
         id="path3585"
         inkscape:connector-curvature="0" />
      <path
         d="m 1538.2694,1127.4416 0,-0.068 -0.01,-0.079 0,-0.069 -0.01,-0.062 0,-0.069 0,-0.064 -0.01,-0.064 0,-0.058 -0.019,-0.1225 -0.025,-0.1125 -0.019,-0.1025 -0.03,-0.1025 -0.029,-0.092 -0.035,-0.093 -0.034,-0.089 -0.044,-0.072 -0.039,-0.079 -0.04,-0.069 -0.049,-0.067 -0.044,-0.059 -0.049,-0.059 -0.049,-0.049 -0.054,-0.049 -0.054,-0.039 -0.049,-0.044 -0.054,-0.035 -0.054,-0.029 -0.049,-0.03 -0.054,-0.019 -0.059,-0.02 -0.054,-0.015 -0.049,-0.019 -0.054,-0.01 -0.054,-0.01 -0.097,0 c -0.7225,0 -1.4113,0.7425 -1.4113,1.3812 0,0.3713 0.1463,0.5375 0.4638,0.855 0.6062,0.5813 0.9762,1.3325 0.9762,2.3688 0,1.21 -1.7525,7.8075 -5.1212,7.8075 -1.48,0 -2.1388,-1.0113 -2.1388,-2.5 0,-1.6163 0.7763,-3.7263 1.675,-6.1138 0.2,-0.4975 0.3413,-0.8937 0.3413,-1.445 0,-1.2887 -0.9225,-2.3537 -2.3675,-2.3537 -2.7013,0 -3.8088,4.17 -3.8088,4.4337 0,0.2925 0.2925,0.2925 0.3563,0.2925 0.2875,0 0.3175,-0.067 0.4637,-0.5275 0.83,-2.91 2.07,-3.5687 2.905,-3.5687 0.23,0 0.7275,0 0.7275,0.9175 0,0.7225 -0.2925,1.5037 -0.4975,2.0212 -1.27,3.34 -1.6412,4.6738 -1.6412,5.9088 0,3.11 2.535,3.5687 3.8625,3.5687 4.8487,0 6.485,-9.535 6.485,-11.035 z"
         style="fill:#000000;fill-opacity:1;fill-rule:evenodd;stroke:none"
         id="path3587"
         inkscape:connector-curvature="0" />
    </g>
    <text
       y="849.66785"
       x="1079.6565"
       style="font-variant:normal;font-weight:normal;font-size:20.76411247px;font-family:'CMU Serif';-inkscape-font-specification:CMUSerif-Roman;writing-mode:lr-tb;fill:#000000;fill-opacity:1;fill-rule:nonzero;stroke:none"
       id="text3665">4</text>
    <text
       y="890.53857"
       x="1059.2211"
       style="font-variant:normal;font-weight:normal;font-size:20.76411247px;font-family:'CMU Serif';-inkscape-font-specification:CMUSerif-Roman;writing-mode:lr-tb;fill:#000100;fill-opacity:1;fill-rule:nonzero;stroke:none"
       id="text3667">
      <tspan
         x="1059.2211"
         y="890.53857"
         id="tspan3669">8</tspan>
    </text>
    <text
       y="911.10413"
       x="1048.8073"
       style="font-variant:normal;font-weight:normal;font-size:20.76411247px;font-family:'CMU Serif';-inkscape-font-specification:CMUSerif-Roman;writing-mode:lr-tb;fill:#000000;fill-opacity:1;fill-rule:nonzero;stroke:none"
       id="text3671">
      <tspan
         x="1048.8073"
         y="911.10413"
         id="tspan3673">0</tspan>
    </text>
    <text
       y="931.53943"
       x="1038.5895"
       style="font-variant:normal;font-weight:normal;font-size:20.76411247px;font-family:'CMU Serif';-inkscape-font-specification:CMUSerif-Roman;writing-mode:lr-tb;fill:#000100;fill-opacity:1;fill-rule:nonzero;stroke:none"
       id="text3677">3</text>
    <text
       y="972.76312"
       x="1018.0108"
       style="font-variant:normal;font-weight:normal;font-size:20.76411247px;font-family:'CMU Serif';-inkscape-font-specification:CMUSerif-Roman;writing-mode:lr-tb;fill:#000000;fill-opacity:1;fill-rule:nonzero;stroke:none"
       id="text3679">
      <tspan
         x="1018.0108"
         y="972.76312"
         id="tspan3681">4</tspan>
    </text>
    <text
       y="1060.2209"
       x="992.48541"
       style="font-variant:normal;font-weight:normal;font-size:24px;font-family:'CMU Serif';-inkscape-font-specification:CMUSerif-Roman;writing-mode:lr-tb;fill:#000000;fill-opacity:1;fill-rule:nonzero;stroke:none"
       id="text3723">
      <tspan
         x="992.48541"
         sodipodi:role="line"
         id="tspan3725"
         y="1060.2209">(-2,1)</tspan>
    </text>
    <text
       id="text3727"
       style="font-variant:normal;font-weight:normal;font-size:20.76411247px;font-family:'CMU Serif';-inkscape-font-specification:CMUSerif-Roman;writing-mode:lr-tb;fill:#000100;fill-opacity:1;fill-rule:nonzero;stroke:none"
       x="1028.7881"
       y="951.92285">2</text>
    <text
       id="text3729"
       style="font-variant:normal;font-weight:normal;font-size:20.76411247px;font-family:'CMU Serif';-inkscape-font-specification:CMUSerif-Roman;writing-mode:lr-tb;fill:#000000;fill-opacity:1;fill-rule:nonzero;stroke:none"
       x="1069.2518"
       y="870.10321">1</text>
    <text
       id="text3543-8"
       style="font-variant:normal;font-weight:normal;font-size:20.76411247px;font-family:'CMU Serif';-inkscape-font-specification:CMUSerif-Roman;writing-mode:lr-tb;fill:#000000;fill-opacity:1;fill-rule:nonzero;stroke:none"
       x="1630.5555"
       y="918.76532">
      <tspan
         id="tspan3545-7"
         y="918.76532"
         x="1630.5555">0</tspan>
    </text>
    <text
       y="888.33032"
       x="1619.8069"
       style="font-variant:normal;font-weight:normal;font-size:20.76411247px;font-family:'CMU Serif';-inkscape-font-specification:CMUSerif-Roman;writing-mode:lr-tb;fill:#000000;fill-opacity:1;fill-rule:nonzero;stroke:none"
       id="text3447-2">4</text>
    <path
       inkscape:connector-curvature="0"
       id="path3884-0"
       d="M 1653.3565,1019.8008 1578.1159,804.35775"
       style="fill:none;fill-rule:evenodd;stroke:#000000;stroke-width:1px;stroke-linecap:butt;stroke-linejoin:miter;stroke-opacity:1"
       sodipodi:nodetypes="cc" />
    <path
       inkscape:connector-curvature="0"
       style="fill:none;fill-rule:evenodd;stroke:#000000;stroke-width:1.5;stroke-linecap:butt;stroke-linejoin:miter;stroke-miterlimit:4;stroke-dasharray:none;stroke-opacity:1;marker-end:url(#Arrow1Lend)"
       d="M 1653.3565,1019.8008 1578.1159,804.35775"
       id="path5106" />
    <g
       style="font-variant:normal;font-weight:normal;font-size:20.76411247px;font-family:'CMU Serif';-inkscape-font-specification:CMUSerif-Roman;writing-mode:lr-tb;fill:#000000;fill-opacity:1;fill-rule:nonzero;stroke:none"
       id="g9790"
       transform="translate(-3.295324,7.542351)">
      <path
         inkscape:connector-curvature="0"
         d="m 1613.2256,846.86469 q 0,-0.62292 0.353,-0.91362 0.353,-0.2907 0.8098,-0.2907 0.4776,0 0.8098,0.31146 0.353,0.31147 0.353,0.85133 0,0.5814 -0.4153,0.91362 -0.3945,0.31147 -0.9551,0.22841 0.4983,0.83056 1.4119,1.20432 0.9136,0.37375 1.765,0.37375 0.8928,0 1.6196,-0.76827 0.7267,-0.76827 0.7267,-2.65781 0,-1.59883 -0.6229,-2.51245 -0.6229,-0.93439 -1.848,-0.93439 l -0.9136,0 q -0.3115,0 -0.4153,-0.0208 -0.083,-0.0415 -0.083,-0.20764 0,-0.20765 0.3115,-0.24917 0.3114,0 0.8098,-0.0623 1.2043,-0.0415 1.848,-1.07973 0.5814,-0.97591 0.5814,-2.36711 0,-1.26661 -0.6022,-1.78571 -0.6021,-0.53987 -1.3912,-0.53987 -0.7267,0 -1.5365,0.31146 -0.789,0.2907 -1.2251,0.97592 1.2874,0 1.2874,1.0382 0,0.45681 -0.2907,0.76827 -0.2907,0.2907 -0.7683,0.2907 -0.4568,0 -0.7683,-0.2907 -0.2907,-0.29069 -0.2907,-0.78903 0,-1.18356 1.059,-1.99336 1.059,-0.83056 2.6163,-0.83056 1.5365,0 2.6786,0.8098 1.142,0.8098 1.142,2.05565 0,1.22508 -0.8098,2.24252 -0.8098,0.99668 -2.0972,1.41196 1.5781,0.31146 2.5125,1.39119 0.9551,1.05897 0.9551,2.36711 0,1.6196 -1.2874,2.82392 -1.2666,1.18356 -3.1353,1.18356 -1.7235,0 -2.9693,-0.93439 -1.2251,-0.93438 -1.2251,-2.32558 z"
         style="font-variant:normal;font-weight:normal;font-size:20.76411247px;font-family:'CMU Serif';-inkscape-font-specification:CMUSerif-Roman;writing-mode:lr-tb;fill:#000000;fill-opacity:1;fill-rule:nonzero;stroke:none"
         id="path14842" />
    </g>
    <text
       id="text15253"
       style="font-variant:normal;font-weight:normal;font-size:20.76411247px;font-family:'CMU Serif';-inkscape-font-specification:CMUSerif-Roman;writing-mode:lr-tb;fill:#000000;fill-opacity:1;fill-rule:nonzero;stroke:none"
       x="1614.3391"
       y="872.82733">1</text>
    <text
       id="text15259"
       style="font-variant:normal;font-weight:normal;font-size:20.76411247px;font-family:'CMU Serif';-inkscape-font-specification:CMUSerif-Roman;writing-mode:lr-tb;fill:#000100;fill-opacity:1;fill-rule:nonzero;stroke:none"
       x="1625.1813"
       y="903.60492">2</text>
    <text
       y="934.15411"
       x="1635.9299"
       style="font-variant:normal;font-weight:normal;font-size:20.76411247px;font-family:'CMU Serif';-inkscape-font-specification:CMUSerif-Roman;writing-mode:lr-tb;fill:#000000;fill-opacity:1;fill-rule:nonzero;stroke:none"
       id="text15261">
      <tspan
         x="1635.9299"
         y="934.15411"
         id="tspan15263">5</tspan>
    </text>
    <text
       id="text15269"
       style="font-variant:normal;font-weight:normal;font-size:20.76411247px;font-family:'CMU Serif';-inkscape-font-specification:CMUSerif-Roman;writing-mode:lr-tb;fill:#000000;fill-opacity:1;fill-rule:nonzero;stroke:none"
       x="1641.3042"
       y="949.8855">4</text>
    <text
       id="text15271"
       style="font-variant:normal;font-weight:normal;font-size:20.76411247px;font-family:'CMU Serif';-inkscape-font-specification:CMUSerif-Roman;writing-mode:lr-tb;fill:#000100;fill-opacity:1;fill-rule:nonzero;stroke:none"
       x="1646.6786"
       y="965.16003">2</text>
    <text
       y="1080.2209"
       x="1633.9271"
       style="font-variant:normal;font-weight:normal;font-size:24px;font-family:'CMU Serif';-inkscape-font-specification:CMUSerif-Roman;writing-mode:lr-tb;fill:#000000;fill-opacity:1;fill-rule:nonzero;stroke:none"
       id="text15336">
      <tspan
         sodipodi:role="line"
         id="tspan15338"
         x="1633.9271"
         y="1080.2209">(3,1)</tspan>
    </text>
  </g>
</svg>
