<?xml version="1.0" encoding="UTF-8" standalone="no"?>
<!-- Created with Inkscape (http://www.inkscape.org/) -->

<svg
   xmlns:dc="http://purl.org/dc/elements/1.1/"
   xmlns:cc="http://creativecommons.org/ns#"
   xmlns:rdf="http://www.w3.org/1999/02/22-rdf-syntax-ns#"
   xmlns:svg="http://www.w3.org/2000/svg"
   xmlns="http://www.w3.org/2000/svg"
   xmlns:sodipodi="http://sodipodi.sourceforge.net/DTD/sodipodi-0.dtd"
   xmlns:inkscape="http://www.inkscape.org/namespaces/inkscape"
   width="39.579269mm"
   height="39.201286mm"
   viewBox="0 0 140.24151 138.90219"
   id="svg4788"
   version="1.1"
   inkscape:version="0.91 r13725"
   sodipodi:docname="pavages_hexagone.svg">
  <defs
     id="defs4790" />
  <sodipodi:namedview
     id="base"
     pagecolor="#ffffff"
     bordercolor="#666666"
     borderopacity="1.0"
     inkscape:pageopacity="0.0"
     inkscape:pageshadow="2"
     inkscape:zoom="1.4"
     inkscape:cx="73.500865"
     inkscape:cy="20.120167"
     inkscape:document-units="px"
     inkscape:current-layer="layer1"
     showgrid="false"
     inkscape:window-width="1600"
     inkscape:window-height="900"
     inkscape:window-x="0"
     inkscape:window-y="0"
     inkscape:window-maximized="0"
     fit-margin-top="0"
     fit-margin-left="0"
     fit-margin-right="0"
     fit-margin-bottom="0" />
  <metadata
     id="metadata4793">
    <rdf:RDF>
      <cc:Work
         rdf:about="">
        <dc:format>image/svg+xml</dc:format>
        <dc:type
           rdf:resource="http://purl.org/dc/dcmitype/StillImage" />
        <dc:title></dc:title>
      </cc:Work>
    </rdf:RDF>
  </metadata>
  <g
     inkscape:label="Calque 1"
     inkscape:groupmode="layer"
     id="layer1"
     transform="translate(-207.82015,-202.91111)">
    <g
       id="g7623"
       transform="translate(-307.71439,5.3729656)">
      <path
         id="path7383"
         d="m 580.52889,315.41718 -4.29789,-0.10265 -4.56489,-7.98783 -4.56489,-7.98784 -9.1218,-0.003 c -5.01698,-0.002 -9.29398,-0.0509 -9.50444,-0.10988 -0.26257,-0.0736 -1.82358,-2.63423 -4.97446,-8.15995 -2.52549,-4.42897 -4.61716,-8.15489 -4.64815,-8.27983 -0.031,-0.12494 1.96229,-3.68848 4.42955,-7.91898 l 4.48589,-7.69182 -4.59642,-8.04154 c -3.98158,-6.96584 -4.56973,-8.09696 -4.39685,-8.45593 0.10976,-0.22792 2.25781,-3.93434 4.77341,-8.23648 l 4.57385,-7.82207 9.25923,-0.0223 9.25923,-0.0223 4.64014,-7.94 c 2.55207,-4.367 4.66598,-8.01106 4.69759,-8.09792 0.0316,-0.0868 4.37798,-0.0954 9.65862,-0.0189 l 9.60115,0.13899 4.62458,8.10242 4.6246,8.10242 9.21418,0 9.21419,0 4.25835,7.45321 c 2.34209,4.09927 4.46796,7.82827 4.72417,8.28669 l 0.46583,0.83347 -4.51908,7.73681 c -2.48551,4.25525 -4.51805,7.82291 -4.51677,7.92814 0.002,0.10523 2.07959,3.81773 4.6185,8.24999 2.5389,4.43226 4.61618,8.19317 4.61618,8.35757 0,0.1644 -2.10056,3.89924 -4.66792,8.29965 l -4.66792,8.00075 -9.39662,0.0957 -9.39662,0.0957 -4.47397,7.65301 -4.47397,7.65301 -5.32933,0.007 c -2.93113,0.004 -7.26338,-0.0392 -9.62725,-0.0957 z"
         style="opacity:0.39100001;fill:#000000"
         inkscape:connector-curvature="0" />
      <path
         id="path7381"
         d="m 599.47674,307.24311 4.37629,-7.49744 -2.32222,-4.07774 c -1.27723,-2.24276 -2.3444,-4.10698 -2.37149,-4.14271 -0.0271,-0.0357 -2.16506,1.08353 -4.75105,2.48723 l -4.7018,2.5522 0.1119,0.77939 c 0.23445,1.63315 -1.08124,3.20655 -2.68135,3.20655 -1.44299,0 -2.78736,-1.19759 -2.78939,-2.48486 0,-0.52093 -0.25802,-0.67675 -5.95205,-3.60566 -3.27318,-1.68367 -6.01786,-3.08657 -6.09928,-3.11756 -0.0814,-0.031 -1.14905,1.65748 -2.37242,3.75217 l -2.22433,3.80853 4.5458,7.96569 4.54579,7.96569 9.15465,-0.047 9.15467,-0.047 4.37628,-7.49744 z"
         style="opacity:0.39100001;fill:#000000"
         inkscape:connector-curvature="0" />
      <path
         id="path7379"
         d="m 627.20538,291.77514 c 2.47288,-4.25704 4.52098,-7.85412 4.55132,-7.99351 0.0304,-0.13939 -1.95963,-3.77747 -4.4222,-8.08461 l -4.47737,-7.83118 -3.46998,-0.0521 -3.46997,-0.0521 0.005,6.17456 0.005,6.17456 0.7243,0.33335 c 0.80768,0.37171 1.56173,1.50268 1.56173,2.34234 0,0.81025 -0.56303,1.79922 -1.31538,2.31045 -1.17636,0.79936 -2.74049,0.53869 -3.64159,-0.6069 l -0.39897,-0.50719 -1.20893,0.64686 c -6.87574,3.67902 -11.79165,6.42132 -11.79178,6.57796 -8e-5,0.10523 1.01262,1.9563 2.25046,4.11349 l 2.25064,3.92217 5.34934,0.10023 c 2.94215,0.0551 7.07127,0.11632 9.17585,0.136 l 3.82651,0.0358 4.49615,-7.74007 z"
         style="opacity:0.39100001;fill:#000000"
         inkscape:connector-curvature="0" />
      <path
         id="path7377"
         d="m 569.18401,294.69233 c 1.21239,-2.08207 2.17158,-3.81432 2.13151,-3.84946 -0.04,-0.0351 -2.63679,-1.37491 -5.77052,-2.97727 -4.82642,-2.46787 -5.74319,-2.87566 -5.99503,-2.66664 -0.49674,0.41225 -2.02748,0.30664 -2.72183,-0.18779 -1.64182,-1.16907 -1.56288,-3.66532 0.14774,-4.67224 l 0.58731,-0.3457 -0.10198,-4.53309 c -0.0561,-2.4932 -0.15053,-5.41558 -0.20986,-6.49417 l -0.10789,-1.96109 -4.23857,0.008 -4.23858,0.008 -4.55666,7.84607 -4.55665,7.84608 4.5498,7.93236 4.54979,7.93236 9.16353,-0.0496 9.16353,-0.0497 2.20436,-3.78557 z"
         style="opacity:0.39100001;fill:#000000"
         inkscape:connector-curvature="0" />
      <path
         id="path7375"
         d="m 584.90253,296.12357 c 0.10169,-0.18998 0.49215,-0.5109 0.8677,-0.71315 l 0.68284,-0.36773 0,-5.85818 0,-5.85817 -2.32594,-0.12507 c -1.27928,-0.0688 -3.42229,-0.12506 -4.76228,-0.12506 l -2.43632,0 -2.13154,3.66097 c -1.17236,2.01353 -2.08123,3.71128 -2.01974,3.77277 0.22416,0.22416 11.48241,5.94974 11.708,5.95432 0.12785,0.003 0.31561,-0.15072 0.41728,-0.3407 z"
         style="opacity:0.39100001;fill:#000000"
         inkscape:connector-curvature="0" />
      <path
         id="path7373"
         d="m 593.96958,293.22722 4.71372,-2.57212 -0.35302,-0.58474 c -1.23592,-2.04719 -3.65022,-6.40222 -3.65022,-6.58444 0,-0.15597 -1.03903,-0.21839 -3.63518,-0.21839 l -3.63518,0 0,5.93109 c 0,5.51948 0.0232,5.93138 0.33482,5.93534 0.18415,0.002 0.55006,0.17249 0.81313,0.37812 0.26307,0.20563 0.52779,0.35438 0.58827,0.33057 0.0605,-0.0238 2.23112,-1.20076 4.82366,-2.61543 z"
         style="opacity:0.39100001;fill:#000000"
         inkscape:connector-curvature="0" />
      <path
         id="path7371"
         d="m 606.59007,286.32994 c 5.61909,-3.05265 6.07458,-3.33821 6.07458,-3.80832 0,-0.27952 0.13793,-0.70514 0.3065,-0.94581 0.16858,-0.24068 0.2762,-0.46165 0.23916,-0.49105 -0.25125,-0.19939 -12.63915,-6.44801 -12.68066,-6.39628 -0.1559,0.19422 -4.93333,8.46165 -5.0196,8.68646 -0.0976,0.25432 0.37389,1.1467 2.7518,5.20826 l 1.03985,1.77614 0.6069,-0.36465 c 0.33379,-0.20056 3.34045,-1.8497 6.68147,-3.66475 z"
         style="opacity:0.39100001;fill:#000000"
         inkscape:connector-curvature="0" />
      <path
         id="path7369"
         d="m 574.00475,286.42794 c 1.9048,-3.26474 2.08673,-3.657 1.86032,-4.01131 -0.138,-0.21599 -1.09542,-1.87994 -2.12754,-3.69767 -1.03214,-1.81773 -1.9475,-3.34878 -2.03415,-3.40233 -0.0866,-0.0535 -2.52848,1.34759 -5.42631,3.11364 l -5.26878,3.211 0.11103,0.71327 c 0.0733,0.47066 0.005,0.9253 -0.19996,1.33665 -0.17104,0.34286 -0.24287,0.6507 -0.1596,0.68409 0.0833,0.0334 2.60512,1.33229 5.60415,2.88646 2.99902,1.55416 5.47007,2.81653 5.49119,2.80527 0.0211,-0.0113 0.98848,-1.64885 2.14965,-3.63907 z"
         style="opacity:0.39100001;fill:#000000"
         inkscape:connector-curvature="0" />
      <path
         id="path7367"
         d="m 586.45307,275.44711 0,-7.05512 -0.59008,-0.11802 c -0.32453,-0.0649 -0.8215,-0.28281 -1.10437,-0.48422 l -0.51428,-0.36621 -5.73552,3.52982 c -3.15453,1.94141 -5.85222,3.59917 -5.99485,3.68392 -0.19912,0.1183 0.19446,0.94951 1.69466,3.57904 1.07471,1.88372 2.0759,3.61867 2.22485,3.85543 0.26931,0.42808 0.29808,0.43048 5.14522,0.43048 l 4.87437,0 0,-7.05512 z"
         style="opacity:0.39100001;fill:#000000"
         inkscape:connector-curvature="0" />
      <path
         id="path7365"
         d="m 597.52945,278.46527 c 1.40839,-2.41463 2.28495,-4.10669 2.18117,-4.21046 -0.3291,-0.32911 -12.01252,-6.25764 -12.15655,-6.16862 -0.0794,0.0491 -0.14437,3.31276 -0.14437,7.25263 l 0,7.16341 3.88255,0 3.88254,0 2.35466,-4.03696 z"
         style="opacity:0.39100001;fill:#000000"
         inkscape:connector-curvature="0" />
      <path
         id="path7363"
         d="m 566.07692,277.52796 c 2.63072,-1.6082 4.86049,-2.99351 4.95502,-3.07848 0.0972,-0.0873 -0.73015,-1.73896 -1.90321,-3.79954 l -2.07508,-3.64506 -4.45248,0 -4.45249,0 0.0953,3.77868 c 0.20556,8.14865 0.28177,9.23144 0.64982,9.23144 0.18396,0 0.62701,0.20416 0.98456,0.45368 0.54903,0.38314 0.70959,0.4171 1.03275,0.21847 0.21046,-0.12935 2.53507,-1.55099 5.16579,-3.15919 z"
         style="opacity:0.39100001;fill:#000000"
         inkscape:connector-curvature="0" />
      <path
         id="path7361"
         d="m 614.46979,280.21106 0.49076,-0.18659 0,-6.12714 0,-6.12715 -5.21361,0.005 -5.21362,0.005 -1.74768,3.00884 -1.74768,3.00884 0.79105,0.4151 c 4.13931,2.17209 11.9154,6.16756 12.01897,6.17553 0.0721,0.006 0.35188,-0.0739 0.62181,-0.1765 z"
         style="opacity:0.39100001;fill:#000000"
         inkscape:connector-curvature="0" />
      <path
         id="path7359"
         d="m 577.76384,270.34942 c 3.0428,-1.86352 5.62122,-3.45946 5.72981,-3.54652 0.1086,-0.0871 0.16554,-0.48619 0.12653,-0.88695 l -0.0709,-0.72866 -5.70442,-2.91747 -5.70445,-2.91747 -2.15468,3.68277 c -1.18509,2.02553 -2.15157,3.76887 -2.14775,3.8741 0.017,0.46901 3.94477,7.00063 4.16011,6.918 0.12838,-0.0493 2.72298,-1.61427 5.76578,-3.4778 z"
         style="opacity:0.39100001;fill:#000000"
         inkscape:connector-curvature="0" />
      <path
         id="path7357"
         d="m 602.30538,270.29562 1.71605,-2.92733 -2.153,-3.76906 c -1.18414,-2.07298 -2.2335,-3.91758 -2.33188,-4.09911 -0.15635,-0.28846 -0.81573,0.0612 -5.23223,2.77422 -4.70109,2.88788 -5.06538,3.15094 -5.22594,3.7739 -0.0949,0.3683 -0.26449,0.78091 -0.37681,0.91691 -0.13056,0.15807 -0.13793,0.31356 -0.0205,0.43104 0.37833,0.37832 11.64852,6.07749 11.77562,5.95476 0.0729,-0.0704 0.90482,-1.4453 1.84865,-3.05533 z"
         style="opacity:0.39100001;fill:#000000"
         inkscape:connector-curvature="0" />
      <path
         id="path7355"
         d="m 614.96055,260.21282 0,-6.98337 -0.81313,-0.001 c -0.85916,-0.001 -1.58293,-0.37152 -2.1874,-1.11881 l -0.36434,-0.45042 -5.5401,3.39265 c -3.04705,1.86596 -5.65852,3.50313 -5.80328,3.63816 -0.22054,0.20572 0.10609,0.89155 2.01567,4.23247 l 2.27884,3.98697 2.00218,0.10604 c 1.10119,0.0583 3.44428,0.1229 5.20686,0.1435 l 3.2047,0.0375 0,-6.98338 z"
         style="opacity:0.39100001;fill:#000000"
         inkscape:connector-curvature="0" />
      <path
         id="path7353"
         d="m 626.92882,259.30772 4.59994,-7.88848 -4.49944,-7.87393 -4.49944,-7.87394 -8.61563,-0.13883 c -4.73859,-0.0764 -8.82957,-0.10775 -9.09105,-0.0698 -0.3877,0.0563 -0.79106,0.61148 -2.18574,3.00836 -1.35789,2.33366 -1.65414,2.97204 -1.43781,3.0982 0.14984,0.0874 2.72621,1.66091 5.72524,3.49669 4.87903,2.98657 5.49333,3.31246 5.83824,3.09714 1.04195,-0.65052 2.6598,-0.4795 3.39558,0.35895 1.01741,1.15937 1.09949,2.53208 0.22068,3.6901 l -0.46221,0.60904 0,7.18747 0,7.18747 3.20583,0 3.20585,0 4.59996,-7.88848 z"
         style="opacity:0.39100001;fill:#000000"
         inkscape:connector-curvature="0" />
      <path
         id="path7351"
         d="m 557.11484,262.18401 c -0.0692,-2.22299 -0.12588,-5.13411 -0.12588,-6.46916 l 0,-2.42736 -0.73463,-0.28857 c -2.85828,-1.12277 -2.10039,-5.31791 0.96074,-5.31791 0.8108,0 1.53927,0.33032 2.01246,0.91252 0.19528,0.24028 1.03979,-0.2121 5.6441,-3.0233 2.97794,-1.81823 5.47535,-3.35768 5.54979,-3.421 0.0745,-0.0633 -0.70821,-1.57815 -1.73922,-3.36626 l -1.87457,-3.25112 -2.18295,-0.11832 c -1.20062,-0.0651 -5.29334,-0.12965 -9.09492,-0.1435 l -6.91197,-0.0252 -1.04846,1.76976 c -0.57668,0.97337 -2.65566,4.53301 -4.61999,7.91032 l -3.57149,6.14055 4.13754,7.25222 c 2.27566,3.98872 4.24572,7.42441 4.37793,7.63487 0.23104,0.36781 0.41701,0.38053 4.79388,0.32794 l 4.55351,-0.0547 -0.12587,-4.0418 z"
         style="opacity:0.39100001;fill:#000000"
         inkscape:connector-curvature="0" />
      <path
         id="path7349"
         d="m 569.26769,262.60439 c 1.81392,-3.10929 2.02784,-3.5672 1.75989,-3.76723 -0.56208,-0.41962 -11.91108,-6.18177 -12.16334,-6.17561 -0.13695,0.003 -0.40928,0.12748 -0.60516,0.27585 -0.40242,0.30481 -0.42689,1.4945 -0.19001,9.2399 l 0.12446,4.06906 4.50462,-0.0512 4.50462,-0.0512 2.06492,-3.53952 z"
         style="opacity:0.39100001;fill:#000000"
         inkscape:connector-curvature="0" />
      <path
         id="path7347"
         d="m 596.27828,260.00218 c 1.35256,-0.83121 2.45547,-1.59738 2.45096,-1.70261 -0.005,-0.10523 -0.85287,-1.67577 -1.88521,-3.49008 l -1.87698,-3.29876 -4.16132,-0.002 -4.16133,-0.002 0,5.60566 0,5.60566 0.66924,0.242 c 0.36807,0.1331 0.89006,0.53152 1.15996,0.88538 l 0.49073,0.64339 2.42739,-1.48807 c 1.33507,-0.81844 3.53401,-2.16815 4.88656,-2.99936 z"
         style="opacity:0.39100001;fill:#000000"
         inkscape:connector-curvature="0" />
      <path
         id="path7345"
         d="m 584.19436,263.84418 c 0.20858,-0.26518 0.62994,-0.61177 0.93633,-0.77022 l 0.55708,-0.28807 0,-5.64265 0,-5.64265 -4.51518,0.0513 -4.51519,0.0513 -1.99959,3.42458 c -1.09976,1.88352 -1.93065,3.49118 -1.84637,3.57257 0.13238,0.12788 10.75147,5.67472 10.93555,5.71214 0.0375,0.008 0.23879,-0.20312 0.44737,-0.46829 z"
         style="opacity:0.39100001;fill:#000000"
         inkscape:connector-curvature="0" />
      <path
         id="path7343"
         d="m 573.9862,254.52761 c 0.96395,-1.65366 1.75265,-3.09815 1.75265,-3.20997 0,-0.15651 -4.44701,-8.09935 -4.69618,-8.38788 -0.0303,-0.0351 -2.54564,1.46532 -5.58966,3.33423 l -5.53459,3.39801 -0.0126,0.83463 c -0.007,0.45905 -0.10535,0.94635 -0.21867,1.0829 -0.16188,0.19504 1.11525,0.92762 5.95718,3.41712 5.44851,2.80137 6.18793,3.13224 6.37623,2.85323 0.11713,-0.17359 1.00168,-1.66861 1.96564,-3.32227 z"
         style="opacity:0.39100001;fill:#000000"
         inkscape:connector-curvature="0" />
      <path
         id="path7341"
         d="m 606.22443,253.90221 c 4.65609,-2.85879 5.29261,-3.30727 5.2952,-3.73084 0.002,-0.26479 0.0808,-0.60448 0.17596,-0.75487 0.1359,-0.21474 -1.00425,-0.99064 -5.31221,-3.61507 -3.01688,-1.83791 -5.61044,-3.3507 -5.76347,-3.36176 -0.22102,-0.016 -3.5552,5.3504 -5.00071,8.04864 -0.2305,0.43029 -0.10922,0.67311 3.11505,6.23713 l 0.75086,1.29576 0.72351,-0.43479 c 0.39794,-0.23914 3.10504,-1.89703 6.01581,-3.6842 z"
         style="opacity:0.39100001;fill:#000000"
         inkscape:connector-curvature="0" />
      <path
         id="path7339"
         d="m 585.68777,243.48475 0,-7.4488 -0.43048,-0.13366 c -0.23677,-0.0735 -0.66815,-0.30105 -0.95864,-0.50566 l -0.52813,-0.372 -6.02436,3.69747 c -3.31337,2.0336 -6.02218,3.78356 -6.01954,3.88879 0.003,0.10523 1.01759,1.9563 2.25541,4.11349 l 2.25057,3.92217 4.67975,0.1008 c 2.57388,0.0554 4.70128,0.12002 4.72759,0.1435 0.0263,0.0235 0.0478,-3.30927 0.0478,-7.4061 z"
         style="opacity:0.39100001;fill:#000000"
         inkscape:connector-curvature="0" />
      <path
         id="path7337"
         d="m 597.16729,246.49769 c 1.4206,-2.43735 2.60612,-4.48626 2.6345,-4.55312 0.0284,-0.0669 -2.53223,-1.69271 -5.69025,-3.61299 l -5.74185,-3.4914 -0.64155,0.48933 c -0.35286,0.26913 -0.74104,0.48933 -0.86265,0.48933 -0.1635,0 -0.22109,1.96824 -0.22109,7.55735 l 0,7.55735 3.97,-0.002 3.97,-0.002 2.58289,-4.43155 z"
         style="opacity:0.39100001;fill:#000000"
         inkscape:connector-curvature="0" />
      <path
         id="path7333"
         d="m 577.36778,237.88849 5.9783,-3.67011 -0.0944,-0.70373 c -0.19997,-1.49086 0.98891,-2.85976 2.60402,-2.99834 1.55163,-0.13314 2.89094,1.12608 2.89265,2.71964 l 0,0.7653 5.66753,3.44385 c 3.11715,1.89413 5.74518,3.44386 5.84006,3.44386 0.0949,0 0.93253,-1.30205 1.86146,-2.89345 l 1.68894,-2.89344 -4.54191,-7.91644 -4.54191,-7.91643 -9.15329,0 -9.1533,0 -4.36822,7.46169 c -2.40252,4.10392 -4.45724,7.64276 -4.56602,7.86408 -0.16739,0.34052 0.0907,0.90685 1.67853,3.68302 1.03199,1.80433 1.95556,3.28061 2.05239,3.28061 0.0968,0 2.86626,-1.65155 6.15434,-3.67011 z"
         style="opacity:0.39100001;fill:#000000"
         inkscape:connector-curvature="0" />
    </g>
  </g>
</svg>
