<?xml version="1.0" encoding="UTF-8" standalone="no"?>
<!-- Created with Inkscape (http://www.inkscape.org/) -->

<svg
   xmlns:dc="http://purl.org/dc/elements/1.1/"
   xmlns:cc="http://creativecommons.org/ns#"
   xmlns:rdf="http://www.w3.org/1999/02/22-rdf-syntax-ns#"
   xmlns:svg="http://www.w3.org/2000/svg"
   xmlns="http://www.w3.org/2000/svg"
   xmlns:sodipodi="http://sodipodi.sourceforge.net/DTD/sodipodi-0.dtd"
   xmlns:inkscape="http://www.inkscape.org/namespaces/inkscape"
   width="39.579269mm"
   height="39.201286mm"
   viewBox="0 0 140.24151 138.90219"
   id="svg4788"
   version="1.1"
   inkscape:version="0.91 r13725"
   sodipodi:docname="pavages_carré.svg">
  <defs
     id="defs4790" />
  <sodipodi:namedview
     id="base"
     pagecolor="#ffffff"
     bordercolor="#666666"
     borderopacity="1.0"
     inkscape:pageopacity="0.0"
     inkscape:pageshadow="2"
     inkscape:zoom="1.4"
     inkscape:cx="227.75699"
     inkscape:cy="46.450156"
     inkscape:document-units="px"
     inkscape:current-layer="layer1"
     showgrid="false"
     inkscape:window-width="1600"
     inkscape:window-height="900"
     inkscape:window-x="0"
     inkscape:window-y="0"
     inkscape:window-maximized="0"
     fit-margin-top="0"
     fit-margin-left="0"
     fit-margin-right="0"
     fit-margin-bottom="0" />
  <metadata
     id="metadata4793">
    <rdf:RDF>
      <cc:Work
         rdf:about="">
        <dc:format>image/svg+xml</dc:format>
        <dc:type
           rdf:resource="http://purl.org/dc/dcmitype/StillImage" />
        <dc:title></dc:title>
      </cc:Work>
    </rdf:RDF>
  </metadata>
  <g
     inkscape:label="Calque 1"
     inkscape:groupmode="layer"
     id="layer1"
     transform="translate(-207.82015,-202.91111)">
    <g
       id="g7541">
      <path
         id="path7539"
         d="m 238.81486,332.43837 0,-9.37494 -10.14024,0 -10.14025,0 0,-8.70531 0,-8.7053 -4.68747,0 -4.68747,0 0,-0.57398 0,-0.57397 4.68747,0 4.68747,0 0,-19.32386 0,-19.32386 -5.26145,0 -5.26144,0 0,-0.57398 0,-0.57397 5.26144,0 5.26145,0 0,-17.50627 0,-17.50627 -5.35711,0 -5.35711,0 0,-0.57398 0,-0.57397 5.35711,0 5.35711,0 0,-9.27928 0,-9.27928 10.5229,0 10.52289,0 0,-3.53952 0,-3.53952 0.57398,0 0.57398,0 0,3.53952 0,3.53952 17.69759,0 17.6976,0 0,-3.53952 0,-3.53952 0.57398,0 0.57397,0 0,3.53952 0,3.53952 18.27158,0 18.27157,0 0,-3.53952 0,-3.53952 0.57398,0 0.57397,0 0,3.53952 0,3.53952 8.51398,0 8.51398,0 0,9.27928 0,9.27928 7.36603,0 7.36603,0 0,0.57397 0,0.57398 -7.36603,0 -7.36603,0 0,17.50627 0,17.50627 7.46169,0 7.46169,0 0,0.57397 0,0.57398 -7.46169,0 -7.46169,0 0,19.32386 0,19.32386 8.03567,0 8.03567,0 0,0.57397 0,0.57398 -8.03567,0 -8.03567,0 0,8.7053 0,8.70531 -8.89663,0 -8.89663,0 0,9.37494 0,9.37494 -0.57397,0 -0.57398,0 0,-9.37494 0,-9.37494 -18.14991,0 -18.1499,0 -0.12167,0.88766 c -0.0669,0.48822 -0.12167,4.70695 -0.12167,9.37494 l 0,8.48728 -0.58696,0 -0.58697,0 0.0608,-9.37503 0.0608,-9.37503 -17.74543,9e-5 -17.74542,9e-5 0,9.37494 0,9.37494 -0.57398,0 -0.57398,0 0,-9.37494 z"
         style="opacity:0.39100001;fill:#000000"
         inkscape:connector-curvature="0" />
      <path
         id="path7537"
         d="m 238.88326,321.12211 c 0.0676,-0.64681 0.1207,-3.8539 0.11798,-7.12687 l -0.005,-5.95085 -0.75205,-0.3466 c -0.74893,-0.34517 -1.53399,-1.32985 -1.53399,-1.92406 0,-0.28419 -0.78194,-0.31224 -8.7053,-0.31224 l -8.70531,0 0,8.41832 0,8.41831 9.73034,0 9.73034,0 0.12292,-1.17601 z"
         style="opacity:0.39100001;fill:#000000"
         inkscape:connector-curvature="0" />
      <path
         id="path7535"
         d="m 255.84281,313.87981 0,-8.41832 -6.7831,0 -6.78309,0 -0.3673,0.83034 c -0.2244,0.50729 -0.6263,0.99041 -1.03301,1.24177 -0.64276,0.39725 -0.66999,0.46199 -0.78961,1.87709 -0.0681,0.80611 -0.12389,4.03555 -0.12389,7.17654 l 0,5.71089 7.94,0 7.94,0 0,-8.41831 z"
         style="opacity:0.39100001;fill:#000000"
         inkscape:connector-curvature="0" />
      <path
         id="path7533"
         d="m 275.54933,315.15548 0,-7.14265 -0.70982,-0.46253 c -0.4043,-0.26346 -0.87772,-0.81252 -1.09991,-1.27567 l -0.3901,-0.81314 -8.37069,0 -8.3707,0 0,8.41832 0,8.41831 9.47061,0 9.47061,0 0,-7.14264 z"
         style="opacity:0.39100001;fill:#000000"
         inkscape:connector-curvature="0" />
      <path
         id="path7531"
         d="m 293.53391,313.87981 0,-8.41832 -7.22253,0.007 -7.22253,0.007 -0.38266,0.80592 c -0.31936,0.67263 -1.13151,1.44085 -1.79974,1.70238 -0.0853,0.0334 -0.20155,3.26781 -0.25828,7.18759 l -0.10315,7.12687 8.49445,0 8.49444,0 0,-8.41832 z"
         style="opacity:0.39100001;fill:#000000"
         inkscape:connector-curvature="0" />
      <path
         id="path7529"
         d="m 313.24043,315.1324 0,-7.16572 -0.66663,-0.31634 c -0.67922,-0.32231 -1.43795,-1.3125 -1.43795,-1.87661 0,-0.28403 -0.76037,-0.31224 -8.41832,-0.31224 l -8.41832,0 0,8.41832 0,8.41831 9.47061,0 9.47061,0 0,-7.16572 z"
         style="opacity:0.39100001;fill:#000000"
         inkscape:connector-curvature="0" />
      <path
         id="path7527"
         d="m 331.22501,313.87981 0,-8.41832 -7.27637,0 c -6.76156,0 -7.28394,0.0237 -7.38337,0.33482 -0.27573,0.86276 -0.61099,1.30394 -1.33452,1.75618 l -0.7839,0.48998 -0.12446,4.40144 c -0.0685,2.42079 -0.12465,5.62832 -0.1249,7.12783 l -4.4e-4,2.72638 8.51398,0 8.51398,0 0,-8.41831 z"
         style="opacity:0.39100001;fill:#000000"
         inkscape:connector-curvature="0" />
      <path
         id="path7525"
         d="m 237.1087,303.80178 c 0.2544,-0.3867 0.7854,-0.86867 1.18001,-1.07105 l 0.71747,-0.36796 0,-5.30779 c 0,-2.91929 0.0566,-6.74214 0.12571,-8.49522 l 0.1257,-3.18743 -9.97896,0 -9.97897,0 0,9.56627 0,9.56627 8.67325,0 8.67325,0 0.46254,-0.70309 z"
         style="opacity:0.39100001;fill:#000000"
         inkscape:connector-curvature="0" />
      <path
         id="path7523"
         d="m 255.84281,294.9386 0,-9.56627 -7.84434,0 -7.84434,0 0,8.56614 0,8.56613 0.65006,0.35008 c 0.35753,0.19254 0.80759,0.6426 1.00013,1.00013 l 0.35008,0.65006 6.84421,0 6.8442,0 0,-9.56627 z"
         style="opacity:0.39100001;fill:#000000"
         inkscape:connector-curvature="0" />
      <path
         id="path7521"
         d="m 273.63607,304.2542 c 0,-0.31862 1.06888,-1.42038 1.51552,-1.56214 0.29623,-0.094 0.35388,-0.46751 0.46368,-3.00421 0.069,-1.59326 0.12538,-5.46604 0.12538,-8.60618 l 0,-5.70934 -9.56627,0 -9.56627,0 0,9.56627 0,9.56627 8.51398,0 c 6.89215,0 8.51398,-0.0478 8.51398,-0.25067 z"
         style="opacity:0.39100001;fill:#000000"
         inkscape:connector-curvature="0" />
      <path
         id="path7519"
         d="m 293.53391,294.9386 0,-9.56627 -8.2938,0 -8.29379,0 -0.12353,1.86543 c -0.0679,1.02598 -0.12398,4.85323 -0.12452,8.505 l -9.6e-4,6.63958 0.67341,0.31955 c 0.65704,0.31178 1.43117,1.17365 1.43117,1.59336 0,0.14831 2.15427,0.20962 7.36603,0.20962 l 7.36602,0 0,-9.56627 z"
         style="opacity:0.39100001;fill:#000000"
         inkscape:connector-curvature="0" />
      <path
         id="path7517"
         d="m 311.53427,303.80084 c 0.2544,-0.38722 0.7404,-0.83923 1.08,-1.00446 l 0.61747,-0.30043 0.004,-2.21684 c 0.002,-1.21926 0.0613,-5.07207 0.13095,-8.56181 l 0.12661,-6.34497 -9.59721,0 -9.59722,0 0,9.56627 0,9.56627 8.38627,0 8.38626,0 0.46253,-0.70403 z"
         style="opacity:0.39100001;fill:#000000"
         inkscape:connector-curvature="0" />
      <path
         id="path7515"
         d="m 331.22501,294.9386 0,-9.56627 -8.41831,0 -8.41832,0 0.005,8.56181 0.005,8.56181 0.73123,0.33666 c 0.44282,0.20387 0.87307,0.60004 1.09086,1.00445 l 0.35963,0.66781 7.32252,0 7.32252,0 0,-9.56627 z"
         style="opacity:0.39100001;fill:#000000"
         inkscape:connector-curvature="0" />
      <path
         id="path7513"
         d="m 239.19603,276.52354 -0.002,-8.27482 -0.74586,-0.42586 c -0.47631,-0.27195 -0.87336,-0.70232 -1.09865,-1.19085 l -0.35273,-0.76499 -8.8488,-0.005 -8.8488,-0.005 0,9.4706 0,9.47061 9.94892,0 9.94892,0 -0.002,-8.27482 z"
         style="opacity:0.39100001;fill:#000000"
         inkscape:connector-curvature="0" />
      <path
         id="path7511"
         d="m 255.84281,275.32775 0,-9.4706 -6.59816,0 -6.59815,0 -0.26926,0.64442 c -0.26539,0.63515 -1.37969,1.65148 -1.81069,1.65148 -0.15962,0 -0.22109,1.0287 -0.22109,3.69987 0,2.03492 -0.0568,5.78011 -0.12627,8.32265 l -0.12626,4.62279 7.87494,0 7.87494,0 0,-9.47061 z"
         style="opacity:0.39100001;fill:#000000"
         inkscape:connector-curvature="0" />
      <path
         id="path7509"
         d="m 275.73339,276.52354 -0.007,-8.27482 -0.72381,-0.49996 c -0.3981,-0.27498 -0.87241,-0.81308 -1.05401,-1.19579 l -0.3302,-0.69582 -8.505,0 -8.50501,0 0,9.4706 0,9.47061 9.56627,0 9.56627,0 -0.007,-8.27482 z"
         style="opacity:0.39100001;fill:#000000"
         inkscape:connector-curvature="0" />
      <path
         id="path7507"
         d="m 293.53391,275.32775 0,-9.4706 -7.12687,0.009 -7.12687,0.009 -0.3911,0.79575 c -0.27491,0.55936 -0.6275,0.91195 -1.18685,1.18686 l -0.79576,0.39109 -0.009,8.27482 -0.009,8.27482 8.32266,0 8.32265,0 0,-9.47061 z"
         style="opacity:0.39100001;fill:#000000"
         inkscape:connector-curvature="0" />
      <path
         id="path7505"
         d="m 313.42282,276.52354 -0.009,-8.27482 -0.79576,-0.3911 c -0.55935,-0.27491 -0.91194,-0.6275 -1.18685,-1.18686 l -0.3911,-0.79575 -8.37048,-0.009 -8.37049,-0.009 0,9.4706 0,9.47061 9.56627,0 9.56627,0 -0.009,-8.27482 z"
         style="opacity:0.39100001;fill:#000000"
         inkscape:connector-curvature="0" />
      <path
         id="path7503"
         d="m 331.22501,275.32775 0,-9.4706 -7.36602,0 c -7.14784,0 -7.36603,0.0109 -7.36603,0.36903 0,0.37155 -0.97189,1.52225 -1.5604,1.84747 -0.28563,0.15785 -0.32326,0.98886 -0.38265,8.44993 l -0.0659,8.27486 8.37049,-4e-5 8.37048,-4e-5 0,-9.47061 z"
         style="opacity:0.39100001;fill:#000000"
         inkscape:connector-curvature="0" />
      <path
         id="path7501"
         d="m 237.4109,264.17295 c 0.22749,-0.39855 0.70947,-0.88395 1.07105,-1.07867 l 0.65743,-0.35405 0.12414,-3.27251 c 0.0683,-1.79987 0.1244,-5.059 0.12472,-7.2425 l 5.9e-4,-3.97 -10.04458,0 -10.04459,0 0,8.32265 0,8.32265 8.8488,-0.002 8.8488,-0.002 0.41364,-0.72463 z"
         style="opacity:0.39100001;fill:#000000"
         inkscape:connector-curvature="0" />
      <path
         id="path7499"
         d="m 255.84281,256.57787 0,-8.32265 -7.74868,0 -7.74867,0 0,7.27036 c 0,6.24167 0.0395,7.27036 0.27893,7.27036 0.3913,0 1.82565,1.40475 1.82565,1.78797 0,0.28857 0.59312,0.31661 6.69638,0.31661 l 6.69639,0 0,-8.32265 z"
         style="opacity:0.39100001;fill:#000000"
         inkscape:connector-curvature="0" />
      <path
         id="path7497"
         d="m 273.8274,264.58391 c 0,-0.38322 1.43435,-1.78797 1.82565,-1.78797 0.23946,0 0.27893,-1.02869 0.27893,-7.27036 l 0,-7.27036 -9.66193,0 -9.66194,0 0,8.32265 0,8.32265 8.60965,0 c 7.88349,0 8.60964,-0.0267 8.60964,-0.31661 z"
         style="opacity:0.39100001;fill:#000000"
         inkscape:connector-curvature="0" />
      <path
         id="path7495"
         d="m 293.53391,256.57787 0,-8.32265 -8.22699,0 -8.22699,0 0,2.64757 c 0,1.45617 -0.0519,4.70631 -0.11543,7.22253 l -0.11542,4.57496 0.78969,0.35279 c 0.52166,0.23304 0.93423,0.60594 1.21555,1.09864 l 0.42585,0.74587 7.12687,0.002 7.12687,0.002 0,-8.32266 z"
         style="opacity:0.39100001;fill:#000000"
         inkscape:connector-curvature="0" />
      <path
         id="path7493"
         d="m 311.48664,264.11592 c 0.31299,-0.54798 0.69905,-0.89338 1.29144,-1.15543 l 0.845,-0.37378 0,-7.16574 0,-7.16575 -9.66193,0 -9.66194,0 0,8.32265 0,8.32265 8.37049,-0.002 8.37048,-0.002 0.44646,-0.78165 z"
         style="opacity:0.39100001;fill:#000000"
         inkscape:connector-curvature="0" />
      <path
         id="path7491"
         d="m 331.22501,256.57787 0,-8.32265 -8.19723,0 -8.19723,0 -0.12472,2.72638 c -0.0686,1.49952 -0.12177,4.74965 -0.11816,7.22253 l 0.007,4.49615 0.73345,0.50682 c 0.4034,0.27875 0.85163,0.7738 0.99607,1.10012 l 0.26262,0.5933 7.31932,0 7.31932,0 0,-8.32265 z"
         style="opacity:0.39100001;fill:#000000"
         inkscape:connector-curvature="0" />
      <path
         id="path7489"
         d="m 239.38752,239.78907 -0.001,-7.89217 -0.65337,-0.44489 c -0.35935,-0.24469 -0.79328,-0.73975 -0.96429,-1.10012 l -0.3109,-0.65523 -9.07898,0 -9.07898,0 0,8.99229 0,8.99229 10.04459,0 10.04458,0 -0.001,-7.89217 z"
         style="opacity:0.39100001;fill:#000000"
         inkscape:connector-curvature="0" />
      <path
         id="path7487"
         d="m 255.84281,238.68895 0,-8.99229 -6.40042,0 -6.40043,0 -0.31955,0.6734 c -0.33097,0.69747 -1.00969,1.28318 -1.75515,1.51463 l -0.43048,0.13366 0,7.52881 c 0,4.14084 -0.0523,7.665 -0.11613,7.83144 -0.10472,0.27291 0.64717,0.30264 7.65301,0.30264 l 7.76915,0 0,-8.99229 z"
         style="opacity:0.39100001;fill:#000000"
         inkscape:connector-curvature="0" />
      <path
         id="path7485"
         d="m 275.93198,243.31143 c 0,-2.4034 0.0561,-5.91934 0.12472,-7.8132 l 0.12473,-3.44339 -0.88014,-0.42607 c -0.64704,-0.31323 -0.97143,-0.62419 -1.22484,-1.17415 l -0.34471,-0.74809 -8.56182,-0.005 -8.56181,-0.005 0,8.99229 0,8.99229 9.66194,0 9.66193,0 0,-4.36981 z"
         style="opacity:0.39100001;fill:#000000"
         inkscape:connector-curvature="0" />
      <path
         id="path7483"
         d="m 293.53391,238.68895 0,-8.99229 -7.15149,0 -7.15149,0 -0.24257,0.58562 c -0.24422,0.5896 -1.2766,1.51896 -1.68733,1.51896 -0.1637,0 -0.2211,2.06144 -0.2211,7.94 l 0,7.94 8.22699,0 8.22699,0 0,-8.99229 z"
         style="opacity:0.39100001;fill:#000000"
         inkscape:connector-curvature="0" />
      <path
         id="path7481"
         d="m 313.62071,239.78907 -0.002,-7.89217 -0.63684,-0.41229 c -0.35026,-0.22676 -0.78372,-0.72182 -0.96324,-1.10012 l -0.32639,-0.68783 -8.69633,0 -8.69633,0 0,8.99229 0,8.99229 9.66194,0 9.66193,0 -0.002,-7.89217 z"
         style="opacity:0.39100001;fill:#000000"
         inkscape:connector-curvature="0" />
      <path
         id="path7479"
         d="m 331.22501,238.68895 0,-8.99229 -6.9744,0 -6.9744,0 -0.30324,0.63904 c -0.31987,0.67407 -1.06191,1.32082 -1.77516,1.54719 l -0.42678,0.13546 0,7.83145 0,7.83144 8.22699,0 8.22699,0 0,-8.99229 z"
         style="opacity:0.39100001;fill:#000000"
         inkscape:connector-curvature="0" />
      <path
         id="path7477"
         d="m 237.85823,227.92276 c 0.15784,-0.33972 0.60985,-0.82581 1.00445,-1.0802 l 0.71747,-0.46254 0,-7.81229 0,-7.81228 -10.14024,0 -10.14025,0 0,8.89663 0,8.89663 9.13579,-0.004 9.13579,-0.004 0.28699,-0.61767 z"
         style="opacity:0.39100001;fill:#000000"
         inkscape:connector-curvature="0" />
      <path
         id="path7475"
         d="m 255.84281,219.65208 0,-8.89663 -7.52693,0 -7.52692,0 -0.12609,4.04868 c -0.0694,2.22678 -0.12297,5.7352 -0.11916,7.79651 l 0.007,3.74783 0.8062,0.38265 c 0.46813,0.22219 1.00016,0.68351 1.26874,1.10012 l 0.46253,0.71747 6.37735,0 6.37734,0 0,-8.89663 z"
         style="opacity:0.39100001;fill:#000000"
         inkscape:connector-curvature="0" />
      <path
         id="path7473"
         d="m 273.8274,228.2681 c 0,-0.39942 1.25699,-1.6047 1.82124,-1.74632 l 0.47466,-0.11914 0,-7.82359 0,-7.8236 -9.75759,0 -9.7576,0 0,8.89663 0,8.89663 8.60965,0 c 7.43849,0 8.60964,-0.0382 8.60964,-0.28061 z"
         style="opacity:0.39100001;fill:#000000"
         inkscape:connector-curvature="0" />
      <path
         id="path7471"
         d="m 293.53391,219.65208 0,-8.89663 -8.13133,0 -8.13133,0 0,7.24645 c 0,3.98554 -0.0512,7.50221 -0.11367,7.81481 -0.10028,0.50143 -0.0322,0.61644 0.57803,0.97649 0.38045,0.22446 0.87058,0.71128 1.0892,1.08181 l 0.39749,0.6737 7.15581,0 7.1558,0 0,-8.89663 z"
         style="opacity:0.39100001;fill:#000000"
         inkscape:connector-curvature="0" />
      <path
         id="path7469"
         d="m 312.06952,227.87501 c 0.21862,-0.37053 0.70065,-0.85257 1.07119,-1.07119 l 0.67369,-0.39749 0,-7.82544 0,-7.82544 -9.75759,0 -9.7576,0 0,8.89663 0,8.89663 8.68641,0 8.68641,0 0.39749,-0.6737 z"
         style="opacity:0.39100001;fill:#000000"
         inkscape:connector-curvature="0" />
      <path
         id="path7467"
         d="m 331.22501,219.65208 0,-8.89663 -8.13133,0 -8.13133,0 -3.8e-4,3.68301 c -1.9e-4,2.02566 -0.0562,5.53409 -0.12437,7.79651 l -0.12391,4.1135 0.68888,0.24811 c 0.72031,0.25944 1.66445,1.21229 1.66445,1.67982 0,0.23062 1.08372,0.27231 7.07904,0.27231 l 7.07904,0 0,-8.89663 z"
         style="opacity:0.39100001;fill:#000000"
         inkscape:connector-curvature="0" />
    </g>
  </g>
</svg>
