<?xml version="1.0" encoding="UTF-8" standalone="no"?>
<!-- Created with Inkscape (http://www.inkscape.org/) -->

<svg
   xmlns:dc="http://purl.org/dc/elements/1.1/"
   xmlns:cc="http://creativecommons.org/ns#"
   xmlns:rdf="http://www.w3.org/1999/02/22-rdf-syntax-ns#"
   xmlns:svg="http://www.w3.org/2000/svg"
   xmlns="http://www.w3.org/2000/svg"
   xmlns:sodipodi="http://sodipodi.sourceforge.net/DTD/sodipodi-0.dtd"
   xmlns:inkscape="http://www.inkscape.org/namespaces/inkscape"
   width="119.87173mm"
   height="39.201286mm"
   viewBox="0 0 424.74234 138.90219"
   id="svg4788"
   version="1.1"
   inkscape:version="0.91 r13725"
   sodipodi:docname="pavages.svg">
  <defs
     id="defs4790" />
  <sodipodi:namedview
     id="base"
     pagecolor="#ffffff"
     bordercolor="#666666"
     borderopacity="1.0"
     inkscape:pageopacity="0.0"
     inkscape:pageshadow="2"
     inkscape:zoom="1.4"
     inkscape:cx="187.4264"
     inkscape:cy="72.780133"
     inkscape:document-units="px"
     inkscape:current-layer="layer1"
     showgrid="false"
     inkscape:window-width="1600"
     inkscape:window-height="900"
     inkscape:window-x="0"
     inkscape:window-y="0"
     inkscape:window-maximized="0"
     fit-margin-top="0"
     fit-margin-left="0"
     fit-margin-right="0"
     fit-margin-bottom="0" />
  <metadata
     id="metadata4793">
    <rdf:RDF>
      <cc:Work
         rdf:about="">
        <dc:format>image/svg+xml</dc:format>
        <dc:type
           rdf:resource="http://purl.org/dc/dcmitype/StillImage" />
        <dc:title></dc:title>
      </cc:Work>
    </rdf:RDF>
  </metadata>
  <g
     inkscape:label="Calque 1"
     inkscape:groupmode="layer"
     id="layer1"
     transform="translate(-207.82015,-202.91111)">
    <g
       id="g7541">
      <path
         id="path7539"
         d="m 238.81486,332.43837 0,-9.37494 -10.14024,0 -10.14025,0 0,-8.70531 0,-8.7053 -4.68747,0 -4.68747,0 0,-0.57398 0,-0.57397 4.68747,0 4.68747,0 0,-19.32386 0,-19.32386 -5.26145,0 -5.26144,0 0,-0.57398 0,-0.57397 5.26144,0 5.26145,0 0,-17.50627 0,-17.50627 -5.35711,0 -5.35711,0 0,-0.57398 0,-0.57397 5.35711,0 5.35711,0 0,-9.27928 0,-9.27928 10.5229,0 10.52289,0 0,-3.53952 0,-3.53952 0.57398,0 0.57398,0 0,3.53952 0,3.53952 17.69759,0 17.6976,0 0,-3.53952 0,-3.53952 0.57398,0 0.57397,0 0,3.53952 0,3.53952 18.27158,0 18.27157,0 0,-3.53952 0,-3.53952 0.57398,0 0.57397,0 0,3.53952 0,3.53952 8.51398,0 8.51398,0 0,9.27928 0,9.27928 7.36603,0 7.36603,0 0,0.57397 0,0.57398 -7.36603,0 -7.36603,0 0,17.50627 0,17.50627 7.46169,0 7.46169,0 0,0.57397 0,0.57398 -7.46169,0 -7.46169,0 0,19.32386 0,19.32386 8.03567,0 8.03567,0 0,0.57397 0,0.57398 -8.03567,0 -8.03567,0 0,8.7053 0,8.70531 -8.89663,0 -8.89663,0 0,9.37494 0,9.37494 -0.57397,0 -0.57398,0 0,-9.37494 0,-9.37494 -18.14991,0 -18.1499,0 -0.12167,0.88766 c -0.0669,0.48822 -0.12167,4.70695 -0.12167,9.37494 l 0,8.48728 -0.58696,0 -0.58697,0 0.0608,-9.37503 0.0608,-9.37503 -17.74543,9e-5 -17.74542,9e-5 0,9.37494 0,9.37494 -0.57398,0 -0.57398,0 0,-9.37494 z"
         style="opacity:0.39100001;fill:#000000"
         inkscape:connector-curvature="0" />
      <path
         id="path7537"
         d="m 238.88326,321.12211 c 0.0676,-0.64681 0.1207,-3.8539 0.11798,-7.12687 l -0.005,-5.95085 -0.75205,-0.3466 c -0.74893,-0.34517 -1.53399,-1.32985 -1.53399,-1.92406 0,-0.28419 -0.78194,-0.31224 -8.7053,-0.31224 l -8.70531,0 0,8.41832 0,8.41831 9.73034,0 9.73034,0 0.12292,-1.17601 z"
         style="opacity:0.39100001;fill:#000000"
         inkscape:connector-curvature="0" />
      <path
         id="path7535"
         d="m 255.84281,313.87981 0,-8.41832 -6.7831,0 -6.78309,0 -0.3673,0.83034 c -0.2244,0.50729 -0.6263,0.99041 -1.03301,1.24177 -0.64276,0.39725 -0.66999,0.46199 -0.78961,1.87709 -0.0681,0.80611 -0.12389,4.03555 -0.12389,7.17654 l 0,5.71089 7.94,0 7.94,0 0,-8.41831 z"
         style="opacity:0.39100001;fill:#000000"
         inkscape:connector-curvature="0" />
      <path
         id="path7533"
         d="m 275.54933,315.15548 0,-7.14265 -0.70982,-0.46253 c -0.4043,-0.26346 -0.87772,-0.81252 -1.09991,-1.27567 l -0.3901,-0.81314 -8.37069,0 -8.3707,0 0,8.41832 0,8.41831 9.47061,0 9.47061,0 0,-7.14264 z"
         style="opacity:0.39100001;fill:#000000"
         inkscape:connector-curvature="0" />
      <path
         id="path7531"
         d="m 293.53391,313.87981 0,-8.41832 -7.22253,0.007 -7.22253,0.007 -0.38266,0.80592 c -0.31936,0.67263 -1.13151,1.44085 -1.79974,1.70238 -0.0853,0.0334 -0.20155,3.26781 -0.25828,7.18759 l -0.10315,7.12687 8.49445,0 8.49444,0 0,-8.41832 z"
         style="opacity:0.39100001;fill:#000000"
         inkscape:connector-curvature="0" />
      <path
         id="path7529"
         d="m 313.24043,315.1324 0,-7.16572 -0.66663,-0.31634 c -0.67922,-0.32231 -1.43795,-1.3125 -1.43795,-1.87661 0,-0.28403 -0.76037,-0.31224 -8.41832,-0.31224 l -8.41832,0 0,8.41832 0,8.41831 9.47061,0 9.47061,0 0,-7.16572 z"
         style="opacity:0.39100001;fill:#000000"
         inkscape:connector-curvature="0" />
      <path
         id="path7527"
         d="m 331.22501,313.87981 0,-8.41832 -7.27637,0 c -6.76156,0 -7.28394,0.0237 -7.38337,0.33482 -0.27573,0.86276 -0.61099,1.30394 -1.33452,1.75618 l -0.7839,0.48998 -0.12446,4.40144 c -0.0685,2.42079 -0.12465,5.62832 -0.1249,7.12783 l -4.4e-4,2.72638 8.51398,0 8.51398,0 0,-8.41831 z"
         style="opacity:0.39100001;fill:#000000"
         inkscape:connector-curvature="0" />
      <path
         id="path7525"
         d="m 237.1087,303.80178 c 0.2544,-0.3867 0.7854,-0.86867 1.18001,-1.07105 l 0.71747,-0.36796 0,-5.30779 c 0,-2.91929 0.0566,-6.74214 0.12571,-8.49522 l 0.1257,-3.18743 -9.97896,0 -9.97897,0 0,9.56627 0,9.56627 8.67325,0 8.67325,0 0.46254,-0.70309 z"
         style="opacity:0.39100001;fill:#000000"
         inkscape:connector-curvature="0" />
      <path
         id="path7523"
         d="m 255.84281,294.9386 0,-9.56627 -7.84434,0 -7.84434,0 0,8.56614 0,8.56613 0.65006,0.35008 c 0.35753,0.19254 0.80759,0.6426 1.00013,1.00013 l 0.35008,0.65006 6.84421,0 6.8442,0 0,-9.56627 z"
         style="opacity:0.39100001;fill:#000000"
         inkscape:connector-curvature="0" />
      <path
         id="path7521"
         d="m 273.63607,304.2542 c 0,-0.31862 1.06888,-1.42038 1.51552,-1.56214 0.29623,-0.094 0.35388,-0.46751 0.46368,-3.00421 0.069,-1.59326 0.12538,-5.46604 0.12538,-8.60618 l 0,-5.70934 -9.56627,0 -9.56627,0 0,9.56627 0,9.56627 8.51398,0 c 6.89215,0 8.51398,-0.0478 8.51398,-0.25067 z"
         style="opacity:0.39100001;fill:#000000"
         inkscape:connector-curvature="0" />
      <path
         id="path7519"
         d="m 293.53391,294.9386 0,-9.56627 -8.2938,0 -8.29379,0 -0.12353,1.86543 c -0.0679,1.02598 -0.12398,4.85323 -0.12452,8.505 l -9.6e-4,6.63958 0.67341,0.31955 c 0.65704,0.31178 1.43117,1.17365 1.43117,1.59336 0,0.14831 2.15427,0.20962 7.36603,0.20962 l 7.36602,0 0,-9.56627 z"
         style="opacity:0.39100001;fill:#000000"
         inkscape:connector-curvature="0" />
      <path
         id="path7517"
         d="m 311.53427,303.80084 c 0.2544,-0.38722 0.7404,-0.83923 1.08,-1.00446 l 0.61747,-0.30043 0.004,-2.21684 c 0.002,-1.21926 0.0613,-5.07207 0.13095,-8.56181 l 0.12661,-6.34497 -9.59721,0 -9.59722,0 0,9.56627 0,9.56627 8.38627,0 8.38626,0 0.46253,-0.70403 z"
         style="opacity:0.39100001;fill:#000000"
         inkscape:connector-curvature="0" />
      <path
         id="path7515"
         d="m 331.22501,294.9386 0,-9.56627 -8.41831,0 -8.41832,0 0.005,8.56181 0.005,8.56181 0.73123,0.33666 c 0.44282,0.20387 0.87307,0.60004 1.09086,1.00445 l 0.35963,0.66781 7.32252,0 7.32252,0 0,-9.56627 z"
         style="opacity:0.39100001;fill:#000000"
         inkscape:connector-curvature="0" />
      <path
         id="path7513"
         d="m 239.19603,276.52354 -0.002,-8.27482 -0.74586,-0.42586 c -0.47631,-0.27195 -0.87336,-0.70232 -1.09865,-1.19085 l -0.35273,-0.76499 -8.8488,-0.005 -8.8488,-0.005 0,9.4706 0,9.47061 9.94892,0 9.94892,0 -0.002,-8.27482 z"
         style="opacity:0.39100001;fill:#000000"
         inkscape:connector-curvature="0" />
      <path
         id="path7511"
         d="m 255.84281,275.32775 0,-9.4706 -6.59816,0 -6.59815,0 -0.26926,0.64442 c -0.26539,0.63515 -1.37969,1.65148 -1.81069,1.65148 -0.15962,0 -0.22109,1.0287 -0.22109,3.69987 0,2.03492 -0.0568,5.78011 -0.12627,8.32265 l -0.12626,4.62279 7.87494,0 7.87494,0 0,-9.47061 z"
         style="opacity:0.39100001;fill:#000000"
         inkscape:connector-curvature="0" />
      <path
         id="path7509"
         d="m 275.73339,276.52354 -0.007,-8.27482 -0.72381,-0.49996 c -0.3981,-0.27498 -0.87241,-0.81308 -1.05401,-1.19579 l -0.3302,-0.69582 -8.505,0 -8.50501,0 0,9.4706 0,9.47061 9.56627,0 9.56627,0 -0.007,-8.27482 z"
         style="opacity:0.39100001;fill:#000000"
         inkscape:connector-curvature="0" />
      <path
         id="path7507"
         d="m 293.53391,275.32775 0,-9.4706 -7.12687,0.009 -7.12687,0.009 -0.3911,0.79575 c -0.27491,0.55936 -0.6275,0.91195 -1.18685,1.18686 l -0.79576,0.39109 -0.009,8.27482 -0.009,8.27482 8.32266,0 8.32265,0 0,-9.47061 z"
         style="opacity:0.39100001;fill:#000000"
         inkscape:connector-curvature="0" />
      <path
         id="path7505"
         d="m 313.42282,276.52354 -0.009,-8.27482 -0.79576,-0.3911 c -0.55935,-0.27491 -0.91194,-0.6275 -1.18685,-1.18686 l -0.3911,-0.79575 -8.37048,-0.009 -8.37049,-0.009 0,9.4706 0,9.47061 9.56627,0 9.56627,0 -0.009,-8.27482 z"
         style="opacity:0.39100001;fill:#000000"
         inkscape:connector-curvature="0" />
      <path
         id="path7503"
         d="m 331.22501,275.32775 0,-9.4706 -7.36602,0 c -7.14784,0 -7.36603,0.0109 -7.36603,0.36903 0,0.37155 -0.97189,1.52225 -1.5604,1.84747 -0.28563,0.15785 -0.32326,0.98886 -0.38265,8.44993 l -0.0659,8.27486 8.37049,-4e-5 8.37048,-4e-5 0,-9.47061 z"
         style="opacity:0.39100001;fill:#000000"
         inkscape:connector-curvature="0" />
      <path
         id="path7501"
         d="m 237.4109,264.17295 c 0.22749,-0.39855 0.70947,-0.88395 1.07105,-1.07867 l 0.65743,-0.35405 0.12414,-3.27251 c 0.0683,-1.79987 0.1244,-5.059 0.12472,-7.2425 l 5.9e-4,-3.97 -10.04458,0 -10.04459,0 0,8.32265 0,8.32265 8.8488,-0.002 8.8488,-0.002 0.41364,-0.72463 z"
         style="opacity:0.39100001;fill:#000000"
         inkscape:connector-curvature="0" />
      <path
         id="path7499"
         d="m 255.84281,256.57787 0,-8.32265 -7.74868,0 -7.74867,0 0,7.27036 c 0,6.24167 0.0395,7.27036 0.27893,7.27036 0.3913,0 1.82565,1.40475 1.82565,1.78797 0,0.28857 0.59312,0.31661 6.69638,0.31661 l 6.69639,0 0,-8.32265 z"
         style="opacity:0.39100001;fill:#000000"
         inkscape:connector-curvature="0" />
      <path
         id="path7497"
         d="m 273.8274,264.58391 c 0,-0.38322 1.43435,-1.78797 1.82565,-1.78797 0.23946,0 0.27893,-1.02869 0.27893,-7.27036 l 0,-7.27036 -9.66193,0 -9.66194,0 0,8.32265 0,8.32265 8.60965,0 c 7.88349,0 8.60964,-0.0267 8.60964,-0.31661 z"
         style="opacity:0.39100001;fill:#000000"
         inkscape:connector-curvature="0" />
      <path
         id="path7495"
         d="m 293.53391,256.57787 0,-8.32265 -8.22699,0 -8.22699,0 0,2.64757 c 0,1.45617 -0.0519,4.70631 -0.11543,7.22253 l -0.11542,4.57496 0.78969,0.35279 c 0.52166,0.23304 0.93423,0.60594 1.21555,1.09864 l 0.42585,0.74587 7.12687,0.002 7.12687,0.002 0,-8.32266 z"
         style="opacity:0.39100001;fill:#000000"
         inkscape:connector-curvature="0" />
      <path
         id="path7493"
         d="m 311.48664,264.11592 c 0.31299,-0.54798 0.69905,-0.89338 1.29144,-1.15543 l 0.845,-0.37378 0,-7.16574 0,-7.16575 -9.66193,0 -9.66194,0 0,8.32265 0,8.32265 8.37049,-0.002 8.37048,-0.002 0.44646,-0.78165 z"
         style="opacity:0.39100001;fill:#000000"
         inkscape:connector-curvature="0" />
      <path
         id="path7491"
         d="m 331.22501,256.57787 0,-8.32265 -8.19723,0 -8.19723,0 -0.12472,2.72638 c -0.0686,1.49952 -0.12177,4.74965 -0.11816,7.22253 l 0.007,4.49615 0.73345,0.50682 c 0.4034,0.27875 0.85163,0.7738 0.99607,1.10012 l 0.26262,0.5933 7.31932,0 7.31932,0 0,-8.32265 z"
         style="opacity:0.39100001;fill:#000000"
         inkscape:connector-curvature="0" />
      <path
         id="path7489"
         d="m 239.38752,239.78907 -0.001,-7.89217 -0.65337,-0.44489 c -0.35935,-0.24469 -0.79328,-0.73975 -0.96429,-1.10012 l -0.3109,-0.65523 -9.07898,0 -9.07898,0 0,8.99229 0,8.99229 10.04459,0 10.04458,0 -0.001,-7.89217 z"
         style="opacity:0.39100001;fill:#000000"
         inkscape:connector-curvature="0" />
      <path
         id="path7487"
         d="m 255.84281,238.68895 0,-8.99229 -6.40042,0 -6.40043,0 -0.31955,0.6734 c -0.33097,0.69747 -1.00969,1.28318 -1.75515,1.51463 l -0.43048,0.13366 0,7.52881 c 0,4.14084 -0.0523,7.665 -0.11613,7.83144 -0.10472,0.27291 0.64717,0.30264 7.65301,0.30264 l 7.76915,0 0,-8.99229 z"
         style="opacity:0.39100001;fill:#000000"
         inkscape:connector-curvature="0" />
      <path
         id="path7485"
         d="m 275.93198,243.31143 c 0,-2.4034 0.0561,-5.91934 0.12472,-7.8132 l 0.12473,-3.44339 -0.88014,-0.42607 c -0.64704,-0.31323 -0.97143,-0.62419 -1.22484,-1.17415 l -0.34471,-0.74809 -8.56182,-0.005 -8.56181,-0.005 0,8.99229 0,8.99229 9.66194,0 9.66193,0 0,-4.36981 z"
         style="opacity:0.39100001;fill:#000000"
         inkscape:connector-curvature="0" />
      <path
         id="path7483"
         d="m 293.53391,238.68895 0,-8.99229 -7.15149,0 -7.15149,0 -0.24257,0.58562 c -0.24422,0.5896 -1.2766,1.51896 -1.68733,1.51896 -0.1637,0 -0.2211,2.06144 -0.2211,7.94 l 0,7.94 8.22699,0 8.22699,0 0,-8.99229 z"
         style="opacity:0.39100001;fill:#000000"
         inkscape:connector-curvature="0" />
      <path
         id="path7481"
         d="m 313.62071,239.78907 -0.002,-7.89217 -0.63684,-0.41229 c -0.35026,-0.22676 -0.78372,-0.72182 -0.96324,-1.10012 l -0.32639,-0.68783 -8.69633,0 -8.69633,0 0,8.99229 0,8.99229 9.66194,0 9.66193,0 -0.002,-7.89217 z"
         style="opacity:0.39100001;fill:#000000"
         inkscape:connector-curvature="0" />
      <path
         id="path7479"
         d="m 331.22501,238.68895 0,-8.99229 -6.9744,0 -6.9744,0 -0.30324,0.63904 c -0.31987,0.67407 -1.06191,1.32082 -1.77516,1.54719 l -0.42678,0.13546 0,7.83145 0,7.83144 8.22699,0 8.22699,0 0,-8.99229 z"
         style="opacity:0.39100001;fill:#000000"
         inkscape:connector-curvature="0" />
      <path
         id="path7477"
         d="m 237.85823,227.92276 c 0.15784,-0.33972 0.60985,-0.82581 1.00445,-1.0802 l 0.71747,-0.46254 0,-7.81229 0,-7.81228 -10.14024,0 -10.14025,0 0,8.89663 0,8.89663 9.13579,-0.004 9.13579,-0.004 0.28699,-0.61767 z"
         style="opacity:0.39100001;fill:#000000"
         inkscape:connector-curvature="0" />
      <path
         id="path7475"
         d="m 255.84281,219.65208 0,-8.89663 -7.52693,0 -7.52692,0 -0.12609,4.04868 c -0.0694,2.22678 -0.12297,5.7352 -0.11916,7.79651 l 0.007,3.74783 0.8062,0.38265 c 0.46813,0.22219 1.00016,0.68351 1.26874,1.10012 l 0.46253,0.71747 6.37735,0 6.37734,0 0,-8.89663 z"
         style="opacity:0.39100001;fill:#000000"
         inkscape:connector-curvature="0" />
      <path
         id="path7473"
         d="m 273.8274,228.2681 c 0,-0.39942 1.25699,-1.6047 1.82124,-1.74632 l 0.47466,-0.11914 0,-7.82359 0,-7.8236 -9.75759,0 -9.7576,0 0,8.89663 0,8.89663 8.60965,0 c 7.43849,0 8.60964,-0.0382 8.60964,-0.28061 z"
         style="opacity:0.39100001;fill:#000000"
         inkscape:connector-curvature="0" />
      <path
         id="path7471"
         d="m 293.53391,219.65208 0,-8.89663 -8.13133,0 -8.13133,0 0,7.24645 c 0,3.98554 -0.0512,7.50221 -0.11367,7.81481 -0.10028,0.50143 -0.0322,0.61644 0.57803,0.97649 0.38045,0.22446 0.87058,0.71128 1.0892,1.08181 l 0.39749,0.6737 7.15581,0 7.1558,0 0,-8.89663 z"
         style="opacity:0.39100001;fill:#000000"
         inkscape:connector-curvature="0" />
      <path
         id="path7469"
         d="m 312.06952,227.87501 c 0.21862,-0.37053 0.70065,-0.85257 1.07119,-1.07119 l 0.67369,-0.39749 0,-7.82544 0,-7.82544 -9.75759,0 -9.7576,0 0,8.89663 0,8.89663 8.68641,0 8.68641,0 0.39749,-0.6737 z"
         style="opacity:0.39100001;fill:#000000"
         inkscape:connector-curvature="0" />
      <path
         id="path7467"
         d="m 331.22501,219.65208 0,-8.89663 -8.13133,0 -8.13133,0 -3.8e-4,3.68301 c -1.9e-4,2.02566 -0.0562,5.53409 -0.12437,7.79651 l -0.12391,4.1135 0.68888,0.24811 c 0.72031,0.25944 1.66445,1.21229 1.66445,1.67982 0,0.23062 1.08372,0.27231 7.07904,0.27231 l 7.07904,0 0,-8.89663 z"
         style="opacity:0.39100001;fill:#000000"
         inkscape:connector-curvature="0" />
    </g>
    <g
       id="g7580">
      <path
         id="path7465"
         d="m 423.32377,315.26284 c -0.18903,-0.2997 -1.49626,-0.31825 -18.36113,-0.26056 -11.36718,0.0389 -18.24225,0.13159 -18.38396,0.24792 -0.15704,0.12892 -0.31287,0.0501 -0.50887,-0.25747 -0.28463,-0.4466 -17.94707,-31.40823 -18.42533,-32.29895 -0.20122,-0.37476 -0.20528,-0.49077 -0.0187,-0.53585 0.22444,-0.0543 18.1524,-31.34666 18.28453,-31.91479 0.034,-0.1463 0.16527,-0.266 0.29166,-0.266 0.12639,0 4.35088,-7.23448 9.38775,-16.07662 5.03687,-8.84214 9.22602,-16.11869 9.30921,-16.17011 0.0832,-0.0514 0.1971,-0.0194 0.25308,0.0712 0.13822,0.22364 36.61874,0.49104 36.9105,0.27055 0.1287,-0.0973 1.05512,-0.1091 2.14018,-0.0273 1.05229,0.0793 9.54974,0.15395 18.8832,0.16592 l 16.96997,0.0218 0.26319,0.51844 c 0.14476,0.28514 4.42036,7.35866 9.50135,15.71894 5.08099,8.36028 9.27576,15.29851 9.32174,15.41829 0.046,0.11979 -4.18182,7.45989 -9.39507,16.31135 l -9.47863,16.09357 9.37449,16.00612 c 5.15597,8.80337 9.37448,16.07039 9.37448,16.14894 0,0.0786 -8.39855,0.18498 -18.66344,0.2365 -13.25415,0.0665 -18.72473,0.15494 -18.87487,0.30507 -0.15432,0.15432 -0.31915,0.15375 -0.6104,-0.002 -0.29053,-0.15549 -5.33696,-0.17834 -18.56493,-0.0841 -15.43577,0.11 -18.21183,0.17098 -18.47119,0.4057 -0.26726,0.24187 -0.33055,0.23609 -0.50877,-0.0464 z"
         style="opacity:0.39100001;fill:#000000"
         inkscape:connector-curvature="0" />
      <path
         id="path7463"
         d="m 422.64786,314.15626 c 0.10785,-0.0923 -8.27992,-14.80159 -8.44505,-14.80968 -0.0842,-0.004 -1.38986,0.5195 -2.90149,1.16361 l -2.74842,1.17112 0.1089,1.05521 c 0.1323,1.28179 -0.25984,2.14787 -1.24939,2.75945 -1.79473,1.10919 -4.05451,-0.14356 -4.1453,-2.29801 l -0.0362,-0.85936 -3.52547,-1.59712 c -1.939,-0.87841 -3.61645,-1.56239 -3.72767,-1.51994 -0.18232,0.0696 -8.3233,14.15842 -8.60426,14.89059 -0.10723,0.27945 1.41146,0.29701 17.54598,0.20285 9.71488,-0.0567 17.69263,-0.12812 17.72837,-0.15872 z"
         style="opacity:0.39100001;fill:#000000"
         inkscape:connector-curvature="0" />
      <path
         id="path7461"
         d="m 453.13024,314.09196 7.20564,-0.11652 -4.20723,-7.36602 c -2.31396,-4.05132 -4.26506,-7.4653 -4.33576,-7.58664 -0.0877,-0.15049 -1.10155,0.222 -3.18976,1.17187 -2.52243,1.14741 -3.04974,1.45562 -2.99607,1.75122 0.26489,1.45886 0.24327,1.79913 -0.15988,2.51642 -0.52595,0.93582 -1.31811,1.41317 -2.37155,1.4291 -1.58115,0.0239 -2.88213,-1.35239 -2.76833,-2.92855 l 0.0555,-0.76917 -3.34154,-1.61666 c -1.83785,-0.88916 -3.40504,-1.61754 -3.48264,-1.61863 -0.0776,-10e-4 -0.34479,0.32088 -0.59376,0.71549 -0.46306,0.73393 -7.73492,13.37943 -8.14168,14.15808 l -0.22488,0.43048 10.67312,-0.027 c 5.87023,-0.0148 13.91567,-0.0794 17.87879,-0.14349 z"
         style="opacity:0.39100001;fill:#000000"
         inkscape:connector-curvature="0" />
      <path
         id="path7459"
         d="m 388.6193,310.34801 c 0.97903,-1.6794 2.88556,-4.97682 4.23675,-7.3276 l 2.4567,-4.27415 -1.28831,-0.57741 c -0.70858,-0.31758 -2.18005,-0.97744 -3.26995,-1.46635 -1.75984,-0.78945 -2.00648,-0.85496 -2.20363,-0.58535 -0.3912,0.535 -1.53467,1.11587 -2.19809,1.11661 -1.27753,10e-4 -2.60914,-1.12765 -2.7069,-2.29519 -0.10826,-1.29279 0.003,-1.59702 0.8994,-2.45577 l 0.89709,-0.85957 0.0842,-4.27341 0.0842,-4.27342 -8.46189,0 -8.46189,0 0.36451,0.62181 c 0.20048,0.34199 4.18089,7.31859 8.84535,15.50355 7.33204,12.8659 8.51209,14.83555 8.71161,14.54072 0.12693,-0.18756 1.03181,-1.71507 2.01084,-3.39447 z"
         style="opacity:0.39100001;fill:#000000"
         inkscape:connector-curvature="0" />
      <path
         id="path7457"
         d="m 424.81234,312.20326 c 0.59483,-1.02465 2.63643,-4.51596 4.53688,-7.75846 l 3.45536,-5.89547 -3.38562,-1.62394 c -1.8621,-0.89317 -3.41438,-1.53772 -3.4495,-1.43233 -0.14575,0.43729 -0.87637,1.1952 -1.42626,1.47956 -0.75811,0.39203 -2.01856,0.25946 -2.79591,-0.29406 l -0.58358,-0.41554 -3.06609,1.29886 c -1.68634,0.71437 -3.06744,1.38268 -3.06909,1.48512 -0.004,0.25575 8.43468,15.0247 8.58322,15.02168 0.0655,-10e-4 0.60576,-0.84077 1.20059,-1.86542 z"
         style="opacity:0.39100001;fill:#000000"
         inkscape:connector-curvature="0" />
      <path
         id="path7455"
         d="m 466.01719,305.85701 c 2.30308,-3.93899 4.10544,-7.19143 4.00524,-7.22763 -0.10019,-0.0362 -1.51608,-0.66117 -3.14638,-1.38881 -2.32026,-1.03557 -2.99593,-1.26629 -3.11023,-1.06206 -0.25279,0.45172 -1.40823,1.05596 -2.01919,1.05596 -0.88227,0 -1.55509,-0.32011 -2.23657,-1.06411 l -0.61396,-0.6703 -3.23323,1.46184 c -1.77827,0.80401 -3.26001,1.4865 -3.29275,1.51664 -0.0327,0.0301 1.9387,3.55264 4.38097,7.82776 l 4.44047,7.77295 0.31909,-0.53022 c 0.17551,-0.29162 2.20346,-3.75303 4.50654,-7.69202 z"
         style="opacity:0.39100001;fill:#000000"
         inkscape:connector-curvature="0" />
      <path
         id="path7453"
         d="m 487.96678,313.90012 9.89954,-0.116 -8.92625,-15.24455 -8.92624,-15.24454 -4.37803,7.4776 c -2.4079,4.11269 -4.30952,7.54023 -4.22582,7.61677 0.0837,0.0765 1.64169,0.79613 3.46219,1.5991 l 3.30996,1.45994 0.65279,-0.4979 c 0.84009,-0.64076 2.07075,-0.69186 2.98779,-0.12405 2.38244,1.47517 1.32351,5.10729 -1.47667,5.06496 -1.54891,-0.0234 -2.65138,-1.21809 -2.63133,-2.8514 l 0.012,-0.98647 -3.45028,-1.5306 -3.45029,-1.5306 -4.36733,7.45328 c -2.40199,4.0993 -4.36729,7.49201 -4.36729,7.53936 0,0.10884 12.97441,0.0663 25.87521,-0.0849 z"
         style="opacity:0.39100001;fill:#000000"
         inkscape:connector-curvature="0" />
      <path
         id="path7451"
         d="m 404.30385,301.04398 c 0.86467,-0.69487 2.15181,-0.82564 2.95389,-0.3001 0.26617,0.17441 0.59462,0.31471 0.72985,0.3118 0.44077,-0.01 5.79534,-2.42776 5.7586,-2.60073 -0.0196,-0.0925 -1.9915,-3.59381 -4.38194,-7.78069 l -4.34624,-7.61251 -4.27609,7.51684 c -2.35184,4.13427 -4.28241,7.59588 -4.29015,7.69248 -0.0121,0.15052 6.5295,3.29397 6.96195,3.34546 0.0851,0.0101 0.48565,-0.24751 0.89013,-0.57255 z"
         style="opacity:0.39100001;fill:#000000"
         inkscape:connector-curvature="0" />
      <path
         id="path7449"
         d="m 441.65835,300.79151 c 0.6505,-0.42334 2.11786,-0.43989 2.742,-0.0309 0.44814,0.29363 0.58304,0.25279 3.48244,-1.05422 1.65895,-0.74782 3.08949,-1.42917 3.17899,-1.51411 0.18639,-0.17688 -8.29457,-14.76492 -8.53684,-14.68416 -0.0875,0.0292 -2.08884,3.34977 -4.44748,7.37915 l -4.2884,7.32613 3.48488,1.68639 c 2.6112,1.26362 3.53282,1.62895 3.67618,1.45726 0.10523,-0.12602 0.42392,-0.3805 0.70823,-0.56551 z"
         style="opacity:0.39100001;fill:#000000"
         inkscape:connector-curvature="0" />
      <path
         id="path7447"
         d="m 420.67583,294.57436 c -0.007,-1.26589 0.4751,-2.09058 1.5103,-2.58182 l 0.6631,-0.31465 0.0581,-4.25292 c 0.032,-2.3391 0.0532,-4.27226 0.0471,-4.29591 -0.0327,-0.12666 -17.11251,-0.28191 -17.11251,-0.15555 0,0.0827 1.95351,3.56947 4.34112,7.74844 l 4.34111,7.59811 3.07896,-1.33749 3.07895,-1.33748 -0.006,-1.07073 z"
         style="opacity:0.39100001;fill:#000000"
         inkscape:connector-curvature="0" />
      <path
         id="path7445"
         d="m 399.96642,290.56245 c 2.29602,-4.03562 4.11939,-7.39244 4.05193,-7.4596 -0.11083,-0.11034 -17.51539,-0.0881 -17.60358,0.0225 -0.0205,0.0257 -0.0836,1.96235 -0.14032,4.30369 -0.10116,4.17741 -0.0959,4.25699 0.28336,4.25699 0.61368,0 1.78098,0.74836 2.15504,1.38159 0.18852,0.31913 0.35141,0.91045 0.36199,1.31404 l 0.0192,0.73382 3.06464,1.42733 c 1.68555,0.78503 3.19255,1.41153 3.34889,1.39222 0.15779,-0.0195 2.14152,-3.29956 4.45881,-7.37259 z"
         style="opacity:0.39100001;fill:#000000"
         inkscape:connector-curvature="0" />
      <path
         id="path7443"
         d="m 474.9637,290.56845 c 2.39093,-4.0871 4.34716,-7.48791 4.34716,-7.55734 0,-0.0694 -3.87434,-0.12623 -8.60964,-0.12623 l -8.60965,0 0,4.39151 0,4.39151 0.67341,0.31955 c 0.90901,0.43135 1.45163,1.25078 1.59719,2.41201 l 0.12097,0.96502 2.86988,1.29932 c 1.57844,0.71463 2.95845,1.30753 3.0667,1.31755 0.10825,0.01 2.15304,-3.32577 4.54398,-7.41289 z"
         style="opacity:0.39100001;fill:#000000"
         inkscape:connector-curvature="0" />
      <path
         id="path7441"
         d="m 437.16262,291.09843 c 2.12605,-3.62301 4.0472,-6.91015 4.26924,-7.30476 l 0.40371,-0.71747 -9.1002,0 -9.1002,0 0,4.2572 0,4.25719 0.79272,0.38244 c 0.91457,0.44124 1.48853,1.12754 1.66587,1.99198 0.11638,0.56731 0.33758,0.70863 3.4725,2.21843 1.84151,0.88688 3.43429,1.58771 3.53952,1.5574 0.10523,-0.0303 1.93082,-3.01939 4.05684,-6.64241 z"
         style="opacity:0.39100001;fill:#000000"
         inkscape:connector-curvature="0" />
      <path
         id="path7439"
         d="m 455.40753,296.283 c 3.29137,-1.50492 3.33778,-1.53452 3.48049,-2.22015 0.20447,-0.98233 0.79352,-1.725 1.67758,-2.11504 l 0.76067,-0.33561 0,-4.33246 0,-4.33247 -8.93053,-0.12484 c -4.9118,-0.0687 -8.95395,-0.10144 -8.98256,-0.0728 -0.0773,0.0773 8.42443,15.04276 8.55049,15.05132 0.0594,0.004 1.60914,-0.67903 3.44386,-1.51792 z"
         style="opacity:0.39100001;fill:#000000"
         inkscape:connector-curvature="0" />
      <path
         id="path7437"
         d="m 385.54021,282.19505 c 0.041,-0.0357 0.11577,-2.06905 0.16626,-4.51852 l 0.0918,-4.45358 -0.60246,-0.25772 c -1.36996,-0.58605 -2.00293,-2.68308 -1.18454,-3.9244 1.06004,-1.60786 3.44871,-1.72362 4.54387,-0.2202 l 0.35489,0.48719 3.15545,-1.35753 c 1.73549,-0.74664 3.18243,-1.38452 3.21542,-1.4175 0.0913,-0.0913 -8.79469,-15.21659 -8.9396,-15.21659 -0.10623,0 -17.57884,30.49321 -17.78012,31.02987 -0.0621,0.16555 16.78789,0.0157 16.97902,-0.15102 z"
         style="opacity:0.39100001;fill:#000000"
         inkscape:connector-curvature="0" />
      <path
         id="path7435"
         d="m 404.31131,282.20885 c 0,-0.0861 -8.36988,-14.79527 -8.52429,-14.9805 -0.0291,-0.0349 -1.5223,0.56774 -3.31816,1.33928 -2.8562,1.22707 -3.26565,1.45749 -3.26873,1.83942 -0.009,1.11171 -1.29805,2.72024 -2.18,2.72024 -0.17752,0 -0.35589,0.10762 -0.39637,0.23916 -0.0405,0.13153 -0.12347,2.19785 -0.18442,4.59181 l -0.11082,4.35265 8.99139,0 c 4.94527,0 8.9914,-0.0459 8.9914,-0.10206 z"
         style="opacity:0.39100001;fill:#000000"
         inkscape:connector-curvature="0" />
      <path
         id="path7433"
         d="m 423.0612,277.7191 c 0,-4.26747 -0.024,-4.59181 -0.33907,-4.59181 -0.54757,0 -1.7186,-1.09575 -1.96327,-1.83705 -0.12422,-0.37644 -0.17483,-0.93961 -0.11246,-1.25149 0.11319,-0.56599 0.10793,-0.56966 -2.80156,-1.95673 l -2.91497,-1.38967 -3.88793,6.80482 c -2.13834,3.74265 -4.1464,7.25683 -4.46235,7.80928 l -0.57444,1.00446 8.52802,0 8.52803,0 0,-4.59181 z"
         style="opacity:0.39100001;fill:#000000"
         inkscape:connector-curvature="0" />
      <path
         id="path7431"
         d="m 441.26954,281.30645 c -3.41727,-6.02582 -8.12766,-14.2344 -8.23006,-14.34206 -0.0712,-0.0749 -1.65668,0.56076 -3.52327,1.41254 l -3.39381,1.5487 0,0.66945 c 0,1.10139 -1.13132,2.53221 -2.00218,2.53221 -0.25592,0 -0.29372,0.59098 -0.29372,4.59181 l 0,4.59181 9.00633,0 9.00634,0 -0.56963,-1.00446 z"
         style="opacity:0.39100001;fill:#000000"
         inkscape:connector-curvature="0" />
      <path
         id="path7429"
         d="m 461.32627,277.62344 c 0,-3.98888 -0.0344,-4.49615 -0.3053,-4.49615 -1.0044,0 -2.30832,-1.73065 -2.14456,-2.84639 0.077,-0.52432 0.0111,-0.56558 -3.08841,-1.93534 -1.74187,-0.76979 -3.29618,-1.42923 -3.45402,-1.46543 -0.20256,-0.0465 -1.56215,2.18541 -4.62168,7.58681 l -4.3347,7.65264 8.97435,0 8.97432,0 0,-4.49614 z"
         style="opacity:0.39100001;fill:#000000"
         inkscape:connector-curvature="0" />
      <path
         id="path7427"
         d="m 479.08222,281.6891 c -0.14994,-0.23676 -2.19425,-3.72367 -4.5429,-7.74868 -2.34865,-4.025 -4.35451,-7.31819 -4.45748,-7.31819 -0.10295,0 -1.42631,0.65207 -2.94079,1.44905 l -2.75357,1.44904 0,0.87211 c 0,1.12753 -0.56062,2.03532 -1.53399,2.48392 l -0.75204,0.3466 -0.005,4.44832 -0.005,4.44831 8.63164,0 8.63165,0 -0.27264,-0.43048 z"
         style="opacity:0.39100001;fill:#000000"
         inkscape:connector-curvature="0" />
      <path
         id="path7425"
         d="m 409.69417,274.0414 4.50902,-7.69553 -3.05571,-1.48808 c -2.99845,-1.46022 -3.58364,-1.6731 -3.58364,-1.30366 0,0.10143 -0.32133,0.40277 -0.71405,0.66964 -0.8852,0.6015 -1.93607,0.6332 -2.90669,0.0877 l -0.70731,-0.39752 -3.31444,1.44362 c -1.82295,0.79399 -3.35014,1.47931 -3.39376,1.52293 -0.0436,0.0436 1.48506,2.82301 3.39705,6.17643 4.71854,8.27578 4.95693,8.68002 5.11902,8.68002 0.0778,0 2.17055,-3.46299 4.65051,-7.69553 z"
         style="opacity:0.39100001;fill:#000000"
         inkscape:connector-curvature="0" />
      <path
         id="path7423"
         d="m 446.82098,274.32307 c 2.38584,-4.07762 4.36554,-7.53425 4.39931,-7.6814 0.0899,-0.39161 -6.483,-3.33499 -6.68215,-2.99233 -0.0793,0.13642 -0.4455,0.43032 -0.8138,0.65312 -1.05336,0.63721 -2.40014,0.49361 -3.2391,-0.34536 l -0.38451,-0.3845 -3.24251,1.4636 -3.24252,1.46361 0.55779,0.97 c 0.30679,0.53351 2.25837,3.96179 4.33685,7.6184 2.07848,3.65662 3.82262,6.64847 3.87587,6.64856 0.0533,9e-5 2.0489,-3.33607 4.43477,-7.4137 z"
         style="opacity:0.39100001;fill:#000000"
         inkscape:connector-curvature="0" />
      <path
         id="path7421"
         d="m 488.88608,266.23958 c 4.86208,-8.26047 8.88157,-15.12666 8.93222,-15.2582 0.0728,-0.18924 -1.78893,-0.23915 -8.9207,-0.23915 l -9.01277,0 0,3.80259 0,3.80259 0.53122,0.10624 c 1.10626,0.22125 2.14734,1.53933 2.14734,2.71867 0,0.87638 -0.75206,1.96551 -1.66111,2.40557 -1.05646,0.51142 -2.11181,0.36545 -2.93805,-0.40638 l -0.58677,-0.54812 -3.2537,1.73646 c -2.54191,1.35658 -3.2281,1.80323 -3.13661,2.04164 0.32971,0.85922 8.81524,15.11096 8.92747,14.994 0.0722,-0.0753 4.10939,-6.89544 8.97146,-15.15591 z"
         style="opacity:0.39100001;fill:#000000"
         inkscape:connector-curvature="0" />
      <path
         id="path7419"
         d="m 429.36988,267.63785 3.23554,-1.47161 -0.46423,-0.77646 c -0.25532,-0.42706 -2.20906,-3.76686 -4.34163,-7.42179 -2.13257,-3.65493 -3.92045,-6.64607 -3.97306,-6.64698 -0.0526,-9.5e-4 -0.2735,0.3205 -0.49085,0.71424 -0.21736,0.39374 -2.04664,3.57087 -4.06509,7.0603 -2.01844,3.48942 -3.7207,6.47684 -3.78283,6.63871 -0.0858,0.22349 0.432,0.56492 2.15184,1.419 3.4655,1.72099 3.32788,1.68451 4.1782,1.10746 0.5105,-0.34644 0.97534,-0.49054 1.58236,-0.49054 0.89561,0 2.01885,0.53462 2.21897,1.05616 0.0598,0.15572 0.20013,0.28312 0.31194,0.28312 0.11183,0 1.65931,-0.66223 3.43884,-1.47161 z"
         style="opacity:0.39100001;fill:#000000"
         inkscape:connector-curvature="0" />
      <path
         id="path7417"
         d="m 459.48178,268.82357 c 0.19969,-0.52037 1.32696,-1.05192 2.2324,-1.05267 0.84034,-7.7e-4 1.57159,0.33399 2.01933,0.92423 0.17196,0.2267 0.67373,0.0225 2.96554,-1.20697 1.51719,-0.81392 2.82266,-1.53927 2.90101,-1.6119 0.0784,-0.0726 -1.54472,-3.01244 -3.60681,-6.53292 -2.06208,-3.52048 -3.98628,-6.81275 -4.27598,-7.31617 l -0.52676,-0.91529 -3.97567,6.84638 c -2.18662,3.76551 -4.14407,7.1274 -4.34988,7.47087 l -0.37417,0.62449 1.02172,0.46491 c 0.56194,0.2557 2.05487,0.93552 3.31762,1.5107 1.26274,0.57518 2.35127,1.05354 2.41892,1.06301 0.0677,0.009 0.17241,-0.11143 0.23273,-0.26867 z"
         style="opacity:0.39100001;fill:#000000"
         inkscape:connector-curvature="0" />
      <path
         id="path7415"
         d="m 402.64697,262.2541 c -0.0802,-0.91868 -0.0259,-1.1847 0.35437,-1.73858 0.24695,-0.35966 0.72687,-0.79015 1.06647,-0.95663 l 0.61746,-0.30269 0.004,-4.25698 0.004,-4.25699 -8.7053,0 c -4.78792,0 -8.70531,0.0333 -8.70531,0.074 0,0.0777 8.07448,14.25893 8.52853,14.97861 0.26252,0.41612 0.26364,0.4158 3.59617,-1.01993 l 3.33357,-1.43617 -0.0947,-1.08465 z"
         style="opacity:0.39100001;fill:#000000"
         inkscape:connector-curvature="0" />
      <path
         id="path7413"
         d="m 436.57504,264.33911 3.08662,-1.3935 -0.0134,-0.89345 c -0.017,-1.12435 0.45892,-1.95841 1.42819,-2.50318 l 0.73471,-0.41292 0,-4.20292 c 0,-3.18586 -0.0579,-4.22512 -0.23916,-4.29466 -0.13153,-0.0505 -4.00513,-0.0693 -8.60799,-0.0418 l -8.36884,0.0499 4.32297,7.60424 c 2.37764,4.18233 4.37864,7.57669 4.44667,7.54303 0.068,-0.0337 1.51268,-0.6883 3.21031,-1.45472 z"
         style="opacity:0.39100001;fill:#000000"
         inkscape:connector-curvature="0" />
      <path
         id="path7411"
         d="m 418.91309,258.29791 4.26022,-7.2687 -2.78244,-0.11879 c -1.53036,-0.0653 -5.51601,-0.12991 -8.85703,-0.14349 l -6.07458,-0.0247 0.008,4.16132 0.008,4.16133 0.91142,0.42668 c 1.02558,0.48014 1.75145,1.52238 1.75145,2.51484 0,0.57731 0.0849,0.63486 3.10903,2.10816 1.70997,0.83305 3.17585,1.50056 3.25753,1.48335 0.0817,-0.0172 2.06559,-3.30221 4.40871,-7.3 z"
         style="opacity:0.39100001;fill:#000000"
         inkscape:connector-curvature="0" />
      <path
         id="path7409"
         d="m 456.16282,258.34741 c 2.34871,-4.02501 4.30421,-7.38277 4.34556,-7.46169 0.0413,-0.0789 -3.97643,-0.14349 -8.92841,-0.14349 l -9.00358,0 0,4.18013 0,4.18014 0.73463,0.28857 c 1.0347,0.40644 1.75223,1.41284 1.80557,2.53247 l 0.0427,0.8958 3.15687,1.41273 c 1.73627,0.77701 3.25125,1.41742 3.3666,1.42314 0.11535,0.006 2.13138,-3.28279 4.48007,-7.3078 z"
         style="opacity:0.39100001;fill:#000000"
         inkscape:connector-curvature="0" />
      <path
         id="path7407"
         d="m 473.82761,263.68875 3.18734,-1.68986 0,-0.79736 c 0,-0.97756 0.5232,-1.88098 1.42542,-2.46548 l 0.67371,-0.43647 0.002,-3.76345 0.002,-3.76345 -1.19578,-0.12056 c -0.65768,-0.0663 -4.57559,-0.0947 -8.70645,-0.0631 l -7.51067,0.0575 4.33975,7.41854 c 2.38688,4.0802 4.39695,7.39491 4.46682,7.36603 0.0699,-0.0289 1.56137,-0.81295 3.31441,-1.74238 z"
         style="opacity:0.39100001;fill:#000000"
         inkscape:connector-curvature="0" />
      <path
         id="path7405"
         d="m 422.56848,249.95963 c 0.14125,-0.14149 -9.66165,-17.39331 -9.88328,-17.39331 -0.0892,0 -1.23548,0.452 -2.54738,1.00446 l -2.38528,1.00445 0.12446,0.57398 c 0.33557,1.54735 -0.21977,2.79659 -1.51681,3.41206 l -0.65125,0.30905 -0.12384,1.87029 c -0.0681,1.02866 -0.12431,3.57632 -0.12484,5.66147 l -0.002,3.79118 8.49824,-0.0603 c 4.67402,-0.0332 8.54897,-0.11117 8.61098,-0.1733 z"
         style="opacity:0.39100001;fill:#000000"
         inkscape:connector-curvature="0" />
      <path
         id="path7403"
         d="m 404.75876,246.10259 c 0.069,-2.13089 0.12574,-4.62653 0.12603,-5.54587 l 0,-1.67153 -0.64442,-0.26925 c -2.06471,-0.8627 -2.2899,-3.7354 -0.3853,-4.91488 0.77191,-0.47802 2.09921,-0.48172 2.81796,-0.008 l 0.54461,0.35907 1.75129,-0.76494 c 0.96319,-0.42072 2.12456,-0.92734 2.58077,-1.12584 l 0.82947,-0.3609 -0.71997,-1.29124 c -1.0773,-1.93204 -6.21949,-10.80621 -6.48896,-11.19831 -0.20332,-0.29586 -1.35288,1.62222 -8.7147,14.54072 -4.66426,8.18485 -8.64473,15.16136 -8.84548,15.50335 l -0.365,0.62181 8.69383,0 8.69385,0 0.12552,-3.87434 z"
         style="opacity:0.39100001;fill:#000000"
         inkscape:connector-curvature="0" />
      <path
         id="path7401"
         d="m 441.81108,244.83435 0,-5.14257 -0.58562,-0.24257 c -0.97907,-0.40555 -1.61462,-1.42622 -1.61462,-2.59305 l 0,-1.00139 -2.58065,-1.21374 c -1.41935,-0.66756 -2.65409,-1.21375 -2.74386,-1.21375 -0.0897,0 -2.24719,3.6591 -4.79429,8.13133 l -4.63108,8.13133 1.63518,0.10734 c 0.89934,0.059 4.71313,0.12361 8.47506,0.14349 l 6.83988,0.0361 0,-5.14257 z"
         style="opacity:0.39100001;fill:#000000"
         inkscape:connector-curvature="0" />
      <path
         id="path7399"
         d="m 459.93044,249.83343 c -0.36118,-0.65494 -9.96382,-17.56906 -10.00247,-17.6184 -0.0277,-0.0354 -1.34324,0.51873 -2.92342,1.23131 l -2.87303,1.29561 0.40082,0.56289 c 0.22045,0.3096 0.43785,0.96086 0.4831,1.44725 0.10498,1.12832 -0.47602,2.06347 -1.61926,2.60628 l -0.80592,0.38265 -0.007,5.11795 -0.007,5.11795 8.71659,0 c 4.79414,0 8.68099,-0.0646 8.63746,-0.14349 z"
         style="opacity:0.39100001;fill:#000000"
         inkscape:connector-curvature="0" />
      <path
         id="path7397"
         d="m 465.91808,241.63946 c 2.68334,-4.58502 4.90266,-8.40155 4.93182,-8.48118 0.0535,-0.14615 -8.54261,-4.03582 -8.9191,-4.03582 -0.11158,0 -0.27172,0.11873 -0.35586,0.26384 -0.26619,0.45903 -1.46875,1.07398 -2.10163,1.07472 -0.86493,9.6e-4 -1.53111,-0.29357 -2.12693,-0.94056 l -0.51625,-0.56057 -2.99811,1.37273 c -1.64896,0.755 -3.0578,1.43273 -3.13075,1.50607 -0.13164,0.13229 10.02508,18.13873 10.23076,18.13769 0.059,-3.8e-4 2.30271,-3.75191 4.98605,-8.33692 z"
         style="opacity:0.39100001;fill:#000000"
         inkscape:connector-curvature="0" />
      <path
         id="path7395"
         d="m 472.37531,249.78659 6.74422,-9.6e-4 0,-5.42832 0,-5.42832 -0.71747,-0.11496 c -1.29336,-0.20723 -2.34373,-1.49911 -2.34373,-2.88258 0,-0.61713 -0.038,-0.64465 -2.23013,-1.61581 -1.22657,-0.54339 -2.25054,-0.96556 -2.27549,-0.93816 -0.12913,0.14186 -9.65246,16.48364 -9.65246,16.56336 0,0.0516 0.83944,0.0382 1.86542,-0.0297 1.02598,-0.0679 4.90032,-0.12397 8.60964,-0.12452 z"
         style="opacity:0.39100001;fill:#000000"
         inkscape:connector-curvature="0" />
      <path
         id="path7393"
         d="m 428.60229,241.48302 c 2.67249,-4.56642 4.8477,-8.36311 4.83383,-8.43709 -0.014,-0.074 -1.75793,-0.96938 -3.87564,-1.98976 l -3.85038,-1.85525 -0.65156,0.61449 c -1.17497,1.10814 -2.52571,1.07484 -3.69092,-0.091 l -0.69799,-0.69836 -3.58259,1.53097 c -1.97044,0.84203 -3.58475,1.58538 -3.58735,1.65188 -0.003,0.0665 1.89919,3.46731 4.22626,7.55735 5.45798,9.59292 5.70806,10.01933 5.87601,10.01933 0.0777,0 2.32782,-3.73616 5.00033,-8.30258 z"
         style="opacity:0.39100001;fill:#000000"
         inkscape:connector-curvature="0" />
      <path
         id="path7391"
         d="m 497.95538,249.57225 c 0.0898,-0.09 -16.8616,-28.26713 -17.97444,-29.87759 -0.20472,-0.29626 -0.73115,0.50899 -4.10544,6.27999 -2.12884,3.6409 -3.83286,6.65759 -3.78672,6.70374 0.0461,0.0462 1.02275,0.50604 2.17023,1.02198 l 2.08631,0.93806 0.47831,-0.4387 c 1.05443,-0.96711 2.31375,-1.14742 3.39777,-0.48649 1.71033,1.0428 1.82264,3.46406 0.21382,4.60964 l -0.55039,0.39191 0,5.54257 0,5.54257 8.97651,-0.055 c 4.93708,-0.0302 9.02941,-0.10795 9.09404,-0.17268 z"
         style="opacity:0.39100001;fill:#000000"
         inkscape:connector-curvature="0" />
      <path
         id="path7389"
         d="m 440.83724,234.6451 c 0.81145,-0.50442 1.09248,-0.58265 1.76777,-0.49207 0.70367,0.0944 1.17141,-0.0587 3.78319,-1.23809 1.63912,-0.74018 3.00888,-1.37248 3.04389,-1.40511 0.035,-0.0326 -1.29313,-2.41269 -2.9514,-5.28901 -1.65828,-2.87633 -3.22604,-5.60192 -3.48389,-6.05687 -0.33434,-0.58989 -0.52784,-0.76819 -0.67449,-0.62153 -0.11312,0.11311 -1.90046,3.10472 -3.97186,6.64801 l -3.76622,6.44236 2.60897,1.29122 c 1.43494,0.71017 2.62477,1.29789 2.64409,1.30604 0.0193,0.008 0.46929,-0.25507 0.99995,-0.58495 z"
         style="opacity:0.39100001;fill:#000000"
         inkscape:connector-curvature="0" />
      <path
         id="path7387"
         d="m 437.92869,225.56432 3.81589,-6.52369 -3.72836,-0.12487 c -3.93757,-0.13187 -32.17431,-0.17699 -32.17431,-0.0514 0,0.11368 6.9246,12.24359 7.10491,12.44576 0.0954,0.10694 1.64421,-0.46133 3.85614,-1.41481 l 3.69673,-1.59354 0.018,-0.63629 c 0.01,-0.34995 0.19287,-0.91864 0.40656,-1.26374 1.42917,-2.30801 5.05895,-1.31297 5.05895,1.38681 l 0,0.71895 3.94393,1.90823 c 2.16915,1.04953 3.9983,1.85514 4.06476,1.79026 0.0665,-0.0649 1.83803,-3.05363 3.93675,-6.64166 z"
         style="opacity:0.39100001;fill:#000000"
         inkscape:connector-curvature="0" />
      <path
         id="path7385"
         d="m 475.24175,225.72147 3.8709,-6.64359 -17.91313,-0.14774 c -9.85221,-0.0813 -17.94793,-0.11293 -17.99048,-0.0704 -0.0553,0.0553 6.64125,11.99188 6.90618,12.31036 0.0178,0.0213 1.4817,-0.62441 3.25328,-1.43494 l 3.22105,-1.47368 0.0636,-0.7208 c 0.035,-0.39645 0.21639,-0.97943 0.4031,-1.29551 0.36054,-0.61033 1.62154,-1.33188 2.32765,-1.33188 1.34234,0 2.72363,1.33225 2.74175,2.64436 l 0.0105,0.75972 4.52169,2.0183 c 2.48694,1.11007 4.56476,2.02079 4.61737,2.02383 0.0526,0.003 1.83757,-2.98408 3.96656,-6.63805 z"
         style="opacity:0.39100001;fill:#000000"
         inkscape:connector-curvature="0" />
    </g>
    <g
       id="g7623">
      <path
         id="path7383"
         d="m 580.52889,315.41718 -4.29789,-0.10265 -4.56489,-7.98783 -4.56489,-7.98784 -9.1218,-0.003 c -5.01698,-0.002 -9.29398,-0.0509 -9.50444,-0.10988 -0.26257,-0.0736 -1.82358,-2.63423 -4.97446,-8.15995 -2.52549,-4.42897 -4.61716,-8.15489 -4.64815,-8.27983 -0.031,-0.12494 1.96229,-3.68848 4.42955,-7.91898 l 4.48589,-7.69182 -4.59642,-8.04154 c -3.98158,-6.96584 -4.56973,-8.09696 -4.39685,-8.45593 0.10976,-0.22792 2.25781,-3.93434 4.77341,-8.23648 l 4.57385,-7.82207 9.25923,-0.0223 9.25923,-0.0223 4.64014,-7.94 c 2.55207,-4.367 4.66598,-8.01106 4.69759,-8.09792 0.0316,-0.0868 4.37798,-0.0954 9.65862,-0.0189 l 9.60115,0.13899 4.62458,8.10242 4.6246,8.10242 9.21418,0 9.21419,0 4.25835,7.45321 c 2.34209,4.09927 4.46796,7.82827 4.72417,8.28669 l 0.46583,0.83347 -4.51908,7.73681 c -2.48551,4.25525 -4.51805,7.82291 -4.51677,7.92814 0.002,0.10523 2.07959,3.81773 4.6185,8.24999 2.5389,4.43226 4.61618,8.19317 4.61618,8.35757 0,0.1644 -2.10056,3.89924 -4.66792,8.29965 l -4.66792,8.00075 -9.39662,0.0957 -9.39662,0.0957 -4.47397,7.65301 -4.47397,7.65301 -5.32933,0.007 c -2.93113,0.004 -7.26338,-0.0392 -9.62725,-0.0957 z"
         style="opacity:0.39100001;fill:#000000"
         inkscape:connector-curvature="0" />
      <path
         id="path7381"
         d="m 599.47674,307.24311 4.37629,-7.49744 -2.32222,-4.07774 c -1.27723,-2.24276 -2.3444,-4.10698 -2.37149,-4.14271 -0.0271,-0.0357 -2.16506,1.08353 -4.75105,2.48723 l -4.7018,2.5522 0.1119,0.77939 c 0.23445,1.63315 -1.08124,3.20655 -2.68135,3.20655 -1.44299,0 -2.78736,-1.19759 -2.78939,-2.48486 0,-0.52093 -0.25802,-0.67675 -5.95205,-3.60566 -3.27318,-1.68367 -6.01786,-3.08657 -6.09928,-3.11756 -0.0814,-0.031 -1.14905,1.65748 -2.37242,3.75217 l -2.22433,3.80853 4.5458,7.96569 4.54579,7.96569 9.15465,-0.047 9.15467,-0.047 4.37628,-7.49744 z"
         style="opacity:0.39100001;fill:#000000"
         inkscape:connector-curvature="0" />
      <path
         id="path7379"
         d="m 627.20538,291.77514 c 2.47288,-4.25704 4.52098,-7.85412 4.55132,-7.99351 0.0304,-0.13939 -1.95963,-3.77747 -4.4222,-8.08461 l -4.47737,-7.83118 -3.46998,-0.0521 -3.46997,-0.0521 0.005,6.17456 0.005,6.17456 0.7243,0.33335 c 0.80768,0.37171 1.56173,1.50268 1.56173,2.34234 0,0.81025 -0.56303,1.79922 -1.31538,2.31045 -1.17636,0.79936 -2.74049,0.53869 -3.64159,-0.6069 l -0.39897,-0.50719 -1.20893,0.64686 c -6.87574,3.67902 -11.79165,6.42132 -11.79178,6.57796 -8e-5,0.10523 1.01262,1.9563 2.25046,4.11349 l 2.25064,3.92217 5.34934,0.10023 c 2.94215,0.0551 7.07127,0.11632 9.17585,0.136 l 3.82651,0.0358 4.49615,-7.74007 z"
         style="opacity:0.39100001;fill:#000000"
         inkscape:connector-curvature="0" />
      <path
         id="path7377"
         d="m 569.18401,294.69233 c 1.21239,-2.08207 2.17158,-3.81432 2.13151,-3.84946 -0.04,-0.0351 -2.63679,-1.37491 -5.77052,-2.97727 -4.82642,-2.46787 -5.74319,-2.87566 -5.99503,-2.66664 -0.49674,0.41225 -2.02748,0.30664 -2.72183,-0.18779 -1.64182,-1.16907 -1.56288,-3.66532 0.14774,-4.67224 l 0.58731,-0.3457 -0.10198,-4.53309 c -0.0561,-2.4932 -0.15053,-5.41558 -0.20986,-6.49417 l -0.10789,-1.96109 -4.23857,0.008 -4.23858,0.008 -4.55666,7.84607 -4.55665,7.84608 4.5498,7.93236 4.54979,7.93236 9.16353,-0.0496 9.16353,-0.0497 2.20436,-3.78557 z"
         style="opacity:0.39100001;fill:#000000"
         inkscape:connector-curvature="0" />
      <path
         id="path7375"
         d="m 584.90253,296.12357 c 0.10169,-0.18998 0.49215,-0.5109 0.8677,-0.71315 l 0.68284,-0.36773 0,-5.85818 0,-5.85817 -2.32594,-0.12507 c -1.27928,-0.0688 -3.42229,-0.12506 -4.76228,-0.12506 l -2.43632,0 -2.13154,3.66097 c -1.17236,2.01353 -2.08123,3.71128 -2.01974,3.77277 0.22416,0.22416 11.48241,5.94974 11.708,5.95432 0.12785,0.003 0.31561,-0.15072 0.41728,-0.3407 z"
         style="opacity:0.39100001;fill:#000000"
         inkscape:connector-curvature="0" />
      <path
         id="path7373"
         d="m 593.96958,293.22722 4.71372,-2.57212 -0.35302,-0.58474 c -1.23592,-2.04719 -3.65022,-6.40222 -3.65022,-6.58444 0,-0.15597 -1.03903,-0.21839 -3.63518,-0.21839 l -3.63518,0 0,5.93109 c 0,5.51948 0.0232,5.93138 0.33482,5.93534 0.18415,0.002 0.55006,0.17249 0.81313,0.37812 0.26307,0.20563 0.52779,0.35438 0.58827,0.33057 0.0605,-0.0238 2.23112,-1.20076 4.82366,-2.61543 z"
         style="opacity:0.39100001;fill:#000000"
         inkscape:connector-curvature="0" />
      <path
         id="path7371"
         d="m 606.59007,286.32994 c 5.61909,-3.05265 6.07458,-3.33821 6.07458,-3.80832 0,-0.27952 0.13793,-0.70514 0.3065,-0.94581 0.16858,-0.24068 0.2762,-0.46165 0.23916,-0.49105 -0.25125,-0.19939 -12.63915,-6.44801 -12.68066,-6.39628 -0.1559,0.19422 -4.93333,8.46165 -5.0196,8.68646 -0.0976,0.25432 0.37389,1.1467 2.7518,5.20826 l 1.03985,1.77614 0.6069,-0.36465 c 0.33379,-0.20056 3.34045,-1.8497 6.68147,-3.66475 z"
         style="opacity:0.39100001;fill:#000000"
         inkscape:connector-curvature="0" />
      <path
         id="path7369"
         d="m 574.00475,286.42794 c 1.9048,-3.26474 2.08673,-3.657 1.86032,-4.01131 -0.138,-0.21599 -1.09542,-1.87994 -2.12754,-3.69767 -1.03214,-1.81773 -1.9475,-3.34878 -2.03415,-3.40233 -0.0866,-0.0535 -2.52848,1.34759 -5.42631,3.11364 l -5.26878,3.211 0.11103,0.71327 c 0.0733,0.47066 0.005,0.9253 -0.19996,1.33665 -0.17104,0.34286 -0.24287,0.6507 -0.1596,0.68409 0.0833,0.0334 2.60512,1.33229 5.60415,2.88646 2.99902,1.55416 5.47007,2.81653 5.49119,2.80527 0.0211,-0.0113 0.98848,-1.64885 2.14965,-3.63907 z"
         style="opacity:0.39100001;fill:#000000"
         inkscape:connector-curvature="0" />
      <path
         id="path7367"
         d="m 586.45307,275.44711 0,-7.05512 -0.59008,-0.11802 c -0.32453,-0.0649 -0.8215,-0.28281 -1.10437,-0.48422 l -0.51428,-0.36621 -5.73552,3.52982 c -3.15453,1.94141 -5.85222,3.59917 -5.99485,3.68392 -0.19912,0.1183 0.19446,0.94951 1.69466,3.57904 1.07471,1.88372 2.0759,3.61867 2.22485,3.85543 0.26931,0.42808 0.29808,0.43048 5.14522,0.43048 l 4.87437,0 0,-7.05512 z"
         style="opacity:0.39100001;fill:#000000"
         inkscape:connector-curvature="0" />
      <path
         id="path7365"
         d="m 597.52945,278.46527 c 1.40839,-2.41463 2.28495,-4.10669 2.18117,-4.21046 -0.3291,-0.32911 -12.01252,-6.25764 -12.15655,-6.16862 -0.0794,0.0491 -0.14437,3.31276 -0.14437,7.25263 l 0,7.16341 3.88255,0 3.88254,0 2.35466,-4.03696 z"
         style="opacity:0.39100001;fill:#000000"
         inkscape:connector-curvature="0" />
      <path
         id="path7363"
         d="m 566.07692,277.52796 c 2.63072,-1.6082 4.86049,-2.99351 4.95502,-3.07848 0.0972,-0.0873 -0.73015,-1.73896 -1.90321,-3.79954 l -2.07508,-3.64506 -4.45248,0 -4.45249,0 0.0953,3.77868 c 0.20556,8.14865 0.28177,9.23144 0.64982,9.23144 0.18396,0 0.62701,0.20416 0.98456,0.45368 0.54903,0.38314 0.70959,0.4171 1.03275,0.21847 0.21046,-0.12935 2.53507,-1.55099 5.16579,-3.15919 z"
         style="opacity:0.39100001;fill:#000000"
         inkscape:connector-curvature="0" />
      <path
         id="path7361"
         d="m 614.46979,280.21106 0.49076,-0.18659 0,-6.12714 0,-6.12715 -5.21361,0.005 -5.21362,0.005 -1.74768,3.00884 -1.74768,3.00884 0.79105,0.4151 c 4.13931,2.17209 11.9154,6.16756 12.01897,6.17553 0.0721,0.006 0.35188,-0.0739 0.62181,-0.1765 z"
         style="opacity:0.39100001;fill:#000000"
         inkscape:connector-curvature="0" />
      <path
         id="path7359"
         d="m 577.76384,270.34942 c 3.0428,-1.86352 5.62122,-3.45946 5.72981,-3.54652 0.1086,-0.0871 0.16554,-0.48619 0.12653,-0.88695 l -0.0709,-0.72866 -5.70442,-2.91747 -5.70445,-2.91747 -2.15468,3.68277 c -1.18509,2.02553 -2.15157,3.76887 -2.14775,3.8741 0.017,0.46901 3.94477,7.00063 4.16011,6.918 0.12838,-0.0493 2.72298,-1.61427 5.76578,-3.4778 z"
         style="opacity:0.39100001;fill:#000000"
         inkscape:connector-curvature="0" />
      <path
         id="path7357"
         d="m 602.30538,270.29562 1.71605,-2.92733 -2.153,-3.76906 c -1.18414,-2.07298 -2.2335,-3.91758 -2.33188,-4.09911 -0.15635,-0.28846 -0.81573,0.0612 -5.23223,2.77422 -4.70109,2.88788 -5.06538,3.15094 -5.22594,3.7739 -0.0949,0.3683 -0.26449,0.78091 -0.37681,0.91691 -0.13056,0.15807 -0.13793,0.31356 -0.0205,0.43104 0.37833,0.37832 11.64852,6.07749 11.77562,5.95476 0.0729,-0.0704 0.90482,-1.4453 1.84865,-3.05533 z"
         style="opacity:0.39100001;fill:#000000"
         inkscape:connector-curvature="0" />
      <path
         id="path7355"
         d="m 614.96055,260.21282 0,-6.98337 -0.81313,-0.001 c -0.85916,-0.001 -1.58293,-0.37152 -2.1874,-1.11881 l -0.36434,-0.45042 -5.5401,3.39265 c -3.04705,1.86596 -5.65852,3.50313 -5.80328,3.63816 -0.22054,0.20572 0.10609,0.89155 2.01567,4.23247 l 2.27884,3.98697 2.00218,0.10604 c 1.10119,0.0583 3.44428,0.1229 5.20686,0.1435 l 3.2047,0.0375 0,-6.98338 z"
         style="opacity:0.39100001;fill:#000000"
         inkscape:connector-curvature="0" />
      <path
         id="path7353"
         d="m 626.92882,259.30772 4.59994,-7.88848 -4.49944,-7.87393 -4.49944,-7.87394 -8.61563,-0.13883 c -4.73859,-0.0764 -8.82957,-0.10775 -9.09105,-0.0698 -0.3877,0.0563 -0.79106,0.61148 -2.18574,3.00836 -1.35789,2.33366 -1.65414,2.97204 -1.43781,3.0982 0.14984,0.0874 2.72621,1.66091 5.72524,3.49669 4.87903,2.98657 5.49333,3.31246 5.83824,3.09714 1.04195,-0.65052 2.6598,-0.4795 3.39558,0.35895 1.01741,1.15937 1.09949,2.53208 0.22068,3.6901 l -0.46221,0.60904 0,7.18747 0,7.18747 3.20583,0 3.20585,0 4.59996,-7.88848 z"
         style="opacity:0.39100001;fill:#000000"
         inkscape:connector-curvature="0" />
      <path
         id="path7351"
         d="m 557.11484,262.18401 c -0.0692,-2.22299 -0.12588,-5.13411 -0.12588,-6.46916 l 0,-2.42736 -0.73463,-0.28857 c -2.85828,-1.12277 -2.10039,-5.31791 0.96074,-5.31791 0.8108,0 1.53927,0.33032 2.01246,0.91252 0.19528,0.24028 1.03979,-0.2121 5.6441,-3.0233 2.97794,-1.81823 5.47535,-3.35768 5.54979,-3.421 0.0745,-0.0633 -0.70821,-1.57815 -1.73922,-3.36626 l -1.87457,-3.25112 -2.18295,-0.11832 c -1.20062,-0.0651 -5.29334,-0.12965 -9.09492,-0.1435 l -6.91197,-0.0252 -1.04846,1.76976 c -0.57668,0.97337 -2.65566,4.53301 -4.61999,7.91032 l -3.57149,6.14055 4.13754,7.25222 c 2.27566,3.98872 4.24572,7.42441 4.37793,7.63487 0.23104,0.36781 0.41701,0.38053 4.79388,0.32794 l 4.55351,-0.0547 -0.12587,-4.0418 z"
         style="opacity:0.39100001;fill:#000000"
         inkscape:connector-curvature="0" />
      <path
         id="path7349"
         d="m 569.26769,262.60439 c 1.81392,-3.10929 2.02784,-3.5672 1.75989,-3.76723 -0.56208,-0.41962 -11.91108,-6.18177 -12.16334,-6.17561 -0.13695,0.003 -0.40928,0.12748 -0.60516,0.27585 -0.40242,0.30481 -0.42689,1.4945 -0.19001,9.2399 l 0.12446,4.06906 4.50462,-0.0512 4.50462,-0.0512 2.06492,-3.53952 z"
         style="opacity:0.39100001;fill:#000000"
         inkscape:connector-curvature="0" />
      <path
         id="path7347"
         d="m 596.27828,260.00218 c 1.35256,-0.83121 2.45547,-1.59738 2.45096,-1.70261 -0.005,-0.10523 -0.85287,-1.67577 -1.88521,-3.49008 l -1.87698,-3.29876 -4.16132,-0.002 -4.16133,-0.002 0,5.60566 0,5.60566 0.66924,0.242 c 0.36807,0.1331 0.89006,0.53152 1.15996,0.88538 l 0.49073,0.64339 2.42739,-1.48807 c 1.33507,-0.81844 3.53401,-2.16815 4.88656,-2.99936 z"
         style="opacity:0.39100001;fill:#000000"
         inkscape:connector-curvature="0" />
      <path
         id="path7345"
         d="m 584.19436,263.84418 c 0.20858,-0.26518 0.62994,-0.61177 0.93633,-0.77022 l 0.55708,-0.28807 0,-5.64265 0,-5.64265 -4.51518,0.0513 -4.51519,0.0513 -1.99959,3.42458 c -1.09976,1.88352 -1.93065,3.49118 -1.84637,3.57257 0.13238,0.12788 10.75147,5.67472 10.93555,5.71214 0.0375,0.008 0.23879,-0.20312 0.44737,-0.46829 z"
         style="opacity:0.39100001;fill:#000000"
         inkscape:connector-curvature="0" />
      <path
         id="path7343"
         d="m 573.9862,254.52761 c 0.96395,-1.65366 1.75265,-3.09815 1.75265,-3.20997 0,-0.15651 -4.44701,-8.09935 -4.69618,-8.38788 -0.0303,-0.0351 -2.54564,1.46532 -5.58966,3.33423 l -5.53459,3.39801 -0.0126,0.83463 c -0.007,0.45905 -0.10535,0.94635 -0.21867,1.0829 -0.16188,0.19504 1.11525,0.92762 5.95718,3.41712 5.44851,2.80137 6.18793,3.13224 6.37623,2.85323 0.11713,-0.17359 1.00168,-1.66861 1.96564,-3.32227 z"
         style="opacity:0.39100001;fill:#000000"
         inkscape:connector-curvature="0" />
      <path
         id="path7341"
         d="m 606.22443,253.90221 c 4.65609,-2.85879 5.29261,-3.30727 5.2952,-3.73084 0.002,-0.26479 0.0808,-0.60448 0.17596,-0.75487 0.1359,-0.21474 -1.00425,-0.99064 -5.31221,-3.61507 -3.01688,-1.83791 -5.61044,-3.3507 -5.76347,-3.36176 -0.22102,-0.016 -3.5552,5.3504 -5.00071,8.04864 -0.2305,0.43029 -0.10922,0.67311 3.11505,6.23713 l 0.75086,1.29576 0.72351,-0.43479 c 0.39794,-0.23914 3.10504,-1.89703 6.01581,-3.6842 z"
         style="opacity:0.39100001;fill:#000000"
         inkscape:connector-curvature="0" />
      <path
         id="path7339"
         d="m 585.68777,243.48475 0,-7.4488 -0.43048,-0.13366 c -0.23677,-0.0735 -0.66815,-0.30105 -0.95864,-0.50566 l -0.52813,-0.372 -6.02436,3.69747 c -3.31337,2.0336 -6.02218,3.78356 -6.01954,3.88879 0.003,0.10523 1.01759,1.9563 2.25541,4.11349 l 2.25057,3.92217 4.67975,0.1008 c 2.57388,0.0554 4.70128,0.12002 4.72759,0.1435 0.0263,0.0235 0.0478,-3.30927 0.0478,-7.4061 z"
         style="opacity:0.39100001;fill:#000000"
         inkscape:connector-curvature="0" />
      <path
         id="path7337"
         d="m 597.16729,246.49769 c 1.4206,-2.43735 2.60612,-4.48626 2.6345,-4.55312 0.0284,-0.0669 -2.53223,-1.69271 -5.69025,-3.61299 l -5.74185,-3.4914 -0.64155,0.48933 c -0.35286,0.26913 -0.74104,0.48933 -0.86265,0.48933 -0.1635,0 -0.22109,1.96824 -0.22109,7.55735 l 0,7.55735 3.97,-0.002 3.97,-0.002 2.58289,-4.43155 z"
         style="opacity:0.39100001;fill:#000000"
         inkscape:connector-curvature="0" />
      <path
         id="path7333"
         d="m 577.36778,237.88849 5.9783,-3.67011 -0.0944,-0.70373 c -0.19997,-1.49086 0.98891,-2.85976 2.60402,-2.99834 1.55163,-0.13314 2.89094,1.12608 2.89265,2.71964 l 0,0.7653 5.66753,3.44385 c 3.11715,1.89413 5.74518,3.44386 5.84006,3.44386 0.0949,0 0.93253,-1.30205 1.86146,-2.89345 l 1.68894,-2.89344 -4.54191,-7.91644 -4.54191,-7.91643 -9.15329,0 -9.1533,0 -4.36822,7.46169 c -2.40252,4.10392 -4.45724,7.64276 -4.56602,7.86408 -0.16739,0.34052 0.0907,0.90685 1.67853,3.68302 1.03199,1.80433 1.95556,3.28061 2.05239,3.28061 0.0968,0 2.86626,-1.65155 6.15434,-3.67011 z"
         style="opacity:0.39100001;fill:#000000"
         inkscape:connector-curvature="0" />
    </g>
  </g>
</svg>
